<?xml version="1.0" standalone="no"?>
<!DOCTYPE svg PUBLIC "-//W3C//DTD SVG 1.1//EN" "http://www.w3.org/Graphics/SVG/1.1/DTD/svg11.dtd" >
<svg xmlns="http://www.w3.org/2000/svg" xmlns:xlink="http://www.w3.org/1999/xlink" version="1.1">
<metadata>
Created by FontForge 20190801 at Wed Jul  7 06:04:56 2010
 By Unknown
Copyright (c) 2010 Village Type and Design LLC. All rights reserved.
</metadata>
<defs>
<font id="ApexRounded-Book" horiz-adv-x="570" >
  <font-face 
    font-family="Apex Rounded Book"
    font-weight="590"
    font-stretch="normal"
    units-per-em="1000"
    panose-1="0 0 0 0 0 0 0 0 0 0"
    ascent="750"
    descent="-250"
    x-height="500"
    cap-height="750"
    bbox="-64.2524 -270 1322 921"
    underline-thickness="50"
    underline-position="-100"
    unicode-range="U+0020-F778"
  />
<missing-glyph horiz-adv-x="880" 
d="M65 0v750h750v-750h-750zM181 684l259 -259l259 259h-518zM440 325l-259 -259h518zM490 375l254 -254v508zM390 375l-254 254v-508z" />
    <glyph glyph-name="interrobang" unicode="&#x21;&#x3f;" horiz-adv-x="470" 
d="M206 335l-6 -107c-1 -12 -8 -18 -19 -18h-4c-11 0 -18 6 -19 18l-26 468c-32 -3 -58 -8 -77 -12c-21 -5 -30 7 -30 20v10c0 11 4 22 22 28c26 9 89 18 132 18c210 0 246 -96 246 -198c0 -126 -73 -163 -184 -208c-14 -6 -26 -12 -35 -19zM358 561c0 73 -24 124 -132 135
l-17 -296c6 2 12 4 18 7c66 25 131 50 131 154zM129 40c0 28 22 50 50 50s50 -22 50 -50s-22 -50 -50 -50s-50 22 -50 50z" />
    <glyph glyph-name="interrobangdown" unicode="&#xa1;&#xbf;" horiz-adv-x="470" 
d="M264 165l6 107c1 12 8 18 19 18h4c11 0 18 -6 19 -18l26 -468c31 3 58 8 77 12c21 5 30 -7 30 -20v-10c0 -11 -4 -22 -22 -28c-26 -9 -89 -18 -132 -18c-210 0 -246 96 -246 198c0 126 73 163 184 208c14 6 26 12 35 19zM112 -61c0 -73 24 -124 132 -135l17 296
c-6 -2 -12 -4 -18 -7c-66 -25 -131 -50 -131 -154zM341 460c0 -28 -22 -50 -50 -50s-50 22 -50 50s22 50 50 50s50 -22 50 -50z" />
    <glyph glyph-name="fi" unicode="fi" horiz-adv-x="615" 
d="M120 503v107c0 96 55 150 180 150c17 0 32 -1 46 -3c20 -3 24 -17 24 -27v-12c0 -13 -9 -25 -32 -22c-8 1 -17 2 -38 2c-65 0 -113 -23 -113 -88v-110h131c17 0 27 -9 27 -26v-3c0 -17 -10 -26 -27 -26h-131v-413c0 -20 -10 -32 -30 -32h-7c-20 0 -30 12 -30 32v413h-82
c-11 0 -22 5 -22 18c0 12 7 17 22 21zM440 650c0 28 22 50 50 50s50 -22 50 -50s-22 -50 -50 -50s-50 22 -50 50zM524 468v-393c0 -18 6 -25 23 -27c16 -2 23 -9 23 -24v-6c0 -15 -8 -24 -28 -24c-63 0 -86 37 -86 82v392c0 20 10 32 30 32h8c20 0 30 -12 30 -32z" />
    <glyph glyph-name="fl" unicode="fl" horiz-adv-x="615" 
d="M120 503v107c0 96 55 150 180 150c17 0 32 -1 46 -3c20 -3 24 -17 24 -27v-12c0 -13 -9 -25 -32 -22c-8 1 -17 2 -38 2c-65 0 -113 -23 -113 -88v-110h131c17 0 27 -9 27 -26v-3c0 -17 -10 -26 -27 -26h-131v-413c0 -20 -10 -32 -30 -32h-7c-20 0 -30 12 -30 32v413h-82
c-11 0 -22 5 -22 18c0 12 7 17 22 21zM524 718v-643c0 -18 6 -25 23 -27c16 -2 23 -9 23 -24v-6c0 -15 -8 -24 -28 -24c-63 0 -86 37 -86 82v642c0 20 10 32 30 32h8c20 0 30 -12 30 -32z" />
    <glyph glyph-name="f_dotlessi" unicode="f&#x131;" horiz-adv-x="615" 
d="M120 503v107c0 96 55 150 180 150c17 0 32 -1 46 -3c20 -3 24 -17 24 -27v-12c0 -13 -9 -25 -32 -22c-8 1 -17 2 -38 2c-65 0 -113 -23 -113 -88v-110h131c17 0 27 -9 27 -26v-3c0 -17 -10 -26 -27 -26h-131v-413c0 -20 -10 -32 -30 -32h-7c-20 0 -30 12 -30 32v413h-82
c-11 0 -22 5 -22 18c0 12 7 17 22 21zM524 468v-393c0 -18 6 -25 23 -27c16 -2 23 -9 23 -24v-6c0 -15 -8 -24 -28 -24c-63 0 -86 37 -86 82v392c0 20 10 32 30 32h8c20 0 30 -12 30 -32z" />
    <glyph glyph-name=".notdef" horiz-adv-x="880" 
d="M65 0v750h750v-750h-750zM181 684l259 -259l259 259h-518zM440 325l-259 -259h518zM490 375l254 -254v508zM390 375l-254 254v-508z" />
    <glyph glyph-name="A" unicode="A" horiz-adv-x="630" 
d="M26 32l255 702c6 18 13 26 31 26h6c18 0 25 -8 31 -26l255 -702c8 -21 -6 -32 -20 -32h-20c-21 0 -30 12 -35 27l-63 183h-302l-63 -183c-5 -15 -14 -27 -35 -27h-20c-14 0 -28 11 -20 32zM315 646l-130 -377h260z" />
    <glyph glyph-name="B" unicode="B" horiz-adv-x="615" 
d="M105 0c-20 0 -30 12 -30 32v686c0 20 10 32 30 32h207c175 0 233 -89 233 -198c0 -65 -33 -128 -98 -156c86 -23 123 -105 123 -185c0 -117 -64 -211 -251 -211h-214zM143 359v-296h185c141 0 168 76 168 148c0 101 -43 148 -166 148h-187zM471 552
c0 66 -22 135 -149 135h-179v-265h187c113 0 141 66 141 130z" />
    <glyph glyph-name="C" unicode="C" horiz-adv-x="610" 
d="M60 375c0 213 71 385 295 385c92 0 147 -17 169 -25c20 -7 26 -20 26 -34v-14c0 -11 -9 -25 -31 -17c-39 14 -88 27 -164 27c-164 0 -223 -141 -223 -322s59 -322 223 -322c76 0 125 13 164 27c22 8 31 -6 31 -17v-14c0 -14 -6 -27 -26 -34c-22 -8 -77 -25 -169 -25
c-224 0 -295 172 -295 385z" />
    <glyph glyph-name="D" unicode="D" horiz-adv-x="655" 
d="M279 0h-174c-20 0 -30 12 -30 32v686c0 20 10 32 30 32h174c245 0 316 -162 316 -375s-71 -375 -316 -375zM143 687v-624h140c180 0 240 132 240 312s-60 312 -240 312h-140z" />
    <glyph glyph-name="E" unicode="E" 
d="M143 687v-265h302c19 0 30 -10 30 -29v-5c0 -19 -11 -29 -30 -29h-302v-296h337c19 0 30 -10 30 -29v-5c0 -19 -11 -29 -30 -29h-375c-20 0 -30 12 -30 32v686c0 20 10 32 30 32h375c19 0 30 -10 30 -29v-5c0 -19 -11 -29 -30 -29h-337z" />
    <glyph glyph-name="F" unicode="F" horiz-adv-x="550" 
d="M435 359h-292v-327c0 -20 -10 -32 -30 -32h-8c-20 0 -30 12 -30 32v686c0 20 10 32 30 32h365c19 0 30 -10 30 -29v-5c0 -19 -11 -29 -30 -29h-327v-265h292c19 0 30 -10 30 -29v-5c0 -19 -11 -29 -30 -29z" />
    <glyph glyph-name="G" unicode="G" horiz-adv-x="660" 
d="M390 394h165c20 0 30 -12 30 -32v-309c0 -12 -6 -26 -26 -33c-33 -12 -100 -30 -204 -30c-224 0 -295 172 -295 385s71 385 295 385c96 0 151 -18 184 -30c20 -7 26 -21 26 -33v-17c0 -13 -10 -26 -31 -18c-40 16 -97 35 -179 35c-164 0 -223 -141 -223 -322
s59 -322 223 -322c57 0 127 5 162 22v256h-127c-19 0 -30 10 -30 29v5c0 19 11 29 30 29z" />
    <glyph glyph-name="H" unicode="H" horiz-adv-x="660" 
d="M517 32v327h-374v-327c0 -20 -10 -32 -30 -32h-8c-20 0 -30 12 -30 32v686c0 20 10 32 30 32h8c20 0 30 -12 30 -32v-296h374v296c0 20 10 32 30 32h8c20 0 30 -12 30 -32v-686c0 -20 -10 -32 -30 -32h-8c-20 0 -30 12 -30 32z" />
    <glyph glyph-name="I" unicode="I" horiz-adv-x="260" 
d="M165 718v-686c0 -20 -10 -32 -30 -32h-10c-20 0 -30 12 -30 32v686c0 20 10 32 30 32h10c20 0 30 -12 30 -32z" />
    <glyph glyph-name="J" unicode="J" horiz-adv-x="379" 
d="M284 718v-578c0 -96 -54 -150 -179 -150c-13 0 -29 1 -41 2c-18 2 -29 13 -29 30v9c0 15 12 27 29 24c8 -1 22 -2 41 -2c65 0 109 20 109 85v580c0 20 10 32 30 32h10c20 0 30 -12 30 -32z" />
    <glyph glyph-name="K" unicode="K" horiz-adv-x="595" 
d="M143 718v-348l307 346c25 29 34 34 56 34h13c17 0 27 -21 13 -36l-272 -303l303 -373c12 -15 7 -38 -15 -38h-8c-35 0 -42 9 -66 39l-259 322l-72 -80v-249c0 -20 -10 -32 -30 -32h-8c-20 0 -30 12 -30 32v686c0 20 10 32 30 32h8c20 0 30 -12 30 -32z" />
    <glyph glyph-name="L" unicode="L" horiz-adv-x="530" 
d="M460 0h-355c-20 0 -30 12 -30 32v686c0 20 10 32 30 32h8c20 0 30 -12 30 -32v-655h317c19 0 30 -10 30 -29v-5c0 -19 -11 -29 -30 -29z" />
    <glyph glyph-name="M" unicode="M" horiz-adv-x="840" 
d="M412 115c-12 0 -22 4 -27 15l-246 531l4 -629c0 -20 -10 -32 -30 -32h-8c-20 0 -30 12 -30 32v686c0 20 10 32 30 32h42c15 0 23 -6 28 -17l245 -535l245 535c5 11 13 17 28 17h42c20 0 30 -12 30 -32v-686c0 -20 -10 -32 -30 -32h-8c-20 0 -30 12 -30 32l4 629
l-246 -531c-5 -11 -15 -15 -27 -15h-16z" />
    <glyph glyph-name="N" unicode="N" horiz-adv-x="670" 
d="M135 736l394 -597l-2 579c0 20 10 32 30 32h8c20 0 30 -12 30 -32v-686c0 -20 -10 -32 -30 -32h-5c-13 0 -19 5 -25 14l-394 597l2 -579c0 -20 -10 -32 -30 -32h-8c-20 0 -30 12 -30 32v686c0 20 10 32 30 32h5c13 0 19 -5 25 -14z" />
    <glyph glyph-name="O" unicode="O" horiz-adv-x="680" 
d="M340 53c181 0 208 142 208 322s-27 322 -208 322s-208 -142 -208 -322s27 -322 208 -322zM340 -10c-245 0 -280 189 -280 385s35 385 280 385s280 -189 280 -385s-35 -385 -280 -385z" />
    <glyph glyph-name="P" unicode="P" horiz-adv-x="590" 
d="M143 300v-268c0 -20 -10 -32 -30 -32h-8c-20 0 -30 12 -30 32v686c0 20 10 32 30 32h199c187 0 251 -108 251 -225s-64 -225 -251 -225h-161zM143 687v-324h170c141 0 168 90 168 162s-27 162 -168 162h-170z" />
    <glyph glyph-name="Q" unicode="Q" horiz-adv-x="680" 
d="M423 6l258 -52c19 -4 29 -15 29 -32v-15c0 -18 -15 -27 -34 -22l-428 115c-164 44 -188 202 -188 375c0 214 40 385 280 385c243 0 280 -171 280 -385c0 -186 -22 -334 -197 -368v-1zM340 53c181 0 208 142 208 322s-27 322 -208 322s-208 -142 -208 -322
s27 -322 208 -322z" />
    <glyph glyph-name="R" unicode="R" horiz-adv-x="621" 
d="M417 340l160 -304c10 -19 -4 -36 -21 -36h-8c-20 0 -35 8 -47 31l-152 298c-11 -1 -22 -1 -33 -1h-173v-296c0 -20 -10 -32 -30 -32h-8c-20 0 -30 12 -30 32v686c0 20 10 32 30 32h205c187 0 245 -82 245 -211c0 -100 -35 -172 -138 -199zM143 687v-296h185
c133 0 153 68 153 148s-20 148 -153 148h-185z" />
    <glyph glyph-name="S" unicode="S" horiz-adv-x="595" 
d="M265 53c156 0 203 73 203 163c0 107 -44 128 -169 144c-177 22 -245 63 -245 191c0 87 42 209 252 209c92 0 147 -17 168 -24s27 -21 27 -34v-14c0 -14 -12 -25 -35 -16c-33 13 -87 25 -161 25c-148 0 -182 -68 -182 -147c0 -107 62 -117 180 -132
c147 -19 238 -55 238 -202c0 -102 -54 -226 -277 -226c-83 0 -160 22 -184 30c-20 7 -26 22 -26 34v11c0 13 10 26 32 19c35 -12 96 -31 179 -31z" />
    <glyph glyph-name="T" unicode="T" horiz-adv-x="560" 
d="M69 750h422c19 0 30 -10 30 -29v-5c0 -19 -11 -29 -30 -29h-177v-655c0 -20 -10 -32 -30 -32h-8c-20 0 -30 12 -30 32v655h-177c-19 0 -30 10 -30 29v5c0 19 11 29 30 29z" />
    <glyph glyph-name="U" unicode="U" horiz-adv-x="670" 
d="M70 235v483c0 20 10 32 30 32h8c20 0 30 -12 30 -32v-472c0 -180 130 -193 197 -193s197 13 197 193v472c0 20 10 32 30 32h8c20 0 30 -12 30 -32v-483c0 -213 -175 -245 -265 -245s-265 32 -265 245z" />
    <glyph glyph-name="V" unicode="V" horiz-adv-x="640" 
d="M609 718l-255 -702c-6 -18 -13 -26 -31 -26h-6c-18 0 -25 8 -31 26l-255 702c-8 21 6 32 20 32h20c21 0 30 -12 35 -27l214 -619l214 619c5 15 14 27 35 27h20c14 0 28 -11 20 -32z" />
    <glyph glyph-name="W" unicode="W" horiz-adv-x="880" 
d="M431 750h18c19 0 32 -10 37 -31l168 -623l128 625c4 18 14 29 33 29h13c17 0 29 -13 25 -33l-156 -698c-5 -22 -19 -29 -37 -29h-12c-18 0 -32 10 -37 29l-171 641l-171 -641c-5 -19 -19 -29 -37 -29h-12c-18 0 -32 7 -37 29l-156 698c-4 20 8 33 25 33h13
c19 0 29 -11 33 -29l128 -625l168 623c5 21 18 31 37 31z" />
    <glyph glyph-name="X" unicode="X" horiz-adv-x="630" 
d="M300 334l-203 -313c-7 -11 -21 -21 -39 -21h-22c-19 0 -28 19 -17 36l236 344l-230 333c-12 17 0 37 18 37h17c21 0 34 -13 42 -26l198 -300l198 300c8 13 21 26 42 26h17c18 0 30 -20 18 -37l-230 -333l236 -344c11 -17 2 -36 -17 -36h-22c-18 0 -32 10 -39 21z" />
    <glyph glyph-name="Y" unicode="Y" horiz-adv-x="670" 
d="M634 712l-265 -404v-276c0 -20 -10 -32 -30 -32h-8c-20 0 -30 12 -30 32v276l-265 404c-11 17 -3 38 18 38h9c20 0 31 -10 40 -24l232 -361l232 361c9 14 20 24 40 24h9c21 0 29 -21 18 -38z" />
    <glyph glyph-name="Z" unicode="Z" horiz-adv-x="610" 
d="M90 750h435c19 0 30 -10 30 -29v-3c0 -13 -3 -19 -21 -46l-406 -611l412 2c19 0 30 -10 30 -29v-5c0 -19 -11 -29 -30 -29h-470c-19 0 -30 10 -30 29v3c0 13 3 19 21 46l406 611l-377 -2c-19 0 -30 10 -30 29v5c0 19 11 29 30 29z" />
    <glyph glyph-name="OE" unicode="&#x152;" horiz-adv-x="890" 
d="M765 359h-260v-296h295c19 0 30 -10 30 -29v-5c0 -19 -11 -29 -30 -29h-424c-245 0 -316 162 -316 375s71 375 316 375h424c19 0 30 -10 30 -29v-5c0 -19 -11 -29 -30 -29h-295v-265h260c19 0 30 -10 30 -29v-5c0 -19 -11 -29 -30 -29zM437 63v624h-65
c-180 0 -240 -132 -240 -312s60 -312 240 -312h65z" />
    <glyph glyph-name="a" unicode="a" horiz-adv-x="495" 
d="M360 266l-137 -13c-71 -7 -102 -44 -102 -102c0 -45 11 -99 106 -99c54 0 90 15 133 40v174zM241 448c-60 0 -99 -11 -119 -17c-25 -7 -37 6 -37 19v12c0 11 4 21 22 28c27 10 79 20 134 20c150 0 189 -68 189 -168v-319c0 -14 -7 -23 -21 -23h-2c-14 0 -18 7 -25 24
l-6 16c-45 -33 -101 -50 -151 -50c-131 0 -175 77 -175 161c0 85 47 148 178 156l132 8v28c0 73 -26 105 -119 105z" />
    <glyph glyph-name="b" unicode="b" horiz-adv-x="535" 
d="M135 718v-249c43 28 94 41 140 41c161 0 205 -116 205 -260s-44 -260 -205 -260c-54 0 -104 18 -156 51l-6 -16c-6 -17 -11 -25 -25 -25h-2c-14 0 -21 9 -21 23v695c0 20 10 32 30 32h10c20 0 30 -12 30 -32zM275 448c-65 0 -101 -11 -140 -32v-332
c39 -21 75 -32 140 -32c120 0 135 99 135 198s-15 198 -135 198z" />
    <glyph glyph-name="c" unicode="c" horiz-adv-x="460" 
d="M125 250c0 -99 14 -198 140 -198c60 0 106 12 121 16c24 7 33 -6 33 -18v-14c0 -11 -4 -22 -22 -28c-24 -8 -76 -18 -131 -18c-169 0 -211 116 -211 260s42 260 211 260c55 0 107 -10 131 -18c18 -6 22 -17 22 -28v-14c0 -12 -9 -25 -33 -18c-15 4 -61 16 -121 16
c-126 0 -140 -99 -140 -198z" />
    <glyph glyph-name="d" unicode="d" horiz-adv-x="535" 
d="M400 469v249c0 20 10 32 30 32h10c20 0 30 -12 30 -32v-695c0 -14 -7 -23 -21 -23h-2c-14 0 -19 8 -25 25l-6 16c-52 -33 -102 -51 -156 -51c-161 0 -205 116 -205 260s44 260 205 260c46 0 97 -13 140 -41zM260 448c-120 0 -135 -99 -135 -198s15 -198 135 -198
c65 0 101 11 140 32v332c-39 21 -75 32 -140 32z" />
    <glyph glyph-name="e" unicode="e" horiz-adv-x="510" 
d="M265 448c-116 0 -137 -83 -140 -173h260c0 89 -5 173 -120 173zM265 -10c-169 0 -210 116 -210 260s41 260 210 260c170 0 190 -116 190 -260c0 -20 -10 -32 -30 -32h-300c4 -87 27 -166 140 -166c76 0 111 11 138 20c21 7 31 -3 31 -16v-16c0 -11 -4 -20 -22 -27
c-32 -12 -82 -23 -147 -23z" />
    <glyph glyph-name="f" unicode="f" horiz-adv-x="375" 
d="M120 503v107c0 96 55 150 180 150c17 0 32 -1 46 -3c20 -3 24 -17 24 -27v-12c0 -13 -9 -25 -32 -22c-8 1 -17 2 -38 2c-65 0 -113 -23 -113 -88v-110h131c17 0 27 -9 27 -26v-3c0 -17 -10 -26 -27 -26h-131v-413c0 -20 -10 -32 -30 -32h-7c-20 0 -30 12 -30 32v413h-82
c-11 0 -22 5 -22 18c0 12 7 17 22 21z" />
    <glyph glyph-name="g" unicode="g" horiz-adv-x="510" 
d="M351 -12l-146 17c-66 -15 -122 -46 -122 -110c0 -74 56 -95 159 -95c100 0 194 25 194 110c0 51 -24 71 -85 78zM242 195c117 0 130 61 130 127s-13 127 -130 127s-130 -61 -130 -127s13 -127 130 -127zM322 500h150c13 0 24 -5 24 -19c0 -15 -10 -21 -25 -25l-63 -18
c21 -32 29 -72 29 -116c0 -103 -44 -188 -195 -188c-25 0 -47 2 -66 6c-11 -11 -19 -25 -19 -37c0 -25 12 -36 38 -39l170 -20c94 -10 137 -47 137 -134c0 -122 -122 -170 -260 -170c-140 0 -224 41 -224 151c0 68 47 113 103 132v1c-19 13 -32 33 -32 66c0 28 17 51 38 68
c-60 33 -80 94 -80 164c0 103 44 188 195 188c31 0 57 -4 80 -10z" />
    <glyph glyph-name="h" unicode="h" horiz-adv-x="500" 
d="M65 32v686c0 20 10 32 30 32h10c20 0 30 -12 30 -32v-249c42 27 89 41 135 41c119 0 170 -54 170 -150v-328c0 -20 -10 -32 -30 -32h-10c-20 0 -30 12 -30 32v331c0 65 -38 85 -100 85c-65 0 -99 -12 -135 -32v-384c0 -20 -10 -32 -30 -32h-10c-20 0 -30 12 -30 32z" />
    <glyph glyph-name="i" unicode="i" horiz-adv-x="240" 
d="M65 650c0 28 22 50 50 50s50 -22 50 -50s-22 -50 -50 -50s-50 22 -50 50zM149 468v-393c0 -18 6 -25 23 -27c16 -2 23 -9 23 -24v-6c0 -15 -8 -24 -28 -24c-63 0 -86 37 -86 82v392c0 20 10 32 30 32h8c20 0 30 -12 30 -32z" />
    <glyph glyph-name="j" unicode="j" horiz-adv-x="230" 
d="M65 650c0 28 22 50 50 50s50 -22 50 -50s-22 -50 -50 -50s-50 22 -50 50zM-15 -255c-21 0 -32 9 -32 27v5c0 18 12 27 32 27c67 0 96 35 96 96v568c0 20 10 32 30 32h8c20 0 30 -12 30 -32v-573c0 -98 -69 -150 -164 -150z" />
    <glyph glyph-name="k" unicode="k" horiz-adv-x="500" 
d="M133 718v-451l233 213c14 12 21 20 43 20h21c17 0 30 -21 14 -35l-195 -172l228 -257c10 -12 4 -36 -18 -36h-15c-17 0 -32 8 -43 20l-199 231l-69 -60v-159c0 -20 -10 -32 -30 -32h-8c-20 0 -30 12 -30 32v686c0 20 10 32 30 32h8c20 0 30 -12 30 -32z" />
    <glyph glyph-name="l" unicode="l" horiz-adv-x="240" 
d="M149 718v-643c0 -18 6 -25 23 -27c16 -2 23 -9 23 -24v-6c0 -15 -8 -24 -28 -24c-63 0 -86 37 -86 82v642c0 20 10 32 30 32h8c20 0 30 -12 30 -32z" />
    <glyph glyph-name="m" unicode="m" horiz-adv-x="785" 
d="M360 32v331c0 65 -38 85 -95 85c-58 0 -91 -10 -130 -30v-386c0 -20 -10 -32 -30 -32h-10c-20 0 -30 12 -30 32v445c0 14 7 23 21 23h2c14 0 19 -8 25 -25l6 -16c48 35 100 51 146 51c67 0 114 -19 140 -57c52 36 105 57 155 57c107 0 165 -50 165 -150v-328
c0 -20 -10 -32 -30 -32h-10c-20 0 -30 12 -30 32v331c0 65 -38 85 -95 85c-62 0 -96 -12 -136 -33c4 -16 6 -33 6 -52v-331c0 -20 -10 -32 -30 -32h-10c-20 0 -30 12 -30 32z" />
    <glyph glyph-name="n" unicode="n" horiz-adv-x="500" 
d="M65 32v445c0 14 7 23 21 23h2c14 0 19 -8 25 -25l6 -17c47 35 98 52 151 52c119 0 170 -54 170 -150v-328c0 -20 -10 -32 -30 -32h-10c-20 0 -30 12 -30 32v331c0 65 -38 85 -100 85c-65 0 -99 -12 -135 -32v-384c0 -20 -10 -32 -30 -32h-10c-20 0 -30 12 -30 32z" />
    <glyph glyph-name="o" unicode="o" horiz-adv-x="530" 
d="M475 250c0 -153 -38 -260 -210 -260c-171 0 -210 107 -210 260s39 260 210 260c172 0 210 -107 210 -260zM405 250c0 113 -10 198 -140 198c-132 0 -140 -85 -140 -198s8 -198 140 -198c130 0 140 85 140 198z" />
    <glyph glyph-name="p" unicode="p" horiz-adv-x="535" 
d="M135 31v-249c0 -20 -10 -32 -30 -32h-10c-20 0 -30 12 -30 32v695c0 14 7 23 21 23h2c14 0 19 -8 25 -25l6 -16c52 33 102 51 156 51c161 0 205 -116 205 -260s-44 -260 -205 -260c-46 0 -97 13 -140 41zM275 52c120 0 135 99 135 198s-15 198 -135 198
c-65 0 -101 -11 -140 -32v-332c39 -21 75 -32 140 -32z" />
    <glyph glyph-name="q" unicode="q" horiz-adv-x="535" 
d="M400 -218v249c-43 -28 -94 -41 -140 -41c-161 0 -205 116 -205 260s44 260 205 260c54 0 104 -18 156 -51l6 16c6 17 11 25 25 25h2c14 0 21 -9 21 -23v-695c0 -20 -10 -32 -30 -32h-10c-20 0 -30 12 -30 32zM260 52c65 0 101 11 140 32v332c-39 21 -75 32 -140 32
c-120 0 -135 -99 -135 -198s15 -198 135 -198z" />
    <glyph glyph-name="r" unicode="r" horiz-adv-x="363" 
d="M280 510c13 0 27 -1 36 -2c18 -2 27 -12 27 -28v-11c0 -13 -8 -26 -29 -23c-10 1 -22 2 -34 2c-68 0 -108 -11 -145 -32v-384c0 -20 -10 -32 -30 -32h-10c-20 0 -30 12 -30 32v445c0 14 7 23 21 23h2c14 0 19 -8 25 -25l6 -17c47 35 105 52 161 52z" />
    <glyph glyph-name="s" unicode="s" horiz-adv-x="460" 
d="M208 52c104 0 132 44 132 91c0 46 -14 78 -113 86c-145 13 -175 64 -175 133c0 71 46 148 187 148c60 0 110 -12 130 -19c18 -6 22 -18 22 -29v-11c0 -15 -13 -26 -34 -20c-19 5 -59 17 -119 17c-99 0 -120 -37 -120 -86c0 -44 18 -67 114 -75c142 -13 176 -61 176 -143
c0 -77 -49 -154 -201 -154c-53 0 -115 14 -135 21c-18 6 -22 18 -22 29v12c0 14 11 26 30 21c20 -5 68 -21 128 -21z" />
    <glyph glyph-name="t" unicode="t" horiz-adv-x="375" 
d="M120 445h-82c-11 0 -22 5 -22 18c0 12 7 17 22 21l82 19v119c0 15 7 24 21 28l18 5c17 5 31 -5 31 -19v-136h128c17 0 27 -9 27 -26v-3c0 -17 -10 -26 -27 -26h-128v-311c0 -61 33 -86 96 -86h19c15 0 24 -10 24 -23v-10c0 -13 -10 -22 -25 -24c-4 -1 -17 -1 -24 -1
c-83 0 -160 38 -160 136v319z" />
    <glyph glyph-name="u" unicode="u" horiz-adv-x="500" 
d="M435 468v-445c0 -14 -7 -23 -21 -23h-2c-14 0 -19 8 -25 25l-6 17c-47 -35 -98 -52 -151 -52c-119 0 -170 54 -170 150v328c0 20 10 32 30 32h10c20 0 30 -12 30 -32v-331c0 -65 38 -85 100 -85c65 0 99 12 135 32v384c0 20 10 32 30 32h10c20 0 30 -12 30 -32z" />
    <glyph glyph-name="v" unicode="v" horiz-adv-x="480" 
d="M243 -10h-6c-18 0 -25 8 -31 23l-176 451c-7 17 2 36 22 36h15c18 0 29 -9 34 -23l139 -387l139 387c5 14 16 23 34 23h15c20 0 29 -19 22 -36l-176 -451c-6 -15 -13 -23 -31 -23z" />
    <glyph glyph-name="w" unicode="w" horiz-adv-x="700" 
d="M362 500c18 0 27 -7 33 -26l118 -368l89 366c4 18 15 28 31 28h19c19 0 28 -14 23 -33l-127 -452c-4 -15 -13 -25 -31 -25h-4c-18 0 -27 10 -32 25l-131 410l-131 -410c-5 -15 -14 -25 -32 -25h-4c-18 0 -27 10 -31 25l-127 452c-5 19 4 33 23 33h19c16 0 27 -10 31 -28
l89 -366l118 368c6 19 15 26 33 26h24z" />
    <glyph glyph-name="x" unicode="x" horiz-adv-x="490" 
d="M245 210l-140 -192c-8 -12 -20 -18 -35 -18h-16c-20 0 -29 22 -17 37l168 220l-158 206c-12 15 -2 37 17 37h16c15 0 26 -6 35 -18l130 -178l130 178c9 12 20 18 35 18h16c19 0 29 -22 17 -37l-158 -206l168 -220c12 -15 3 -37 -17 -37h-16c-15 0 -27 6 -35 18z" />
    <glyph glyph-name="y" unicode="y" horiz-adv-x="480" 
d="M210 13l-182 451c-7 17 2 36 22 36h18c18 0 29 -9 34 -23l138 -387l138 387c5 14 16 23 34 23h18c20 0 29 -19 22 -36l-271 -691c-5 -14 -16 -23 -34 -23h-12c-20 0 -29 19 -22 36z" />
    <glyph glyph-name="z" unicode="z" horiz-adv-x="450" 
d="M395 435l-278 -376h276c17 0 27 -9 27 -26v-7c0 -17 -10 -26 -27 -26h-336c-17 0 -27 9 -27 26v5c0 11 4 20 15 34l278 376h-251c-17 0 -27 9 -27 26v7c0 17 10 26 27 26h311c17 0 27 -9 27 -26v-5c0 -11 -4 -20 -15 -34z" />
    <glyph glyph-name="dotlessi" unicode="&#x131;" horiz-adv-x="240" 
d="M149 468v-393c0 -18 6 -25 23 -27c16 -2 23 -9 23 -24v-6c0 -15 -8 -24 -28 -24c-63 0 -86 37 -86 82v392c0 20 10 32 30 32h8c20 0 30 -12 30 -32z" />
    <glyph glyph-name="germandbls" unicode="&#xdf;" horiz-adv-x="538" 
d="M84 32v578c0 96 61 150 180 150s177 -54 177 -150c0 -155 -155 -136 -155 -238c0 -42 17 -59 83 -80c102 -33 144 -65 144 -149c0 -77 -44 -153 -167 -153c-48 0 -79 9 -100 17c-18 7 -22 16 -22 27v15c0 13 8 23 29 18c20 -5 44 -15 93 -15c82 0 100 43 100 90
c0 48 -17 68 -93 91c-103 31 -132 68 -132 139c0 140 156 115 156 238c0 65 -51 88 -113 88s-113 -23 -113 -88v-578c0 -20 -10 -32 -30 -32h-7c-20 0 -30 12 -30 32z" />
    <glyph glyph-name="ordfeminine" unicode="&#xaa;" horiz-adv-x="370" 
d="M325 632v-234c0 -14 -7 -23 -21 -23h-3c-14 0 -18 7 -25 24c-38 -22 -77 -34 -109 -34c-99 0 -137 46 -137 124c0 69 44 114 139 119l92 5v21c0 47 -19 70 -79 70c-54 0 -82 -11 -93 -15c-24 -8 -33 5 -33 17v11c0 10 4 19 20 25c28 10 63 18 106 18
c115 0 143 -51 143 -128zM261 564l-93 -8c-47 -4 -73 -29 -73 -67c0 -34 17 -68 74 -68c30 0 66 12 92 26v117z" />
    <glyph glyph-name="ordmasculine" unicode="&#xba;" horiz-adv-x="419" 
d="M35 563c0 128 50 197 171 197s178 -69 178 -197s-57 -198 -178 -198s-171 70 -171 198zM97 563c0 -99 33 -140 109 -140c78 0 117 43 117 140s-39 139 -117 139c-76 0 -109 -40 -109 -139z" />
    <glyph glyph-name="ampersand" unicode="&#x26;" horiz-adv-x="705" 
d="M278 269c-23 28 -44 57 -63 87c-56 -30 -100 -66 -100 -158c0 -114 88 -144 164 -144c66 0 124 19 173 55c-62 42 -120 93 -174 160zM210 592c0 -54 13 -104 35 -152l27 13c75 34 148 66 148 139c0 53 -24 106 -105 106s-105 -52 -105 -106zM655 1c-48 20 -95 43 -141 70
c-65 -52 -144 -81 -235 -81c-125 0 -234 53 -234 208c0 128 65 177 139 214c-27 55 -43 115 -43 180c0 81 44 168 174 168s173 -87 173 -168c0 -107 -90 -149 -188 -195l-26 -12c16 -25 34 -50 53 -73c54 -66 113 -118 175 -159c66 72 106 182 112 315c1 20 10 32 30 32h8
c20 0 31 -12 30 -32c-6 -148 -50 -269 -122 -352c38 -21 77 -40 116 -57c17 -7 26 -20 19 -38l-2 -5c-6 -17 -21 -22 -38 -15z" />
    <glyph glyph-name="acute" unicode="&#xb4;" 
d="M266 574l37 149c4 17 16 27 35 27h15c20 0 29 -18 22 -36l-56 -141c-6 -16 -16 -23 -30 -23h-3c-16 0 -23 12 -20 24z" />
    <glyph glyph-name="grave" unicode="`" 
d="M267 723l37 -149c3 -12 -4 -24 -20 -24h-3c-14 0 -24 7 -30 23l-56 141c-7 18 2 36 22 36h15c19 0 31 -10 35 -27z" />
    <glyph glyph-name="circumflex" unicode="&#x2c6;" 
d="M338 731l114 -155c9 -12 2 -26 -11 -26h-6c-16 0 -24 4 -36 17l-114 124l-114 -124c-12 -13 -20 -17 -36 -17h-6c-13 0 -20 14 -11 26l114 155c11 16 19 19 35 19h36c16 0 24 -3 35 -19z" />
    <glyph glyph-name="dieresis" unicode="&#xa8;" 
d="M140 650c0 28 22 50 50 50s50 -22 50 -50s-22 -50 -50 -50s-50 22 -50 50zM330 650c0 28 22 50 50 50s50 -22 50 -50s-22 -50 -50 -50s-50 22 -50 50z" />
    <glyph glyph-name="tilde" unicode="&#x2dc;" 
d="M209 715c82 0 100 -71 152 -71c32 0 41 15 45 27c6 17 14 24 30 24h2c18 0 28 -14 26 -32c-5 -44 -43 -78 -103 -78c-82 0 -100 71 -152 71c-32 0 -41 -15 -45 -27c-6 -17 -14 -24 -30 -24h-2c-18 0 -28 14 -26 32c5 44 43 78 103 78z" />
    <glyph glyph-name="ring" unicode="&#x2da;" 
d="M285 702c-31 0 -54 -15 -54 -52s23 -52 54 -52s54 15 54 52s-23 52 -54 52zM285 549c-60 0 -104 32 -104 101s44 101 104 101s104 -32 104 -101s-44 -101 -104 -101z" />
    <glyph glyph-name="caron" unicode="&#x2c7;" 
d="M232 569l-114 155c-9 12 -2 26 11 26h6c16 0 24 -4 36 -17l114 -124l114 124c12 13 20 17 36 17h6c13 0 20 -14 11 -26l-114 -155c-11 -16 -19 -19 -35 -19h-36c-16 0 -24 3 -35 19z" />
    <glyph glyph-name="macron" unicode="&#xaf;" 
d="M177 680h216c19 0 29 -10 29 -28v-4c0 -18 -10 -28 -29 -28h-216c-18 0 -29 10 -29 28v4c0 18 11 28 29 28z" />
    <glyph glyph-name="breve" unicode="&#x2d8;" 
d="M285 550c-130 0 -174 92 -174 174c0 16 9 26 24 26h3c16 0 23 -9 24 -24c5 -73 34 -116 123 -116s118 43 123 116c1 15 8 24 24 24h3c15 0 24 -10 24 -26c0 -82 -44 -174 -174 -174z" />
    <glyph glyph-name="hungarumlaut" unicode="&#x2dd;" 
d="M326 574l37 149c4 17 16 27 35 27h15c20 0 29 -18 22 -36l-56 -141c-6 -16 -16 -23 -30 -23h-3c-16 0 -23 12 -20 24zM206 574l37 149c4 17 16 27 35 27h15c20 0 29 -18 22 -36l-56 -141c-6 -16 -16 -23 -30 -23h-3c-16 0 -23 12 -20 24z" />
    <glyph glyph-name="dotaccent" unicode="&#x2d9;" 
d="M235 650c0 28 22 50 50 50s50 -22 50 -50s-22 -50 -50 -50s-50 22 -50 50z" />
    <glyph glyph-name="cedilla" unicode="&#xb8;" 
d="M306 -13l4 -51c40 -10 95 -35 95 -97c0 -54 -41 -89 -111 -89c-25 0 -49 2 -72 9c-18 6 -22 16 -22 27v5c0 11 8 20 25 16c18 -4 34 -6 52 -6c41 0 67 11 67 36c0 36 -27 52 -64 59c-17 3 -24 13 -22 31l6 60c1 12 8 18 19 18h4c11 0 18 -6 19 -18z" />
    <glyph glyph-name="ogonek" unicode="&#x2db;" 
d="M316 25c11 7 23 4 28 -5l2 -4c5 -9 3 -19 -11 -29c-33 -22 -85 -69 -85 -129c0 -34 16 -57 54 -57c13 0 27 2 32 3c18 4 25 -5 25 -16v-6c0 -11 -3 -23 -22 -27c-13 -3 -26 -5 -49 -5c-66 0 -101 41 -101 95c0 90 69 147 127 180z" />
    <glyph glyph-name="period" unicode="." horiz-adv-x="190" 
d="M45 40c0 28 22 50 50 50s50 -22 50 -50s-22 -50 -50 -50s-50 22 -50 50z" />
    <glyph glyph-name="comma" unicode="," horiz-adv-x="190" 
d="M28 -101l18 137c2 18 16 30 36 30h24c18 0 29 -14 23 -33l-46 -134c-5 -16 -16 -24 -32 -24h-3c-13 0 -22 9 -20 24z" />
    <glyph glyph-name="colon" unicode=":" horiz-adv-x="190" 
d="M45 40c0 28 22 50 50 50s50 -22 50 -50s-22 -50 -50 -50s-50 22 -50 50zM45 375c0 28 22 50 50 50s50 -22 50 -50s-22 -50 -50 -50s-50 22 -50 50z" />
    <glyph glyph-name="semicolon" unicode=";" horiz-adv-x="190" 
d="M45 375c0 28 22 50 50 50s50 -22 50 -50s-22 -50 -50 -50s-50 22 -50 50zM28 -101l18 137c2 18 16 30 36 30h24c18 0 29 -14 23 -33l-46 -134c-5 -16 -16 -24 -32 -24h-3c-13 0 -22 9 -20 24z" />
    <glyph glyph-name="ellipsis" unicode="&#x2026;" horiz-adv-x="960" 
d="M100 40c0 28 22 50 50 50s50 -22 50 -50s-22 -50 -50 -50s-50 22 -50 50zM430 40c0 28 22 50 50 50s50 -22 50 -50s-22 -50 -50 -50s-50 22 -50 50zM760 40c0 28 22 50 50 50s50 -22 50 -50s-22 -50 -50 -50s-50 22 -50 50z" />
    <glyph glyph-name="exclam" unicode="!" horiz-adv-x="190" 
d="M93 210c-11 0 -18 6 -19 18l-27 490c-1 17 9 32 30 32h36c21 0 31 -15 30 -32l-27 -490c-1 -12 -8 -18 -19 -18h-4zM45 40c0 28 22 50 50 50s50 -22 50 -50s-22 -50 -50 -50s-50 22 -50 50z" />
    <glyph glyph-name="exclamdown" unicode="&#xa1;" horiz-adv-x="190" 
d="M97 290c11 0 18 -6 19 -18l27 -490c1 -17 -9 -32 -30 -32h-36c-21 0 -31 15 -30 32l27 490c1 12 8 18 19 18h4zM145 460c0 -28 -22 -50 -50 -50s-50 22 -50 50s22 50 50 50s50 -22 50 -50z" />
    <glyph glyph-name="question" unicode="?" horiz-adv-x="470" 
d="M179 760c210 0 246 -96 246 -198c0 -126 -73 -163 -184 -208c-71 -29 -72 -68 -74 -126c0 -12 -9 -18 -20 -18h-1c-11 0 -18 7 -20 20c-2 11 -4 32 -4 44c0 55 15 102 105 136c66 25 131 47 131 151c0 83 -30 137 -178 137c-52 0 -97 -7 -125 -14c-21 -5 -30 7 -30 20v10
c0 11 4 22 22 28c26 9 89 18 132 18zM118 40c0 28 22 50 50 50s50 -22 50 -50s-22 -50 -50 -50s-50 22 -50 50z" />
    <glyph glyph-name="questiondown" unicode="&#xbf;" horiz-adv-x="470" 
d="M352 460c0 -28 -22 -50 -50 -50s-50 22 -50 50s22 50 50 50s50 -22 50 -50zM291 -260c-210 0 -246 96 -246 198c0 126 73 163 184 208c71 29 72 68 74 126c0 12 9 18 20 18h1c11 0 18 -7 20 -20c2 -11 4 -32 4 -44c0 -55 -15 -102 -105 -136c-66 -25 -131 -47 -131 -151
c0 -83 30 -137 178 -137c52 0 97 7 125 14c21 5 30 -7 30 -20v-10c0 -11 -4 -22 -22 -28c-26 -9 -89 -18 -132 -18z" />
    <glyph glyph-name="quoteleft" unicode="&#x2018;" horiz-adv-x="150" 
d="M114 725l-22 -193c-3 -24 -18 -32 -36 -32h-25c-21 0 -32 18 -26 37l60 188c5 15 12 25 28 25h3c13 0 20 -11 18 -25z" />
    <glyph glyph-name="quoteright" unicode="&#x2019;" horiz-adv-x="150" 
d="M36 525l22 193c3 24 18 32 36 32h25c21 0 32 -18 26 -37l-60 -188c-5 -15 -12 -25 -28 -25h-3c-13 0 -20 11 -18 25z" />
    <glyph glyph-name="quotedblleft" unicode="&#x201c;" horiz-adv-x="300" 
d="M114 725l-22 -193c-3 -24 -18 -32 -36 -32h-25c-21 0 -32 18 -26 37l60 188c5 15 12 25 28 25h3c13 0 20 -11 18 -25zM264 725l-22 -193c-3 -24 -18 -32 -36 -32h-25c-21 0 -32 18 -26 37l60 188c5 15 12 25 28 25h3c13 0 20 -11 18 -25z" />
    <glyph glyph-name="quotedblright" unicode="&#x201d;" horiz-adv-x="300" 
d="M186 525l22 193c3 24 18 32 36 32h25c21 0 32 -18 26 -37l-60 -188c-5 -15 -12 -25 -28 -25h-3c-13 0 -20 11 -18 25zM36 525l22 193c3 24 18 32 36 32h25c21 0 32 -18 26 -37l-60 -188c-5 -15 -12 -25 -28 -25h-3c-13 0 -20 11 -18 25z" />
    <glyph glyph-name="quotesinglbase" unicode="&#x201a;" horiz-adv-x="150" 
d="M26 -150l22 193c3 24 18 32 36 32h25c21 0 32 -18 26 -37l-60 -188c-5 -15 -12 -25 -28 -25h-3c-13 0 -20 11 -18 25z" />
    <glyph glyph-name="quotedblbase" unicode="&#x201e;" horiz-adv-x="300" 
d="M176 -150l22 193c3 24 18 32 36 32h25c21 0 32 -18 26 -37l-60 -188c-5 -15 -12 -25 -28 -25h-3c-13 0 -20 11 -18 25zM26 -150l22 193c3 24 18 32 36 32h25c21 0 32 -18 26 -37l-60 -188c-5 -15 -12 -25 -28 -25h-3c-13 0 -20 11 -18 25z" />
    <glyph glyph-name="guilsinglleft" unicode="&#x2039;" horiz-adv-x="275" 
d="M201 98l-137 101c-17 12 -24 23 -24 41v20c0 18 7 29 24 41l137 101c14 10 29 4 29 -13v-13c0 -16 -10 -27 -24 -39l-102 -87l102 -87c14 -12 24 -23 24 -39v-13c0 -17 -15 -23 -29 -13z" />
    <glyph glyph-name="guilsinglright" unicode="&#x203a;" horiz-adv-x="275" 
d="M211 199l-137 -101c-14 -10 -29 -4 -29 13v13c0 16 10 27 24 39l102 87l-102 87c-14 12 -24 23 -24 39v13c0 17 15 23 29 13l137 -101c17 -12 24 -23 24 -41v-20c0 -18 -7 -29 -24 -41z" />
    <glyph glyph-name="guillemotleft" unicode="&#xab;" horiz-adv-x="465" 
d="M201 98l-137 101c-17 12 -24 23 -24 41v20c0 18 7 29 24 41l137 101c14 10 29 4 29 -13v-13c0 -16 -10 -27 -24 -39l-102 -87l102 -87c14 -12 24 -23 24 -39v-13c0 -17 -15 -23 -29 -13zM391 98l-137 101c-17 12 -24 23 -24 41v20c0 18 7 29 24 41l137 101
c14 10 29 4 29 -13v-13c0 -16 -10 -27 -24 -39l-102 -87l102 -87c14 -12 24 -23 24 -39v-13c0 -17 -15 -23 -29 -13z" />
    <glyph glyph-name="guillemotright" unicode="&#xbb;" horiz-adv-x="465" 
d="M401 199l-137 -101c-14 -10 -29 -4 -29 13v13c0 16 10 27 24 39l102 87l-102 87c-14 12 -24 23 -24 39v13c0 17 15 23 29 13l137 -101c17 -12 24 -23 24 -41v-20c0 -18 -7 -29 -24 -41zM211 199l-137 -101c-14 -10 -29 -4 -29 13v13c0 16 10 27 24 39l102 87l-102 87
c-14 12 -24 23 -24 39v13c0 17 15 23 29 13l137 -101c17 -12 24 -23 24 -41v-20c0 -18 -7 -29 -24 -41z" />
    <glyph glyph-name="slash" unicode="/" horiz-adv-x="390" 
d="M395 787l-329 -969c-5 -15 -17 -24 -33 -24h-21c-17 0 -22 14 -17 29l329 969c5 15 17 24 33 24h21c17 0 22 -14 17 -29z" />
    <glyph glyph-name="backslash" unicode="\" horiz-adv-x="390" 
d="M324 -182l-329 969c-5 15 0 29 17 29h21c16 0 28 -9 33 -24l329 -969c5 -15 0 -29 -17 -29h-21c-16 0 -28 9 -33 24z" />
    <glyph glyph-name="bar" unicode="|" horiz-adv-x="245" 
d="M158 784v-958c0 -20 -10 -32 -30 -32h-11c-20 0 -30 12 -30 32v958c0 20 10 32 30 32h11c20 0 30 -12 30 -32z" />
    <glyph glyph-name="bullet" unicode="&#x2022;" horiz-adv-x="370" 
d="M50 375c0 75 60 135 135 135s135 -60 135 -135s-60 -135 -135 -135s-135 60 -135 135z" />
    <glyph glyph-name="nbspace" unicode="&#xa0;" horiz-adv-x="170" 
 />
    <glyph glyph-name="periodcentered" unicode="&#xb7;" horiz-adv-x="160" 
d="M45 305c0 28 22 50 50 50s50 -22 50 -50s-22 -50 -50 -50s-50 22 -50 50z" />
    <glyph glyph-name="hyphen" unicode="-" horiz-adv-x="310" 
d="M60 338h190c19 0 30 -10 30 -29v-8c0 -19 -11 -29 -30 -29h-190c-19 0 -30 10 -30 29v8c0 19 11 29 30 29z" />
    <glyph glyph-name="endash" unicode="&#x2013;" horiz-adv-x="500" 
d="M75 338h350c19 0 30 -10 30 -29v-8c0 -19 -11 -29 -30 -29h-350c-19 0 -30 10 -30 29v8c0 19 11 29 30 29z" />
    <glyph glyph-name="emdash" unicode="&#x2014;" horiz-adv-x="1000" 
d="M75 338h850c19 0 30 -10 30 -29v-8c0 -19 -11 -29 -30 -29h-850c-19 0 -30 10 -30 29v8c0 19 11 29 30 29z" />
    <glyph glyph-name="parenleft" unicode="(" horiz-adv-x="280" 
d="M50 305c0 248 66 405 111 489c10 18 19 22 30 22h20c13 0 30 -12 19 -33c-46 -90 -106 -235 -106 -478s60 -388 106 -478c11 -21 -6 -33 -19 -33h-20c-11 0 -20 4 -30 22c-45 84 -111 241 -111 489z" />
    <glyph glyph-name="parenright" unicode=")" horiz-adv-x="280" 
d="M230 305c0 -248 -66 -405 -111 -489c-10 -18 -19 -22 -30 -22h-20c-13 0 -30 12 -19 33c46 90 106 235 106 478s-60 388 -106 478c-11 21 6 33 19 33h20c11 0 20 -4 30 -22c45 -84 111 -241 111 -489z" />
    <glyph glyph-name="bracketleft" unicode="[" horiz-adv-x="230" 
d="M136 750v-890h34c19 0 30 -10 30 -29v-8c0 -19 -11 -29 -30 -29h-75c-20 0 -30 12 -30 32v958c0 20 10 32 30 32h75c19 0 30 -10 30 -29v-8c0 -19 -11 -29 -30 -29h-34z" />
    <glyph glyph-name="bracketright" unicode="]" horiz-adv-x="230" 
d="M94 -140v890h-34c-19 0 -30 10 -30 29v8c0 19 11 29 30 29h75c20 0 30 -12 30 -32v-958c0 -20 -10 -32 -30 -32h-75c-19 0 -30 10 -30 29v8c0 19 11 29 30 29h34z" />
    <glyph glyph-name="braceleft" unicode="{" horiz-adv-x="210" 
d="M18 311c0 19 11 26 30 29c11 2 23 11 22 37l-18 330c-4 77 46 109 98 109c19 0 30 -10 30 -29v-8c0 -19 -11 -28 -30 -30c-16 -2 -28 -13 -27 -38l18 -330c1 -31 -11 -57 -33 -76c22 -19 34 -45 33 -76l-18 -330c-1 -25 11 -36 27 -38c19 -2 30 -11 30 -30v-8
c0 -19 -11 -29 -30 -29c-52 0 -102 32 -98 109l18 330c1 26 -11 35 -22 37c-19 3 -30 10 -30 29v12z" />
    <glyph glyph-name="braceright" unicode="}" horiz-adv-x="210" 
d="M192 299c0 -19 -11 -26 -30 -29c-11 -2 -23 -11 -22 -37l18 -330c4 -77 -46 -109 -98 -109c-19 0 -30 10 -30 29v8c0 19 11 28 30 30c16 2 28 13 27 38l-18 330c-1 31 11 57 33 76c-22 19 -34 45 -33 76l18 330c1 25 -11 36 -27 38c-19 2 -30 11 -30 30v8
c0 19 11 29 30 29c52 0 102 -32 98 -109l-18 -330c-1 -26 11 -35 22 -37c19 -3 30 -10 30 -29v-12z" />
    <glyph glyph-name="asterisk" unicode="*" horiz-adv-x="355" 
d="M62 469l64 67c9 9 18 11 27 4l5 -3c9 -7 10 -16 4 -27l-43 -82c-9 -16 -25 -19 -41 -8l-11 9c-16 11 -17 27 -5 40zM230 536l64 -67c12 -13 11 -29 -5 -40l-11 -9c-16 -11 -32 -8 -41 8l-43 82c-6 11 -5 20 4 27l5 3c9 7 18 5 27 -4zM213 720l-13 -92
c-2 -12 -8 -19 -19 -19h-6c-11 0 -18 7 -19 19l-13 92c-2 18 8 30 28 30h14c20 0 30 -12 28 -30zM45 649l84 -40c11 -5 15 -14 12 -24l-2 -6c-3 -11 -12 -14 -24 -12l-91 16c-18 3 -26 17 -20 36l4 13c6 19 21 25 37 17zM227 609l84 40c16 8 31 2 37 -17l4 -13
c6 -19 -2 -33 -20 -36l-91 -16c-12 -2 -21 1 -24 12l-2 6c-3 10 1 19 12 24z" />
    <glyph glyph-name="section" unicode="&#xa7;" horiz-adv-x="619" 
d="M512 228c0 103 -55 109 -169 130c-67 11 -120 24 -155 43c-59 -25 -81 -74 -81 -129c0 -103 55 -109 169 -130c66 -12 120 -25 154 -43c60 25 82 74 82 129zM266 -260c-92 0 -147 17 -168 24s-27 21 -27 34v14c0 14 12 25 35 16c33 -13 87 -25 161 -25
c148 0 184 64 184 143c0 100 -71 114 -185 135c-178 31 -227 68 -227 192c0 57 21 128 92 171c-23 27 -32 63 -32 111c0 87 44 205 254 205c92 0 147 -17 168 -24s27 -21 27 -34v-14c0 -14 -12 -25 -35 -16c-33 13 -87 25 -161 25c-148 0 -184 -64 -184 -143
c0 -100 71 -114 185 -135c178 -31 227 -68 227 -192c0 -57 -21 -128 -92 -171c22 -28 32 -63 32 -111c0 -87 -44 -205 -254 -205z" />
    <glyph glyph-name="asciicircum" unicode="^" horiz-adv-x="560" 
d="M328 736l200 -332c9 -15 4 -29 -13 -29h-16c-16 0 -31 8 -41 24l-178 287l-178 -287c-10 -16 -25 -24 -41 -24h-16c-17 0 -22 14 -13 29l200 332c10 18 23 24 41 24h14c18 0 31 -6 41 -24z" />
    <glyph glyph-name="underscore" unicode="_" horiz-adv-x="280" 
d="M30 -95h220c19 0 30 -9 30 -28v-4c0 -19 -11 -28 -30 -28h-220c-19 0 -30 9 -30 28v4c0 19 11 28 30 28z" />
    <glyph glyph-name="quotesingle" unicode="'" horiz-adv-x="190" 
d="M93 500c-11 0 -18 6 -19 18l-25 200c-2 19 9 32 30 32h32c21 0 32 -13 30 -32l-25 -200c-1 -12 -8 -18 -19 -18h-4z" />
    <glyph glyph-name="quotedbl" unicode="&#x22;" horiz-adv-x="330" 
d="M93 500c-11 0 -18 6 -19 18l-25 200c-2 19 9 32 30 32h32c21 0 32 -13 30 -32l-25 -200c-1 -12 -8 -18 -19 -18h-4zM233 500c-11 0 -18 6 -19 18l-25 200c-2 19 9 32 30 32h32c21 0 32 -13 30 -32l-25 -200c-1 -12 -8 -18 -19 -18h-4z" />
    <glyph glyph-name="at" unicode="@" horiz-adv-x="870" 
d="M427 102c39 0 71 11 110 32v232c-39 21 -71 32 -110 32c-88 0 -125 -49 -125 -148s37 -148 125 -148zM607 50h-24c-14 0 -18 8 -25 25l-5 12c-47 -35 -92 -47 -136 -47c-100 0 -185 66 -185 210s85 210 185 210c43 0 89 -12 136 -47l5 12c7 17 11 25 25 25h3
c14 0 21 -9 21 -23v-320c119 -1 159 72 159 206c0 190 -103 263 -326 263s-331 -93 -331 -326s108 -326 331 -326c109 0 197 22 223 31c21 7 33 -4 33 -17v-13c0 -11 -4 -21 -22 -28c-30 -11 -130 -32 -234 -32c-256 0 -400 117 -400 385s144 385 400 385s390 -110 390 -327
c0 -102 -30 -258 -223 -258z" />
    <glyph glyph-name="copyright" unicode="&#xa9;" horiz-adv-x="774" 
d="M387 52c159 0 261 93 261 261c0 166 -102 260 -261 260s-261 -94 -261 -260c0 -168 102 -261 261 -261zM387 -10c-183 0 -332 116 -332 323s149 322 332 322s332 -115 332 -322s-149 -323 -332 -323zM196 313c0 144 97 198 201 198c43 0 73 -6 99 -15
c12 -4 21 -12 21 -28v-9c0 -16 -15 -26 -32 -21c-22 6 -48 11 -80 11c-84 0 -139 -37 -139 -136s55 -136 139 -136c32 0 58 5 80 11c17 5 32 -5 32 -21v-9c0 -16 -9 -24 -21 -28c-26 -9 -56 -15 -99 -15c-104 0 -201 54 -201 198z" />
    <glyph glyph-name="sterling.hybrid" horiz-adv-x="543" 
d="M51 355h45v97c0 107 58 183 216 183c56 0 126 -13 151 -21c18 -6 22 -16 22 -27v-14c0 -13 -9 -23 -30 -18c-20 5 -81 18 -144 18c-104 0 -145 -35 -145 -120v-98h219c19 0 30 -9 30 -28v-5c0 -19 -11 -28 -30 -28h-219v-233h309c19 0 30 -9 30 -28v-5
c0 -19 -11 -28 -30 -28h-424c-19 0 -30 9 -30 28v5c0 19 11 28 30 28h45v233h-45c-19 0 -30 9 -30 28v5c0 19 11 28 30 28z" />
    <glyph glyph-name="florin.hybrid" horiz-adv-x="500" 
d="M182 355h208c19 0 30 -9 30 -28v-5c0 -19 -11 -28 -30 -28h-208v-391c0 -19 -11 -28 -30 -28h-7c-19 0 -30 9 -30 28v391h-70c-19 0 -30 9 -30 28v5c0 19 11 28 30 28h70v115c0 101 55 165 180 165c59 0 103 -9 128 -17c18 -6 22 -16 22 -27v-14c0 -13 -9 -23 -30 -18
c-20 5 -58 14 -120 14c-65 0 -113 -35 -113 -103v-115z" />
    <glyph glyph-name="yen.hybrid" horiz-adv-x="561" 
d="M80 395h75l-113 193c-11 18 -3 37 17 37h22c16 0 26 -6 32 -17l168 -310l168 310c6 11 16 17 32 17h22c20 0 28 -19 17 -37l-114 -193h75c19 0 30 -9 30 -28v-5c0 -19 -11 -28 -30 -28h-111l-44 -76h155c19 0 30 -9 30 -28v-5c0 -19 -11 -28 -30 -28h-166v-165
c0 -20 -10 -32 -30 -32h-8c-20 0 -30 12 -30 32v165h-167c-19 0 -30 9 -30 28v5c0 19 11 28 30 28h156l-45 76h-111c-19 0 -30 9 -30 28v5c0 19 11 28 30 28z" />
    <glyph glyph-name="numbersign.hybrid" horiz-adv-x="555" 
d="M100 430l4 13c5 16 17 24 33 24h71l40 134c5 16 17 24 33 24h13c17 0 26 -14 21 -29l-39 -129h147l40 134c5 16 17 24 33 24h13c17 0 26 -14 21 -29l-39 -129h66c17 0 26 -14 21 -29l-4 -13c-5 -16 -17 -24 -33 -24h-70l-53 -177h68c17 0 26 -14 21 -29l-4 -13
c-5 -16 -17 -24 -33 -24h-71l-40 -134c-5 -16 -17 -24 -33 -24h-13c-17 0 -26 14 -21 29l38 129h-146l-40 -134c-5 -16 -17 -24 -33 -24h-13c-17 0 -26 14 -21 29l38 129h-65c-17 0 -26 14 -21 29l4 13c5 16 17 24 33 24h69l53 177h-67c-17 0 -26 14 -21 29zM256 401
l-53 -177h147l53 177h-147z" />
    <glyph glyph-name="zero.hybrid" horiz-adv-x="574" 
d="M287 52c129 0 161 93 161 261c0 166 -32 260 -161 260s-161 -94 -161 -260c0 -168 32 -261 161 -261zM287 -10c-183 0 -232 116 -232 323s49 322 232 322s232 -115 232 -322s-49 -323 -232 -323z" />
    <glyph glyph-name="one.hybrid" horiz-adv-x="330" 
d="M146 563l-120 -4c-9 0 -15 4 -15 13v3c0 8 4 11 13 14l130 37c20 6 32 9 39 9h2c14 0 21 -7 21 -21v-582c0 -20 -10 -32 -30 -32h-10c-20 0 -30 12 -30 32v531z" />
    <glyph glyph-name="two.hybrid" horiz-adv-x="495" 
d="M228 635c180 0 215 -89 215 -177c0 -113 -43 -175 -317 -396h299c19 0 30 -10 30 -29v-4c0 -19 -11 -29 -30 -29h-365c-19 0 -30 10 -30 29v4c0 11 6 19 11 23c305 234 333 319 333 403c0 74 -37 114 -147 114c-60 0 -107 -15 -128 -21c-19 -5 -30 7 -30 21v14
c0 11 4 21 22 27c22 7 85 21 137 21z" />
    <glyph glyph-name="three.hybrid" horiz-adv-x="505" 
d="M215 -73c145 0 177 80 177 159c0 101 -48 145 -171 145h-81c-19 0 -30 10 -30 29v8c0 19 11 29 30 29h81c113 0 146 72 146 136c0 74 -27 140 -159 140c-60 0 -107 -15 -128 -21c-19 -5 -30 7 -30 21v14c0 11 4 21 22 27c22 7 84 21 136 21c175 0 233 -93 233 -202
c0 -65 -37 -136 -102 -164c86 -23 127 -103 127 -183c0 -117 -64 -221 -251 -221c-52 0 -101 8 -143 23c-18 6 -22 16 -22 27v13c0 14 11 27 30 21c33 -10 75 -22 135 -22z" />
    <glyph glyph-name="four.hybrid" 
d="M365 156l2 361l-248 -363zM365 -93v187h-298c-17 0 -27 9 -27 26v5c0 11 5 19 15 34l312 454c9 14 18 22 33 22h3c20 0 30 -12 30 -32v-447h80c17 0 27 -9 27 -26v-10c0 -17 -10 -26 -27 -26h-80v-187c0 -20 -10 -32 -30 -32h-8c-20 0 -30 12 -30 32z" />
    <glyph glyph-name="five.hybrid" horiz-adv-x="500" 
d="M203 -135c-51 0 -100 8 -142 23c-18 6 -22 16 -22 27v13c0 14 11 27 30 21c33 -10 75 -22 135 -22c84 0 203 24 203 181c0 152 -101 150 -198 150h-110c-20 0 -30 12 -30 32v303c0 20 10 32 30 32h335c19 0 30 -10 30 -29v-4c0 -19 -11 -29 -30 -29h-297v-245
c31 3 68 5 95 5c121 0 247 -24 247 -215c0 -216 -162 -243 -276 -243z" />
    <glyph glyph-name="six.hybrid" horiz-adv-x="575" 
d="M129 231c0 -80 26 -179 170 -179c136 0 156 111 156 179s-12 179 -156 179c-141 0 -170 -101 -170 -179zM330 696c-158 0 -211 -134 -211 -322c24 45 80 98 180 98c205 0 226 -140 226 -241s-31 -241 -226 -241c-215 0 -244 142 -244 355c0 246 55 415 275 415
c58 0 110 -8 152 -23c18 -6 23 -17 23 -28v-15c0 -14 -11 -27 -30 -21c-36 11 -77 23 -145 23z" />
    <glyph glyph-name="seven.hybrid" horiz-adv-x="435" 
d="M80 -92l278 655h-321c-17 0 -27 9 -27 26v10c0 17 10 26 27 26h361c17 0 27 -9 27 -26v-5c0 -12 -2 -21 -9 -39l-262 -653c-7 -17 -17 -27 -35 -27h-20c-16 0 -26 15 -19 33z" />
    <glyph glyph-name="eight.hybrid" 
d="M285 -10c-187 0 -253 104 -253 221c0 75 38 159 124 184c-65 30 -99 92 -99 157c0 109 58 208 228 208s228 -99 228 -208c0 -65 -34 -127 -99 -157c86 -25 124 -109 124 -184c0 -117 -66 -221 -253 -221zM285 358c-117 0 -179 -46 -179 -147c0 -72 38 -159 179 -159
s179 87 179 159c0 101 -62 147 -179 147zM285 420c113 0 154 68 154 132c0 66 -27 146 -154 146s-154 -80 -154 -146c0 -64 41 -132 154 -132z" />
    <glyph glyph-name="nine.hybrid" horiz-adv-x="575" 
d="M451 394c0 80 -26 179 -170 179c-136 0 -156 -111 -156 -179s12 -179 156 -179c141 0 170 101 170 179zM250 -71c158 0 211 134 211 322c-24 -45 -80 -98 -180 -98c-205 0 -226 140 -226 241s31 241 226 241c215 0 244 -142 244 -355c0 -246 -55 -415 -275 -415
c-58 0 -110 8 -152 23c-18 6 -23 17 -23 28v15c0 14 11 27 30 21c36 -11 77 -23 145 -23z" />
    <glyph glyph-name="fraction" unicode="&#x2044;" horiz-adv-x="447" 
d="M501 713l-487 -689c-12 -17 -25 -24 -41 -24h-12c-17 0 -29 19 -16 37l487 689c12 17 25 24 41 24h12c17 0 29 -19 16 -37z" />
    <glyph glyph-name="percent.hybrid" horiz-adv-x="943" 
d="M221 265c-121 0 -171 70 -171 185s50 185 171 185s171 -70 171 -185s-50 -185 -171 -185zM221 325c76 0 107 36 107 125s-31 125 -107 125s-107 -36 -107 -125s31 -125 107 -125zM721 360c121 0 171 -70 171 -185s-50 -185 -171 -185s-171 70 -171 185s50 185 171 185z
M721 300c-76 0 -107 -36 -107 -125s31 -125 107 -125s107 36 107 125s-31 125 -107 125zM705 588l-399 -564c-12 -17 -25 -24 -41 -24h-12c-17 0 -29 19 -16 37l399 564c12 17 25 24 41 24h12c17 0 29 -19 16 -37z" />
    <glyph glyph-name="perthousand.hybrid" horiz-adv-x="1343" 
d="M221 265c-121 0 -171 70 -171 185s50 185 171 185s171 -70 171 -185s-50 -185 -171 -185zM722 360c121 0 171 -70 171 -185s-50 -185 -171 -185s-171 70 -171 185s50 185 171 185zM1122 360c121 0 171 -70 171 -185s-50 -185 -171 -185s-171 70 -171 185s50 185 171 185z
M221 325c76 0 107 36 107 125s-31 125 -107 125s-107 -36 -107 -125s31 -125 107 -125zM1122 300c-76 0 -107 -36 -107 -125s31 -125 107 -125s107 36 107 125s-31 125 -107 125zM722 300c-76 0 -107 -36 -107 -125s31 -125 107 -125s107 36 107 125s-31 125 -107 125z
M705 588l-399 -564c-12 -17 -25 -24 -41 -24h-12c-17 0 -29 19 -16 37l399 564c12 17 25 24 41 24h12c17 0 29 -19 16 -37z" />
    <glyph glyph-name="bullseye" unicode="&#x25ce;" horiz-adv-x="850" 
d="M50 678v72h12l297 -206c-3 -4 -5 -7 -6 -10zM502 552l286 198h12v-72l-291 -138zM50 589v66l300 -125l-6 -10zM513 535l287 120v-66l-279 -66c-3 3 -5 7 -7 11zM100 750h88l180 -191l-6 -10zM330 503l-280 7v59l290 -54c-3 -5 -6 -9 -10 -12zM491 568l171 182h88
l-252 -193zM524 517l276 52v-59l-264 -7zM50 490l267 6c-7 -11 -13 -16 -21 -20l-246 -46v60zM542 496l258 -6v-60l-232 44zM584 461l216 -51v-65l-176 73c-10 17 -24 30 -40 43zM212 750h60l107 -176l-8 -11zM479 587l99 163h60l-151 -176zM50 345v65l214 51
c-34 -13 -69 -21 -98 -39s-51 -38 -68 -57zM290 750h47l56 -160l-10 -11zM631 401l169 -80v-21c-67 15 -158 50 -167 94c-1 2 -2 5 -2 7zM464 609l49 141h47l-85 -157zM351 750h41l18 -145l-13 -11zM441 622l17 128h41l-40 -133l-6 9c-4 -1 -8 -2 -12 -4zM416 610l-11 140
h39l-11 -131c-6 -2 -11 -6 -17 -9zM71 331c-12 -12 -20 -22 -21 -28v18z" />
    <glyph glyph-name="plus" unicode="+" horiz-adv-x="490" 
d="M75 374h137v137c0 19 10 30 29 30h8c19 0 29 -11 29 -30v-137h137c19 0 30 -10 30 -29v-8c0 -19 -11 -29 -30 -29h-137v-137c0 -19 -10 -30 -29 -30h-8c-19 0 -29 11 -29 30v137h-137c-19 0 -30 10 -30 29v8c0 19 11 29 30 29z" />
    <glyph glyph-name="plusminus" unicode="&#xb1;" horiz-adv-x="490" 
d="M75 440h137v137c0 19 10 30 29 30h8c19 0 29 -11 29 -30v-137h137c19 0 30 -10 30 -29v-8c0 -19 -11 -29 -30 -29h-137v-137c0 -19 -10 -30 -29 -30h-8c-19 0 -29 11 -29 30v137h-137c-19 0 -30 10 -30 29v8c0 19 11 29 30 29zM75 141h340c19 0 30 -10 30 -29v-8
c0 -19 -11 -29 -30 -29h-340c-19 0 -30 10 -30 29v8c0 19 11 29 30 29z" />
    <glyph glyph-name="divide" unicode="&#xf7;" horiz-adv-x="490" 
d="M195 181c0 28 22 50 50 50s50 -22 50 -50s-22 -50 -50 -50s-50 22 -50 50zM195 501c0 28 22 50 50 50s50 -22 50 -50s-22 -50 -50 -50s-50 22 -50 50zM75 374h340c19 0 30 -10 30 -29v-8c0 -19 -11 -29 -30 -29h-340c-19 0 -30 10 -30 29v8c0 19 11 29 30 29z" />
    <glyph glyph-name="equal" unicode="=" horiz-adv-x="490" 
d="M75 440h340c19 0 30 -10 30 -29v-8c0 -19 -11 -29 -30 -29h-340c-19 0 -30 10 -30 29v8c0 19 11 29 30 29zM75 308h340c19 0 30 -10 30 -29v-8c0 -19 -11 -29 -30 -29h-340c-19 0 -30 10 -30 29v8c0 19 11 29 30 29z" />
    <glyph glyph-name="approxequal" unicode="&#x2248;" horiz-adv-x="490" 
d="M342 400c31 0 47 6 74 19c21 10 29 0 29 -13v-13c0 -11 -4 -24 -22 -33c-26 -14 -58 -19 -79 -19c-102 0 -118 73 -196 73c-31 0 -47 -6 -74 -19c-21 -10 -29 0 -29 13v13c0 11 4 24 22 33c26 14 58 19 79 19c102 0 118 -73 196 -73zM342 268c31 0 47 6 74 19
c21 10 29 0 29 -13v-13c0 -11 -4 -24 -22 -33c-26 -14 -58 -19 -79 -19c-102 0 -118 73 -196 73c-31 0 -47 -6 -74 -19c-21 -10 -29 0 -29 13v13c0 11 4 24 22 33c26 14 58 19 79 19c102 0 118 -73 196 -73z" />
    <glyph glyph-name="less" unicode="&#x3c;" horiz-adv-x="490" 
d="M416 92l-347 202c-18 10 -24 23 -24 41v12c0 18 6 31 24 41l347 202c15 9 29 4 29 -13v-20c0 -16 -9 -28 -24 -37l-307 -179l307 -179c15 -9 24 -21 24 -37v-20c0 -17 -14 -22 -29 -13z" />
    <glyph glyph-name="greater" unicode="&#x3e;" horiz-adv-x="490" 
d="M421 294l-347 -202c-15 -9 -29 -4 -29 13v20c0 16 9 28 24 37l307 179l-307 179c-15 9 -24 21 -24 37v20c0 17 14 22 29 13l347 -202c18 -10 24 -23 24 -41v-12c0 -18 -6 -31 -24 -41z" />
    <glyph glyph-name="lessequal" unicode="&#x2264;" horiz-adv-x="490" 
d="M416 217l-347 146c-17 7 -24 18 -24 36v14c0 18 7 29 24 36l347 146c15 6 29 -2 29 -19v-17c0 -16 -9 -26 -24 -32l-301 -121l301 -121c15 -6 24 -16 24 -32v-17c0 -17 -14 -25 -29 -19zM74 301l347 -146c15 -6 24 -16 24 -32v-17c0 -17 -14 -25 -29 -19l-347 146
c-15 6 -24 16 -24 32v17c0 17 14 25 29 19z" />
    <glyph glyph-name="greaterequal" unicode="&#x2265;" horiz-adv-x="490" 
d="M421 363l-347 -146c-15 -6 -29 2 -29 19v17c0 16 9 26 24 32l301 121l-301 121c-15 6 -24 16 -24 32v17c0 17 14 25 29 19l347 -146c17 -7 24 -18 24 -36v-14c0 -18 -7 -29 -24 -36zM69 155l347 146c15 6 29 -2 29 -19v-17c0 -16 -9 -26 -24 -32l-347 -146
c-15 -6 -29 2 -29 19v17c0 16 9 26 24 32z" />
    <glyph glyph-name="logicalnot" unicode="&#xac;" horiz-adv-x="646" 
d="M110 500h370c20 0 30 -12 30 -32v-222c0 -20 -10 -32 -30 -32h-7c-20 0 -30 12 -30 32v190h-333c-19 0 -30 10 -30 29v6c0 19 11 29 30 29z" />
    <glyph glyph-name="infinity" unicode="&#x221e;" horiz-adv-x="800" 
d="M752 357c0 -102 -62 -153 -162 -153c-75 0 -142 43 -190 99c-48 -56 -114 -99 -190 -99c-100 0 -162 51 -162 153s62 153 162 153c75 0 143 -45 190 -100c48 56 114 100 190 100c100 0 162 -51 162 -153zM683 357c0 71 -41 93 -93 91c-66 -3 -119 -48 -150 -91
c31 -43 84 -88 150 -91c52 -2 93 20 93 91zM210 266c66 3 119 48 150 91c-31 43 -84 88 -150 91c-52 2 -93 -20 -93 -91s41 -93 93 -91z" />
    <glyph glyph-name="integral" unicode="&#x222b;" horiz-adv-x="337" 
d="M81 -100v710c0 96 56 150 181 150c17 0 32 -1 46 -3c20 -3 24 -17 24 -27v-12c0 -13 -9 -25 -32 -22c-8 1 -17 2 -38 2c-65 0 -113 -23 -113 -88v-715c0 -98 -69 -150 -164 -150c-21 0 -32 9 -32 27v5c0 18 12 27 32 27c67 0 96 35 96 96z" />
    <glyph glyph-name="radical" unicode="&#x221a;" horiz-adv-x="740" 
d="M130 443l-80 -9c-17 -2 -27 8 -27 25v5c0 17 9 25 27 27l99 11c23 2 37 -10 41 -27l93 -408l378 659c8 14 20 24 40 24h18c21 0 29 -19 18 -38l-408 -690c-13 -22 -20 -31 -40 -31h-25c-20 0 -30 13 -34 30z" />
    <glyph glyph-name="increment" unicode="&#x2206;" horiz-adv-x="700" 
d="M357 760c21 0 34 -10 40 -26l269 -657c8 -19 14 -33 14 -45v-6c0 -17 -10 -26 -27 -26h-606c-17 0 -27 9 -27 26v6c0 12 6 26 14 45l269 657c6 16 19 26 40 26h14zM604 61l-254 625l-254 -625h508z" />
    <glyph glyph-name="ohm" horiz-adv-x="700" 
d="M340 697c-158 0 -244 -98 -244 -258c0 -169 112 -315 194 -384c4 -3 8 -8 8 -20v-7c0 -19 -11 -28 -30 -28h-215c-19 0 -30 9 -30 28v4c0 19 11 28 30 28l157 -2c-85 77 -181 229 -181 381c0 200 109 320 311 320s311 -120 311 -320c0 -152 -96 -304 -181 -381l157 2
c19 0 30 -9 30 -28v-4c0 -19 -11 -28 -30 -28h-215c-19 0 -30 9 -30 28v7c0 12 4 17 8 20c82 69 194 215 194 384c0 160 -86 258 -244 258z" />
    <glyph glyph-name="product" unicode="&#x220f;" horiz-adv-x="740" 
d="M675 750c19 0 30 -10 30 -29v-3c0 -19 -11 -29 -30 -29h-66v-657c0 -20 -10 -32 -30 -32h-11c-20 0 -30 12 -30 32v657h-336v-657c0 -20 -10 -32 -30 -32h-11c-20 0 -30 12 -30 32v657h-66c-19 0 -30 10 -30 29v3c0 19 11 29 30 29h610z" />
    <glyph glyph-name="summation" unicode="&#x2211;" horiz-adv-x="635" 
d="M415 389l-318 289c-14 13 -19 23 -19 36v7c0 19 11 29 30 29h441c19 0 30 -10 30 -29v-3c0 -19 -11 -29 -30 -29l-377 2l293 -264c19 -17 22 -24 22 -34v-8c0 -10 -3 -17 -22 -34l-319 -292l428 2c19 0 30 -10 30 -29v-3c0 -19 -11 -29 -30 -29h-497c-19 0 -30 10 -30 29
v7c0 13 3 22 19 36z" />
    <glyph glyph-name="lozenge" unicode="&#x25ca;" horiz-adv-x="690" 
d="M345 84l241 291l-241 291l-241 -291zM345 -10c-5 0 -8 2 -12 7l-302 364c-5 6 -6 9 -6 14s1 8 6 14l302 364c4 5 7 7 12 7s8 -2 12 -7l302 -364c5 -6 6 -9 6 -14s-1 -8 -6 -14l-302 -364c-4 -5 -7 -7 -12 -7z" />
    <glyph glyph-name="degree" unicode="&#xb0;" horiz-adv-x="336" 
d="M168 490c-68 0 -138 30 -138 135c0 106 70 135 138 135s138 -29 138 -135c0 -105 -70 -135 -138 -135zM168 705c-48 0 -79 -22 -79 -80s31 -80 79 -80s79 22 79 80s-31 80 -79 80z" />
    <glyph glyph-name="a.smcp" unicode="&#xe201;" horiz-adv-x="530" 
d="M271 510c14 0 24 -9 32 -27l192 -447c8 -18 -2 -36 -22 -36h-12c-19 0 -29 8 -36 26l-38 94h-245l-37 -94c-7 -18 -17 -26 -36 -26h-12c-20 0 -30 18 -22 36l192 447c8 18 18 27 32 27h12zM265 427l-102 -255h203z" />
    <glyph glyph-name="a.smcp" unicode="&#xf761;" horiz-adv-x="530" 
d="M271 510c14 0 24 -9 32 -27l192 -447c8 -18 -2 -36 -22 -36h-12c-19 0 -29 8 -36 26l-38 94h-245l-37 -94c-7 -18 -17 -26 -36 -26h-12c-20 0 -30 18 -22 36l192 447c8 18 18 27 32 27h12zM265 427l-102 -255h203z" />
    <glyph glyph-name="b.smcp" unicode="&#xe202;" horiz-adv-x="520" 
d="M105 0c-20 0 -30 12 -30 32v436c0 20 10 32 30 32h189c116 0 157 -46 157 -130c0 -39 -21 -77 -51 -93c47 -19 75 -72 75 -126c0 -86 -40 -151 -164 -151h-206zM404 151c0 49 -15 90 -98 90h-165v-180h165c83 0 98 41 98 90zM141 302h167c65 0 76 27 76 68s-12 69 -82 69
h-161v-137z" />
    <glyph glyph-name="b.smcp" unicode="&#xf762;" horiz-adv-x="520" 
d="M105 0c-20 0 -30 12 -30 32v436c0 20 10 32 30 32h189c116 0 157 -46 157 -130c0 -39 -21 -77 -51 -93c47 -19 75 -72 75 -126c0 -86 -40 -151 -164 -151h-206zM404 151c0 49 -15 90 -98 90h-165v-180h165c83 0 98 41 98 90zM141 302h167c65 0 76 27 76 68s-12 69 -82 69
h-161v-137z" />
    <glyph glyph-name="c.smcp" unicode="&#xe203;" horiz-adv-x="505" 
d="M60 250c0 144 67 260 236 260c61 0 107 -10 131 -18c18 -6 22 -17 22 -28v-14c0 -12 -9 -25 -33 -18c-15 4 -55 16 -121 16c-126 0 -165 -99 -165 -198s39 -198 165 -198c66 0 106 12 121 16c24 7 33 -6 33 -18v-14c0 -11 -4 -22 -22 -28c-24 -8 -70 -18 -131 -18
c-169 0 -236 116 -236 260z" />
    <glyph glyph-name="c.smcp" unicode="&#xf763;" horiz-adv-x="505" 
d="M60 250c0 144 67 260 236 260c61 0 107 -10 131 -18c18 -6 22 -17 22 -28v-14c0 -12 -9 -25 -33 -18c-15 4 -55 16 -121 16c-126 0 -165 -99 -165 -198s39 -198 165 -198c66 0 106 12 121 16c24 7 33 -6 33 -18v-14c0 -11 -4 -22 -22 -28c-24 -8 -70 -18 -131 -18
c-169 0 -236 116 -236 260z" />
    <glyph glyph-name="d.smcp" unicode="&#xe204;" horiz-adv-x="545" 
d="M243 0h-138c-20 0 -30 12 -30 32v436c0 20 10 32 30 32h138c172 0 242 -97 242 -250s-70 -250 -242 -250zM141 61h101c133 0 173 76 173 189s-40 189 -173 189h-101v-378z" />
    <glyph glyph-name="d.smcp" unicode="&#xf764;" horiz-adv-x="545" 
d="M243 0h-138c-20 0 -30 12 -30 32v436c0 20 10 32 30 32h138c172 0 242 -97 242 -250s-70 -250 -242 -250zM141 61h101c133 0 173 76 173 189s-40 189 -173 189h-101v-378z" />
    <glyph glyph-name="e.smcp" unicode="&#xe205;" horiz-adv-x="500" 
d="M141 439v-152h234c19 0 30 -10 30 -29v-3c0 -19 -11 -29 -30 -29h-234v-165h269c19 0 30 -10 30 -29v-3c0 -19 -11 -29 -30 -29h-305c-20 0 -30 12 -30 32v436c0 20 10 32 30 32h305c19 0 30 -10 30 -29v-3c0 -19 -11 -29 -30 -29h-269z" />
    <glyph glyph-name="e.smcp" unicode="&#xf765;" horiz-adv-x="500" 
d="M141 439v-152h234c19 0 30 -10 30 -29v-3c0 -19 -11 -29 -30 -29h-234v-165h269c19 0 30 -10 30 -29v-3c0 -19 -11 -29 -30 -29h-305c-20 0 -30 12 -30 32v436c0 20 10 32 30 32h305c19 0 30 -10 30 -29v-3c0 -19 -11 -29 -30 -29h-269z" />
    <glyph glyph-name="f.smcp" unicode="&#xe206;" horiz-adv-x="480" 
d="M365 226h-224v-194c0 -20 -10 -32 -30 -32h-6c-20 0 -30 12 -30 32v436c0 20 10 32 30 32h295c19 0 30 -10 30 -29v-3c0 -19 -11 -29 -30 -29h-259v-152h224c19 0 30 -10 30 -29v-3c0 -19 -11 -29 -30 -29z" />
    <glyph glyph-name="f.smcp" unicode="&#xf766;" horiz-adv-x="480" 
d="M365 226h-224v-194c0 -20 -10 -32 -30 -32h-6c-20 0 -30 12 -30 32v436c0 20 10 32 30 32h295c19 0 30 -10 30 -29v-3c0 -19 -11 -29 -30 -29h-259v-152h224c19 0 30 -10 30 -29v-3c0 -19 -11 -29 -30 -29z" />
    <glyph glyph-name="h.smcp" unicode="&#xe208;" 
d="M429 32v194h-288v-194c0 -20 -10 -32 -30 -32h-6c-20 0 -30 12 -30 32v436c0 20 10 32 30 32h6c20 0 30 -12 30 -32v-181h288v181c0 20 10 32 30 32h6c20 0 30 -12 30 -32v-436c0 -20 -10 -32 -30 -32h-6c-20 0 -30 12 -30 32z" />
    <glyph glyph-name="h.smcp" unicode="&#xf768;" 
d="M429 32v194h-288v-194c0 -20 -10 -32 -30 -32h-6c-20 0 -30 12 -30 32v436c0 20 10 32 30 32h6c20 0 30 -12 30 -32v-181h288v181c0 20 10 32 30 32h6c20 0 30 -12 30 -32v-436c0 -20 -10 -32 -30 -32h-6c-20 0 -30 12 -30 32z" />
    <glyph glyph-name="i.smcp" unicode="&#xe209;" horiz-adv-x="260" 
d="M163 468v-436c0 -20 -10 -32 -30 -32h-6c-20 0 -30 12 -30 32v436c0 20 10 32 30 32h6c20 0 30 -12 30 -32z" />
    <glyph glyph-name="i.smcp" unicode="&#xf769;" horiz-adv-x="260" 
d="M163 468v-436c0 -20 -10 -32 -30 -32h-6c-20 0 -30 12 -30 32v436c0 20 10 32 30 32h6c20 0 30 -12 30 -32z" />
    <glyph glyph-name="j.smcp" unicode="&#xe20a;" horiz-adv-x="375" 
d="M105 -10c-13 0 -33 1 -45 3c-20 3 -29 13 -29 30v8c0 15 11 27 28 24c8 -1 27 -3 46 -3c65 0 109 20 109 85v331c0 20 10 32 30 32h6c20 0 30 -12 30 -32v-328c0 -96 -50 -150 -175 -150z" />
    <glyph glyph-name="j.smcp" unicode="&#xf76a;" horiz-adv-x="375" 
d="M105 -10c-13 0 -33 1 -45 3c-20 3 -29 13 -29 30v8c0 15 11 27 28 24c8 -1 27 -3 46 -3c65 0 109 20 109 85v331c0 20 10 32 30 32h6c20 0 30 -12 30 -32v-328c0 -96 -50 -150 -175 -150z" />
    <glyph glyph-name="k.smcp" unicode="&#xe20b;" horiz-adv-x="515" 
d="M141 193v-161c0 -20 -10 -32 -30 -32h-6c-20 0 -30 12 -30 32v436c0 20 10 32 30 32h6c20 0 30 -12 30 -32v-199l228 211c14 13 21 20 43 20h21c17 0 30 -21 14 -35l-194 -173l227 -256c10 -12 4 -36 -18 -36h-15c-17 0 -32 8 -43 20l-198 230z" />
    <glyph glyph-name="k.smcp" unicode="&#xf76b;" horiz-adv-x="515" 
d="M141 193v-161c0 -20 -10 -32 -30 -32h-6c-20 0 -30 12 -30 32v436c0 20 10 32 30 32h6c20 0 30 -12 30 -32v-199l228 211c14 13 21 20 43 20h21c17 0 30 -21 14 -35l-194 -173l227 -256c10 -12 4 -36 -18 -36h-15c-17 0 -32 8 -43 20l-198 230z" />
    <glyph glyph-name="l.smcp" unicode="&#xe20c;" horiz-adv-x="480" 
d="M410 0h-305c-20 0 -30 12 -30 32v436c0 20 10 32 30 32h6c20 0 30 -12 30 -32v-407h269c19 0 30 -10 30 -29v-3c0 -19 -11 -29 -30 -29z" />
    <glyph glyph-name="l.smcp" unicode="&#xf76c;" horiz-adv-x="480" 
d="M410 0h-305c-20 0 -30 12 -30 32v436c0 20 10 32 30 32h6c20 0 30 -12 30 -32v-407h269c19 0 30 -10 30 -29v-3c0 -19 -11 -29 -30 -29z" />
    <glyph glyph-name="n.smcp" unicode="&#xe20e;" 
d="M495 468v-436c0 -20 -7 -32 -27 -32h-3c-10 0 -18 5 -28 17l-297 361l1 -346c0 -20 -10 -32 -30 -32h-6c-20 0 -30 12 -30 32v436c0 20 7 32 27 32h3c10 0 18 -5 28 -17l297 -361l-1 346c0 20 10 32 30 32h6c20 0 30 -12 30 -32z" />
    <glyph glyph-name="n.smcp" unicode="&#xf76e;" 
d="M495 468v-436c0 -20 -7 -32 -27 -32h-3c-10 0 -18 5 -28 17l-297 361l1 -346c0 -20 -10 -32 -30 -32h-6c-20 0 -30 12 -30 32v436c0 20 7 32 27 32h3c10 0 18 -5 28 -17l297 -361l-1 346c0 20 10 32 30 32h6c20 0 30 -12 30 -32z" />
    <glyph glyph-name="o.smcp" unicode="&#xe20f;" horiz-adv-x="580" 
d="M523 250c0 -153 -61 -260 -233 -260c-171 0 -233 107 -233 260s62 260 233 260c172 0 233 -107 233 -260zM453 250c0 113 -30 198 -163 198c-135 0 -163 -85 -163 -198s28 -198 163 -198c133 0 163 85 163 198z" />
    <glyph glyph-name="o.smcp" unicode="&#xf76f;" horiz-adv-x="580" 
d="M523 250c0 -153 -61 -260 -233 -260c-171 0 -233 107 -233 260s62 260 233 260c172 0 233 -107 233 -260zM453 250c0 113 -30 198 -163 198c-135 0 -163 -85 -163 -198s28 -198 163 -198c133 0 163 85 163 198z" />
    <glyph glyph-name="p.smcp" unicode="&#xe200;" horiz-adv-x="490" 
d="M277 178h-136v-146c0 -20 -10 -32 -30 -32h-6c-20 0 -30 12 -30 32v436c0 20 10 32 30 32h172c124 0 167 -75 167 -161s-44 -161 -167 -161zM373 339c0 48 -15 100 -98 100h-134v-200h134c83 0 98 52 98 100z" />
    <glyph glyph-name="p.smcp" unicode="&#xf770;" horiz-adv-x="490" 
d="M277 178h-136v-146c0 -20 -10 -32 -30 -32h-6c-20 0 -30 12 -30 32v436c0 20 10 32 30 32h172c124 0 167 -75 167 -161s-44 -161 -167 -161zM373 339c0 48 -15 100 -98 100h-134v-200h134c83 0 98 52 98 100z" />
    <glyph glyph-name="q.smcp" unicode="&#xe211;" horiz-adv-x="580" 
d="M637 -115l-421 113c-116 27 -159 123 -159 252c0 153 62 260 233 260c172 0 233 -107 233 -260c0 -120 -37 -211 -135 -245v-1l254 -50c19 -4 29 -15 29 -32v-15c0 -18 -15 -27 -34 -22zM453 250c0 113 -30 198 -163 198c-135 0 -163 -85 -163 -198s28 -198 163 -198
c133 0 163 85 163 198z" />
    <glyph glyph-name="q.smcp" unicode="&#xf771;" horiz-adv-x="580" 
d="M637 -115l-421 113c-116 27 -159 123 -159 252c0 153 62 260 233 260c172 0 233 -107 233 -260c0 -120 -37 -211 -135 -245v-1l254 -50c19 -4 29 -15 29 -32v-15c0 -18 -15 -27 -34 -22zM453 250c0 113 -30 198 -163 198c-135 0 -163 -85 -163 -198s28 -198 163 -198
c133 0 163 85 163 198z" />
    <glyph glyph-name="r.smcp" unicode="&#xe212;" horiz-adv-x="512" 
d="M294 198h-153v-166c0 -20 -10 -32 -30 -32h-6c-20 0 -30 12 -30 32v436c0 20 10 32 30 32h184c124 0 165 -65 165 -151c0 -67 -25 -121 -94 -142l99 -171c11 -19 -4 -36 -21 -36h-8c-20 0 -34 8 -46 31zM383 349c0 48 -18 90 -101 90h-141v-180h141c83 0 101 42 101 90z
" />
    <glyph glyph-name="r.smcp" unicode="&#xf772;" horiz-adv-x="512" 
d="M294 198h-153v-166c0 -20 -10 -32 -30 -32h-6c-20 0 -30 12 -30 32v436c0 20 10 32 30 32h184c124 0 165 -65 165 -151c0 -67 -25 -121 -94 -142l99 -171c11 -19 -4 -36 -21 -36h-8c-20 0 -34 8 -46 31zM383 349c0 48 -18 90 -101 90h-141v-180h141c83 0 101 42 101 90z
" />
    <glyph glyph-name="s.smcp" unicode="&#xe213;" horiz-adv-x="500" 
d="M229 -10c-51 0 -126 13 -146 20c-18 6 -22 16 -22 27v12c0 14 11 26 30 21c20 -5 76 -18 139 -18c110 0 148 32 148 93c0 55 -30 75 -129 83c-145 13 -194 46 -194 130c0 90 56 152 206 152c65 0 121 -11 141 -18c18 -6 22 -16 22 -27v-12c0 -14 -11 -26 -30 -21
c-20 5 -68 16 -134 16c-105 0 -138 -26 -138 -90c0 -50 36 -62 132 -70c142 -13 191 -51 191 -142c0 -85 -55 -156 -216 -156z" />
    <glyph glyph-name="s.smcp" unicode="&#xf773;" horiz-adv-x="500" 
d="M229 -10c-51 0 -126 13 -146 20c-18 6 -22 16 -22 27v12c0 14 11 26 30 21c20 -5 76 -18 139 -18c110 0 148 32 148 93c0 55 -30 75 -129 83c-145 13 -194 46 -194 130c0 90 56 152 206 152c65 0 121 -11 141 -18c18 -6 22 -16 22 -27v-12c0 -14 -11 -26 -30 -21
c-20 5 -68 16 -134 16c-105 0 -138 -26 -138 -90c0 -50 36 -62 132 -70c142 -13 191 -51 191 -142c0 -85 -55 -156 -216 -156z" />
    <glyph glyph-name="t.smcp" unicode="&#xe214;" horiz-adv-x="485" 
d="M70 500h345c19 0 30 -10 30 -29v-3c0 -19 -11 -29 -30 -29h-137v-407c0 -20 -10 -32 -30 -32h-11c-20 0 -30 12 -30 32v407h-137c-19 0 -30 10 -30 29v3c0 19 11 29 30 29z" />
    <glyph glyph-name="t.smcp" unicode="&#xf774;" horiz-adv-x="485" 
d="M70 500h345c19 0 30 -10 30 -29v-3c0 -19 -11 -29 -30 -29h-137v-407c0 -20 -10 -32 -30 -32h-11c-20 0 -30 12 -30 32v407h-137c-19 0 -30 10 -30 29v3c0 19 11 29 30 29z" />
    <glyph glyph-name="u.smcp" unicode="&#xe215;" 
d="M70 468c0 20 10 32 30 32h6c20 0 30 -12 30 -32v-309c0 -80 62 -107 149 -107s149 27 149 107v309c0 20 10 32 30 32h6c20 0 30 -12 30 -32v-308c0 -106 -66 -170 -215 -170s-215 64 -215 170v308z" />
    <glyph glyph-name="u.smcp" unicode="&#xf775;" 
d="M70 468c0 20 10 32 30 32h6c20 0 30 -12 30 -32v-309c0 -80 62 -107 149 -107s149 27 149 107v309c0 20 10 32 30 32h6c20 0 30 -12 30 -32v-308c0 -106 -66 -170 -215 -170s-215 64 -215 170v308z" />
    <glyph glyph-name="v.smcp" unicode="&#xe216;" horiz-adv-x="530" 
d="M259 -10c-14 0 -24 9 -32 27l-192 447c-8 18 2 36 22 36h12c19 0 29 -8 36 -26l160 -401l160 401c7 18 17 26 36 26h12c20 0 30 -18 22 -36l-192 -447c-8 -18 -18 -27 -32 -27h-12z" />
    <glyph glyph-name="v.smcp" unicode="&#xf776;" horiz-adv-x="530" 
d="M259 -10c-14 0 -24 9 -32 27l-192 447c-8 18 2 36 22 36h12c19 0 29 -8 36 -26l160 -401l160 401c7 18 17 26 36 26h12c20 0 30 -18 22 -36l-192 -447c-8 -18 -18 -27 -32 -27h-12z" />
    <glyph glyph-name="w.smcp" unicode="&#xe217;" horiz-adv-x="740" 
d="M509 15l-139 419l-139 -419c-5 -15 -13 -25 -31 -25h-6c-18 0 -26 10 -30 25l-133 452c-6 19 4 33 23 33h20c16 0 26 -10 31 -28l95 -373l124 375c6 19 15 26 33 26h26c18 0 27 -7 33 -26l124 -375l95 373c5 18 15 28 31 28h20c19 0 29 -14 23 -33l-133 -452
c-4 -15 -12 -25 -30 -25h-6c-18 0 -26 10 -31 25z" />
    <glyph glyph-name="w.smcp" unicode="&#xf777;" horiz-adv-x="740" 
d="M509 15l-139 419l-139 -419c-5 -15 -13 -25 -31 -25h-6c-18 0 -26 10 -30 25l-133 452c-6 19 4 33 23 33h20c16 0 26 -10 31 -28l95 -373l124 375c6 19 15 26 33 26h26c18 0 27 -7 33 -26l124 -375l95 373c5 18 15 28 31 28h20c19 0 29 -14 23 -33l-133 -452
c-4 -15 -12 -25 -30 -25h-6c-18 0 -26 10 -31 25z" />
    <glyph glyph-name="x.smcp" unicode="&#xf778;" horiz-adv-x="520" 
d="M412 18l-152 190l-152 -190c-9 -11 -20 -18 -35 -18h-18c-20 0 -30 22 -17 37l182 220l-171 205c-13 15 -4 38 15 38h19c15 0 25 -5 35 -18l142 -176l142 176c10 13 20 18 35 18h19c19 0 28 -23 15 -38l-171 -205l182 -220c13 -15 3 -37 -17 -37h-18c-15 0 -26 7 -35 18z
" />
    <glyph glyph-name="y.smcp" unicode="&#xe219;" horiz-adv-x="542" 
d="M106 482l165 -249l165 249c8 12 18 18 33 18h20c20 0 29 -20 17 -37l-199 -283v-148c0 -20 -10 -32 -30 -32h-11c-20 0 -30 12 -30 32v148l-200 283c-12 17 -3 37 17 37h20c15 0 25 -6 33 -18z" />
    <glyph glyph-name="y.smcp" unicode="&#xf779;" horiz-adv-x="542" 
d="M106 482l165 -249l165 249c8 12 18 18 33 18h20c20 0 29 -20 17 -37l-199 -283v-148c0 -20 -10 -32 -30 -32h-11c-20 0 -30 12 -30 32v148l-200 283c-12 17 -3 37 17 37h20c15 0 25 -6 33 -18z" />
    <glyph glyph-name="z.smcp" unicode="&#xe21a;" horiz-adv-x="510" 
d="M439 435l-301 -373h300c17 0 27 -9 27 -26v-10c0 -17 -10 -26 -27 -26h-366c-17 0 -27 9 -27 26v5c0 11 5 20 16 34l301 373h-275c-17 0 -27 9 -27 26v10c0 17 10 26 27 26h341c17 0 27 -9 27 -26v-5c0 -11 -5 -20 -16 -34z" />
    <glyph glyph-name="z.smcp" unicode="&#xf77a;" horiz-adv-x="510" 
d="M439 435l-301 -373h300c17 0 27 -9 27 -26v-10c0 -17 -10 -26 -27 -26h-366c-17 0 -27 9 -27 26v5c0 11 5 20 16 34l301 373h-275c-17 0 -27 9 -27 26v10c0 17 10 26 27 26h341c17 0 27 -9 27 -26v-5c0 -11 -5 -20 -16 -34z" />
    <glyph glyph-name="a.school" unicode="&#xe151;" horiz-adv-x="536" 
d="M55 250c0 144 44 260 205 260c54 0 104 -18 156 -51l6 16c6 17 11 25 25 25h2c14 0 21 -9 21 -23v-454c0 -14 -7 -23 -21 -23h-2c-14 0 -19 8 -25 25l-6 16c-52 -33 -102 -51 -156 -51c-161 0 -205 116 -205 260zM125 250c0 -99 15 -198 135 -198c65 0 101 11 140 32v332
c-39 21 -75 32 -140 32c-120 0 -135 -99 -135 -198z" />
    <glyph glyph-name="g.school" unicode="&#xe161;" horiz-adv-x="535" 
d="M260 52c65 0 101 11 140 32v332c-39 21 -75 32 -140 32c-120 0 -135 -99 -135 -198s15 -198 135 -198zM470 477v-517c0 -124 -25 -221 -205 -221c-97 0 -149 19 -179 32c-18 8 -24 17 -24 31v15c0 16 13 28 33 19c18 -8 86 -38 170 -38c134 0 134 92 135 162v71
c-43 -28 -94 -41 -140 -41c-161 0 -205 116 -205 260s44 260 205 260c54 0 104 -18 156 -51l6 16c6 17 11 25 25 25h2c14 0 21 -9 21 -23z" />
    <glyph glyph-name="dollar.hybrid" horiz-adv-x="515" 
d="M225 52l-30 -88c-5 -16 -18 -26 -34 -26h-16c-17 0 -28 17 -21 34l33 86c-29 3 -58 9 -78 15c-16 5 -20 16 -20 27v12c0 13 8 24 29 18c26 -7 83 -17 148 -17c109 0 161 34 161 93c0 57 -40 77 -142 85c-149 13 -204 47 -204 131c0 95 76 150 231 150l30 89
c5 16 18 26 34 26h18c17 0 26 -16 19 -33l-33 -87c29 -4 49 -8 69 -14c16 -5 20 -16 20 -27v-13c0 -13 -8 -24 -29 -18c-26 7 -79 16 -144 16c-103 0 -150 -26 -150 -89c0 -52 45 -64 144 -73c146 -12 204 -45 204 -142c0 -91 -75 -155 -239 -155z" />
    <glyph glyph-name="asciitilde" unicode="~" horiz-adv-x="490" 
d="M342 334c31 0 47 6 74 19c21 10 29 0 29 -13v-13c0 -11 -4 -24 -22 -33c-26 -14 -58 -19 -79 -19c-102 0 -118 73 -196 73c-31 0 -47 -6 -74 -19c-21 -10 -29 0 -29 13v13c0 11 4 24 22 33c26 14 58 19 79 19c102 0 118 -73 196 -73z" />
    <glyph glyph-name="dagger" unicode="&#x2020;" horiz-adv-x="360" 
d="M177 551h6c11 0 18 -6 19 -18l24 -200c2 -19 -9 -32 -30 -32h-32c-21 0 -32 13 -30 32l24 200c1 12 8 18 19 18zM209 577v6c0 11 6 18 18 19l91 13c19 2 32 -9 32 -30v-10c0 -21 -13 -32 -32 -30l-91 13c-12 1 -18 8 -18 19zM177 609c-11 0 -18 6 -19 18l-13 91
c-2 19 9 32 30 32h10c21 0 32 -13 30 -32l-13 -91c-1 -12 -8 -18 -19 -18h-6zM151 577c0 -11 -6 -18 -18 -19l-91 -13c-19 -2 -32 9 -32 30v10c0 21 13 32 32 30l91 -13c12 -1 18 -8 18 -19v-6z" />
    <glyph glyph-name="cent.hybrid" horiz-adv-x="515" 
d="M166 -28l36 94c-101 34 -147 123 -147 247c0 157 75 260 244 260l30 89c5 16 18 26 34 26h18c17 0 26 -16 19 -33l-33 -87c29 -4 51 -9 71 -15c16 -5 20 -17 20 -28v-13c0 -13 -8 -24 -29 -18c-26 7 -66 17 -131 17c-126 0 -173 -86 -173 -198c0 -113 47 -198 173 -198
c65 0 105 10 131 17c21 6 29 -5 29 -18v-13c0 -11 -4 -23 -20 -28c-20 -6 -68 -20 -139 -20c-11 0 -22 0 -32 1l-30 -90c-5 -16 -18 -26 -34 -26h-16c-17 0 -28 17 -21 34z" />
    <glyph glyph-name="paragraph" unicode="&#xb6;" horiz-adv-x="590" 
d="M447 32v268h-77v-268c0 -20 -10 -32 -30 -32h-8c-20 0 -30 12 -30 32v268h-16c-187 0 -251 108 -251 225s64 225 251 225h199c20 0 30 -12 30 -32v-686c0 -20 -10 -32 -30 -32h-8c-20 0 -30 12 -30 32zM109 525c0 -72 27 -162 168 -162h25v324h-25
c-141 0 -168 -90 -168 -162zM447 363v324h-77v-324h77z" />
    <glyph glyph-name="trademark" unicode="&#x2122;" horiz-adv-x="545" 
d="M469 521l2 168l-67 -145c-5 -11 -15 -13 -23 -13h-4c-8 0 -18 2 -23 13l-67 145l2 -168c0 -13 -6 -21 -19 -21h-4c-13 0 -19 8 -19 21v209c0 13 6 20 19 20h19c14 0 20 -7 26 -20l68 -149l68 149c6 13 12 20 26 20h19c13 0 19 -7 19 -20v-209c0 -13 -6 -21 -19 -21h-4
c-13 0 -19 8 -19 21zM18 750h166c12 0 19 -5 19 -17v-4c0 -12 -7 -17 -19 -17h-61v-191c0 -13 -6 -21 -19 -21h-6c-13 0 -19 8 -19 21v191h-61c-12 0 -19 5 -19 17v4c0 12 7 17 19 17z" />
    <glyph glyph-name="notequal" unicode="&#x2260;" horiz-adv-x="490" 
d="M75 440h174l49 143c5 15 17 24 33 24h25c17 0 23 -14 17 -29l-54 -138h96c19 0 30 -10 30 -29v-8c0 -19 -11 -29 -30 -29h-340c-19 0 -30 10 -30 29v8c0 19 11 29 30 29zM75 308h340c19 0 30 -10 30 -29v-8c0 -19 -11 -29 -30 -29h-171l-48 -143c-5 -15 -17 -24 -33 -24
h-25c-17 0 -23 14 -17 29l53 138h-99c-19 0 -30 10 -30 29v8c0 19 11 29 30 29z" />
    <glyph glyph-name="partialdiff" unicode="&#x2202;" horiz-adv-x="530" 
d="M225 760c202 0 250 -174 250 -510c0 -153 -38 -260 -210 -260c-171 0 -210 107 -210 260s39 260 210 260c59 0 102 -18 133 -47c-16 153 -61 235 -173 235c-61 0 -98 -8 -125 -16c-21 -6 -30 8 -30 21v9c0 11 4 23 22 29c30 10 68 19 133 19zM405 250
c0 113 -10 198 -140 198c-132 0 -140 -85 -140 -198s8 -198 140 -198c130 0 140 85 140 198z" />
    <glyph glyph-name="ae" unicode="&#xe6;" horiz-adv-x="835" 
d="M380 224h-151c-85 0 -108 -34 -108 -83c0 -46 22 -89 120 -89c56 0 110 19 141 45l17 15c-11 33 -17 70 -19 111v1zM590 448c-114 0 -136 -80 -140 -167h260c-1 86 -8 167 -120 167zM249 510c95 0 150 -26 177 -69c32 43 83 69 164 69c170 0 190 -116 190 -254
c0 -20 -10 -32 -30 -32h-300v-6c4 -88 29 -166 140 -166c76 0 111 11 138 20c21 7 31 -3 31 -16v-16c0 -11 -4 -20 -22 -27c-32 -12 -82 -23 -147 -23c-80 0 -131 26 -163 68l-31 -24c-45 -33 -106 -44 -157 -44c-135 0 -189 66 -189 151c0 77 36 140 184 140h146v62
c0 73 -35 105 -131 105c-68 0 -107 -11 -127 -17c-25 -7 -37 6 -37 19v12c0 11 4 21 22 28c27 10 81 20 142 20z" />
    <glyph glyph-name="oe" unicode="&#x153;" horiz-adv-x="860" 
d="M405 250c0 113 -10 198 -140 198c-132 0 -140 -85 -140 -198s8 -198 140 -198c130 0 140 85 140 198zM615 448c-116 0 -137 -83 -140 -173h260c0 89 -5 173 -120 173zM615 -10c-90 0 -143 32 -174 84c-30 -53 -83 -84 -176 -84c-171 0 -210 107 -210 260s39 260 210 260
c93 0 146 -31 176 -84c31 52 84 84 174 84c170 0 190 -116 190 -260c0 -20 -10 -32 -30 -32h-300c4 -87 27 -166 140 -166c76 0 111 11 138 20c21 7 31 -3 31 -16v-16c0 -11 -4 -20 -22 -27c-32 -12 -82 -23 -147 -23z" />
    <glyph glyph-name="Euro.hybrid" horiz-adv-x="567" 
d="M316 208h-153c22 -93 72 -155 196 -155c57 0 92 10 124 19c22 6 34 -4 34 -17v-13c0 -12 -4 -24 -24 -31c-24 -8 -68 -21 -136 -21c-166 0 -242 85 -268 218h-39c-19 0 -30 10 -30 29v8c0 19 11 29 30 29h31c-1 12 -1 25 -1 38s0 25 1 38h-31c-19 0 -30 10 -30 29v8
c0 19 11 29 30 29h39c26 133 102 219 268 219c68 0 112 -13 136 -21c20 -7 24 -19 24 -31v-13c0 -13 -12 -23 -34 -17c-32 9 -67 19 -124 19c-124 0 -174 -63 -196 -156h223c17 0 23 -14 17 -29l-5 -13c-5 -15 -17 -24 -33 -24h-212c-1 -13 -1 -25 -1 -38s0 -26 1 -38h184
c17 0 23 -14 17 -29l-5 -13c-5 -15 -17 -24 -33 -24z" />
    <glyph glyph-name="daggerdbl" unicode="&#x2021;" horiz-adv-x="360" 
d="M177 352h6c11 0 18 -6 19 -18l24 -200c2 -19 -9 -32 -30 -32h-32c-21 0 -32 13 -30 32l24 200c1 12 8 18 19 18zM177 609c-11 0 -18 6 -19 18l-13 91c-2 19 9 32 30 32h10c21 0 32 -13 30 -32l-13 -91c-1 -12 -8 -18 -19 -18h-6zM209 378v6c0 11 6 18 18 19l91 13
c19 2 32 -9 32 -30v-10c0 -21 -13 -32 -32 -30l-91 13c-12 1 -18 8 -18 19zM151 577c0 -11 -6 -18 -18 -19l-91 -13c-19 -2 -32 9 -32 30v10c0 21 13 32 32 30l91 -13c12 -1 18 -8 18 -19v-6zM151 378c0 -11 -6 -18 -18 -19l-91 -13c-19 -2 -32 9 -32 30v10
c0 21 13 32 32 30l91 -13c12 -1 18 -8 18 -19v-6zM209 577v6c0 11 6 18 18 19l91 13c19 2 32 -9 32 -30v-10c0 -21 -13 -32 -32 -30l-91 13c-12 1 -18 8 -18 19zM207 480c0 0 0 -13 -2 -27l-3 -25c-1 -12 -8 -18 -19 -18h-6c-11 0 -18 6 -19 18l-3 25c-2 14 -2 27 -2 27
s0 13 2 27l3 25c1 12 8 18 19 18h6c11 0 18 -6 19 -18l3 -25c2 -14 2 -27 2 -27z" />
    <glyph glyph-name="AE" unicode="&#xc6;" horiz-adv-x="975" 
d="M518 422h332c19 0 30 -10 30 -29v-5c0 -19 -11 -29 -30 -29h-321l48 -296h308c19 0 30 -10 30 -29v-5c0 -19 -11 -29 -30 -29h-336c-20 0 -32 11 -35 31l-30 179h-294l-97 -194c-5 -10 -13 -16 -30 -16h-17c-21 0 -27 19 -19 34l355 688c9 18 21 28 41 28h462
c19 0 30 -10 30 -29v-5c0 -19 -11 -29 -30 -29h-410zM475 269l-63 386l-193 -386h256z" />
    <glyph glyph-name="g.smcp" unicode="&#xe207;" horiz-adv-x="550" 
d="M295 448c-126 0 -165 -99 -165 -198s39 -198 165 -198c50 0 88 6 114 11v135h-79c-19 0 -30 10 -30 29v3c0 19 11 29 30 29h115c20 0 30 -12 30 -32v-181c0 -12 -6 -26 -26 -33c-26 -9 -88 -23 -153 -23c-169 0 -236 116 -236 260s67 260 236 260c75 0 131 -15 151 -22
c18 -6 22 -16 22 -27v-12c0 -14 -11 -26 -30 -21c-20 5 -65 20 -144 20z" />
    <glyph glyph-name="g.smcp" unicode="&#xf767;" horiz-adv-x="550" 
d="M295 448c-126 0 -165 -99 -165 -198s39 -198 165 -198c50 0 88 6 114 11v135h-79c-19 0 -30 10 -30 29v3c0 19 11 29 30 29h115c20 0 30 -12 30 -32v-181c0 -12 -6 -26 -26 -33c-26 -9 -88 -23 -153 -23c-169 0 -236 116 -236 260s67 260 236 260c75 0 131 -15 151 -22
c18 -6 22 -16 22 -27v-12c0 -14 -11 -26 -30 -21c-20 5 -65 20 -144 20z" />
    <glyph glyph-name="m.smcp" unicode="&#xe20d;" horiz-adv-x="670" 
d="M345 65h-20c-12 0 -22 5 -27 16l-162 328l4 -377c0 -20 -10 -32 -30 -32h-5c-20 0 -30 12 -30 32v436c0 20 10 32 30 32h36c15 0 23 -7 28 -18l166 -345l166 345c5 11 13 18 28 18h36c20 0 30 -12 30 -32v-436c0 -20 -10 -32 -30 -32h-5c-20 0 -30 12 -30 32l4 377
l-162 -328c-5 -11 -15 -16 -27 -16z" />
    <glyph glyph-name="m.smcp" unicode="&#xf76d;" horiz-adv-x="670" 
d="M345 65h-20c-12 0 -22 5 -27 16l-162 328l4 -377c0 -20 -10 -32 -30 -32h-5c-20 0 -30 12 -30 32v436c0 20 10 32 30 32h36c15 0 23 -7 28 -18l166 -345l166 345c5 11 13 18 28 18h36c20 0 30 -12 30 -32v-436c0 -20 -10 -32 -30 -32h-5c-20 0 -30 12 -30 32l4 377
l-162 -328c-5 -11 -15 -16 -27 -16z" />
    <glyph glyph-name="invertedbreve" unicode="&#xe411;" 
d="M285 750c130 0 174 -92 174 -174c0 -16 -9 -26 -24 -26h-3c-16 0 -23 9 -24 24c-5 73 -34 116 -123 116s-118 -43 -123 -116c-1 -15 -8 -24 -24 -24h-3c-15 0 -24 10 -24 26c0 82 44 174 174 174z" />
    <glyph glyph-name="doublegrave" unicode="&#xe412;" 
d="M207 723l37 -149c3 -12 -4 -24 -20 -24h-3c-14 0 -24 7 -30 23l-56 141c-7 18 2 36 22 36h15c19 0 31 -10 35 -27zM327 723l37 -149c3 -12 -4 -24 -20 -24h-3c-14 0 -24 7 -30 23l-56 141c-7 18 2 36 22 36h15c19 0 31 -10 35 -27z" />
    <glyph glyph-name="caronSlovak" unicode="&#xe413;" 
d="M337 574l12 148c2 17 12 28 31 28h13c22 0 33 -16 28 -36l-34 -141c-5 -16 -13 -23 -26 -23h-3c-16 0 -23 12 -21 24z" />
    <glyph glyph-name="commaaccent" unicode="&#xe414;" 
d="M229 -226l19 148c2 17 13 28 32 28h16c20 0 31 -18 26 -36l-40 -141c-5 -16 -14 -23 -28 -23h-3c-16 0 -24 12 -22 24z" />
    <glyph glyph-name="commaaccent" unicode="&#xf6c3;" 
d="M229 -226l19 148c2 17 13 28 32 28h16c20 0 31 -18 26 -36l-40 -141c-5 -16 -14 -23 -28 -23h-3c-16 0 -24 12 -22 24z" />
    <glyph glyph-name="altcedilla" unicode="&#xe416;" 
d="M271 -53c66 -10 124 -44 124 -108c0 -54 -41 -89 -111 -89c-25 0 -49 2 -72 9c-18 6 -22 16 -22 27v5c0 11 8 20 25 16c18 -4 34 -6 52 -6c41 0 67 11 67 36c0 36 -28 55 -67 64c-17 4 -21 13 -20 23l1 8c1 10 10 17 23 15z" />
    <glyph glyph-name="reversequoteleft" unicode="&#x201b;" horiz-adv-x="150" 
d="M92 718l22 -193c2 -14 -5 -25 -18 -25h-3c-16 0 -23 10 -28 25l-60 188c-6 19 5 37 26 37h25c18 0 33 -8 36 -32z" />
    <glyph glyph-name="reversequotedblleft" unicode="&#x201f;" horiz-adv-x="300" 
d="M92 718l22 -193c2 -14 -5 -25 -18 -25h-3c-16 0 -23 10 -28 25l-60 188c-6 19 5 37 26 37h25c18 0 33 -8 36 -32zM242 718l22 -193c2 -14 -5 -25 -18 -25h-3c-16 0 -23 10 -28 25l-60 188c-6 19 5 37 26 37h25c18 0 33 -8 36 -32z" />
    <glyph glyph-name="guilsinglleft.cap" unicode="&#xe451;" horiz-adv-x="275" 
d="M201 223l-137 101c-17 12 -24 23 -24 41v20c0 18 7 29 24 41l137 101c14 10 29 4 29 -13v-13c0 -16 -10 -27 -24 -39l-102 -87l102 -87c14 -12 24 -23 24 -39v-13c0 -17 -15 -23 -29 -13z" />
    <glyph glyph-name="guilsinglright.cap" unicode="&#xe452;" horiz-adv-x="275" 
d="M211 324l-137 -101c-14 -10 -29 -4 -29 13v13c0 16 10 27 24 39l102 87l-102 87c-14 12 -24 23 -24 39v13c0 17 15 23 29 13l137 -101c17 -12 24 -23 24 -41v-20c0 -18 -7 -29 -24 -41z" />
    <glyph glyph-name="guillemotleft.cap" unicode="&#xe453;" horiz-adv-x="465" 
d="M201 223l-137 101c-17 12 -24 23 -24 41v20c0 18 7 29 24 41l137 101c14 10 29 4 29 -13v-13c0 -16 -10 -27 -24 -39l-102 -87l102 -87c14 -12 24 -23 24 -39v-13c0 -17 -15 -23 -29 -13zM391 223l-137 101c-17 12 -24 23 -24 41v20c0 18 7 29 24 41l137 101
c14 10 29 4 29 -13v-13c0 -16 -10 -27 -24 -39l-102 -87l102 -87c14 -12 24 -23 24 -39v-13c0 -17 -15 -23 -29 -13z" />
    <glyph glyph-name="guillemotright.cap" unicode="&#xe454;" horiz-adv-x="465" 
d="M401 324l-137 -101c-14 -10 -29 -4 -29 13v13c0 16 10 27 24 39l102 87l-102 87c-14 12 -24 23 -24 39v13c0 17 15 23 29 13l137 -101c17 -12 24 -23 24 -41v-20c0 -18 -7 -29 -24 -41zM211 324l-137 -101c-14 -10 -29 -4 -29 13v13c0 16 10 27 24 39l102 87l-102 87
c-14 12 -24 23 -24 39v13c0 17 15 23 29 13l137 -101c17 -12 24 -23 24 -41v-20c0 -18 -7 -29 -24 -41z" />
    <glyph glyph-name="doublebar" unicode="&#x2016;" horiz-adv-x="375" 
d="M158 784v-958c0 -20 -10 -32 -30 -32h-11c-20 0 -30 12 -30 32v958c0 20 10 32 30 32h11c20 0 30 -12 30 -32zM288 784v-958c0 -20 -10 -32 -30 -32h-11c-20 0 -30 12 -30 32v958c0 20 10 32 30 32h11c20 0 30 -12 30 -32z" />
    <glyph glyph-name="brokenbar" unicode="&#xa6;" horiz-adv-x="245" 
d="M158 784v-414c0 -20 -10 -32 -30 -32h-11c-20 0 -30 12 -30 32v414c0 20 10 32 30 32h11c20 0 30 -12 30 -32zM158 240v-414c0 -20 -10 -32 -30 -32h-11c-20 0 -30 12 -30 32v414c0 20 10 32 30 32h11c20 0 30 -12 30 -32z" />
    <glyph glyph-name="enspace" unicode="&#x2002;" horiz-adv-x="500" 
 />
    <glyph glyph-name="emspace" unicode="&#x2003;" horiz-adv-x="1000" 
 />
    <glyph glyph-name="threeperemspace" unicode="&#x2004;" horiz-adv-x="333" 
 />
    <glyph glyph-name="fourperemspace" unicode="&#x2005;" horiz-adv-x="250" 
 />
    <glyph glyph-name="sixperemspace" unicode="&#x2006;" horiz-adv-x="167" 
 />
    <glyph glyph-name="figurespace" unicode="&#x2007;" 
 />
    <glyph glyph-name="punctuationspace" unicode="&#x2008;" horiz-adv-x="190" 
 />
    <glyph glyph-name="thinspace" unicode="&#x2009;" horiz-adv-x="100" 
 />
    <glyph glyph-name="hairspace" unicode="&#x200a;" horiz-adv-x="50" 
 />
    <glyph glyph-name="zerowidthspace" unicode="&#x200b;" horiz-adv-x="0" 
 />
    <glyph glyph-name="uni00AD" unicode="&#xad;" horiz-adv-x="310" 
d="M60 338h190c19 0 30 -10 30 -29v-8c0 -19 -11 -29 -30 -29h-190c-19 0 -30 10 -30 29v8c0 19 11 29 30 29z" />
    <glyph glyph-name="onethirdemdash" unicode="&#xe471;" horiz-adv-x="333" 
d="M75 338h183c19 0 30 -10 30 -29v-8c0 -19 -11 -29 -30 -29h-183c-19 0 -30 10 -30 29v8c0 19 11 29 30 29z" />
    <glyph glyph-name="threequarteremdash" unicode="&#xe472;" horiz-adv-x="750" 
d="M75 338h600c19 0 30 -10 30 -29v-8c0 -19 -11 -29 -30 -29h-600c-19 0 -30 10 -30 29v8c0 19 11 29 30 29z" />
    <glyph glyph-name="figuredash" unicode="&#x2012;" 
d="M75 338h420c19 0 30 -10 30 -29v-8c0 -19 -11 -29 -30 -29h-420c-19 0 -30 10 -30 29v8c0 19 11 29 30 29z" />
    <glyph glyph-name="periodcentered.cap" unicode="&#xe481;" horiz-adv-x="160" 
d="M45 375c0 28 22 50 50 50s50 -22 50 -50s-22 -50 -50 -50s-50 22 -50 50z" />
    <glyph glyph-name="hyphen.cap" unicode="&#xe482;" horiz-adv-x="310" 
d="M60 408h190c19 0 30 -10 30 -29v-8c0 -19 -11 -29 -30 -29h-190c-19 0 -30 10 -30 29v8c0 19 11 29 30 29z" />
    <glyph glyph-name="onethirdemdash.cap" unicode="&#xe483;" horiz-adv-x="333" 
d="M75 408h183c19 0 30 -10 30 -29v-8c0 -19 -11 -29 -30 -29h-183c-19 0 -30 10 -30 29v8c0 19 11 29 30 29z" />
    <glyph glyph-name="endash.cap" unicode="&#xe484;" horiz-adv-x="500" 
d="M75 408h350c19 0 30 -10 30 -29v-8c0 -19 -11 -29 -30 -29h-350c-19 0 -30 10 -30 29v8c0 19 11 29 30 29z" />
    <glyph glyph-name="threequarteremdash.cap" unicode="&#xe485;" horiz-adv-x="750" 
d="M75 408h600c19 0 30 -10 30 -29v-8c0 -19 -11 -29 -30 -29h-600c-19 0 -30 10 -30 29v8c0 19 11 29 30 29z" />
    <glyph glyph-name="emdash.cap" unicode="&#xe486;" horiz-adv-x="1000" 
d="M75 408h850c19 0 30 -10 30 -29v-8c0 -19 -11 -29 -30 -29h-850c-19 0 -30 10 -30 29v8c0 19 11 29 30 29z" />
    <glyph glyph-name="figuredash.cap" unicode="&#xe487;" 
d="M75 408h420c19 0 30 -10 30 -29v-8c0 -19 -11 -29 -30 -29h-420c-19 0 -30 10 -30 29v8c0 19 11 29 30 29z" />
    <glyph glyph-name="anglebracketleft" unicode="&#x3008;" horiz-adv-x="280" 
d="M42 305c0 8 2 14 3 19l124 469c4 15 15 23 31 23h21c17 0 26 -11 22 -28l-125 -483l125 -483c4 -17 -5 -28 -22 -28h-21c-16 0 -27 8 -31 23l-124 469c-1 5 -3 11 -3 19z" />
    <glyph glyph-name="anglebracketright" unicode="&#x3009;" horiz-adv-x="280" 
d="M238 305c0 -8 -2 -14 -3 -19l-124 -469c-4 -15 -15 -23 -31 -23h-21c-17 0 -26 11 -22 28l125 483l-125 483c-4 17 5 28 22 28h21c16 0 27 -8 31 -23l124 -469c1 -5 3 -11 3 -19z" />
    <glyph glyph-name="parenleft.cap" unicode="&#xe491;" horiz-adv-x="280" 
d="M50 375c0 248 66 405 111 489c10 18 19 22 30 22h20c13 0 30 -12 19 -33c-46 -90 -106 -235 -106 -478s60 -388 106 -478c11 -21 -6 -33 -19 -33h-20c-11 0 -20 4 -30 22c-45 84 -111 241 -111 489z" />
    <glyph glyph-name="parenright.cap" unicode="&#xe492;" horiz-adv-x="280" 
d="M230 375c0 -248 -66 -405 -111 -489c-10 -18 -19 -22 -30 -22h-20c-13 0 -30 12 -19 33c46 90 106 235 106 478s-60 388 -106 478c-11 21 6 33 19 33h20c11 0 20 -4 30 -22c45 -84 111 -241 111 -489z" />
    <glyph glyph-name="bracketleft.cap" unicode="&#xe493;" horiz-adv-x="230" 
d="M136 820v-890h34c19 0 30 -10 30 -29v-8c0 -19 -11 -29 -30 -29h-75c-20 0 -30 12 -30 32v958c0 20 10 32 30 32h75c19 0 30 -10 30 -29v-8c0 -19 -11 -29 -30 -29h-34z" />
    <glyph glyph-name="bracketright.cap" unicode="&#xe494;" horiz-adv-x="230" 
d="M94 -70v890h-34c-19 0 -30 10 -30 29v8c0 19 11 29 30 29h75c20 0 30 -12 30 -32v-958c0 -20 -10 -32 -30 -32h-75c-19 0 -30 10 -30 29v8c0 19 11 29 30 29h34z" />
    <glyph glyph-name="braceleft.cap" unicode="&#xe495;" horiz-adv-x="210" 
d="M18 381c0 19 11 26 30 29c11 2 23 11 22 37l-18 330c-4 77 46 109 98 109c19 0 30 -10 30 -29v-8c0 -19 -11 -28 -30 -30c-16 -2 -28 -13 -27 -38l18 -330c1 -31 -11 -57 -33 -76c22 -19 34 -45 33 -76l-18 -330c-1 -25 11 -36 27 -38c19 -2 30 -11 30 -30v-8
c0 -19 -11 -29 -30 -29c-52 0 -102 32 -98 109l18 330c1 26 -11 35 -22 37c-19 3 -30 10 -30 29v12z" />
    <glyph glyph-name="braceright.cap" unicode="&#xe496;" horiz-adv-x="210" 
d="M192 369c0 -19 -11 -26 -30 -29c-11 -2 -23 -11 -22 -37l18 -330c4 -77 -46 -109 -98 -109c-19 0 -30 10 -30 29v8c0 19 11 28 30 30c16 2 28 13 27 38l-18 330c-1 31 11 57 33 76c-22 19 -34 45 -33 76l18 330c1 25 -11 36 -27 38c-19 2 -30 11 -30 30v8
c0 19 11 29 30 29c52 0 102 -32 98 -109l-18 -330c-1 -26 11 -35 22 -37c19 -3 30 -10 30 -29v-12z" />
    <glyph glyph-name="anglebracketleft.cap" unicode="&#xe497;" horiz-adv-x="280" 
d="M42 375c0 8 2 14 3 19l124 469c4 15 15 23 31 23h21c17 0 26 -11 22 -28l-125 -483l125 -483c4 -17 -5 -28 -22 -28h-21c-16 0 -27 8 -31 23l-124 469c-1 5 -3 11 -3 19z" />
    <glyph glyph-name="anglebracketright.cap" unicode="&#xe498;" horiz-adv-x="280" 
d="M238 375c0 -8 -2 -14 -3 -19l-124 -469c-4 -15 -15 -23 -31 -23h-21c-17 0 -26 11 -22 28l125 483l-125 483c-4 17 5 28 22 28h21c16 0 27 -8 31 -23l124 -469c1 -5 3 -11 3 -19z" />
    <glyph glyph-name="lowline" unicode="&#xe511;" horiz-adv-x="360" 
d="M70 60h220c19 0 30 -9 30 -28v-4c0 -19 -11 -28 -30 -28h-220c-19 0 -30 9 -30 28v4c0 19 11 28 30 28z" />
    <glyph glyph-name="underscoremonospace" unicode="&#xe512;" 
d="M30 -95h510c19 0 30 -9 30 -28v-4c0 -19 -11 -28 -30 -28h-510c-19 0 -30 9 -30 28v4c0 19 11 28 30 28z" />
    <glyph glyph-name="underscoremonospace" unicode="&#xff3f;" 
d="M30 -95h510c19 0 30 -9 30 -28v-4c0 -19 -11 -28 -30 -28h-510c-19 0 -30 9 -30 28v4c0 19 11 28 30 28z" />
    <glyph glyph-name="published" unicode="&#x2117;" horiz-adv-x="774" 
d="M387 -10c-183 0 -332 116 -332 323s149 322 332 322s332 -115 332 -322s-149 -323 -332 -323zM387 52c159 0 261 93 261 261c0 166 -102 260 -261 260s-261 -94 -261 -260c0 -168 102 -261 261 -261zM423 257h-93v-101c0 -20 -10 -32 -30 -32h-6c-20 0 -30 12 -30 32v312
c0 20 10 32 30 32h129c94 0 126 -55 126 -121s-32 -122 -126 -122zM478 379c0 26 -8 60 -52 60h-96v-121h96c44 0 52 34 52 61z" />
    <glyph glyph-name="servicemark" unicode="&#x2120;" horiz-adv-x="545" 
d="M469 521l2 168l-67 -145c-5 -11 -15 -13 -23 -13h-4c-8 0 -18 2 -23 13l-67 145l2 -168c0 -13 -6 -21 -19 -21h-4c-13 0 -19 8 -19 21v209c0 13 6 20 19 20h19c14 0 20 -7 26 -20l68 -149l68 149c6 13 12 20 26 20h19c13 0 19 -7 19 -20v-209c0 -13 -6 -21 -19 -21h-4
c-13 0 -19 8 -19 21zM101 493c-26 0 -52 4 -68 8c-11 3 -16 11 -16 20v3c0 10 9 18 21 15c19 -4 36 -7 63 -7c50 0 68 15 68 41c0 24 -14 34 -59 37c-73 7 -98 25 -98 68c0 47 28 79 105 79c26 0 49 -3 65 -7c11 -3 16 -11 16 -20v-3c0 -10 -8 -18 -20 -15
c-19 4 -35 6 -62 6c-47 0 -64 -12 -64 -38c0 -22 18 -29 62 -32c71 -7 96 -28 96 -74c0 -44 -28 -81 -109 -81z" />
    <glyph glyph-name="tripleprime" unicode="&#x2034;" horiz-adv-x="470" 
d="M93 500c-11 0 -18 6 -19 18l-25 200c-2 19 9 32 30 32h32c21 0 32 -13 30 -32l-25 -200c-1 -12 -8 -18 -19 -18h-4zM373 500c-11 0 -18 6 -19 18l-25 200c-2 19 9 32 30 32h32c21 0 32 -13 30 -32l-25 -200c-1 -12 -8 -18 -19 -18h-4zM233 500c-11 0 -18 6 -19 18
l-25 200c-2 19 9 32 30 32h32c21 0 32 -13 30 -32l-25 -200c-1 -12 -8 -18 -19 -18h-4z" />
    <glyph glyph-name="at.cap" unicode="&#xe513;" horiz-adv-x="1010" 
d="M510 -135c-400 0 -470 242 -470 510s70 510 470 510s460 -172 460 -415c0 -213 -51 -345 -275 -345h-23c-14 0 -19 8 -25 25l-6 16c-52 -33 -102 -51 -156 -51c-161 0 -205 116 -205 260s44 260 205 260c54 0 104 -18 156 -51l6 16c6 17 11 25 25 25h2c14 0 21 -9 21 -23
v-420c164 0 206 108 206 288c0 211 -42 356 -391 356s-401 -218 -401 -451s52 -451 401 -451c117 0 199 22 226 32c19 7 30 -6 30 -20v-13c0 -11 -4 -22 -22 -29c-30 -11 -121 -29 -234 -29zM350 375c0 -99 15 -198 135 -198c65 0 101 11 140 32v332c-39 21 -75 32 -140 32
c-120 0 -135 -99 -135 -198z" />
    <glyph glyph-name="minus" unicode="&#x2212;" horiz-adv-x="490" 
d="M75 374h340c19 0 30 -10 30 -29v-8c0 -19 -11 -29 -30 -29h-340c-19 0 -30 10 -30 29v8c0 19 11 29 30 29z" />
    <glyph glyph-name="multiply" unicode="&#xd7;" horiz-adv-x="490" 
d="M70 212l129 129l-129 129c-14 13 -15 28 -1 41l6 6c13 14 28 13 41 -1l129 -129l129 129c13 14 28 15 41 1l6 -6c14 -13 13 -28 -1 -41l-129 -129l129 -129c14 -13 15 -28 1 -41l-6 -6c-13 -14 -28 -13 -41 1l-129 129l-129 -129c-13 -14 -28 -15 -41 -1l-6 6
c-14 13 -13 28 1 41z" />
    <glyph glyph-name="plus.cap" unicode="&#xe591;" horiz-adv-x="880" 
d="M407 30v312h-312c-19 0 -30 10 -30 29v8c0 19 11 29 30 29h312v312c0 19 10 30 29 30h8c19 0 29 -11 29 -30v-312h312c19 0 30 -10 30 -29v-8c0 -19 -11 -29 -30 -29h-312v-312c0 -19 -10 -30 -29 -30h-8c-19 0 -29 11 -29 30z" />
    <glyph glyph-name="minus.cap" unicode="&#xe592;" horiz-adv-x="880" 
d="M95 408h690c19 0 30 -10 30 -29v-8c0 -19 -11 -29 -30 -29h-690c-19 0 -30 10 -30 29v8c0 19 11 29 30 29z" />
    <glyph glyph-name="multiply.cap" unicode="&#xe593;" horiz-adv-x="880" 
d="M76 57l318 318l-318 318c-14 13 -15 28 -1 41l6 6c13 14 28 13 41 -1l318 -318l318 318c13 14 28 15 41 1l6 -6c14 -13 13 -28 -1 -41l-318 -318l318 -318c14 -13 15 -28 1 -41l-6 -6c-13 -14 -28 -13 -41 1l-318 318l-318 -318c-13 -14 -28 -15 -41 -1l-6 6
c-14 13 -13 28 1 41z" />
    <glyph glyph-name="divide.cap" unicode="&#xe594;" horiz-adv-x="880" 
d="M390 710c0 28 22 50 50 50s50 -22 50 -50s-22 -50 -50 -50s-50 22 -50 50zM390 40c0 28 22 50 50 50s50 -22 50 -50s-22 -50 -50 -50s-50 22 -50 50zM95 408h690c19 0 30 -10 30 -29v-8c0 -19 -11 -29 -30 -29h-690c-19 0 -30 10 -30 29v8c0 19 11 29 30 29z" />
    <glyph glyph-name="equal.cap" unicode="&#xe595;" horiz-adv-x="880" 
d="M95 508h690c19 0 30 -10 30 -29v-8c0 -19 -11 -29 -30 -29h-690c-19 0 -30 10 -30 29v8c0 19 11 29 30 29zM95 308h690c19 0 30 -10 30 -29v-8c0 -19 -11 -29 -30 -29h-690c-19 0 -30 10 -30 29v8c0 19 11 29 30 29z" />
    <glyph glyph-name="less.cap" unicode="&#xe596;" horiz-adv-x="880" 
d="M785 4l-695 326c-18 8 -25 20 -25 38v14c0 18 7 30 25 38l695 326c15 7 30 1 30 -16v-22c0 -16 -9 -25 -24 -32l-657 -301l657 -301c15 -7 24 -16 24 -32v-22c0 -17 -15 -23 -30 -16z" />
    <glyph glyph-name="greater.cap" unicode="&#xe597;" horiz-adv-x="880" 
d="M790 330l-695 -326c-15 -7 -30 -1 -30 16v22c0 16 9 25 24 32l657 301l-657 301c-15 7 -24 16 -24 32v22c0 17 15 23 30 16l695 -326c18 -8 25 -20 25 -38v-14c0 -18 -7 -30 -25 -38z" />
    <glyph glyph-name="registered.cap" horiz-adv-x="774" 
d="M387 -10c-183 0 -332 116 -332 323s149 322 332 322s332 -115 332 -322s-149 -323 -332 -323zM387 52c159 0 261 93 261 261c0 166 -102 260 -261 260s-261 -94 -261 -260c0 -168 102 -261 261 -261zM465 149l-56 109h-94v-102c0 -20 -10 -32 -30 -32h-6
c-20 0 -30 12 -30 32v312c0 20 10 32 30 32h130c94 0 125 -55 125 -121c0 -44 -19 -89 -58 -109l61 -111c10 -18 -2 -35 -21 -35h-8c-20 0 -35 10 -43 25zM463 379c0 26 -8 60 -52 60h-96v-121h96c44 0 52 34 52 61z" />
    <glyph glyph-name="registered" unicode="&#xae;" horiz-adv-x="314" 
d="M157 760c73 0 137 -23 137 -135c0 -111 -64 -135 -137 -135s-137 24 -137 135c0 112 64 135 137 135zM157 728c-59 0 -102 -15 -102 -103s43 -103 102 -103s102 15 102 103s-43 103 -102 103zM183 563l-23 41h-28v-36c0 -9 -5 -15 -14 -15h-4c-9 0 -14 6 -14 15v114
c0 9 5 15 14 15h50c37 0 50 -19 50 -46c0 -19 -6 -34 -21 -41l24 -43c5 -9 -3 -14 -10 -14h-6c-8 0 -13 2 -18 10zM180 651c0 9 -2 16 -18 16h-30v-32h30c16 0 18 7 18 16z" />
    <glyph glyph-name="ampersand.alt" horiz-adv-x="705" 
d="M320 52c31 0 64 4 96 13c-108 70 -184 181 -226 295c-42 -22 -80 -62 -80 -135c0 -122 88 -173 210 -173zM646 -9c-59 3 -111 16 -157 36c-54 -25 -113 -37 -169 -37c-161 0 -280 66 -280 235c0 100 62 165 130 198c-14 52 -21 104 -21 152c0 81 42 185 176 185
c119 0 150 -55 150 -122c0 -6 -1 -18 -3 -25c-3 -12 -11 -23 -26 -23h-19c-15 0 -21 10 -19 22c1 8 2 13 2 26c0 30 -11 60 -85 60c-89 0 -107 -69 -107 -123c0 -132 77 -377 272 -476c58 37 100 97 100 186c0 114 -53 153 -125 153c-48 0 -67 -3 -88 -8
c-17 -4 -32 5 -32 21v8c0 16 9 25 21 28c21 6 54 13 99 13c112 0 195 -65 195 -215c0 -95 -41 -165 -100 -214c27 -8 55 -12 86 -14c19 -1 29 -11 29 -29v-10c0 -18 -10 -28 -29 -27z" />
    <glyph glyph-name="ampersand.smcp" unicode="&#xe401;" horiz-adv-x="705" 
d="M278 269c-23 28 -44 57 -63 87c-56 -30 -100 -66 -100 -158c0 -114 88 -144 164 -144c66 0 124 19 173 55c-62 42 -120 93 -174 160zM231 475c23 -64 57 -115 96 -163c54 -66 113 -118 175 -159c66 72 106 182 112 315c1 20 10 32 30 32h8c20 0 31 -12 30 -32
c-6 -148 -50 -269 -122 -352c38 -21 77 -40 116 -57c17 -7 26 -20 19 -38l-2 -5c-6 -17 -21 -22 -38 -15c-48 20 -95 43 -141 70c-65 -52 -144 -81 -235 -81c-125 0 -234 53 -234 208c0 128 65 177 139 214c-9 19 -13 27 -22 53c-8 23 8 35 22 35h12c19 0 29 -8 35 -25z" />
    <glyph glyph-name="ampersand.smcp" unicode="&#xf726;" horiz-adv-x="705" 
d="M278 269c-23 28 -44 57 -63 87c-56 -30 -100 -66 -100 -158c0 -114 88 -144 164 -144c66 0 124 19 173 55c-62 42 -120 93 -174 160zM231 475c23 -64 57 -115 96 -163c54 -66 113 -118 175 -159c66 72 106 182 112 315c1 20 10 32 30 32h8c20 0 31 -12 30 -32
c-6 -148 -50 -269 -122 -352c38 -21 77 -40 116 -57c17 -7 26 -20 19 -38l-2 -5c-6 -17 -21 -22 -38 -15c-48 20 -95 43 -141 70c-65 -52 -144 -81 -235 -81c-125 0 -234 53 -234 208c0 128 65 177 139 214c-9 19 -13 27 -22 53c-8 23 8 35 22 35h12c19 0 29 -8 35 -25z" />
    <glyph glyph-name="dotbelow" unicode="&#xe415;" 
d="M235 -150c0 28 22 50 50 50s50 -22 50 -50s-22 -50 -50 -50s-50 22 -50 50z" />
    <glyph glyph-name="uni0329" unicode="&#x329;" 
d="M255 -221v142c0 19 10 29 28 29h4c18 0 28 -10 28 -29v-142c0 -18 -10 -29 -28 -29h-4c-18 0 -28 11 -28 29z" />
    <glyph glyph-name="grave.cap" unicode="&#xe421;" 
d="M272 876l25 -49c7 -13 -1 -27 -15 -27h-9c-10 0 -18 6 -28 17l-42 47c-14 15 -3 36 14 36h19c16 0 28 -8 36 -24z" />
    <glyph glyph-name="acute.cap" unicode="&#xe422;" 
d="M273 827l25 49c8 16 20 24 36 24h19c17 0 28 -21 14 -36l-42 -47c-10 -11 -18 -17 -28 -17h-9c-14 0 -22 14 -15 27z" />
    <glyph glyph-name="circumflex.cap" unicode="&#xe423;" 
d="M351 878l60 -53c12 -10 5 -25 -6 -25h-5c-13 0 -24 5 -37 12l-78 44l-78 -44c-13 -7 -24 -12 -37 -12h-5c-11 0 -18 15 -6 25l60 53c19 16 31 22 47 22h38c16 0 28 -6 47 -22z" />
    <glyph glyph-name="tilde.cap" unicode="&#xe424;" 
d="M209 910c82 0 100 -61 152 -61c32 0 41 15 45 27c6 17 14 24 30 24h2c18 0 28 -14 26 -32c-5 -44 -43 -78 -103 -78c-82 0 -100 61 -152 61c-32 0 -41 -15 -45 -27c-6 -17 -14 -24 -30 -24h-2c-18 0 -28 14 -26 32c5 44 43 78 103 78z" />
    <glyph glyph-name="macron.cap" unicode="&#xe425;" 
d="M177 880h216c19 0 29 -10 29 -28v-4c0 -18 -10 -28 -29 -28h-216c-18 0 -29 10 -29 28v4c0 18 11 28 29 28z" />
    <glyph glyph-name="breve.cap" unicode="&#xe426;" 
d="M285 790c-103 0 -130 43 -140 77c-6 20 6 33 21 33h3c15 0 22 -7 28 -23c5 -14 27 -32 88 -32s83 18 88 32c6 16 13 23 28 23h3c15 0 27 -13 21 -33c-10 -34 -37 -77 -140 -77z" />
    <glyph glyph-name="invertedbreve.cap" unicode="&#xe427;" 
d="M285 910c103 0 130 -43 140 -77c6 -20 -6 -33 -21 -33h-3c-15 0 -22 7 -28 23c-5 14 -27 32 -88 32s-83 -18 -88 -32c-6 -16 -13 -23 -28 -23h-3c-15 0 -27 13 -21 33c10 34 37 77 140 77z" />
    <glyph glyph-name="dotaccent.cap" unicode="&#xe428;" 
d="M235 850c0 28 22 50 50 50s50 -22 50 -50s-22 -50 -50 -50s-50 22 -50 50z" />
    <glyph glyph-name="dieresis.cap" unicode="&#xe429;" 
d="M140 850c0 28 22 50 50 50s50 -22 50 -50s-22 -50 -50 -50s-50 22 -50 50zM330 850c0 28 22 50 50 50s50 -22 50 -50s-22 -50 -50 -50s-50 22 -50 50z" />
    <glyph glyph-name="ring.cap" unicode="&#xe42a;" 
d="M285 921c50 0 94 -16 94 -71s-44 -71 -94 -71s-94 16 -94 71s44 71 94 71zM285 828c30 0 44 7 44 22s-14 22 -44 22s-44 -7 -44 -22s14 -22 44 -22z" />
    <glyph glyph-name="hungarumlaut.cap" unicode="&#xe42b;" 
d="M213 827l25 49c8 16 20 24 36 24h19c17 0 28 -21 14 -36l-42 -47c-10 -11 -18 -17 -28 -17h-9c-14 0 -22 14 -15 27zM333 827l25 49c8 16 20 24 36 24h19c17 0 28 -21 14 -36l-42 -47c-10 -11 -18 -17 -28 -17h-9c-14 0 -22 14 -15 27z" />
    <glyph glyph-name="doublegrave.cap" unicode="&#xe42c;" 
d="M212 876l25 -49c7 -13 -1 -27 -15 -27h-9c-10 0 -18 6 -28 17l-42 47c-14 15 -3 36 14 36h19c16 0 28 -8 36 -24zM332 876l25 -49c7 -13 -1 -27 -15 -27h-9c-10 0 -18 6 -28 17l-42 47c-14 15 -3 36 14 36h19c16 0 28 -8 36 -24z" />
    <glyph glyph-name="caron.cap" unicode="&#xe42d;" 
d="M219 822l-60 53c-12 10 -5 25 6 25h5c13 0 24 -5 37 -12l78 -44l78 44c13 7 24 12 37 12h5c11 0 18 -15 6 -25l-60 -53c-19 -16 -31 -22 -47 -22h-38c-16 0 -28 6 -47 22z" />
    <glyph glyph-name="exclamdown.cap" unicode="&#xe441;" horiz-adv-x="190" 
d="M97 540c11 0 18 -6 19 -18l27 -490c1 -17 -9 -32 -30 -32h-36c-21 0 -31 15 -30 32l27 490c1 12 8 18 19 18h4zM145 710c0 -28 -22 -50 -50 -50s-50 22 -50 50s22 50 50 50s50 -22 50 -50z" />
    <glyph glyph-name="questiondown.cap" unicode="&#xe444;" horiz-adv-x="470" 
d="M291 -10c-210 0 -246 96 -246 198c0 126 73 163 184 208c71 29 72 68 74 126c0 12 9 18 20 18h1c11 0 18 -7 20 -20c2 -11 4 -32 4 -44c0 -55 -15 -102 -105 -136c-66 -25 -131 -47 -131 -151c0 -83 30 -137 178 -137c52 0 97 7 125 14c21 5 30 -7 30 -20v-10
c0 -11 -4 -22 -22 -28c-26 -9 -89 -18 -132 -18zM352 710c0 -28 -22 -50 -50 -50s-50 22 -50 50s22 50 50 50s50 -22 50 -50z" />
    <glyph glyph-name="interrobangdown.cap" horiz-adv-x="470" 
d="M264 415l6 107c1 12 8 18 19 18h4c11 0 18 -6 19 -18l26 -468c31 2 58 7 77 12c21 5 30 -7 30 -20v-10c0 -11 -4 -22 -22 -28c-26 -9 -89 -18 -132 -18c-210 0 -246 96 -246 198c0 126 73 163 184 208c14 6 26 12 35 19zM112 189c0 -73 24 -124 132 -135l17 296
c-6 -2 -12 -4 -18 -7c-66 -25 -131 -50 -131 -154zM341 710c0 -28 -22 -50 -50 -50s-50 22 -50 50s22 50 50 50s50 -22 50 -50z" />
    <glyph glyph-name="Euro.LP" unicode="&#xe521;" 
d="M75 332h30v86h-30c-19 0 -30 10 -30 29v8c0 19 11 29 30 29h34c14 171 72 276 251 276c60 0 111 -11 135 -19c20 -7 24 -19 24 -31v-9c0 -13 -12 -25 -34 -19c-32 9 -71 16 -125 16c-126 0 -169 -83 -181 -214h253c17 0 23 -14 17 -29l-5 -13c-5 -15 -17 -24 -33 -24
h-236v-86h184c17 0 23 -14 17 -29l-5 -13c-5 -15 -17 -24 -33 -24h-159c12 -131 55 -214 181 -214c54 0 93 7 125 16c22 6 34 -6 34 -19v-9c0 -12 -4 -24 -24 -31c-24 -8 -75 -19 -135 -19c-179 0 -237 105 -251 276h-34c-19 0 -30 10 -30 29v8c0 19 11 29 30 29z" />
    <glyph glyph-name="dollar.LP" unicode="&#xe522;" 
d="M465 557c-46 10 -113 18 -170 18c-108 0 -181 -16 -181 -92c0 -61 73 -63 175 -71c150 -13 231 -30 231 -141c0 -103 -90 -156 -256 -156h-20l-31 -90c-5 -15 -17 -24 -33 -24h-22c-17 0 -23 14 -17 29l35 91c-35 4 -70 10 -96 17c-16 4 -20 16 -20 27v12
c0 13 7 23 28 18c43 -10 117 -20 177 -20c113 0 189 23 189 95c0 66 -65 76 -170 84c-153 13 -234 27 -234 129c0 110 91 152 246 152c8 0 19 0 30 -1l31 92c5 15 17 24 33 24h22c17 0 23 -14 17 -29l-35 -92c29 -4 57 -9 81 -15c16 -4 20 -16 20 -27v-12
c0 -13 -8 -23 -30 -18z" />
    <glyph glyph-name="cent.LP" unicode="&#xe523;" 
d="M196 29l37 97c-111 30 -178 114 -178 249c0 170 107 260 276 260l31 91c5 15 17 24 33 24h22c17 0 23 -14 17 -29l-35 -91c34 -5 62 -12 82 -18c16 -5 19 -17 19 -28v-12c0 -13 -9 -24 -30 -18c-26 7 -75 19 -140 19c-126 0 -205 -72 -205 -198s79 -198 205 -198
c65 0 114 12 140 19c21 6 30 -5 30 -18v-13c0 -11 -5 -23 -21 -28c-20 -6 -75 -22 -148 -22c-11 0 -22 0 -32 1l-31 -92c-5 -15 -17 -24 -33 -24h-22c-17 0 -23 14 -17 29z" />
    <glyph glyph-name="sterling.LP" unicode="&#xe524;" horiz-adv-x="579" 
d="M65 422h50v140c0 114 70 198 231 198c60 0 138 -15 163 -23c18 -6 25 -18 25 -31v-10c0 -13 -10 -24 -31 -19c-20 5 -88 21 -157 21c-114 0 -161 -39 -161 -135v-141h249c19 0 30 -9 30 -28v-5c0 -19 -11 -28 -30 -28h-249v-300h339c19 0 30 -9 30 -28v-5
c0 -19 -11 -28 -30 -28h-459c-19 0 -30 9 -30 28v5c0 19 11 28 30 28h50v300h-50c-19 0 -30 9 -30 28v5c0 19 11 28 30 28z" />
    <glyph glyph-name="florin.LP" unicode="&#xe525;" horiz-adv-x="520" 
d="M202 445v-417c0 -19 -11 -28 -30 -28h-7c-19 0 -30 9 -30 28v417h-82c-12 0 -18 8 -18 18s7 15 17 18l83 24v90c0 101 55 165 180 165c59 0 103 -9 128 -17c18 -6 22 -16 22 -27v-14c0 -13 -9 -23 -30 -18c-20 5 -58 14 -120 14c-65 0 -113 -35 -113 -103v-95h211
c17 0 27 -9 27 -26v-3c0 -17 -10 -26 -27 -26h-211z" />
    <glyph glyph-name="yen.LP" unicode="&#xe526;" 
d="M70 484h82l-122 228c-9 17 -4 38 18 38h19c20 0 33 -10 40 -24l178 -361l178 361c7 14 20 24 40 24h19c22 0 27 -21 18 -38l-122 -228h82c19 0 30 -9 30 -28v-10c0 -19 -11 -28 -30 -28h-118l-46 -86h164c19 0 30 -9 30 -28v-10c0 -19 -11 -28 -30 -28h-180v-234
c0 -20 -10 -32 -30 -32h-10c-20 0 -30 12 -30 32v234h-180c-19 0 -30 9 -30 28v10c0 19 11 28 30 28h163l-46 86h-117c-19 0 -30 9 -30 28v10c0 19 11 28 30 28z" />
    <glyph glyph-name="numbersign.LP" unicode="&#xe533;" 
d="M73 529l4 13c5 16 17 24 33 24h74l36 160c4 16 15 24 31 24h9c17 0 27 -14 23 -29l-35 -155h157l36 160c4 16 15 24 31 24h9c17 0 27 -14 23 -29l-35 -155h61c17 0 26 -14 21 -29l-4 -13c-5 -16 -17 -24 -33 -24h-59l-55 -250h76c17 0 26 -14 21 -29l-4 -13
c-5 -16 -17 -24 -33 -24h-75l-35 -160c-4 -16 -15 -24 -31 -24h-9c-17 0 -27 14 -23 29l34 155h-157l-35 -160c-4 -16 -15 -24 -31 -24h-9c-17 0 -27 14 -23 29l34 155h-60c-17 0 -26 14 -21 29l4 13c5 16 17 24 33 24h58l56 250h-76c-17 0 -26 14 -21 29zM234 500l-55 -250
h156l56 250h-157z" />
    <glyph glyph-name="zero.LP" unicode="&#xe534;" 
d="M515 375c0 -235 -14 -385 -230 -385c-214 0 -230 150 -230 385s16 385 230 385c216 0 230 -150 230 -385zM445 375c0 192 -4 323 -160 323c-158 0 -160 -131 -160 -323s2 -323 160 -323c156 0 160 131 160 323z" />
    <glyph glyph-name="one.LP" unicode="&#xe536;" horiz-adv-x="330" 
d="M145 688l-120 -4c-9 0 -15 4 -15 13v3c0 8 4 11 13 14l130 37c20 6 32 9 39 9h3c14 0 21 -7 21 -21v-707c0 -20 -10 -32 -30 -32h-11c-20 0 -30 12 -30 32v656z" />
    <glyph glyph-name="two.LP" unicode="&#xe537;" 
d="M281 760c210 0 240 -116 240 -200c0 -128 -71 -227 -396 -497l366 2c19 0 30 -10 30 -29v-7c0 -19 -11 -29 -30 -29h-426c-19 0 -30 10 -30 29v8c0 11 7 19 12 24c399 334 403 411 403 500c0 76 -28 135 -168 135c-77 0 -124 -16 -158 -27c-17 -6 -30 7 -30 21v17
c0 11 4 20 22 27c29 11 85 26 165 26z" />
    <glyph glyph-name="three.LP" unicode="&#xe538;" 
d="M245 -10c-85 0 -144 15 -173 26c-18 7 -22 16 -22 27v17c0 14 13 27 30 21c34 -11 84 -27 166 -27c168 0 206 74 206 157c0 105 -58 145 -181 145h-106c-19 0 -30 10 -30 29v8c0 19 11 29 30 29h106c113 0 156 70 156 136c0 77 -36 138 -189 138c-77 0 -124 -16 -158 -27
c-17 -6 -30 7 -30 21v17c0 11 4 20 22 27c29 11 85 26 165 26c203 0 264 -89 264 -202c0 -71 -47 -140 -112 -164c86 -19 137 -95 137 -183c0 -121 -65 -221 -281 -221z" />
    <glyph glyph-name="four.LP" unicode="&#xe539;" 
d="M365 281l2 361l-248 -363zM365 32v187h-298c-17 0 -27 9 -27 26v5c0 11 5 19 15 34l312 454c9 14 18 22 33 22h3c20 0 30 -12 30 -32v-447h80c17 0 27 -9 27 -26v-10c0 -17 -10 -26 -27 -26h-80v-187c0 -20 -10 -32 -30 -32h-8c-20 0 -30 12 -30 32z" />
    <glyph glyph-name="five.LP" unicode="&#xe53a;" 
d="M223 -10c-51 0 -100 8 -142 23c-18 6 -22 16 -22 27v13c0 14 11 27 30 21c33 -10 75 -22 135 -22c84 0 203 24 203 181c0 152 -101 150 -198 150h-110c-20 0 -30 12 -30 32v303c0 20 10 32 30 32h335c19 0 30 -10 30 -29v-4c0 -19 -11 -29 -30 -29h-297v-245
c31 3 68 5 95 5c121 0 247 -24 247 -215c0 -216 -162 -243 -276 -243z" />
    <glyph glyph-name="six.LP" unicode="&#xe53b;" 
d="M129 231c0 -80 26 -179 170 -179c136 0 156 111 156 179s-12 179 -156 179c-141 0 -170 -101 -170 -179zM330 696c-158 0 -211 -134 -211 -322c24 45 80 98 180 98c205 0 226 -140 226 -241s-31 -241 -226 -241c-215 0 -244 142 -244 355c0 246 55 415 275 415
c58 0 110 -8 152 -23c18 -6 23 -17 23 -28v-15c0 -14 -11 -27 -30 -21c-36 11 -77 23 -145 23z" />
    <glyph glyph-name="seven.LP" unicode="&#xe53c;" 
d="M119 35l346 653h-403c-17 0 -27 9 -27 26v10c0 17 10 26 27 26h446c17 0 27 -9 27 -26v-9c0 -12 -5 -24 -14 -42l-320 -647c-8 -15 -19 -26 -40 -26h-24c-19 0 -27 19 -18 35z" />
    <glyph glyph-name="eight.LP" unicode="&#xe53d;" 
d="M285 -10c-187 0 -253 104 -253 221c0 75 38 159 124 184c-65 30 -99 92 -99 157c0 109 58 208 228 208s228 -99 228 -208c0 -65 -34 -127 -99 -157c86 -25 124 -109 124 -184c0 -117 -66 -221 -253 -221zM285 358c-117 0 -179 -46 -179 -147c0 -72 38 -159 179 -159
s179 87 179 159c0 101 -62 147 -179 147zM285 420c113 0 154 68 154 132c0 66 -27 146 -154 146s-154 -80 -154 -146c0 -64 41 -132 154 -132z" />
    <glyph glyph-name="nine.LP" unicode="&#xe53e;" 
d="M451 519c0 80 -26 179 -170 179c-136 0 -156 -111 -156 -179s12 -179 156 -179c141 0 170 101 170 179zM250 54c158 0 211 134 211 322c-24 -45 -80 -98 -180 -98c-205 0 -226 140 -226 241s31 241 226 241c215 0 244 -142 244 -355c0 -246 -55 -415 -275 -415
c-58 0 -110 8 -152 23c-18 6 -23 17 -23 28v15c0 14 11 27 30 21c36 -11 77 -23 145 -23z" />
    <glyph glyph-name="zero.LT" unicode="&#xe53f;" horiz-adv-x="600" 
d="M530 375c0 -235 -14 -385 -230 -385c-214 0 -230 150 -230 385s16 385 230 385c216 0 230 -150 230 -385zM460 375c0 192 -4 323 -160 323c-158 0 -160 -131 -160 -323s2 -323 160 -323c156 0 160 131 160 323z" />
    <glyph glyph-name="one.LT" unicode="&#xe541;" horiz-adv-x="600" 
d="M489 0h-360c-10 0 -19 5 -19 18v4c0 12 7 18 20 19l145 9v638l-155 -14c-10 -1 -15 4 -15 13v3c0 8 6 12 14 14l164 47c20 6 32 9 39 9h1c14 0 20 -7 20 -21v-689l145 -9c13 -1 20 -7 20 -19v-4c0 -13 -9 -18 -19 -18z" />
    <glyph glyph-name="two.LT" unicode="&#xe542;" horiz-adv-x="600" 
d="M303 760c210 0 240 -116 240 -200c0 -128 -71 -227 -396 -497l366 2c19 0 30 -10 30 -29v-7c0 -19 -11 -29 -30 -29h-426c-19 0 -30 10 -30 29v8c0 11 7 19 12 24c399 334 403 411 403 500c0 76 -28 135 -168 135c-77 0 -124 -16 -158 -27c-17 -6 -30 7 -30 21v17
c0 11 4 20 22 27c29 11 85 26 165 26z" />
    <glyph glyph-name="three.LT" unicode="&#xe543;" horiz-adv-x="600" 
d="M257 -10c-85 0 -144 15 -173 26c-18 7 -22 16 -22 27v17c0 14 13 27 30 21c34 -11 84 -27 166 -27c168 0 206 74 206 157c0 105 -58 145 -181 145h-106c-19 0 -30 10 -30 29v8c0 19 11 29 30 29h106c113 0 156 70 156 136c0 77 -36 138 -189 138c-77 0 -124 -16 -158 -27
c-17 -6 -30 7 -30 21v17c0 11 4 20 22 27c29 11 85 26 165 26c203 0 264 -89 264 -202c0 -71 -47 -140 -112 -164c86 -19 137 -95 137 -183c0 -121 -65 -221 -281 -221z" />
    <glyph glyph-name="four.LT" unicode="&#xe544;" horiz-adv-x="600" 
d="M375 281l2 361l-248 -363zM375 32v187h-298c-17 0 -27 9 -27 26v5c0 11 5 19 15 34l312 454c9 14 18 22 33 22h3c20 0 30 -12 30 -32v-447h80c17 0 27 -9 27 -26v-10c0 -17 -10 -26 -27 -26h-80v-187c0 -20 -10 -32 -30 -32h-8c-20 0 -30 12 -30 32z" />
    <glyph glyph-name="five.LT" unicode="&#xe545;" horiz-adv-x="600" 
d="M244 -10c-51 0 -100 8 -142 23c-18 6 -22 16 -22 27v13c0 14 11 27 30 21c33 -10 75 -22 135 -22c84 0 203 24 203 181c0 152 -101 150 -198 150h-110c-20 0 -30 12 -30 32v303c0 20 10 32 30 32h335c19 0 30 -10 30 -29v-4c0 -19 -11 -29 -30 -29h-297v-245
c31 3 68 5 95 5c121 0 247 -24 247 -215c0 -216 -162 -243 -276 -243z" />
    <glyph glyph-name="six.LT" unicode="&#xe546;" horiz-adv-x="600" 
d="M139 231c0 -80 26 -179 170 -179c136 0 156 111 156 179s-12 179 -156 179c-141 0 -170 -101 -170 -179zM340 696c-158 0 -211 -134 -211 -322c24 45 80 98 180 98c205 0 226 -140 226 -241s-31 -241 -226 -241c-215 0 -244 142 -244 355c0 246 55 415 275 415
c58 0 110 -8 152 -23c18 -6 23 -17 23 -28v-15c0 -14 -11 -27 -30 -21c-36 11 -77 23 -145 23z" />
    <glyph glyph-name="seven.LT" unicode="&#xe547;" horiz-adv-x="600" 
d="M134 35l346 653h-403c-17 0 -27 9 -27 26v10c0 17 10 26 27 26h446c17 0 27 -9 27 -26v-9c0 -12 -5 -24 -14 -42l-320 -647c-8 -15 -19 -26 -40 -26h-24c-19 0 -27 19 -18 35z" />
    <glyph glyph-name="eight.LT" unicode="&#xe548;" horiz-adv-x="600" 
d="M300 -10c-187 0 -253 104 -253 221c0 75 38 159 124 184c-65 30 -99 92 -99 157c0 109 58 208 228 208s228 -99 228 -208c0 -65 -34 -127 -99 -157c86 -25 124 -109 124 -184c0 -117 -66 -221 -253 -221zM300 358c-117 0 -179 -46 -179 -147c0 -72 38 -159 179 -159
s179 87 179 159c0 101 -62 147 -179 147zM300 420c113 0 154 68 154 132c0 66 -27 146 -154 146s-154 -80 -154 -146c0 -64 41 -132 154 -132z" />
    <glyph glyph-name="nine.LT" unicode="&#xe549;" horiz-adv-x="600" 
d="M461 519c0 80 -26 179 -170 179c-136 0 -156 -111 -156 -179s12 -179 156 -179c141 0 170 101 170 179zM260 54c158 0 211 134 211 322c-24 -45 -80 -98 -180 -98c-205 0 -226 140 -226 241s31 241 226 241c215 0 244 -142 244 -355c0 -246 -55 -415 -275 -415
c-58 0 -110 8 -152 23c-18 6 -23 17 -23 28v15c0 14 11 27 30 21c36 -11 77 -23 145 -23z" />
    <glyph glyph-name="zero.slash" unicode="&#xe515;" horiz-adv-x="600" 
d="M530 375c0 -235 -14 -385 -230 -385c-214 0 -230 150 -230 385s16 385 230 385c216 0 230 -150 230 -385zM140 375c0 -94 0 -174 19 -230l239 523c-23 19 -55 30 -98 30c-158 0 -160 -131 -160 -323zM460 375c0 93 -1 172 -20 229l-239 -523c23 -19 55 -29 99 -29
c156 0 160 131 160 323z" />
    <glyph glyph-name="Euro.OP" horiz-adv-x="530" 
d="M85 250c0 11 0 22 1 33h-31c-19 0 -30 10 -30 29v8c0 19 11 29 30 29h42c27 100 102 161 232 161c71 0 119 -14 139 -20c16 -5 20 -17 20 -28v-13c0 -13 -8 -24 -29 -18c-26 7 -66 17 -131 17c-85 0 -134 -39 -157 -99h200c17 0 23 -14 17 -29l-5 -13
c-5 -15 -17 -24 -33 -24h-194c-1 -11 -1 -22 -1 -33c0 -12 0 -23 1 -33h169c17 0 23 -14 17 -29l-5 -13c-5 -15 -17 -24 -33 -24h-133c23 -60 72 -99 157 -99c65 0 105 10 131 17c21 6 29 -5 29 -18v-13c0 -11 -4 -23 -20 -28c-20 -6 -68 -20 -139 -20
c-130 0 -205 61 -232 161h-42c-19 0 -30 10 -30 29v8c0 19 11 29 30 29h31c-1 10 -1 21 -1 33z" />
    <glyph glyph-name="dollar.OP" horiz-adv-x="515" 
d="M225 -10l-30 -88c-5 -16 -18 -26 -34 -26h-16c-17 0 -28 17 -21 34l33 86c-29 3 -58 9 -78 15c-16 5 -20 16 -20 27v12c0 13 8 24 29 18c26 -7 83 -17 148 -17c109 0 161 34 161 93c0 57 -40 77 -142 85c-149 13 -204 47 -204 131c0 95 76 150 231 150l30 89
c5 16 18 26 34 26h18c17 0 26 -16 19 -33l-33 -87c29 -4 49 -8 69 -14c16 -5 20 -16 20 -27v-13c0 -13 -8 -24 -29 -18c-26 7 -79 16 -144 16c-103 0 -150 -26 -150 -89c0 -52 45 -64 144 -73c146 -12 204 -45 204 -142c0 -91 -75 -155 -239 -155z" />
    <glyph glyph-name="cent.OP" horiz-adv-x="515" 
d="M166 -91l36 94c-101 34 -147 123 -147 247c0 157 75 260 244 260l30 89c5 16 18 26 34 26h18c17 0 26 -16 19 -33l-33 -87c29 -4 51 -9 71 -15c16 -5 20 -17 20 -28v-13c0 -13 -8 -24 -29 -18c-26 7 -66 17 -131 17c-126 0 -173 -86 -173 -198c0 -113 47 -198 173 -198
c65 0 105 10 131 17c21 6 29 -5 29 -18v-13c0 -11 -4 -23 -20 -28c-20 -6 -68 -20 -139 -20c-11 0 -22 0 -32 1l-30 -90c-5 -16 -18 -26 -34 -26h-16c-17 0 -28 17 -21 34z" />
    <glyph glyph-name="sterling.OP" horiz-adv-x="534" 
d="M65 287h40v55c0 100 46 168 201 168c61 0 111 -11 136 -19c18 -6 22 -16 22 -27v-14c0 -13 -9 -23 -30 -18c-20 5 -65 16 -128 16c-96 0 -131 -32 -131 -105v-56h189c19 0 30 -9 30 -28v-5c0 -19 -11 -28 -30 -28h-189v-165h279c19 0 30 -9 30 -28v-5
c0 -19 -11 -28 -30 -28h-389c-19 0 -30 9 -30 28v5c0 19 11 28 30 28h40v165h-40c-19 0 -30 9 -30 28v5c0 19 11 28 30 28z" />
    <glyph glyph-name="florin.OP" horiz-adv-x="500" 
d="M45 287h70v58c0 101 55 165 180 165c59 0 103 -9 128 -17c18 -6 22 -16 22 -27v-14c0 -13 -9 -23 -30 -18c-20 5 -58 14 -120 14c-65 0 -113 -35 -113 -103v-58h208c19 0 30 -9 30 -28v-5c0 -19 -11 -28 -30 -28h-208v-448c0 -19 -11 -28 -30 -28h-7c-19 0 -30 9 -30 28
v448h-70c-19 0 -30 9 -30 28v5c0 19 11 28 30 28z" />
    <glyph glyph-name="yen.OP" horiz-adv-x="552" 
d="M400 316h62c19 0 30 -9 30 -28v-10c0 -19 -11 -28 -30 -28h-106l-44 -66h150c19 0 30 -9 30 -28v-10c0 -19 -11 -28 -30 -28h-152v-86c0 -20 -10 -32 -30 -32h-7c-20 0 -30 12 -30 32v86h-152c-19 0 -30 9 -30 28v10c0 19 11 28 30 28h149l-44 66h-105
c-19 0 -30 9 -30 28v10c0 19 11 28 30 28h61l-98 147c-11 16 -3 37 17 37h20c15 0 26 -6 33 -18l152 -252l152 252c7 12 18 18 33 18h20c20 0 28 -21 17 -37z" />
    <glyph glyph-name="numbersign.OP" horiz-adv-x="555" 
d="M74 338l4 13c5 16 17 24 33 24h70l30 101c5 16 17 24 33 24h13c17 0 26 -14 21 -29l-29 -96h132l30 101c5 16 17 24 33 24h13c17 0 26 -14 21 -29l-29 -96h66c17 0 26 -14 21 -29l-4 -13c-5 -16 -17 -24 -33 -24h-70l-35 -118h66c17 0 26 -14 21 -29l-4 -13
c-5 -16 -17 -24 -33 -24h-70l-30 -101c-5 -16 -17 -24 -33 -24h-13c-17 0 -26 14 -21 29l29 96h-132l-30 -101c-5 -16 -17 -24 -33 -24h-13c-17 0 -26 14 -21 29l29 96h-66c-17 0 -26 14 -21 29l4 13c5 16 17 24 33 24h69l36 118h-66c-17 0 -26 14 -21 29zM229 309l-35 -118
h131l36 118h-132z" />
    <glyph glyph-name="zero.OP" unicode="&#xe54a;" 
d="M280 510c151 0 235 -81 235 -260c0 -178 -84 -260 -235 -260s-225 82 -225 260c0 179 74 260 225 260zM280 448c-103 0 -153 -55 -153 -198s50 -198 153 -198s163 55 163 198c0 141 -60 198 -163 198z" />
    <glyph glyph-name="one.OP" unicode="&#xe54c;" horiz-adv-x="330" 
d="M146 438l-120 -4c-9 0 -15 4 -15 13v3c0 8 4 11 13 14l130 37c20 6 32 9 39 9h2c14 0 21 -7 21 -21v-457c0 -20 -10 -32 -30 -32h-10c-20 0 -30 12 -30 32v406z" />
    <glyph glyph-name="two.OP" unicode="&#xe54d;" horiz-adv-x="500" 
d="M234 448c-60 0 -108 -14 -129 -20c-19 -5 -30 7 -30 21v14c0 11 4 21 22 27c25 8 85 20 138 20c153 0 204 -71 204 -161c0 -83 -51 -137 -296 -287h286c19 0 30 -10 30 -29v-4c0 -19 -11 -29 -30 -29h-358c-19 0 -30 10 -30 29v4c0 11 9 18 14 22
c273 185 316 226 316 295c0 72 -47 98 -137 98z" />
    <glyph glyph-name="three.OP" unicode="&#xe54e;" horiz-adv-x="505" 
d="M215 -198c145 0 177 80 177 159c0 101 -48 145 -171 145h-81c-19 0 -30 10 -30 29v8c0 19 11 29 30 29h81c113 0 146 72 146 136c0 74 -27 140 -159 140c-60 0 -107 -15 -128 -21c-19 -5 -30 7 -30 21v14c0 11 4 21 22 27c22 7 84 21 136 21c175 0 233 -93 233 -202
c0 -65 -37 -136 -102 -164c86 -23 127 -103 127 -183c0 -117 -64 -221 -251 -221c-52 0 -101 8 -143 23c-18 6 -22 16 -22 27v13c0 14 11 27 30 21c33 -10 75 -22 135 -22z" />
    <glyph glyph-name="four.OP" unicode="&#xe54f;" 
d="M365 31l2 361l-248 -363zM365 -218v187h-298c-17 0 -27 9 -27 26v5c0 11 5 19 15 34l312 454c9 14 18 22 33 22h3c20 0 30 -12 30 -32v-447h80c17 0 27 -9 27 -26v-10c0 -17 -10 -26 -27 -26h-80v-187c0 -20 -10 -32 -30 -32h-8c-20 0 -30 12 -30 32z" />
    <glyph glyph-name="five.OP" unicode="&#xe540;" horiz-adv-x="500" 
d="M203 -260c-51 0 -100 8 -142 23c-18 6 -22 16 -22 27v13c0 14 11 27 30 21c33 -10 75 -22 135 -22c84 0 203 24 203 181c0 152 -101 150 -198 150h-110c-20 0 -30 12 -30 32v303c0 20 10 32 30 32h335c19 0 30 -10 30 -29v-4c0 -19 -11 -29 -30 -29h-297v-245
c31 3 68 5 95 5c121 0 247 -24 247 -215c0 -216 -162 -243 -276 -243z" />
    <glyph glyph-name="six.OP" unicode="&#xe551;" horiz-adv-x="575" 
d="M129 231c0 -80 26 -179 170 -179c136 0 156 111 156 179s-12 179 -156 179c-141 0 -170 -101 -170 -179zM330 696c-158 0 -211 -134 -211 -322c24 45 80 98 180 98c205 0 226 -140 226 -241s-31 -241 -226 -241c-215 0 -244 142 -244 355c0 246 55 415 275 415
c58 0 110 -8 152 -23c18 -6 23 -17 23 -28v-15c0 -14 -11 -27 -30 -21c-36 11 -77 23 -145 23z" />
    <glyph glyph-name="seven.OP" unicode="&#xe552;" horiz-adv-x="435" 
d="M80 -217l278 655h-321c-17 0 -27 9 -27 26v10c0 17 10 26 27 26h361c17 0 27 -9 27 -26v-5c0 -12 -2 -21 -9 -39l-262 -653c-7 -17 -17 -27 -35 -27h-20c-16 0 -26 15 -19 33z" />
    <glyph glyph-name="eight.OP" unicode="&#xe553;" 
d="M285 -10c-187 0 -253 104 -253 221c0 75 38 159 124 184c-65 30 -99 92 -99 157c0 109 58 208 228 208s228 -99 228 -208c0 -65 -34 -127 -99 -157c86 -25 124 -109 124 -184c0 -117 -66 -221 -253 -221zM285 358c-117 0 -179 -46 -179 -147c0 -72 38 -159 179 -159
s179 87 179 159c0 101 -62 147 -179 147zM285 420c113 0 154 68 154 132c0 66 -27 146 -154 146s-154 -80 -154 -146c0 -64 41 -132 154 -132z" />
    <glyph glyph-name="nine.OP" unicode="&#xe554;" horiz-adv-x="575" 
d="M451 269c0 80 -26 179 -170 179c-136 0 -156 -111 -156 -179s12 -179 156 -179c141 0 170 101 170 179zM250 -196c158 0 211 134 211 322c-24 -45 -80 -98 -180 -98c-205 0 -226 140 -226 241s31 241 226 241c215 0 244 -142 244 -355c0 -246 -55 -415 -275 -415
c-58 0 -110 8 -152 23c-18 6 -23 17 -23 28v15c0 14 11 27 30 21c36 -11 77 -23 145 -23z" />
    <glyph glyph-name="zero.OT" unicode="&#xe555;" horiz-adv-x="600" 
d="M295 510c151 0 235 -81 235 -260c0 -178 -84 -260 -235 -260s-225 82 -225 260c0 179 74 260 225 260zM295 448c-103 0 -153 -55 -153 -198s50 -198 153 -198s163 55 163 198c0 141 -60 198 -163 198z" />
    <glyph glyph-name="one.OT" unicode="&#xe557;" horiz-adv-x="600" 
d="M489 0h-360c-10 0 -19 5 -19 18v4c0 12 7 18 20 19l145 9v388l-155 -14c-10 -1 -15 4 -15 13v3c0 8 6 12 14 14l164 47c20 6 32 9 39 9h1c14 0 20 -7 20 -21v-439l145 -9c13 -1 20 -7 20 -19v-4c0 -13 -9 -18 -19 -18z" />
    <glyph glyph-name="two.OT" unicode="&#xe558;" horiz-adv-x="600" 
d="M288 448c-74 0 -137 -9 -178 -22c-17 -5 -30 7 -30 21v15c0 11 4 21 22 27c36 12 105 21 185 21c178 0 229 -74 229 -161c0 -91 -65 -147 -364 -287h354c19 0 30 -10 30 -29v-4c0 -19 -11 -29 -30 -29h-426c-19 0 -30 10 -30 29v8c0 11 8 21 14 24
c327 173 384 215 384 289c0 71 -46 98 -160 98z" />
    <glyph glyph-name="three.OT" unicode="&#xe559;" horiz-adv-x="600" 
d="M260 -260c-85 0 -144 15 -173 26c-18 7 -22 16 -22 27v17c0 14 13 27 30 21c34 -11 84 -27 166 -27c168 0 206 74 206 157c0 105 -58 145 -181 145h-106c-19 0 -30 10 -30 29v8c0 19 11 29 30 29h106c113 0 156 70 156 136c0 77 -36 138 -189 138
c-77 0 -124 -16 -158 -27c-17 -6 -30 7 -30 21v17c0 11 4 20 22 27c29 11 85 26 165 26c203 0 264 -89 264 -202c0 -71 -47 -140 -112 -164c86 -19 137 -95 137 -183c0 -121 -65 -221 -281 -221z" />
    <glyph glyph-name="four.OT" unicode="&#xe55a;" horiz-adv-x="600" 
d="M380 31l2 361l-248 -363zM380 -218v187h-298c-17 0 -27 9 -27 26v5c0 11 5 19 15 34l312 454c9 14 18 22 33 22h3c20 0 30 -12 30 -32v-447h80c17 0 27 -9 27 -26v-10c0 -17 -10 -26 -27 -26h-80v-187c0 -20 -10 -32 -30 -32h-8c-20 0 -30 12 -30 32z" />
    <glyph glyph-name="five.OT" unicode="&#xe55b;" horiz-adv-x="600" 
d="M248 -260c-51 0 -100 8 -142 23c-18 6 -22 16 -22 27v13c0 14 11 27 30 21c33 -10 75 -22 135 -22c84 0 203 24 203 181c0 152 -101 150 -198 150h-110c-20 0 -30 12 -30 32v303c0 20 10 32 30 32h335c19 0 30 -10 30 -29v-4c0 -19 -11 -29 -30 -29h-297v-245
c31 3 68 5 95 5c121 0 247 -24 247 -215c0 -216 -162 -243 -276 -243z" />
    <glyph glyph-name="six.OT" unicode="&#xe55c;" horiz-adv-x="600" 
d="M144 231c0 -80 26 -179 170 -179c136 0 156 111 156 179s-12 179 -156 179c-141 0 -170 -101 -170 -179zM345 696c-158 0 -211 -134 -211 -322c24 45 80 98 180 98c205 0 226 -140 226 -241s-31 -241 -226 -241c-215 0 -244 142 -244 355c0 246 55 415 275 415
c58 0 110 -8 152 -23c18 -6 23 -17 23 -28v-15c0 -14 -11 -27 -30 -21c-36 11 -77 23 -145 23z" />
    <glyph glyph-name="seven.OT" unicode="&#xe55d;" horiz-adv-x="600" 
d="M134 -215l346 653h-403c-17 0 -27 9 -27 26v10c0 17 10 26 27 26h446c17 0 27 -9 27 -26v-9c0 -12 -5 -24 -14 -42l-320 -647c-8 -15 -19 -26 -40 -26h-24c-19 0 -27 19 -18 35z" />
    <glyph glyph-name="eight.OT" unicode="&#xe55e;" horiz-adv-x="600" 
d="M300 -10c-187 0 -253 104 -253 221c0 75 38 159 124 184c-65 30 -99 92 -99 157c0 109 58 208 228 208s228 -99 228 -208c0 -65 -34 -127 -99 -157c86 -25 124 -109 124 -184c0 -117 -66 -221 -253 -221zM300 358c-117 0 -179 -46 -179 -147c0 -72 38 -159 179 -159
s179 87 179 159c0 101 -62 147 -179 147zM300 420c113 0 154 68 154 132c0 66 -27 146 -154 146s-154 -80 -154 -146c0 -64 41 -132 154 -132z" />
    <glyph glyph-name="nine.OT" unicode="&#xe55f;" horiz-adv-x="600" 
d="M466 269c0 80 -26 179 -170 179c-136 0 -156 -111 -156 -179s12 -179 156 -179c141 0 170 101 170 179zM265 -196c158 0 211 134 211 322c-24 -45 -80 -98 -180 -98c-205 0 -226 140 -226 241s31 241 226 241c215 0 244 -142 244 -355c0 -246 -55 -415 -275 -415
c-58 0 -110 8 -152 23c-18 6 -23 17 -23 28v15c0 14 11 27 30 21c36 -11 77 -23 145 -23z" />
    <glyph glyph-name="zero.XP" 
d="M280 510c151 0 235 -81 235 -260c0 -178 -84 -260 -235 -260s-225 82 -225 260c0 179 74 260 225 260zM280 448c-103 0 -153 -55 -153 -198s50 -198 153 -198s163 55 163 198c0 141 -60 198 -163 198z" />
    <glyph glyph-name="one.XP" horiz-adv-x="310" 
d="M145 438l-120 -4c-9 0 -15 4 -15 13v3c0 8 4 11 13 14l130 37c20 6 32 9 39 9h4c14 0 21 -7 21 -21v-457c0 -20 -10 -32 -30 -32h-12c-20 0 -30 12 -30 32v406z" />
    <glyph glyph-name="three.XP" horiz-adv-x="504" 
d="M234 54c101 0 164 30 164 89c0 69 -28 96 -130 96h-117c-19 0 -29 10 -29 28v3c0 18 10 28 29 28h117c86 0 110 23 110 77c0 51 -53 72 -144 71c-79 0 -124 -13 -158 -25c-19 -7 -30 6 -30 20v15c0 11 4 22 22 28c41 14 85 26 165 26c141 0 212 -41 212 -135
c0 -62 -34 -90 -61 -101c42 -14 85 -52 85 -131c0 -96 -74 -153 -236 -153c-82 0 -132 12 -173 26c-18 6 -22 17 -22 28v15c0 14 11 27 30 20c34 -12 85 -25 166 -25z" />
    <glyph glyph-name="four.XP" horiz-adv-x="506" 
d="M103 187l205 3l3 221zM374 190h75c20 0 32 -9 32 -29v-3c0 -20 -12 -29 -32 -29h-75v-102c0 -17 -9 -27 -26 -27h-14c-17 0 -26 10 -26 27v102h-261c-20 0 -32 11 -32 27v2c0 12 8 22 22 37l268 295c18 20 26 20 37 20h6c17 0 26 -10 26 -27v-293z" />
    <glyph glyph-name="five.XP" horiz-adv-x="491" 
d="M224 54c107 0 161 30 161 94c0 72 -31 90 -147 90h-155c-20 0 -30 12 -30 32v198c0 20 10 32 30 32h325c19 0 30 -10 30 -29v-4c0 -19 -11 -29 -30 -29h-289v-140s71 4 127 4c172 0 210 -56 210 -154c0 -101 -71 -158 -233 -158c-73 0 -120 12 -165 26
c-18 6 -22 17 -22 28v14c0 14 11 27 30 20c34 -12 83 -24 158 -24z" />
    <glyph glyph-name="six.XP" horiz-adv-x="522" 
d="M283 510c61 0 116 -11 144 -24c17 -8 23 -19 23 -30v-14c0 -15 -15 -24 -33 -16c-24 10 -67 24 -125 24c-128 0 -177 -53 -183 -195c37 44 102 71 181 71c143 0 187 -65 187 -165c0 -96 -59 -171 -207 -171c-146 0 -225 66 -225 255c0 187 87 265 238 265zM411 160
c0 73 -40 100 -126 100c-93 0 -141 -33 -169 -84c13 -102 69 -125 154 -125c96 0 141 40 141 109z" />
    <glyph glyph-name="seven.XP" horiz-adv-x="440" 
d="M131 34l224 405h-313c-17 0 -27 9 -27 26v9c0 17 10 26 27 26h361c17 0 27 -9 27 -26v-6c0 -14 -5 -26 -16 -46l-208 -395c-8 -15 -19 -27 -40 -27h-17c-19 0 -27 18 -18 34z" />
    <glyph glyph-name="eight.XP" horiz-adv-x="482" 
d="M241 302c91 0 115 32 115 73s-24 74 -115 74c-90 0 -115 -33 -115 -74s25 -73 115 -73zM241 -10c-162 0 -206 70 -206 156c0 59 33 110 80 129c-30 16 -56 51 -56 100c0 84 41 135 182 135s182 -51 182 -135c0 -49 -26 -84 -56 -100c47 -19 80 -70 80 -129
c0 -86 -44 -156 -206 -156zM241 51c107 0 135 46 135 95s-28 95 -135 95s-135 -46 -135 -95s28 -95 135 -95z" />
    <glyph glyph-name="nine.XP" horiz-adv-x="522" 
d="M239 -10c-61 0 -122 11 -150 24c-17 8 -23 19 -23 30v14c0 15 15 24 33 16c24 -10 73 -24 131 -24c128 0 177 53 183 195c-37 -44 -102 -71 -181 -71c-143 0 -187 65 -187 165c0 96 59 171 207 171c146 0 225 -66 225 -255c0 -187 -87 -265 -238 -265zM111 340
c0 -73 40 -100 126 -100c93 0 141 33 169 84c-13 102 -69 125 -154 125c-96 0 -141 -40 -141 -109z" />
    <glyph glyph-name="zero.XT" horiz-adv-x="600" 
d="M295 510c160 0 250 -81 250 -260c0 -178 -90 -260 -250 -260s-240 82 -240 260c0 179 80 260 240 260zM295 448c-107 0 -168 -55 -168 -198s61 -198 168 -198s178 55 178 198c0 141 -71 198 -178 198z" />
    <glyph glyph-name="one.XT" horiz-adv-x="600" 
d="M489 0h-360c-10 0 -19 5 -19 18v4c0 12 7 18 20 19l145 9v388l-155 -14c-10 -1 -15 4 -15 13v3c0 8 6 12 14 14l164 47c20 6 32 9 39 9h1c14 0 20 -7 20 -21v-439l145 -9c13 -1 20 -7 20 -19v-4c0 -13 -9 -18 -19 -18z" />
    <glyph glyph-name="two.XT" horiz-adv-x="600" 
d="M288 448c-74 0 -137 -9 -178 -22c-17 -5 -30 7 -30 21v15c0 11 4 21 22 27c36 12 105 21 185 21c178 0 229 -74 229 -161c0 -91 -65 -147 -364 -287h354c19 0 30 -10 30 -29v-4c0 -19 -11 -29 -30 -29h-426c-19 0 -30 10 -30 29v8c0 11 8 21 14 24
c327 173 384 215 384 289c0 71 -46 98 -160 98z" />
    <glyph glyph-name="three.XT" horiz-adv-x="600" 
d="M284 -10c-82 0 -152 13 -193 27c-18 6 -22 17 -22 28v15c0 14 11 27 30 20c34 -12 105 -27 186 -27c121 0 184 31 184 90c0 69 -48 96 -150 96h-138c-19 0 -29 10 -29 28v3c0 18 10 28 29 28h138c86 0 130 20 130 74c0 51 -53 76 -164 75c-79 0 -144 -15 -178 -27
c-19 -7 -30 6 -30 20v15c0 11 4 22 22 28c41 14 105 27 185 27c151 0 232 -41 232 -135c0 -62 -43 -93 -76 -101c42 -9 100 -51 100 -130c0 -96 -84 -154 -256 -154z" />
    <glyph glyph-name="four.XT" horiz-adv-x="600" 
d="M136 187l246 3l3 227zM448 190h95c20 0 32 -9 32 -29v-3c0 -20 -12 -29 -32 -29h-95v-102c0 -17 -9 -27 -26 -27h-14c-17 0 -26 10 -26 27v102h-315c-20 0 -32 11 -32 27v2c0 12 9 22 27 38l314 295c19 17 26 19 37 19h9c17 0 26 -10 26 -27v-293z" />
    <glyph glyph-name="five.XT" horiz-adv-x="600" 
d="M277 -10c-94 0 -150 12 -195 26c-18 6 -22 17 -22 28v14c0 14 11 27 30 20c34 -12 92 -24 188 -24c118 0 191 29 191 97c0 72 -36 87 -147 87h-215c-20 0 -30 12 -30 32v198c0 20 10 32 30 32h385c19 0 30 -10 30 -29v-4c0 -19 -11 -29 -30 -29h-349v-140s115 4 177 4
c179 0 220 -53 220 -151c0 -109 -82 -161 -263 -161z" />
    <glyph glyph-name="six.XT" horiz-adv-x="600" 
d="M331 450c-141 0 -207 -53 -213 -203c45 53 134 79 221 79c157 0 207 -65 207 -165c0 -96 -74 -171 -237 -171c-161 0 -255 66 -255 255c0 187 102 265 268 265c84 0 144 -13 174 -24c18 -6 23 -19 23 -30v-14c0 -15 -13 -23 -32 -17c-26 9 -73 25 -156 25zM480 159
c0 73 -39 106 -143 106c-112 0 -184 -38 -212 -89c13 -102 90 -127 184 -127c106 0 171 41 171 110z" />
    <glyph glyph-name="seven.XT" horiz-adv-x="600" 
d="M200 37l277 402h-408c-17 0 -27 9 -27 26v9c0 17 10 26 27 26h461c17 0 27 -9 27 -26v-6c0 -14 -6 -25 -21 -47l-264 -394c-11 -16 -20 -27 -41 -27h-17c-20 0 -26 20 -14 37z" />
    <glyph glyph-name="eight.XT" horiz-adv-x="600" 
d="M300 299c132 0 149 35 149 76s-29 74 -149 74s-149 -33 -149 -74s17 -76 149 -76zM300 51c141 0 169 46 169 95c0 53 -14 93 -169 93s-169 -40 -169 -93c0 -49 28 -95 169 -95zM300 -10c-194 0 -240 77 -240 163c0 59 49 109 98 121c-36 9 -74 46 -74 95
c0 84 47 141 216 141s216 -57 216 -141c0 -49 -38 -86 -74 -95c49 -12 98 -62 98 -121c0 -86 -46 -163 -240 -163z" />
    <glyph glyph-name="nine.XT" horiz-adv-x="600" 
d="M269 50c141 0 207 53 213 203c-45 -53 -134 -79 -221 -79c-157 0 -207 65 -207 165c0 96 74 171 237 171c161 0 255 -66 255 -255c0 -187 -102 -265 -268 -265c-84 0 -150 13 -180 24c-18 6 -23 19 -23 30v14c0 15 13 23 32 17c26 -9 79 -25 162 -25zM120 341
c0 -73 39 -106 143 -106c112 0 184 38 212 89c-13 102 -90 127 -184 127c-106 0 -171 -41 -171 -110z" />
    <glyph glyph-name="uni2070" unicode="&#x2070;" horiz-adv-x="466" 
d="M233 393c78 0 125 42 125 153c0 108 -47 152 -125 152s-124 -44 -124 -152c0 -111 46 -153 124 -153zM233 331c-124 0 -193 68 -193 215s69 214 193 214s193 -67 193 -214s-69 -215 -193 -215z" />
    <glyph glyph-name="onesuperior" unicode="&#xb9;" horiz-adv-x="290" 
d="M145 689l-91 -3c-9 0 -17 6 -17 15v4c0 8 5 14 14 17l102 30c20 6 30 8 37 8h2c14 0 21 -8 21 -22v-365c0 -20 -10 -32 -30 -32h-8c-20 0 -30 12 -30 32v316z" />
    <glyph glyph-name="twosuperior" unicode="&#xb2;" horiz-adv-x="416" 
d="M191 697c-37 0 -84 -8 -105 -14c-19 -5 -30 7 -30 21v12c0 11 4 21 22 27c26 8 74 17 112 17c127 0 170 -60 170 -133c0 -83 -95 -141 -228 -226h214c19 0 30 -10 30 -29v-2c0 -19 -11 -29 -30 -29h-281c-19 0 -30 10 -30 29v4c0 14 10 24 21 31c190 125 238 160 238 223
c0 42 -28 69 -103 69z" />
    <glyph glyph-name="threesuperior" unicode="&#xb3;" horiz-adv-x="430" 
d="M208 392c79 0 119 26 119 68c0 49 -20 66 -90 66h-88c-19 0 -29 10 -29 28v2c0 18 10 28 29 28h87c59 0 75 20 75 59c0 34 -33 55 -105 55c-61 0 -104 -7 -124 -13c-19 -6 -30 6 -30 20v13c0 11 3 23 22 28c27 7 61 14 131 14c114 0 171 -40 171 -117
c0 -43 -22 -70 -43 -80c33 -12 62 -46 62 -104c0 -76 -61 -128 -188 -128c-59 0 -102 6 -140 15c-18 4 -22 17 -22 28v13c0 14 10 25 30 20c35 -9 79 -15 133 -15z" />
    <glyph glyph-name="uni2074" unicode="&#x2074;" horiz-adv-x="423" 
d="M118 520h135v139zM318 520h53c20 0 32 -9 32 -29v-3c0 -20 -12 -29 -32 -29h-53v-91c0 -17 -9 -27 -26 -27h-13c-17 0 -26 10 -26 27v91h-201c-20 0 -32 11 -32 27v2c0 12 8 20 24 37l206 214c19 19 26 21 37 21h5c17 0 26 -10 26 -27v-213z" />
    <glyph glyph-name="uni2075" unicode="&#x2075;" horiz-adv-x="414" 
d="M206 528h-127c-20 0 -30 12 -30 32v158c0 20 10 32 30 32h261c19 0 30 -10 30 -29v-3c0 -19 -11 -29 -30 -29h-226v-102c11 1 58 3 95 3c132 0 175 -44 175 -128c0 -85 -60 -131 -187 -131c-51 0 -99 5 -140 15c-18 4 -22 17 -22 28v13c0 14 11 25 30 20
c39 -11 95 -15 134 -15c78 0 117 23 117 70c0 49 -26 66 -110 66z" />
    <glyph glyph-name="uni2076" unicode="&#x2076;" horiz-adv-x="437" 
d="M341 469c0 48 -32 71 -105 71c-62 0 -103 -24 -118 -61c14 -62 52 -87 115 -87c73 0 108 27 108 77zM248 698c-85 0 -132 -40 -136 -139c26 27 70 44 127 44c120 0 168 -53 168 -134c0 -83 -54 -138 -174 -138c-122 0 -188 68 -188 212c0 148 71 217 203 217
c62 0 96 -8 123 -15c19 -5 21 -17 21 -28v-13c0 -14 -11 -26 -30 -20c-20 6 -61 14 -114 14z" />
    <glyph glyph-name="uni2077" unicode="&#x2077;" horiz-adv-x="375" 
d="M113 375l173 314h-244c-17 0 -27 9 -27 26v9c0 17 10 26 27 26h291c17 0 27 -9 27 -26v-5c0 -14 -6 -26 -16 -46l-156 -305c-8 -15 -19 -27 -40 -27h-17c-19 0 -27 18 -18 34z" />
    <glyph glyph-name="uni2078" unicode="&#x2078;" horiz-adv-x="411" 
d="M206 586c72 0 86 26 86 56c0 29 -14 56 -86 56s-87 -27 -87 -56c0 -30 15 -56 87 -56zM206 331c-127 0 -171 55 -171 128c0 48 25 89 60 104c-22 12 -41 42 -41 79c0 72 38 118 152 118c113 0 151 -46 151 -118c0 -37 -18 -67 -41 -79c36 -15 60 -56 60 -104
c0 -73 -43 -128 -170 -128zM206 392c79 0 102 32 102 69c0 36 -23 67 -102 67s-103 -31 -103 -67c0 -37 24 -69 103 -69z" />
    <glyph glyph-name="uni2079" unicode="&#x2079;" horiz-adv-x="437" 
d="M111 622c0 -48 32 -71 105 -71c62 0 103 24 118 61c-14 62 -52 87 -115 87c-73 0 -108 -27 -108 -77zM204 393c85 0 132 40 136 139c-26 -27 -70 -44 -127 -44c-120 0 -168 53 -168 134c0 83 54 138 174 138c122 0 188 -68 188 -212c0 -148 -71 -217 -203 -217
c-62 0 -96 8 -123 15c-19 5 -21 17 -21 28v13c0 14 11 26 30 20c20 -6 61 -14 114 -14z" />
    <glyph glyph-name="uni207A" unicode="&#x207a;" horiz-adv-x="390" 
d="M75 579h87v87c0 19 10 30 29 30h8c19 0 29 -11 29 -30v-87h87c19 0 30 -10 30 -29v-8c0 -19 -11 -29 -30 -29h-87v-87c0 -19 -10 -30 -29 -30h-8c-19 0 -29 11 -29 30v87h-87c-19 0 -30 10 -30 29v8c0 19 11 29 30 29z" />
    <glyph glyph-name="uni207B" unicode="&#x207b;" horiz-adv-x="390" 
d="M75 579h240c19 0 30 -10 30 -29v-8c0 -19 -11 -29 -30 -29h-240c-19 0 -30 10 -30 29v8c0 19 11 29 30 29z" />
    <glyph glyph-name="uni207C" unicode="&#x207c;" horiz-adv-x="390" 
d="M75 645h240c19 0 30 -10 30 -29v-8c0 -19 -11 -29 -30 -29h-240c-19 0 -30 10 -30 29v8c0 19 11 29 30 29zM75 513h240c19 0 30 -10 30 -29v-8c0 -19 -11 -29 -30 -29h-240c-19 0 -30 10 -30 29v8c0 19 11 29 30 29z" />
    <glyph glyph-name="uni207D" unicode="&#x207d;" horiz-adv-x="160" 
d="M89 546c0 -97 32 -166 45 -195c8 -18 -7 -30 -21 -30h-15c-11 0 -21 4 -30 21c-28 53 -48 122 -48 204s20 151 48 204c9 17 19 21 30 21h15c14 0 29 -12 21 -30c-13 -29 -45 -98 -45 -195z" />
    <glyph glyph-name="uni207E" unicode="&#x207e;" horiz-adv-x="160" 
d="M71 546c0 97 -32 166 -45 195c-8 18 7 30 21 30h15c11 0 21 -4 30 -21c28 -53 48 -122 48 -204s-20 -151 -48 -204c-9 -17 -19 -21 -30 -21h-15c-14 0 -29 12 -21 30c13 29 45 98 45 195z" />
    <glyph glyph-name="uni2080" unicode="&#x2080;" horiz-adv-x="466" 
d="M233 52c78 0 125 42 125 153c0 108 -47 152 -125 152s-124 -44 -124 -152c0 -111 46 -153 124 -153zM233 -10c-124 0 -193 68 -193 215s69 214 193 214s193 -67 193 -214s-69 -215 -193 -215z" />
    <glyph glyph-name="uni2081" unicode="&#x2081;" horiz-adv-x="290" 
d="M145 348l-91 -3c-9 0 -17 6 -17 15v4c0 8 5 14 14 17l102 30c20 6 30 8 37 8h2c14 0 21 -8 21 -22v-365c0 -20 -10 -32 -30 -32h-8c-20 0 -30 12 -30 32v316z" />
    <glyph glyph-name="uni2082" unicode="&#x2082;" horiz-adv-x="416" 
d="M191 356c-37 0 -84 -8 -105 -14c-19 -5 -30 7 -30 21v12c0 11 4 21 22 27c26 8 74 17 112 17c127 0 170 -60 170 -133c0 -83 -95 -141 -228 -226h214c19 0 30 -10 30 -29v-2c0 -19 -11 -29 -30 -29h-281c-19 0 -30 10 -30 29v4c0 14 10 24 21 31c190 125 238 160 238 223
c0 42 -28 69 -103 69z" />
    <glyph glyph-name="uni2083" unicode="&#x2083;" horiz-adv-x="430" 
d="M208 51c79 0 119 26 119 68c0 49 -20 66 -90 66h-88c-19 0 -29 10 -29 28v2c0 18 10 28 29 28h87c59 0 75 20 75 59c0 34 -33 55 -105 55c-61 0 -104 -7 -124 -13c-19 -6 -30 6 -30 20v13c0 11 3 23 22 28c27 7 61 14 131 14c114 0 171 -40 171 -117
c0 -43 -22 -70 -43 -80c33 -12 62 -46 62 -104c0 -76 -61 -128 -188 -128c-59 0 -102 6 -140 15c-18 4 -22 17 -22 28v13c0 14 10 25 30 20c35 -9 79 -15 133 -15z" />
    <glyph glyph-name="uni2084" unicode="&#x2084;" horiz-adv-x="423" 
d="M118 179h135v139zM318 179h53c20 0 32 -9 32 -29v-3c0 -20 -12 -29 -32 -29h-53v-91c0 -17 -9 -27 -26 -27h-13c-17 0 -26 10 -26 27v91h-201c-20 0 -32 11 -32 27v2c0 12 8 20 24 37l206 214c19 19 26 21 37 21h5c17 0 26 -10 26 -27v-213z" />
    <glyph glyph-name="uni2085" unicode="&#x2085;" horiz-adv-x="414" 
d="M206 187h-127c-20 0 -30 12 -30 32v158c0 20 10 32 30 32h261c19 0 30 -10 30 -29v-3c0 -19 -11 -29 -30 -29h-226v-102c11 1 58 3 95 3c132 0 175 -44 175 -128c0 -85 -60 -131 -187 -131c-51 0 -99 5 -140 15c-18 4 -22 17 -22 28v13c0 14 11 25 30 20
c39 -11 95 -15 134 -15c78 0 117 23 117 70c0 49 -26 66 -110 66z" />
    <glyph glyph-name="uni2086" unicode="&#x2086;" horiz-adv-x="437" 
d="M341 128c0 48 -32 71 -105 71c-62 0 -103 -24 -118 -61c14 -62 52 -87 115 -87c73 0 108 27 108 77zM248 357c-85 0 -132 -40 -136 -139c26 27 70 44 127 44c120 0 168 -53 168 -134c0 -83 -54 -138 -174 -138c-122 0 -188 68 -188 212c0 148 71 217 203 217
c62 0 96 -8 123 -15c19 -5 21 -17 21 -28v-13c0 -14 -11 -26 -30 -20c-20 6 -61 14 -114 14z" />
    <glyph glyph-name="uni2087" unicode="&#x2087;" horiz-adv-x="375" 
d="M113 34l173 314h-244c-17 0 -27 9 -27 26v9c0 17 10 26 27 26h291c17 0 27 -9 27 -26v-5c0 -14 -6 -26 -16 -46l-156 -305c-8 -15 -19 -27 -40 -27h-17c-19 0 -27 18 -18 34z" />
    <glyph glyph-name="uni2088" unicode="&#x2088;" horiz-adv-x="411" 
d="M206 245c72 0 86 26 86 56c0 29 -14 56 -86 56s-87 -27 -87 -56c0 -30 15 -56 87 -56zM206 -10c-127 0 -171 55 -171 128c0 48 25 89 60 104c-22 12 -41 42 -41 79c0 72 38 118 152 118c113 0 151 -46 151 -118c0 -37 -18 -67 -41 -79c36 -15 60 -56 60 -104
c0 -73 -43 -128 -170 -128zM206 51c79 0 102 32 102 69c0 36 -23 67 -102 67s-103 -31 -103 -67c0 -37 24 -69 103 -69z" />
    <glyph glyph-name="uni2089" unicode="&#x2089;" horiz-adv-x="437" 
d="M111 281c0 -48 32 -71 105 -71c62 0 103 24 118 61c-14 62 -52 87 -115 87c-73 0 -108 -27 -108 -77zM204 52c85 0 132 40 136 139c-26 -27 -70 -44 -127 -44c-120 0 -168 53 -168 134c0 83 54 138 174 138c122 0 188 -68 188 -212c0 -148 -71 -217 -203 -217
c-62 0 -96 8 -123 15c-19 5 -21 17 -21 28v13c0 14 11 26 30 20c20 -6 61 -14 114 -14z" />
    <glyph glyph-name="uni208A" unicode="&#x208a;" horiz-adv-x="390" 
d="M75 238h87v87c0 19 10 30 29 30h8c19 0 29 -11 29 -30v-87h87c19 0 30 -10 30 -29v-8c0 -19 -11 -29 -30 -29h-87v-87c0 -19 -10 -30 -29 -30h-8c-19 0 -29 11 -29 30v87h-87c-19 0 -30 10 -30 29v8c0 19 11 29 30 29z" />
    <glyph glyph-name="uni208B" unicode="&#x208b;" horiz-adv-x="390" 
d="M75 238h240c19 0 30 -10 30 -29v-8c0 -19 -11 -29 -30 -29h-240c-19 0 -30 10 -30 29v8c0 19 11 29 30 29z" />
    <glyph glyph-name="uni208C" unicode="&#x208c;" horiz-adv-x="390" 
d="M75 304h240c19 0 30 -10 30 -29v-8c0 -19 -11 -29 -30 -29h-240c-19 0 -30 10 -30 29v8c0 19 11 29 30 29zM75 172h240c19 0 30 -10 30 -29v-8c0 -19 -11 -29 -30 -29h-240c-19 0 -30 10 -30 29v8c0 19 11 29 30 29z" />
    <glyph glyph-name="uni208D" unicode="&#x208d;" horiz-adv-x="160" 
d="M89 205c0 -97 32 -166 45 -195c8 -18 -7 -30 -21 -30h-15c-11 0 -21 4 -30 21c-28 53 -48 122 -48 204s20 151 48 204c9 17 19 21 30 21h15c14 0 29 -12 21 -30c-13 -29 -45 -98 -45 -195z" />
    <glyph glyph-name="uni208E" unicode="&#x208e;" horiz-adv-x="160" 
d="M71 205c0 97 -32 166 -45 195c-8 18 7 30 21 30h15c11 0 21 -4 30 -21c28 -53 48 -122 48 -204s-20 -151 -48 -204c-9 -17 -19 -21 -30 -21h-15c-14 0 -29 12 -21 30c13 29 45 98 45 195z" />
    <glyph glyph-name="zero.inf" unicode="&#xe571;" horiz-adv-x="466" 
d="M233 -198c78 0 125 42 125 153c0 108 -47 152 -125 152s-124 -44 -124 -152c0 -111 46 -153 124 -153zM233 -260c-124 0 -193 68 -193 215s69 214 193 214s193 -67 193 -214s-69 -215 -193 -215z" />
    <glyph glyph-name="one.inf" unicode="&#xe572;" horiz-adv-x="290" 
d="M145 98l-91 -3c-9 0 -17 6 -17 15v4c0 8 5 14 14 17l102 30c20 6 30 8 37 8h2c14 0 21 -8 21 -22v-365c0 -20 -10 -32 -30 -32h-8c-20 0 -30 12 -30 32v316z" />
    <glyph glyph-name="two.inf" unicode="&#xe573;" horiz-adv-x="416" 
d="M191 106c-37 0 -84 -8 -105 -14c-19 -5 -30 7 -30 21v12c0 11 4 21 22 27c26 8 74 17 112 17c127 0 170 -60 170 -133c0 -83 -95 -141 -228 -226h214c19 0 30 -10 30 -29v-2c0 -19 -11 -29 -30 -29h-281c-19 0 -30 10 -30 29v4c0 14 10 24 21 31c190 125 238 160 238 223
c0 42 -28 69 -103 69z" />
    <glyph glyph-name="three.inf" unicode="&#xe574;" horiz-adv-x="430" 
d="M208 -199c79 0 119 26 119 68c0 49 -20 66 -90 66h-88c-19 0 -29 10 -29 28v2c0 18 10 28 29 28h87c59 0 75 20 75 59c0 34 -33 55 -105 55c-61 0 -104 -7 -124 -13c-19 -6 -30 6 -30 20v13c0 11 3 23 22 28c27 7 61 14 131 14c114 0 171 -40 171 -117
c0 -43 -22 -70 -43 -80c33 -12 62 -46 62 -104c0 -76 -61 -128 -188 -128c-59 0 -102 6 -140 15c-18 4 -22 17 -22 28v13c0 14 10 25 30 20c35 -9 79 -15 133 -15z" />
    <glyph glyph-name="four.inf" unicode="&#xe575;" horiz-adv-x="423" 
d="M118 -71h135v139zM318 -71h53c20 0 32 -9 32 -29v-3c0 -20 -12 -29 -32 -29h-53v-91c0 -17 -9 -27 -26 -27h-13c-17 0 -26 10 -26 27v91h-201c-20 0 -32 11 -32 27v2c0 12 8 20 24 37l206 214c19 19 26 21 37 21h5c17 0 26 -10 26 -27v-213z" />
    <glyph glyph-name="five.inf" unicode="&#xe576;" horiz-adv-x="414" 
d="M206 -63h-127c-20 0 -30 12 -30 32v158c0 20 10 32 30 32h261c19 0 30 -10 30 -29v-3c0 -19 -11 -29 -30 -29h-226v-102c11 1 58 3 95 3c132 0 175 -44 175 -128c0 -85 -60 -131 -187 -131c-51 0 -99 5 -140 15c-18 4 -22 17 -22 28v13c0 14 11 25 30 20
c39 -11 95 -15 134 -15c78 0 117 23 117 70c0 49 -26 66 -110 66z" />
    <glyph glyph-name="six.inf" unicode="&#xe577;" horiz-adv-x="437" 
d="M341 -122c0 48 -32 71 -105 71c-62 0 -103 -24 -118 -61c14 -62 52 -87 115 -87c73 0 108 27 108 77zM248 107c-85 0 -132 -40 -136 -139c26 27 70 44 127 44c120 0 168 -53 168 -134c0 -83 -54 -138 -174 -138c-122 0 -188 68 -188 212c0 148 71 217 203 217
c62 0 96 -8 123 -15c19 -5 21 -17 21 -28v-13c0 -14 -11 -26 -30 -20c-20 6 -61 14 -114 14z" />
    <glyph glyph-name="seven.inf" unicode="&#xe578;" horiz-adv-x="375" 
d="M113 -216l173 314h-244c-17 0 -27 9 -27 26v9c0 17 10 26 27 26h291c17 0 27 -9 27 -26v-5c0 -14 -6 -26 -16 -46l-156 -305c-8 -15 -19 -27 -40 -27h-17c-19 0 -27 18 -18 34z" />
    <glyph glyph-name="eight.inf" unicode="&#xe579;" horiz-adv-x="411" 
d="M206 -5c72 0 86 26 86 56c0 29 -14 56 -86 56s-87 -27 -87 -56c0 -30 15 -56 87 -56zM206 -260c-127 0 -171 55 -171 128c0 48 25 89 60 104c-22 12 -41 42 -41 79c0 72 38 118 152 118c113 0 151 -46 151 -118c0 -37 -18 -67 -41 -79c36 -15 60 -56 60 -104
c0 -73 -43 -128 -170 -128zM206 -199c79 0 102 32 102 69c0 36 -23 67 -102 67s-103 -31 -103 -67c0 -37 24 -69 103 -69z" />
    <glyph glyph-name="nine.inf" unicode="&#xe57a;" horiz-adv-x="437" 
d="M111 31c0 -48 32 -71 105 -71c62 0 103 24 118 61c-14 62 -52 87 -115 87c-73 0 -108 -27 -108 -77zM204 -198c85 0 132 40 136 139c-26 -27 -70 -44 -127 -44c-120 0 -168 53 -168 134c0 83 54 138 174 138c122 0 188 -68 188 -212c0 -148 -71 -217 -203 -217
c-62 0 -96 8 -123 15c-19 5 -21 17 -21 28v13c0 14 11 26 30 20c20 -6 61 -14 114 -14z" />
    <glyph glyph-name="plus.inf" unicode="&#xe57b;" horiz-adv-x="390" 
d="M75 -12h87v87c0 19 10 30 29 30h8c19 0 29 -11 29 -30v-87h87c19 0 30 -10 30 -29v-8c0 -19 -11 -29 -30 -29h-87v-87c0 -19 -10 -30 -29 -30h-8c-19 0 -29 11 -29 30v87h-87c-19 0 -30 10 -30 29v8c0 19 11 29 30 29z" />
    <glyph glyph-name="minus.inf" unicode="&#xe57c;" horiz-adv-x="390" 
d="M75 -12h240c19 0 30 -10 30 -29v-8c0 -19 -11 -29 -30 -29h-240c-19 0 -30 10 -30 29v8c0 19 11 29 30 29z" />
    <glyph glyph-name="equal.inf" unicode="&#xe57d;" horiz-adv-x="390" 
d="M75 54h240c19 0 30 -10 30 -29v-8c0 -19 -11 -29 -30 -29h-240c-19 0 -30 10 -30 29v8c0 19 11 29 30 29zM75 -78h240c19 0 30 -10 30 -29v-8c0 -19 -11 -29 -30 -29h-240c-19 0 -30 10 -30 29v8c0 19 11 29 30 29z" />
    <glyph glyph-name="parenleft.inf" unicode="&#xe57e;" horiz-adv-x="160" 
d="M89 -45c0 -97 32 -166 45 -195c8 -18 -7 -30 -21 -30h-15c-11 0 -21 4 -30 21c-28 53 -48 122 -48 204s20 151 48 204c9 17 19 21 30 21h15c14 0 29 -12 21 -30c-13 -29 -45 -98 -45 -195z" />
    <glyph glyph-name="parenright.inf" unicode="&#xe57f;" horiz-adv-x="160" 
d="M71 -45c0 97 -32 166 -45 195c-8 18 7 30 21 30h15c11 0 21 -4 30 -21c28 -53 48 -122 48 -204s-20 -151 -48 -204c-9 -17 -19 -21 -30 -21h-15c-14 0 -29 12 -21 30c13 29 45 98 45 195z" />
    <glyph glyph-name="percent.LP" horiz-adv-x="895" 
d="M221 370c-121 0 -171 67 -171 195s50 195 171 195s171 -67 171 -195s-50 -195 -171 -195zM674 380c121 0 171 -67 171 -195s-50 -195 -171 -195s-171 67 -171 195s50 195 171 195zM674 320c-76 0 -107 -36 -107 -135s31 -135 107 -135s107 36 107 135s-31 135 -107 135z
M221 430c76 0 107 36 107 135s-31 135 -107 135s-107 -36 -107 -135s31 -135 107 -135zM725 713l-487 -689c-12 -17 -25 -24 -41 -24h-12c-17 0 -29 19 -16 37l487 689c12 17 25 24 41 24h12c17 0 29 -19 16 -37z" />
    <glyph glyph-name="perthousand.LP" horiz-adv-x="1315" 
d="M221 370c-121 0 -171 67 -171 195s50 195 171 195s171 -67 171 -195s-50 -195 -171 -195zM674 380c121 0 171 -67 171 -195s-50 -195 -171 -195s-171 67 -171 195s50 195 171 195zM1094 380c121 0 171 -67 171 -195s-50 -195 -171 -195s-171 67 -171 195s50 195 171 195z
M221 430c76 0 107 36 107 135s-31 135 -107 135s-107 -36 -107 -135s31 -135 107 -135zM1094 320c-76 0 -107 -36 -107 -135s31 -135 107 -135s107 36 107 135s-31 135 -107 135zM674 320c-76 0 -107 -36 -107 -135s31 -135 107 -135s107 36 107 135s-31 135 -107 135z
M725 713l-487 -689c-12 -17 -25 -24 -41 -24h-12c-17 0 -29 19 -16 37l487 689c12 17 25 24 41 24h12c17 0 29 -19 16 -37z" />
    <glyph glyph-name="percent.OP" horiz-adv-x="992" 
d="M221 160c-121 0 -171 73 -171 175s50 175 171 175s171 -73 171 -175s-50 -175 -171 -175zM221 220c76 0 107 36 107 115s-31 115 -107 115s-107 -36 -107 -115s31 -115 107 -115zM771 340c121 0 171 -73 171 -175s-50 -175 -171 -175s-171 73 -171 175s50 175 171 175z
M771 280c-76 0 -107 -36 -107 -115s31 -115 107 -115s107 36 107 115s-31 115 -107 115zM685 463l-310 -439c-12 -17 -25 -24 -41 -24h-12c-17 0 -29 19 -16 37l310 439c12 17 25 24 41 24h12c17 0 29 -19 16 -37z" />
    <glyph glyph-name="perthousand.OP" horiz-adv-x="1372" 
d="M221 160c-121 0 -171 73 -171 175s50 175 171 175s171 -73 171 -175s-50 -175 -171 -175zM221 220c76 0 107 36 107 115s-31 115 -107 115s-107 -36 -107 -115s31 -115 107 -115zM771 340c121 0 171 -73 171 -175s-50 -175 -171 -175s-171 73 -171 175s50 175 171 175z
M771 280c-76 0 -107 -36 -107 -115s31 -115 107 -115s107 36 107 115s-31 115 -107 115zM1151 340c121 0 171 -73 171 -175s-50 -175 -171 -175s-171 73 -171 175s50 175 171 175zM1151 280c-76 0 -107 -36 -107 -115s31 -115 107 -115s107 36 107 115s-31 115 -107 115z
M685 463l-310 -439c-12 -17 -25 -24 -41 -24h-12c-17 0 -29 19 -16 37l310 439c12 17 25 24 41 24h12c17 0 29 -19 16 -37z" />
    <glyph glyph-name="afii61352" unicode="&#x2116;" horiz-adv-x="1089" 
d="M695 565c0 128 50 195 171 195s178 -67 178 -195s-57 -195 -178 -195s-171 67 -171 195zM759 565c0 -99 31 -135 107 -135c78 0 115 38 115 135s-37 135 -115 135c-76 0 -107 -36 -107 -135zM135 736l394 -597l-2 579c0 20 10 32 30 32h8c20 0 30 -12 30 -32v-686
c0 -20 -10 -32 -30 -32h-5c-13 0 -19 5 -25 14l-394 597l2 -579c0 -20 -10 -32 -30 -32h-8c-20 0 -30 12 -30 32v686c0 20 10 32 30 32h5c13 0 19 -5 25 -14z" />
    <glyph glyph-name="currency" unicode="&#xa4;" horiz-adv-x="640" 
d="M320 52c-55 0 -108 7 -151 28l-59 -70c-12 -14 -27 -16 -42 -4l-6 5c-14 12 -15 27 -3 42l56 67c-37 39 -60 100 -60 192s23 153 60 192l-56 67c-12 15 -11 30 3 42l6 5c15 12 30 10 42 -4l59 -70c43 21 96 28 151 28s108 -7 151 -28l59 70c12 14 27 16 42 4l6 -5
c14 -12 15 -27 3 -42l-56 -67c37 -39 60 -100 60 -192s-23 -153 -60 -192l56 -67c12 -15 11 -30 -3 -42l-6 -5c-15 -12 -30 -10 -42 4l-59 70c-43 -21 -96 -28 -151 -28zM320 114c115 0 198 28 198 198s-83 198 -198 198s-198 -28 -198 -198s83 -198 198 -198z" />
    <glyph glyph-name="afii61289" unicode="&#x2113;" horiz-adv-x="310" 
d="M124 517v-164c55 64 110 158 110 286c0 46 -10 66 -44 66c-39 0 -66 -57 -66 -188zM195 45c19 0 26 2 34 3c13 2 25 -7 25 -22v-3c0 -17 -7 -25 -25 -29c-9 -2 -22 -4 -34 -4c-76 0 -141 33 -141 131v90l-7 -5c-17 -12 -37 -1 -37 16v14c0 13 5 21 18 30c8 6 14 9 26 19
v234c0 188 60 241 136 241c72 0 99 -49 99 -131c0 -160 -88 -282 -165 -358v-148c0 -61 22 -78 71 -78z" />
    <glyph glyph-name="estimated" unicode="&#x212e;" horiz-adv-x="770" 
d="M735 375v-4c0 -19 -11 -29 -30 -29h-511v-216c46 -46 110 -72 191 -72c112 0 189 53 220 111c9 17 19 25 38 25h23c14 0 30 -13 18 -36c-19 -36 -93 -164 -299 -164c-245 0 -350 189 -350 385s105 385 350 385c247 0 350 -189 350 -385zM385 696c-81 0 -145 -26 -191 -72
v-216h382v216c-46 46 -110 72 -191 72z" />
    <glyph glyph-name="musicflatsign" unicode="&#x266d;" horiz-adv-x="455" 
d="M100 776v-342c30 57 98 96 154 96c111 0 161 -59 161 -175c0 -178 -159 -321 -328 -377l-10 -3c-14 -4 -27 2 -27 17v784c0 15 8 24 23 24h4c15 0 23 -9 23 -24zM100 332v-290c90 35 256 134 256 305c0 65 -26 126 -104 126c-86 0 -149 -76 -152 -141z" />
    <glyph glyph-name="musicnaturalsign" horiz-adv-x="327" 
d="M100 776v-269l143 115c14 11 34 3 34 -12v-646c0 -15 -8 -24 -23 -24h-4c-15 0 -23 9 -23 24v267l-143 -115c-14 -11 -34 -3 -34 12v648c0 15 8 24 23 24h4c15 0 23 -9 23 -24zM227 522l-127 -101v-205l127 101v205z" />
    <glyph glyph-name="musicsharpsign" unicode="&#x266f;" horiz-adv-x="465" 
d="M40 404l79 63v259c0 15 8 24 23 24h4c15 0 23 -9 23 -24v-219l127 102v217c0 15 8 24 23 24h4c15 0 23 -9 23 -24v-177l66 53c15 12 29 1 29 -14v-30c0 -18 -5 -24 -16 -33l-79 -63v-192l66 53c15 12 29 1 29 -14v-30c0 -18 -5 -24 -16 -33l-79 -64v-258
c0 -15 -8 -24 -23 -24h-4c-15 0 -23 9 -23 24v218l-127 -101v-217c0 -15 -8 -24 -23 -24h-4c-15 0 -23 9 -23 24v177l-66 -53c-15 -12 -29 -1 -29 14v30c0 18 5 24 16 33l79 63v192l-66 -53c-15 -12 -29 -1 -29 14v30c0 18 5 24 16 33zM296 522l-127 -102v-192l127 102v192z
" />
    <glyph glyph-name="arrowleft" unicode="&#x2190;" horiz-adv-x="830" 
d="M459 717l-318 -309h624c19 0 30 -10 30 -29v-8c0 -19 -11 -29 -30 -29h-624l318 -309c12 -11 9 -33 -8 -33h-42c-11 0 -20 4 -28 12l-339 339h-1c-5 5 -7 13 -7 23v2c0 10 2 18 7 22c0 1 1 1 1 1l339 339c8 8 17 12 28 12h42c17 0 20 -22 8 -33z" />
    <glyph glyph-name="arrowright" unicode="&#x2192;" horiz-adv-x="830" 
d="M692 408l-318 309c-12 11 -9 33 8 33h42c11 0 20 -4 28 -12l339 -339v-1c5 -4 8 -12 8 -22v-2c0 -10 -3 -18 -8 -23l-339 -339c-8 -8 -17 -12 -28 -12h-42c-17 0 -20 22 -8 33l318 309h-624c-19 0 -30 10 -30 29v8c0 19 11 29 30 29h624z" />
    <glyph glyph-name="arrowup" unicode="&#x2191;" horiz-adv-x="830" 
d="M377 654l-309 -318c-11 -12 -33 -9 -33 8v42c0 11 4 20 12 28l339 339c5 5 13 8 23 8h2c10 0 18 -3 22 -8h1l339 -339c8 -8 12 -17 12 -28v-42c0 -17 -22 -20 -33 -8l-309 318v-624c0 -19 -10 -30 -29 -30h-8c-19 0 -29 11 -29 30v624z" />
    <glyph glyph-name="arrowdown" unicode="&#x2193;" horiz-adv-x="830" 
d="M443 96l309 318c11 12 33 9 33 -8v-42c0 -11 -4 -20 -12 -28l-339 -339h-1c-4 -5 -12 -8 -22 -8h-2c-10 0 -18 3 -23 8l-339 339c-8 8 -12 17 -12 28v42c0 17 22 20 33 8l309 -318v624c0 19 10 30 29 30h8c19 0 29 -11 29 -30v-624z" />
    <glyph glyph-name="uni2196" unicode="&#x2196;" horiz-adv-x="830" 
d="M98 641l8 -450c0 -16 -18 -23 -30 -11l-30 29c-8 8 -11 17 -11 29v480c0 7 3 13 10 20l2 2c6 6 13 10 19 10h482c12 0 21 -3 29 -11l29 -30c12 -12 5 -30 -11 -30l-449 8l633 -634c14 -13 14 -28 1 -42l-6 -5c-13 -14 -28 -13 -41 0z" />
    <glyph glyph-name="uni2197" unicode="&#x2197;" horiz-adv-x="830" 
d="M724 191l8 450l-635 -635c-13 -13 -28 -14 -41 0l-6 5c-13 14 -13 29 1 42l633 634l-449 -8c-16 0 -23 18 -11 30l29 30c8 8 17 11 29 11h481c6 0 13 -3 20 -10l2 -2c6 -7 10 -14 10 -20v-480c0 -12 -3 -21 -11 -29l-30 -29c-12 -12 -30 -5 -30 11z" />
    <glyph glyph-name="uni2198" unicode="&#x2198;" horiz-adv-x="830" 
d="M732 109l-8 450c0 16 18 23 30 11l30 -29c8 -8 11 -17 11 -29v-481c-1 -6 -4 -13 -10 -19l-2 -2c-7 -7 -13 -10 -20 -10h-481c-12 0 -21 3 -29 11l-29 30c-12 12 -5 30 11 30l449 -8l-633 634c-14 13 -14 28 -1 42l6 5c13 14 28 13 41 0z" />
    <glyph glyph-name="uni2199" unicode="&#x2199;" horiz-adv-x="830" 
d="M106 559l-8 -450l635 635c13 13 28 14 41 0l6 -5c13 -14 13 -29 -1 -42l-633 -634l449 8c16 0 23 -18 11 -30l-29 -30c-8 -8 -17 -11 -29 -11h-482c-6 0 -13 3 -19 10l-2 2c-7 6 -10 13 -10 20v480c0 12 3 21 11 29l30 29c12 12 30 5 30 -11z" />
    <glyph glyph-name="whitecircle" unicode="&#x25cb;" horiz-adv-x="880" 
d="M55 375c0 213 172 385 385 385s385 -172 385 -385s-172 -385 -385 -385s-385 172 -385 385zM122 375c0 -179 139 -323 318 -323s318 144 318 323s-139 323 -318 323s-318 -144 -318 -323z" />
    <glyph glyph-name="whitecircle" unicode="&#x25ef;" horiz-adv-x="880" 
d="M55 375c0 213 172 385 385 385s385 -172 385 -385s-172 -385 -385 -385s-385 172 -385 385zM122 375c0 -179 139 -323 318 -323s318 144 318 323s-139 323 -318 323s-318 -144 -318 -323z" />
    <glyph glyph-name="blackcircle" unicode="&#x25cf;" horiz-adv-x="880" 
d="M55 375c0 213 172 385 385 385s385 -172 385 -385s-172 -385 -385 -385s-385 172 -385 385z" />
    <glyph glyph-name="blacksquare" unicode="&#x25a0;" horiz-adv-x="880" 
d="M785 0h-690c-20 0 -30 12 -30 32v686c0 20 10 32 30 32h690c20 0 30 -12 30 -32v-686c0 -20 -10 -32 -30 -32z" />
    <glyph glyph-name="whitesquare" unicode="&#x25a1;" horiz-adv-x="880" 
d="M744 66v618h-608v-618h608zM785 0h-690c-20 0 -30 12 -30 32v686c0 20 10 32 30 32h690c20 0 30 -12 30 -32v-686c0 -20 -10 -32 -30 -32z" />
    <glyph glyph-name="blacksmallsquare" unicode="&#x25aa;" horiz-adv-x="630" 
d="M535 0h-440c-20 0 -30 12 -30 32v436c0 20 10 32 30 32h440c20 0 30 -12 30 -32v-436c0 -20 -10 -32 -30 -32z" />
    <glyph glyph-name="whitesmallsquare" unicode="&#x25ab;" horiz-adv-x="630" 
d="M499 61v378h-368v-378h368zM535 0h-440c-20 0 -30 12 -30 32v436c0 20 10 32 30 32h440c20 0 30 -12 30 -32v-436c0 -20 -10 -32 -30 -32z" />
    <glyph glyph-name="uni25E4" unicode="&#x25e4;" horiz-adv-x="880" 
d="M813 522l-519 -521c-15 -14 -40 -7 -45 12l-190 707c-3 10 -3 21 6 30c8 8 19 8 29 5l708 -189c19 -5 26 -29 11 -44z" />
    <glyph glyph-name="uni25E5" unicode="&#x25e5;" horiz-adv-x="880" 
d="M586 1l-519 521c-15 15 -8 39 11 44l708 189c10 3 21 3 29 -5c9 -9 9 -20 6 -30l-190 -707c-5 -19 -30 -26 -45 -12z" />
    <glyph glyph-name="uni25E2" unicode="&#x25e2;" horiz-adv-x="880" 
d="M67 228l519 521c15 14 40 7 45 -12l190 -707c3 -10 3 -21 -6 -30c-8 -8 -19 -8 -29 -5l-708 189c-19 5 -26 29 -11 44z" />
    <glyph glyph-name="uni25E3" unicode="&#x25e3;" horiz-adv-x="880" 
d="M293 749l519 -521c15 -15 8 -39 -11 -44l-708 -189c-10 -3 -21 -3 -29 5c-9 9 -9 20 -6 30l190 707c5 19 30 26 45 12z" />
    <glyph glyph-name="triagup" unicode="&#x25b2;" horiz-adv-x="880" 
d="M850 0h-820c-14 0 -26 12 -26 26c0 6 2 11 4 15l409 705c4 8 13 14 23 14s18 -6 23 -14l409 -705c2 -4 4 -9 4 -15c0 -14 -12 -26 -26 -26z" />
    <glyph glyph-name="triagdn" unicode="&#x25bc;" horiz-adv-x="880" 
d="M30 750h820c14 0 26 -12 26 -26c0 -6 -2 -11 -4 -15l-409 -705c-4 -8 -13 -14 -23 -14s-18 6 -23 14l-409 705c-2 4 -4 9 -4 15c0 14 12 26 26 26z" />
    <glyph glyph-name="triaglf" unicode="&#x25c4;" horiz-adv-x="750" 
d="M652 0l-606 352c-8 4 -14 13 -14 23s6 18 14 23l606 352c4 2 9 4 15 4c14 0 26 -12 26 -26v-706c0 -14 -12 -26 -26 -26c-6 0 -11 2 -15 4z" />
    <glyph glyph-name="triagrt" unicode="&#x25ba;" horiz-adv-x="750" 
d="M704 352l-606 -352c-4 -2 -9 -4 -15 -4c-14 0 -26 12 -26 26v706c0 14 12 26 26 26c6 0 11 -2 15 -4l606 -352c8 -5 14 -13 14 -23s-6 -19 -14 -23z" />
    <glyph glyph-name="squaremultiply" unicode="&#x22a0;" horiz-adv-x="880" 
d="M785 0h-690c-20 0 -30 12 -30 32v686c0 20 10 32 30 32h690c20 0 30 -12 30 -32v-686c0 -20 -10 -32 -30 -32zM744 66v618h-608v-618h608zM694 583l-208 -208l208 -208c14 -13 15 -28 1 -41l-6 -6c-13 -14 -28 -13 -41 1l-208 208l-208 -208c-13 -14 -28 -15 -41 -1l-6 6
c-14 13 -13 28 1 41l208 208l-208 208c-14 13 -15 28 -1 41l6 6c13 14 28 13 41 -1l208 -208l208 208c13 14 28 15 41 1l6 -6c14 -13 13 -28 -1 -41z" />
    <glyph glyph-name="ballotboxwithx" unicode="&#x2612;" horiz-adv-x="630" 
d="M535 0h-440c-20 0 -30 12 -30 32v436c0 20 10 32 30 32h440c20 0 30 -12 30 -32v-436c0 -20 -10 -32 -30 -32zM499 61v378h-368v-378h368zM403 116l-88 88l-88 -88c-13 -14 -28 -15 -41 -1l-6 6c-14 13 -13 28 1 41l88 88l-88 88c-14 13 -15 28 -1 41l6 6
c13 14 28 13 41 -1l88 -88l88 88c13 14 28 15 41 1l6 -6c14 -13 13 -28 -1 -41l-88 -88l88 -88c14 -13 15 -28 1 -41l-6 -6c-13 -14 -28 -13 -41 1z" />
    <glyph glyph-name="ordfeminine.smcp" unicode="&#xe351;" horiz-adv-x="370" 
d="M182 760h6c18 0 25 -9 33 -27l141 -319c8 -18 -2 -36 -22 -36h-10c-19 0 -29 8 -36 26l-31 77h-157l-30 -77c-7 -18 -17 -26 -36 -26h-10c-20 0 -30 18 -22 36l141 319c8 18 15 27 33 27zM185 677l-58 -144h115z" />
    <glyph glyph-name="ordmasculine.smcp" unicode="&#xe352;" horiz-adv-x="439" 
d="M45 565c0 128 50 195 171 195s178 -67 178 -195s-57 -195 -178 -195s-171 67 -171 195zM109 565c0 -99 31 -135 107 -135c78 0 115 38 115 135s-37 135 -115 135c-76 0 -107 -36 -107 -135z" />
    <glyph glyph-name="cordinal.smcp" unicode="&#xe353;" horiz-adv-x="366" 
d="M45 565c0 128 50 195 171 195c34 0 63 -2 84 -7c17 -4 21 -15 21 -25v-16c0 -12 -11 -22 -34 -17c-15 3 -42 5 -71 5c-76 0 -107 -36 -107 -135s31 -135 107 -135c29 0 56 2 71 5c23 5 34 -5 34 -17v-16c0 -10 -4 -21 -21 -25c-21 -5 -50 -7 -84 -7
c-121 0 -171 67 -171 195z" />
    <glyph glyph-name="cordinal" unicode="&#xe181;" horiz-adv-x="336" 
d="M35 563c0 128 55 197 176 197c31 0 58 -2 83 -7c17 -3 20 -15 20 -25v-15c0 -12 -10 -22 -33 -17c-15 3 -41 6 -70 6c-76 0 -114 -40 -114 -139s38 -140 114 -140c29 0 55 3 70 6c23 5 33 -5 33 -17v-15c0 -10 -3 -22 -20 -25c-25 -5 -52 -7 -83 -7
c-121 0 -176 70 -176 198z" />
    <glyph glyph-name="ae.smcp" unicode="&#xe231;" horiz-adv-x="764" 
d="M366 120h-219l-49 -94c-10 -19 -22 -26 -39 -26h-12c-18 0 -27 18 -17 36l242 436c9 16 18 28 41 28h361c19 0 30 -10 30 -29v-3c0 -19 -11 -29 -30 -29h-306l31 -152h240c19 0 30 -10 30 -29v-3c0 -19 -11 -29 -30 -29h-227l34 -165h228c19 0 30 -10 30 -29v-3
c0 -19 -11 -29 -30 -29h-256c-20 0 -31 11 -35 31zM308 424l-133 -252h181z" />
    <glyph glyph-name="ae.smcp" unicode="&#xf7e6;" horiz-adv-x="764" 
d="M366 120h-219l-49 -94c-10 -19 -22 -26 -39 -26h-12c-18 0 -27 18 -17 36l242 436c9 16 18 28 41 28h361c19 0 30 -10 30 -29v-3c0 -19 -11 -29 -30 -29h-306l31 -152h240c19 0 30 -10 30 -29v-3c0 -19 -11 -29 -30 -29h-227l34 -165h228c19 0 30 -10 30 -29v-3
c0 -19 -11 -29 -30 -29h-256c-20 0 -31 11 -35 31zM308 424l-133 -252h181z" />
    <glyph glyph-name="oe.smcp" unicode="&#xe298;" horiz-adv-x="765" 
d="M303 61h67v378h-67c-133 0 -173 -76 -173 -189s40 -189 173 -189zM640 226h-204v-165h239c19 0 30 -10 30 -29v-3c0 -19 -11 -29 -30 -29h-373c-172 0 -242 97 -242 250s70 250 242 250h373c19 0 30 -10 30 -29v-3c0 -19 -11 -29 -30 -29h-239v-152h204
c19 0 30 -10 30 -29v-3c0 -19 -11 -29 -30 -29z" />
    <glyph glyph-name="oe.smcp" unicode="&#xf6fa;" horiz-adv-x="765" 
d="M303 61h67v378h-67c-133 0 -173 -76 -173 -189s40 -189 173 -189zM640 226h-204v-165h239c19 0 30 -10 30 -29v-3c0 -19 -11 -29 -30 -29h-373c-172 0 -242 97 -242 250s70 250 242 250h373c19 0 30 -10 30 -29v-3c0 -19 -11 -29 -30 -29h-239v-152h204
c19 0 30 -10 30 -29v-3c0 -19 -11 -29 -30 -29z" />
    <glyph glyph-name="mediumblackcircle" unicode="&#x26ab;" horiz-adv-x="630" 
d="M55 250c0 144 116 260 260 260s260 -116 260 -260s-116 -260 -260 -260s-260 116 -260 260z" />
    <glyph glyph-name="y.school" unicode="&#xe16b;" horiz-adv-x="500" 
d="M230 -200c134 0 134 90 135 160v70c-43 -27 -88 -40 -135 -40c-119 0 -170 54 -170 150v328c0 20 10 32 30 32h10c20 0 30 -12 30 -32v-331c0 -65 38 -85 100 -85c65 0 99 12 135 32v384c0 20 10 32 30 32h10c20 0 30 -12 30 -32v-508c0 -124 -25 -221 -205 -221
c-63 0 -116 15 -136 22c-18 6 -22 17 -22 28v11c0 14 11 26 30 21c20 -5 68 -21 128 -21z" />
    <glyph glyph-name="two.XP" horiz-adv-x="500" 
d="M234 448c-60 0 -108 -14 -129 -20c-19 -5 -30 7 -30 21v14c0 11 4 21 22 27c25 8 85 20 138 20c153 0 204 -71 204 -161c0 -83 -51 -137 -296 -287h286c19 0 30 -10 30 -29v-4c0 -19 -11 -29 -30 -29h-358c-19 0 -30 10 -30 29v4c0 11 9 18 14 22
c273 185 316 226 316 295c0 72 -47 98 -137 98z" />
    <glyph glyph-name="mediumwhitecircle" unicode="&#x26aa;" horiz-adv-x="630" 
d="M55 250c0 144 116 260 260 260s260 -116 260 -260s-116 -260 -260 -260s-260 116 -260 260zM508 250c0 109 -86 198 -193 198s-193 -89 -193 -198s86 -198 193 -198s193 89 193 198z" />
    <glyph glyph-name="spade" unicode="&#x2660;" horiz-adv-x="864" 
d="M48 321c0 100 75 162 158 217c77 50 143 121 177 188c9 18 24 34 49 34s40 -16 49 -34c34 -67 100 -138 177 -188c83 -55 158 -117 158 -217c0 -95 -75 -168 -170 -168s-160 75 -192 155l-3 -1c9 -120 26 -187 79 -260c16 -22 3 -47 -20 -47h-156c-23 0 -36 25 -20 47
c53 73 70 140 79 260l-3 1c-32 -80 -97 -155 -192 -155s-170 73 -170 168z" />
    <glyph glyph-name="club" unicode="&#x2663;" horiz-adv-x="864" 
d="M454 308l-3 -1c9 -120 26 -187 79 -260c16 -22 3 -47 -20 -47h-156c-23 0 -36 25 -20 47c53 73 70 140 79 260l-3 1c-32 -80 -97 -155 -192 -155s-170 73 -170 168c0 100 68 173 168 173c33 0 59 -10 81 -22l2 2c-21 32 -37 70 -37 113c0 95 72 173 170 173
s170 -78 170 -173c0 -43 -16 -81 -37 -113l2 -2c22 12 48 22 81 22c100 0 168 -73 168 -173c0 -95 -75 -168 -170 -168s-160 75 -192 155z" />
    <glyph glyph-name="heart" unicode="&#x2665;" horiz-adv-x="864" 
d="M432 -10c-24 0 -40 14 -49 32c-42 81 -95 159 -176 251c-66 75 -158 187 -158 289c0 114 70 199 184 199c119 0 169 -71 197 -151h4c28 80 78 151 197 151c114 0 184 -85 184 -199c0 -102 -92 -214 -158 -289c-81 -92 -134 -170 -176 -251c-9 -18 -25 -32 -49 -32z" />
    <glyph glyph-name="diamond" unicode="&#x2666;" horiz-adv-x="864" 
d="M432 -10c-26 0 -40 15 -49 33c-58 112 -156 220 -279 307c-14 10 -25 23 -25 45s11 35 25 45c123 87 221 195 279 307c9 18 23 33 49 33s40 -15 49 -33c58 -112 156 -220 279 -307c14 -10 25 -23 25 -45s-11 -35 -25 -45c-123 -87 -221 -195 -279 -307
c-9 -18 -23 -33 -49 -33z" />
    <glyph glyph-name="uni2605" unicode="&#x2605;" horiz-adv-x="864" 
d="M335 466l70 282c4 15 14 22 27 22s23 -7 27 -22l70 -282l291 21c15 1 26 -5 30 -18c4 -12 -1 -25 -14 -33l-249 -151l110 -267c6 -14 3 -28 -7 -35c-11 -8 -23 -7 -35 3l-223 187l-223 -187c-12 -10 -24 -11 -35 -3c-10 7 -13 21 -7 35l110 267l-249 151
c-13 8 -18 21 -14 33c4 13 15 19 30 18z" />
    <glyph glyph-name="uni263C" unicode="&#x263c;" horiz-adv-x="944" 
d="M472 -30c-15 0 -24 9 -27 25l-14 81l-35 -73c-7 -15 -18 -21 -33 -17c-14 4 -21 15 -19 31l7 82l-53 -63c-11 -13 -23 -16 -36 -9c-13 8 -15 20 -10 36l28 77l-66 -45c-13 -10 -27 -10 -38 1c-10 10 -9 24 0 37l46 65l-75 -27c-15 -5 -28 -3 -36 10c-7 13 -4 26 8 36
l62 53l-79 -7c-17 -1 -28 5 -32 20c-3 14 3 26 18 33l71 33l-81 14c-17 3 -23 12 -24 27c1 15 7 24 24 27l81 14l-71 33c-15 7 -21 19 -18 33c4 15 15 21 32 20l79 -7l-62 53c-12 10 -15 23 -8 36c8 13 21 15 36 10l75 -27l-46 65c-9 13 -10 27 0 37c11 11 25 11 38 1
l66 -45l-28 77c-5 16 -3 28 10 36c13 7 25 4 36 -9l53 -63l-7 82c-2 16 5 27 19 31c15 4 26 -2 33 -17l35 -73l14 81c3 16 12 25 27 25s24 -9 27 -25l14 -81l35 73c7 15 18 21 33 17c14 -4 21 -15 19 -31l-7 -82l53 63c11 13 23 16 36 9c13 -8 15 -20 10 -36l-28 -77l66 45
c13 10 27 10 38 -1c10 -10 9 -24 0 -37l-46 -65l75 27c15 5 28 3 36 -10c7 -13 4 -26 -8 -36l-62 -53l79 7c17 1 28 -5 32 -20c3 -14 -3 -26 -18 -33l-71 -33l81 -14c17 -3 23 -12 24 -27c-1 -15 -7 -24 -24 -27l-81 -14l71 -33c15 -7 21 -19 18 -33c-4 -15 -15 -21 -32 -20
l-79 7l62 -53c12 -10 15 -23 8 -36c-8 -13 -21 -15 -36 -10l-75 27l46 -65c9 -13 10 -27 0 -37c-11 -11 -25 -11 -38 -1l-66 45l28 -77c5 -16 3 -28 -10 -36c-13 -7 -25 -4 -36 9l-53 63l7 -82c2 -16 -5 -27 -19 -31c-15 -4 -26 2 -33 17l-35 73l-14 -81
c-3 -16 -12 -25 -27 -25z" />
    <glyph glyph-name="uni263E" unicode="&#x263e;" horiz-adv-x="864" 
d="M47 375c0 213 172 385 393 385c91 0 166 -20 230 -64c7 -5 14 -14 14 -24c0 -15 -12 -26 -27 -26c-4 0 -10 2 -13 3c-26 9 -55 15 -84 15c-172 0 -301 -99 -301 -289s129 -289 301 -289c29 0 58 6 84 15c3 1 9 3 13 3c15 0 27 -11 27 -26c0 -10 -7 -19 -14 -24
c-64 -44 -139 -64 -230 -64c-221 0 -393 172 -393 385z" />
    <glyph glyph-name="uni267B" unicode="&#x267b;" horiz-adv-x="864" 
d="M585 244v-37h120c56 0 91 50 91 50l1 -2l-92 -160c-15 -26 -34 -54 -85 -54h-35v-37c0 -11 -9 -20 -20 -20c-7 0 -12 4 -16 8l-97 117c-4 4 -7 9 -7 16c0 6 3 11 7 16l95 113c5 6 10 10 18 10c11 0 20 -9 20 -20zM709 232l-84 147c-17 30 -11 55 18 72l53 30
c31 18 56 9 73 -21l38 -65c5 -8 10 -25 10 -42c1 -66 -67 -121 -108 -121zM242 309l-32 18l-60 -104c-29 -50 -4 -104 -4 -104h-2l-92 161c-17 30 -27 56 -3 99l17 31l-32 19c-9 5 -13 17 -7 27c3 6 9 9 15 10l148 25c5 1 13 2 19 -2c5 -3 8 -8 10 -14l51 -139
c3 -7 3 -13 -1 -20c-5 -10 -18 -13 -27 -7zM173 207h170c34 0 53 -18 53 -51v-62c0 -36 -21 -53 -55 -53h-75c-10 0 -28 5 -42 13c-58 33 -72 118 -51 153zM471 572l32 18l-60 104c-29 50 -88 55 -88 55v1h186c33 0 63 -2 88 -45l18 -31l31 18c10 6 22 2 28 -7
c3 -6 3 -13 1 -18l-53 -143c-2 -5 -4 -10 -10 -14c-6 -3 -11 -3 -18 -2l-145 26c-7 1 -14 4 -18 11c-5 9 -2 21 8 27zM415 686l-85 -147c-18 -30 -42 -37 -72 -20l-54 31c-31 17 -36 44 -18 73l38 67c8 13 18 21 34 30c59 33 136 2 157 -34z" />
    <glyph glyph-name="uni267C" unicode="&#x267c;" horiz-adv-x="864" 
d="M359 514l60 104c-15 28 -79 52 -123 26c-12 -7 -20 -14 -25 -23l-24 -42c-17 -30 -12 -55 19 -73l21 -12c30 -17 55 -10 72 20zM47 375c0 213 172 385 385 385s385 -172 385 -385s-172 -385 -385 -385s-385 172 -385 385zM588 369l60 -104c32 -1 84 43 84 94
c0 13 -2 24 -8 33l-24 42c-17 30 -42 38 -73 20l-21 -12c-29 -18 -36 -43 -18 -73zM440 181c0 -7 3 -12 7 -16l74 -87c4 -4 9 -8 16 -8c11 0 20 9 20 20v26h22c39 0 52 19 65 42l73 125l-1 1s-27 -39 -72 -39h-87v27c0 11 -9 20 -20 20c-8 0 -13 -4 -18 -10l-72 -85
c-4 -5 -7 -10 -7 -16zM347 245h-119c-17 -27 -7 -91 39 -119c11 -7 22 -10 33 -10h47c34 0 54 18 54 53v24c-1 34 -19 52 -54 52zM260 467c-6 3 -12 3 -18 2l-112 -21c-5 -1 -11 -4 -15 -10c-5 -9 -2 -21 7 -27l23 -13l-11 -19c-20 -34 -11 -53 3 -77l72 -126h1s-19 43 3 82
l44 76l23 -14c10 -5 22 -2 27 7c4 7 3 14 1 21l-38 105c-2 6 -5 11 -10 14zM596 480c6 4 9 9 10 14l38 108c2 5 3 12 -1 18c-5 9 -17 12 -27 7l-23 -13l-11 19c-19 34 -41 35 -69 35h-144l-1 -1s47 -4 69 -42l44 -76l-23 -13c-9 -6 -12 -18 -7 -27c4 -7 10 -10 18 -11
l109 -20c7 -1 12 -1 18 2z" />
    <glyph glyph-name="uni267D" unicode="&#x267d;" horiz-adv-x="864" 
d="M797 375c0 201 -164 365 -365 365s-365 -164 -365 -365s164 -365 365 -365s365 164 365 365zM47 375c0 213 172 385 385 385s385 -172 385 -385s-172 -385 -385 -385s-385 172 -385 385zM419 618l-60 -104c-17 -30 -42 -37 -72 -20l-21 12c-31 18 -36 43 -19 73l24 42
c5 9 13 16 25 23c44 26 108 2 123 -26zM648 265l-60 104c-18 30 -11 55 18 73l21 12c31 18 56 10 73 -20l24 -42c6 -9 8 -20 8 -33c0 -51 -52 -95 -84 -94zM440 181c0 6 3 11 7 16l72 85c5 6 10 10 18 10c11 0 20 -9 20 -20v-27h87c45 0 72 39 72 39l1 -1l-73 -125
c-13 -23 -26 -42 -65 -42h-22v-26c0 -11 -9 -20 -20 -20c-7 0 -12 4 -16 8l-74 87c-4 4 -7 9 -7 16zM228 245h119c35 0 53 -18 54 -52v-24c0 -35 -20 -53 -54 -53h-47c-11 0 -22 3 -33 10c-46 28 -56 92 -39 119zM260 467c5 -3 8 -8 10 -14l38 -105c2 -7 3 -14 -1 -21
c-5 -9 -17 -12 -27 -7l-23 14l-44 -76c-22 -39 -3 -82 -3 -82h-1l-72 126c-14 24 -23 43 -3 77l11 19l-23 13c-9 6 -12 18 -7 27c4 6 10 9 15 10l112 21c6 1 12 1 18 -2zM596 480c-6 -3 -11 -3 -18 -2l-109 20c-8 1 -14 4 -18 11c-5 9 -2 21 7 27l23 13l-44 76
c-22 38 -69 42 -69 42l1 1h144c28 0 50 -1 69 -35l11 -19l23 13c10 5 22 2 27 -7c4 -6 3 -13 1 -18l-38 -108c-1 -5 -4 -10 -10 -14z" />
    <glyph glyph-name="uni2015" unicode="&#x2015;" horiz-adv-x="1140" 
d="M75 338h990c19 0 30 -10 30 -29v-8c0 -19 -11 -29 -30 -29h-990c-19 0 -30 10 -30 29v8c0 19 11 29 30 29z" />
    <glyph glyph-name="uni2015.cap" unicode="&#xe488;" horiz-adv-x="1140" 
d="M75 408h990c19 0 30 -10 30 -29v-8c0 -19 -11 -29 -30 -29h-990c-19 0 -30 10 -30 29v8c0 19 11 29 30 29z" />
    <glyph glyph-name="Agrave" unicode="&#xc0;" horiz-adv-x="630" 
d="M302 876l25 -49c7 -13 -1 -27 -15 -27h-9c-10 0 -18 6 -28 17l-42 47c-14 15 -3 36 14 36h19c16 0 28 -8 36 -24zM26 32l255 702c6 18 13 26 31 26h6c18 0 25 -8 31 -26l255 -702c8 -21 -6 -32 -20 -32h-20c-21 0 -30 12 -35 27l-63 183h-302l-63 -183
c-5 -15 -14 -27 -35 -27h-20c-14 0 -28 11 -20 32zM315 646l-130 -377h260z" />
    <glyph glyph-name="Aacute" unicode="&#xc1;" horiz-adv-x="630" 
d="M303 827l25 49c8 16 20 24 36 24h19c17 0 28 -21 14 -36l-42 -47c-10 -11 -18 -17 -28 -17h-9c-14 0 -22 14 -15 27zM26 32l255 702c6 18 13 26 31 26h6c18 0 25 -8 31 -26l255 -702c8 -21 -6 -32 -20 -32h-20c-21 0 -30 12 -35 27l-63 183h-302l-63 -183
c-5 -15 -14 -27 -35 -27h-20c-14 0 -28 11 -20 32zM315 646l-130 -377h260z" />
    <glyph glyph-name="Acircumflex" unicode="&#xc2;" horiz-adv-x="630" 
d="M381 878l60 -53c12 -10 5 -25 -6 -25h-5c-13 0 -24 5 -37 12l-78 44l-78 -44c-13 -7 -24 -12 -37 -12h-5c-11 0 -18 15 -6 25l60 53c19 16 31 22 47 22h38c16 0 28 -6 47 -22zM26 32l255 702c6 18 13 26 31 26h6c18 0 25 -8 31 -26l255 -702c8 -21 -6 -32 -20 -32h-20
c-21 0 -30 12 -35 27l-63 183h-302l-63 -183c-5 -15 -14 -27 -35 -27h-20c-14 0 -28 11 -20 32zM315 646l-130 -377h260z" />
    <glyph glyph-name="Atilde" unicode="&#xc3;" horiz-adv-x="630" 
d="M239 910c82 0 100 -61 152 -61c32 0 41 15 45 27c6 17 14 24 30 24h2c18 0 28 -14 26 -32c-5 -44 -43 -78 -103 -78c-82 0 -100 61 -152 61c-32 0 -41 -15 -45 -27c-6 -17 -14 -24 -30 -24h-2c-18 0 -28 14 -26 32c5 44 43 78 103 78zM26 32l255 702c6 18 13 26 31 26h6
c18 0 25 -8 31 -26l255 -702c8 -21 -6 -32 -20 -32h-20c-21 0 -30 12 -35 27l-63 183h-302l-63 -183c-5 -15 -14 -27 -35 -27h-20c-14 0 -28 11 -20 32zM315 646l-130 -377h260z" />
    <glyph glyph-name="Adieresis" unicode="&#xc4;" horiz-adv-x="630" 
d="M170 850c0 28 22 50 50 50s50 -22 50 -50s-22 -50 -50 -50s-50 22 -50 50zM360 850c0 28 22 50 50 50s50 -22 50 -50s-22 -50 -50 -50s-50 22 -50 50zM26 32l255 702c6 18 13 26 31 26h6c18 0 25 -8 31 -26l255 -702c8 -21 -6 -32 -20 -32h-20c-21 0 -30 12 -35 27
l-63 183h-302l-63 -183c-5 -15 -14 -27 -35 -27h-20c-14 0 -28 11 -20 32zM315 646l-130 -377h260z" />
    <glyph glyph-name="Aring" unicode="&#xc5;" horiz-adv-x="630" 
d="M315 921c50 0 94 -16 94 -71s-44 -71 -94 -71s-94 16 -94 71s44 71 94 71zM315 828c30 0 44 7 44 22s-14 22 -44 22s-44 -7 -44 -22s14 -22 44 -22zM26 32l255 702c6 18 13 26 31 26h6c18 0 25 -8 31 -26l255 -702c8 -21 -6 -32 -20 -32h-20c-21 0 -30 12 -35 27l-63 183
h-302l-63 -183c-5 -15 -14 -27 -35 -27h-20c-14 0 -28 11 -20 32zM315 646l-130 -377h260z" />
    <glyph glyph-name="Ccedilla" unicode="&#xc7;" horiz-adv-x="610" 
d="M60 375c0 213 71 385 295 385c92 0 147 -17 169 -25c20 -7 26 -20 26 -34v-14c0 -11 -9 -25 -31 -17c-39 14 -88 27 -164 27c-164 0 -223 -141 -223 -322s59 -322 223 -322c76 0 125 13 164 27c22 8 31 -6 31 -17v-14c0 -14 -6 -27 -26 -34c-21 -8 -69 -22 -148 -25
l4 -54c40 -10 95 -35 95 -97c0 -54 -41 -89 -111 -89c-25 0 -49 2 -72 9c-18 6 -22 16 -22 27v5c0 11 8 20 25 16c18 -4 34 -6 52 -6c41 0 67 11 67 36c0 36 -27 52 -64 59c-17 3 -24 13 -22 31l6 64c-208 10 -274 178 -274 384z" />
    <glyph glyph-name="Egrave" unicode="&#xc8;" 
d="M287 876l25 -49c7 -13 -1 -27 -15 -27h-9c-10 0 -18 6 -28 17l-42 47c-14 15 -3 36 14 36h19c16 0 28 -8 36 -24zM143 687v-265h302c19 0 30 -10 30 -29v-5c0 -19 -11 -29 -30 -29h-302v-296h337c19 0 30 -10 30 -29v-5c0 -19 -11 -29 -30 -29h-375c-20 0 -30 12 -30 32
v686c0 20 10 32 30 32h375c19 0 30 -10 30 -29v-5c0 -19 -11 -29 -30 -29h-337z" />
    <glyph glyph-name="Eacute" unicode="&#xc9;" 
d="M288 827l25 49c8 16 20 24 36 24h19c17 0 28 -21 14 -36l-42 -47c-10 -11 -18 -17 -28 -17h-9c-14 0 -22 14 -15 27zM143 687v-265h302c19 0 30 -10 30 -29v-5c0 -19 -11 -29 -30 -29h-302v-296h337c19 0 30 -10 30 -29v-5c0 -19 -11 -29 -30 -29h-375
c-20 0 -30 12 -30 32v686c0 20 10 32 30 32h375c19 0 30 -10 30 -29v-5c0 -19 -11 -29 -30 -29h-337z" />
    <glyph glyph-name="Ecircumflex" unicode="&#xca;" 
d="M366 878l60 -53c12 -10 5 -25 -6 -25h-5c-13 0 -24 5 -37 12l-78 44l-78 -44c-13 -7 -24 -12 -37 -12h-5c-11 0 -18 15 -6 25l60 53c19 16 31 22 47 22h38c16 0 28 -6 47 -22zM143 687v-265h302c19 0 30 -10 30 -29v-5c0 -19 -11 -29 -30 -29h-302v-296h337
c19 0 30 -10 30 -29v-5c0 -19 -11 -29 -30 -29h-375c-20 0 -30 12 -30 32v686c0 20 10 32 30 32h375c19 0 30 -10 30 -29v-5c0 -19 -11 -29 -30 -29h-337z" />
    <glyph glyph-name="Edieresis" unicode="&#xcb;" 
d="M155 850c0 28 22 50 50 50s50 -22 50 -50s-22 -50 -50 -50s-50 22 -50 50zM345 850c0 28 22 50 50 50s50 -22 50 -50s-22 -50 -50 -50s-50 22 -50 50zM143 687v-265h302c19 0 30 -10 30 -29v-5c0 -19 -11 -29 -30 -29h-302v-296h337c19 0 30 -10 30 -29v-5
c0 -19 -11 -29 -30 -29h-375c-20 0 -30 12 -30 32v686c0 20 10 32 30 32h375c19 0 30 -10 30 -29v-5c0 -19 -11 -29 -30 -29h-337z" />
    <glyph glyph-name="Igrave" unicode="&#xcc;" horiz-adv-x="260" 
d="M117 876l25 -49c7 -13 -1 -27 -15 -27h-9c-10 0 -18 6 -28 17l-42 47c-14 15 -3 36 14 36h19c16 0 28 -8 36 -24zM165 718v-686c0 -20 -10 -32 -30 -32h-10c-20 0 -30 12 -30 32v686c0 20 10 32 30 32h10c20 0 30 -12 30 -32z" />
    <glyph glyph-name="Iacute" unicode="&#xcd;" horiz-adv-x="260" 
d="M118 827l25 49c8 16 20 24 36 24h19c17 0 28 -21 14 -36l-42 -47c-10 -11 -18 -17 -28 -17h-9c-14 0 -22 14 -15 27zM165 718v-686c0 -20 -10 -32 -30 -32h-10c-20 0 -30 12 -30 32v686c0 20 10 32 30 32h10c20 0 30 -12 30 -32z" />
    <glyph glyph-name="Icircumflex" unicode="&#xce;" horiz-adv-x="260" 
d="M196 878l60 -53c12 -10 5 -25 -6 -25h-5c-13 0 -24 5 -37 12l-78 44l-78 -44c-13 -7 -24 -12 -37 -12h-5c-11 0 -18 15 -6 25l60 53c19 16 31 22 47 22h38c16 0 28 -6 47 -22zM165 718v-686c0 -20 -10 -32 -30 -32h-10c-20 0 -30 12 -30 32v686c0 20 10 32 30 32h10
c20 0 30 -12 30 -32z" />
    <glyph glyph-name="Idieresis" unicode="&#xcf;" horiz-adv-x="260" 
d="M5 850c0 28 22 50 50 50s50 -22 50 -50s-22 -50 -50 -50s-50 22 -50 50zM155 850c0 28 22 50 50 50s50 -22 50 -50s-22 -50 -50 -50s-50 22 -50 50zM165 718v-686c0 -20 -10 -32 -30 -32h-10c-20 0 -30 12 -30 32v686c0 20 10 32 30 32h10c20 0 30 -12 30 -32z" />
    <glyph glyph-name="Eth" unicode="&#xd0;" horiz-adv-x="685" 
d="M40 415h65v303c0 20 10 32 30 32h174c245 0 316 -162 316 -375s-71 -375 -316 -375h-174c-20 0 -30 12 -30 32v330h-65c-16 0 -25 9 -25 24v5c0 15 9 24 25 24zM173 687v-272h158c16 0 25 -9 25 -24v-5c0 -15 -9 -24 -25 -24h-158v-299h140c180 0 240 132 240 312
s-60 312 -240 312h-140z" />
    <glyph glyph-name="Ntilde" unicode="&#xd1;" horiz-adv-x="670" 
d="M259 910c82 0 100 -61 152 -61c32 0 41 15 45 27c6 17 14 24 30 24h2c18 0 28 -14 26 -32c-5 -44 -43 -78 -103 -78c-82 0 -100 61 -152 61c-32 0 -41 -15 -45 -27c-6 -17 -14 -24 -30 -24h-2c-18 0 -28 14 -26 32c5 44 43 78 103 78zM135 736l394 -597l-2 579
c0 20 10 32 30 32h8c20 0 30 -12 30 -32v-686c0 -20 -10 -32 -30 -32h-5c-13 0 -19 5 -25 14l-394 597l2 -579c0 -20 -10 -32 -30 -32h-8c-20 0 -30 12 -30 32v686c0 20 10 32 30 32h5c13 0 19 -5 25 -14z" />
    <glyph glyph-name="Ograve" unicode="&#xd2;" horiz-adv-x="680" 
d="M327 876l25 -49c7 -13 -1 -27 -15 -27h-9c-10 0 -18 6 -28 17l-42 47c-14 15 -3 36 14 36h19c16 0 28 -8 36 -24zM340 53c181 0 208 142 208 322s-27 322 -208 322s-208 -142 -208 -322s27 -322 208 -322zM340 -10c-245 0 -280 189 -280 385s35 385 280 385
s280 -189 280 -385s-35 -385 -280 -385z" />
    <glyph glyph-name="Oacute" unicode="&#xd3;" horiz-adv-x="680" 
d="M328 827l25 49c8 16 20 24 36 24h19c17 0 28 -21 14 -36l-42 -47c-10 -11 -18 -17 -28 -17h-9c-14 0 -22 14 -15 27zM340 53c181 0 208 142 208 322s-27 322 -208 322s-208 -142 -208 -322s27 -322 208 -322zM340 -10c-245 0 -280 189 -280 385s35 385 280 385
s280 -189 280 -385s-35 -385 -280 -385z" />
    <glyph glyph-name="Ocircumflex" unicode="&#xd4;" horiz-adv-x="680" 
d="M406 878l60 -53c12 -10 5 -25 -6 -25h-5c-13 0 -24 5 -37 12l-78 44l-78 -44c-13 -7 -24 -12 -37 -12h-5c-11 0 -18 15 -6 25l60 53c19 16 31 22 47 22h38c16 0 28 -6 47 -22zM340 53c181 0 208 142 208 322s-27 322 -208 322s-208 -142 -208 -322s27 -322 208 -322z
M340 -10c-245 0 -280 189 -280 385s35 385 280 385s280 -189 280 -385s-35 -385 -280 -385z" />
    <glyph glyph-name="Otilde" unicode="&#xd5;" horiz-adv-x="680" 
d="M264 910c82 0 100 -61 152 -61c32 0 41 15 45 27c6 17 14 24 30 24h2c18 0 28 -14 26 -32c-5 -44 -43 -78 -103 -78c-82 0 -100 61 -152 61c-32 0 -41 -15 -45 -27c-6 -17 -14 -24 -30 -24h-2c-18 0 -28 14 -26 32c5 44 43 78 103 78zM340 53c181 0 208 142 208 322
s-27 322 -208 322s-208 -142 -208 -322s27 -322 208 -322zM340 -10c-245 0 -280 189 -280 385s35 385 280 385s280 -189 280 -385s-35 -385 -280 -385z" />
    <glyph glyph-name="Odieresis" unicode="&#xd6;" horiz-adv-x="680" 
d="M195 850c0 28 22 50 50 50s50 -22 50 -50s-22 -50 -50 -50s-50 22 -50 50zM385 850c0 28 22 50 50 50s50 -22 50 -50s-22 -50 -50 -50s-50 22 -50 50zM340 53c181 0 208 142 208 322s-27 322 -208 322s-208 -142 -208 -322s27 -322 208 -322zM340 -10
c-245 0 -280 189 -280 385s35 385 280 385s280 -189 280 -385s-35 -385 -280 -385z" />
    <glyph glyph-name="Oslash" unicode="&#xd8;" horiz-adv-x="660" 
d="M582 716l-29 -47c55 -73 67 -183 67 -294c0 -196 -35 -385 -280 -385c-77 0 -132 18 -173 49l-14 -22c-8 -13 -16 -17 -32 -17h-8c-17 0 -27 15 -15 34l28 46c-55 74 -66 183 -66 295c0 196 35 385 280 385c76 0 132 -19 173 -50l14 23c8 13 16 17 32 17h8
c17 0 27 -15 15 -34zM340 53c181 0 208 142 208 322c0 89 -7 169 -36 227l-309 -504c31 -29 75 -45 137 -45zM132 375c0 -90 6 -170 35 -228l310 504c-31 29 -75 46 -137 46c-181 0 -208 -142 -208 -322z" />
    <glyph glyph-name="Ugrave" unicode="&#xd9;" horiz-adv-x="670" 
d="M322 876l25 -49c7 -13 -1 -27 -15 -27h-9c-10 0 -18 6 -28 17l-42 47c-14 15 -3 36 14 36h19c16 0 28 -8 36 -24zM70 235v483c0 20 10 32 30 32h8c20 0 30 -12 30 -32v-472c0 -180 130 -193 197 -193s197 13 197 193v472c0 20 10 32 30 32h8c20 0 30 -12 30 -32v-483
c0 -213 -175 -245 -265 -245s-265 32 -265 245z" />
    <glyph glyph-name="Uacute" unicode="&#xda;" horiz-adv-x="670" 
d="M323 827l25 49c8 16 20 24 36 24h19c17 0 28 -21 14 -36l-42 -47c-10 -11 -18 -17 -28 -17h-9c-14 0 -22 14 -15 27zM70 235v483c0 20 10 32 30 32h8c20 0 30 -12 30 -32v-472c0 -180 130 -193 197 -193s197 13 197 193v472c0 20 10 32 30 32h8c20 0 30 -12 30 -32v-483
c0 -213 -175 -245 -265 -245s-265 32 -265 245z" />
    <glyph glyph-name="Ucircumflex" unicode="&#xdb;" horiz-adv-x="670" 
d="M401 878l60 -53c12 -10 5 -25 -6 -25h-5c-13 0 -24 5 -37 12l-78 44l-78 -44c-13 -7 -24 -12 -37 -12h-5c-11 0 -18 15 -6 25l60 53c19 16 31 22 47 22h38c16 0 28 -6 47 -22zM70 235v483c0 20 10 32 30 32h8c20 0 30 -12 30 -32v-472c0 -180 130 -193 197 -193
s197 13 197 193v472c0 20 10 32 30 32h8c20 0 30 -12 30 -32v-483c0 -213 -175 -245 -265 -245s-265 32 -265 245z" />
    <glyph glyph-name="Udieresis" unicode="&#xdc;" horiz-adv-x="670" 
d="M190 850c0 28 22 50 50 50s50 -22 50 -50s-22 -50 -50 -50s-50 22 -50 50zM380 850c0 28 22 50 50 50s50 -22 50 -50s-22 -50 -50 -50s-50 22 -50 50zM70 235v483c0 20 10 32 30 32h8c20 0 30 -12 30 -32v-472c0 -180 130 -193 197 -193s197 13 197 193v472
c0 20 10 32 30 32h8c20 0 30 -12 30 -32v-483c0 -213 -175 -245 -265 -245s-265 32 -265 245z" />
    <glyph glyph-name="Yacute" unicode="&#xdd;" horiz-adv-x="670" 
d="M323 827l25 49c8 16 20 24 36 24h19c17 0 28 -21 14 -36l-42 -47c-10 -11 -18 -17 -28 -17h-9c-14 0 -22 14 -15 27zM634 712l-265 -404v-276c0 -20 -10 -32 -30 -32h-8c-20 0 -30 12 -30 32v276l-265 404c-11 17 -3 38 18 38h9c20 0 31 -10 40 -24l232 -361l232 361
c9 14 20 24 40 24h9c21 0 29 -21 18 -38z" />
    <glyph glyph-name="Thorn" unicode="&#xde;" 
d="M143 718v-118h161c187 0 251 -108 251 -225s-64 -225 -251 -225h-161v-118c0 -20 -10 -32 -30 -32h-8c-20 0 -30 12 -30 32v686c0 20 10 32 30 32h8c20 0 30 -12 30 -32zM143 537v-324h170c141 0 168 90 168 162s-27 162 -168 162h-170z" />
    <glyph glyph-name="Amacron" unicode="&#x100;" horiz-adv-x="630" 
d="M207 880h216c19 0 29 -10 29 -28v-4c0 -18 -10 -28 -29 -28h-216c-18 0 -29 10 -29 28v4c0 18 11 28 29 28zM26 32l255 702c6 18 13 26 31 26h6c18 0 25 -8 31 -26l255 -702c8 -21 -6 -32 -20 -32h-20c-21 0 -30 12 -35 27l-63 183h-302l-63 -183c-5 -15 -14 -27 -35 -27
h-20c-14 0 -28 11 -20 32zM315 646l-130 -377h260z" />
    <glyph glyph-name="Abreve" unicode="&#x102;" horiz-adv-x="630" 
d="M315 790c-103 0 -130 43 -140 77c-6 20 6 33 21 33h3c15 0 22 -7 28 -23c5 -14 27 -32 88 -32s83 18 88 32c6 16 13 23 28 23h3c15 0 27 -13 21 -33c-10 -34 -37 -77 -140 -77zM26 32l255 702c6 18 13 26 31 26h6c18 0 25 -8 31 -26l255 -702c8 -21 -6 -32 -20 -32h-20
c-21 0 -30 12 -35 27l-63 183h-302l-63 -183c-5 -15 -14 -27 -35 -27h-20c-14 0 -28 11 -20 32zM315 646l-130 -377h260z" />
    <glyph glyph-name="Aogonek" unicode="&#x104;" horiz-adv-x="630" 
d="M26 32l255 702c6 18 13 26 31 26h6c18 0 25 -8 31 -26l255 -702c5 -15 0 -25 -9 -30c-35 -22 -96 -83 -96 -144c0 -34 16 -57 54 -57c13 0 27 2 32 3c18 4 25 -5 25 -16v-6c0 -11 -3 -23 -22 -27c-13 -3 -26 -5 -49 -5c-66 0 -101 41 -101 95c0 75 47 129 97 164l-69 201
h-302l-63 -183c-5 -15 -14 -27 -35 -27h-20c-14 0 -28 11 -20 32zM315 646l-130 -377h260z" />
    <glyph glyph-name="Cacute" unicode="&#x106;" horiz-adv-x="610" 
d="M343 827l25 49c8 16 20 24 36 24h19c17 0 28 -21 14 -36l-42 -47c-10 -11 -18 -17 -28 -17h-9c-14 0 -22 14 -15 27zM60 375c0 213 71 385 295 385c92 0 147 -17 169 -25c20 -7 26 -20 26 -34v-14c0 -11 -9 -25 -31 -17c-39 14 -88 27 -164 27
c-164 0 -223 -141 -223 -322s59 -322 223 -322c76 0 125 13 164 27c22 8 31 -6 31 -17v-14c0 -14 -6 -27 -26 -34c-22 -8 -77 -25 -169 -25c-224 0 -295 172 -295 385z" />
    <glyph glyph-name="Ccircumflex" unicode="&#x108;" horiz-adv-x="610" 
d="M421 878l60 -53c12 -10 5 -25 -6 -25h-5c-13 0 -24 5 -37 12l-78 44l-78 -44c-13 -7 -24 -12 -37 -12h-5c-11 0 -18 15 -6 25l60 53c19 16 31 22 47 22h38c16 0 28 -6 47 -22zM60 375c0 213 71 385 295 385c92 0 147 -17 169 -25c20 -7 26 -20 26 -34v-14
c0 -11 -9 -25 -31 -17c-39 14 -88 27 -164 27c-164 0 -223 -141 -223 -322s59 -322 223 -322c76 0 125 13 164 27c22 8 31 -6 31 -17v-14c0 -14 -6 -27 -26 -34c-22 -8 -77 -25 -169 -25c-224 0 -295 172 -295 385z" />
    <glyph glyph-name="Cdotaccent" unicode="&#x10a;" horiz-adv-x="610" 
d="M305 850c0 28 22 50 50 50s50 -22 50 -50s-22 -50 -50 -50s-50 22 -50 50zM60 375c0 213 71 385 295 385c92 0 147 -17 169 -25c20 -7 26 -20 26 -34v-14c0 -11 -9 -25 -31 -17c-39 14 -88 27 -164 27c-164 0 -223 -141 -223 -322s59 -322 223 -322c76 0 125 13 164 27
c22 8 31 -6 31 -17v-14c0 -14 -6 -27 -26 -34c-22 -8 -77 -25 -169 -25c-224 0 -295 172 -295 385z" />
    <glyph glyph-name="Ccaron" unicode="&#x10c;" horiz-adv-x="610" 
d="M289 822l-60 53c-12 10 -5 25 6 25h5c13 0 24 -5 37 -12l78 -44l78 44c13 7 24 12 37 12h5c11 0 18 -15 6 -25l-60 -53c-19 -16 -31 -22 -47 -22h-38c-16 0 -28 6 -47 22zM60 375c0 213 71 385 295 385c92 0 147 -17 169 -25c20 -7 26 -20 26 -34v-14
c0 -11 -9 -25 -31 -17c-39 14 -88 27 -164 27c-164 0 -223 -141 -223 -322s59 -322 223 -322c76 0 125 13 164 27c22 8 31 -6 31 -17v-14c0 -14 -6 -27 -26 -34c-22 -8 -77 -25 -169 -25c-224 0 -295 172 -295 385z" />
    <glyph glyph-name="Dcaron" unicode="&#x10e;" horiz-adv-x="655" 
d="M234 822l-60 53c-12 10 -5 25 6 25h5c13 0 24 -5 37 -12l78 -44l78 44c13 7 24 12 37 12h5c11 0 18 -15 6 -25l-60 -53c-19 -16 -31 -22 -47 -22h-38c-16 0 -28 6 -47 22zM279 0h-174c-20 0 -30 12 -30 32v686c0 20 10 32 30 32h174c245 0 316 -162 316 -375
s-71 -375 -316 -375zM143 687v-624h140c180 0 240 132 240 312s-60 312 -240 312h-140z" />
    <glyph glyph-name="Dcroat" unicode="&#x110;" horiz-adv-x="685" 
d="M40 415h65v303c0 20 10 32 30 32h174c245 0 316 -162 316 -375s-71 -375 -316 -375h-174c-20 0 -30 12 -30 32v330h-65c-16 0 -25 9 -25 24v5c0 15 9 24 25 24zM173 687v-272h158c16 0 25 -9 25 -24v-5c0 -15 -9 -24 -25 -24h-158v-299h140c180 0 240 132 240 312
s-60 312 -240 312h-140z" />
    <glyph glyph-name="Emacron" unicode="&#x112;" 
d="M192 880h216c19 0 29 -10 29 -28v-4c0 -18 -10 -28 -29 -28h-216c-18 0 -29 10 -29 28v4c0 18 11 28 29 28zM143 687v-265h302c19 0 30 -10 30 -29v-5c0 -19 -11 -29 -30 -29h-302v-296h337c19 0 30 -10 30 -29v-5c0 -19 -11 -29 -30 -29h-375c-20 0 -30 12 -30 32v686
c0 20 10 32 30 32h375c19 0 30 -10 30 -29v-5c0 -19 -11 -29 -30 -29h-337z" />
    <glyph glyph-name="Ebreve" unicode="&#x114;" 
d="M300 790c-103 0 -130 43 -140 77c-6 20 6 33 21 33h3c15 0 22 -7 28 -23c5 -14 27 -32 88 -32s83 18 88 32c6 16 13 23 28 23h3c15 0 27 -13 21 -33c-10 -34 -37 -77 -140 -77zM143 687v-265h302c19 0 30 -10 30 -29v-5c0 -19 -11 -29 -30 -29h-302v-296h337
c19 0 30 -10 30 -29v-5c0 -19 -11 -29 -30 -29h-375c-20 0 -30 12 -30 32v686c0 20 10 32 30 32h375c19 0 30 -10 30 -29v-5c0 -19 -11 -29 -30 -29h-337z" />
    <glyph glyph-name="Edotaccent" unicode="&#x116;" 
d="M250 850c0 28 22 50 50 50s50 -22 50 -50s-22 -50 -50 -50s-50 22 -50 50zM143 687v-265h302c19 0 30 -10 30 -29v-5c0 -19 -11 -29 -30 -29h-302v-296h337c19 0 30 -10 30 -29v-5c0 -19 -11 -29 -30 -29h-375c-20 0 -30 12 -30 32v686c0 20 10 32 30 32h375
c19 0 30 -10 30 -29v-5c0 -19 -11 -29 -30 -29h-337z" />
    <glyph glyph-name="Eogonek" unicode="&#x118;" 
d="M143 687v-265h302c19 0 30 -10 30 -29v-5c0 -19 -11 -29 -30 -29h-302v-296h337c19 0 30 -10 30 -29v-5c0 -13 -6 -22 -15 -27c-36 -20 -91 -86 -91 -144c0 -34 16 -57 54 -57c13 0 27 2 32 3c18 4 25 -5 25 -16v-6c0 -11 -3 -23 -22 -27c-13 -3 -26 -5 -49 -5
c-66 0 -101 41 -101 95c0 71 39 121 84 155h-322c-20 0 -30 12 -30 32v686c0 20 10 32 30 32h375c19 0 30 -10 30 -29v-5c0 -19 -11 -29 -30 -29h-337z" />
    <glyph glyph-name="Ecaron" unicode="&#x11a;" 
d="M234 822l-60 53c-12 10 -5 25 6 25h5c13 0 24 -5 37 -12l78 -44l78 44c13 7 24 12 37 12h5c11 0 18 -15 6 -25l-60 -53c-19 -16 -31 -22 -47 -22h-38c-16 0 -28 6 -47 22zM143 687v-265h302c19 0 30 -10 30 -29v-5c0 -19 -11 -29 -30 -29h-302v-296h337
c19 0 30 -10 30 -29v-5c0 -19 -11 -29 -30 -29h-375c-20 0 -30 12 -30 32v686c0 20 10 32 30 32h375c19 0 30 -10 30 -29v-5c0 -19 -11 -29 -30 -29h-337z" />
    <glyph glyph-name="Gcircumflex" unicode="&#x11c;" horiz-adv-x="660" 
d="M421 878l60 -53c12 -10 5 -25 -6 -25h-5c-13 0 -24 5 -37 12l-78 44l-78 -44c-13 -7 -24 -12 -37 -12h-5c-11 0 -18 15 -6 25l60 53c19 16 31 22 47 22h38c16 0 28 -6 47 -22zM390 394h165c20 0 30 -12 30 -32v-309c0 -12 -6 -26 -26 -33c-33 -12 -100 -30 -204 -30
c-224 0 -295 172 -295 385s71 385 295 385c96 0 151 -18 184 -30c20 -7 26 -21 26 -33v-17c0 -13 -10 -26 -31 -18c-40 16 -97 35 -179 35c-164 0 -223 -141 -223 -322s59 -322 223 -322c57 0 127 5 162 22v256h-127c-19 0 -30 10 -30 29v5c0 19 11 29 30 29z" />
    <glyph glyph-name="Gbreve" unicode="&#x11e;" horiz-adv-x="660" 
d="M355 790c-103 0 -130 43 -140 77c-6 20 6 33 21 33h3c15 0 22 -7 28 -23c5 -14 27 -32 88 -32s83 18 88 32c6 16 13 23 28 23h3c15 0 27 -13 21 -33c-10 -34 -37 -77 -140 -77zM390 394h165c20 0 30 -12 30 -32v-309c0 -12 -6 -26 -26 -33c-33 -12 -100 -30 -204 -30
c-224 0 -295 172 -295 385s71 385 295 385c96 0 151 -18 184 -30c20 -7 26 -21 26 -33v-17c0 -13 -10 -26 -31 -18c-40 16 -97 35 -179 35c-164 0 -223 -141 -223 -322s59 -322 223 -322c57 0 127 5 162 22v256h-127c-19 0 -30 10 -30 29v5c0 19 11 29 30 29z" />
    <glyph glyph-name="Gdotaccent" unicode="&#x120;" horiz-adv-x="660" 
d="M305 850c0 28 22 50 50 50s50 -22 50 -50s-22 -50 -50 -50s-50 22 -50 50zM390 394h165c20 0 30 -12 30 -32v-309c0 -12 -6 -26 -26 -33c-33 -12 -100 -30 -204 -30c-224 0 -295 172 -295 385s71 385 295 385c96 0 151 -18 184 -30c20 -7 26 -21 26 -33v-17
c0 -13 -10 -26 -31 -18c-40 16 -97 35 -179 35c-164 0 -223 -141 -223 -322s59 -322 223 -322c57 0 127 5 162 22v256h-127c-19 0 -30 10 -30 29v5c0 19 11 29 30 29z" />
    <glyph glyph-name="Gcommaaccent" unicode="&#x122;" horiz-adv-x="660" 
d="M299 -226l19 148c2 17 13 28 32 28h16c20 0 31 -18 26 -36l-40 -141c-5 -16 -14 -23 -28 -23h-3c-16 0 -24 12 -22 24zM390 394h165c20 0 30 -12 30 -32v-309c0 -12 -6 -26 -26 -33c-33 -12 -100 -30 -204 -30c-224 0 -295 172 -295 385s71 385 295 385
c96 0 151 -18 184 -30c20 -7 26 -21 26 -33v-17c0 -13 -10 -26 -31 -18c-40 16 -97 35 -179 35c-164 0 -223 -141 -223 -322s59 -322 223 -322c57 0 127 5 162 22v256h-127c-19 0 -30 10 -30 29v5c0 19 11 29 30 29z" />
    <glyph glyph-name="Hcircumflex" unicode="&#x124;" horiz-adv-x="660" 
d="M396 878l60 -53c12 -10 5 -25 -6 -25h-5c-13 0 -24 5 -37 12l-78 44l-78 -44c-13 -7 -24 -12 -37 -12h-5c-11 0 -18 15 -6 25l60 53c19 16 31 22 47 22h38c16 0 28 -6 47 -22zM517 32v327h-374v-327c0 -20 -10 -32 -30 -32h-8c-20 0 -30 12 -30 32v686c0 20 10 32 30 32
h8c20 0 30 -12 30 -32v-296h374v296c0 20 10 32 30 32h8c20 0 30 -12 30 -32v-686c0 -20 -10 -32 -30 -32h-8c-20 0 -30 12 -30 32z" />
    <glyph glyph-name="Hbar" unicode="&#x126;" horiz-adv-x="660" 
d="M517 32v327h-374v-327c0 -20 -10 -32 -30 -32h-8c-20 0 -30 12 -30 32v686c0 20 10 32 30 32h8c20 0 30 -12 30 -32v-112h374v112c0 20 10 32 30 32h8c20 0 30 -12 30 -32v-686c0 -20 -10 -32 -30 -32h-8c-20 0 -30 12 -30 32zM143 543v-121h374v121h-374z" />
    <glyph glyph-name="Itilde" unicode="&#x128;" horiz-adv-x="260" 
d="M54 910c82 0 100 -61 152 -61c32 0 41 15 45 27c6 17 14 24 30 24h2c18 0 28 -14 26 -32c-5 -44 -43 -78 -103 -78c-82 0 -100 61 -152 61c-32 0 -41 -15 -45 -27c-6 -17 -14 -24 -30 -24h-2c-18 0 -28 14 -26 32c5 44 43 78 103 78zM165 718v-686c0 -20 -10 -32 -30 -32
h-10c-20 0 -30 12 -30 32v686c0 20 10 32 30 32h10c20 0 30 -12 30 -32z" />
    <glyph glyph-name="Imacron" unicode="&#x12a;" horiz-adv-x="260" 
d="M22 880h216c19 0 29 -10 29 -28v-4c0 -18 -10 -28 -29 -28h-216c-18 0 -29 10 -29 28v4c0 18 11 28 29 28zM165 718v-686c0 -20 -10 -32 -30 -32h-10c-20 0 -30 12 -30 32v686c0 20 10 32 30 32h10c20 0 30 -12 30 -32z" />
    <glyph glyph-name="Ibreve" unicode="&#x12c;" horiz-adv-x="260" 
d="M130 790c-103 0 -130 43 -140 77c-6 20 6 33 21 33h3c15 0 22 -7 28 -23c5 -14 27 -32 88 -32s83 18 88 32c6 16 13 23 28 23h3c15 0 27 -13 21 -33c-10 -34 -37 -77 -140 -77zM165 718v-686c0 -20 -10 -32 -30 -32h-10c-20 0 -30 12 -30 32v686c0 20 10 32 30 32h10
c20 0 30 -12 30 -32z" />
    <glyph glyph-name="Iogonek" unicode="&#x12e;" horiz-adv-x="260" 
d="M165 718v-686c0 -13 -3 -20 -11 -27c-39 -34 -75 -89 -75 -147c0 -34 16 -57 54 -57c13 0 27 2 32 3c18 4 25 -5 25 -16v-6c0 -11 -3 -23 -22 -27c-13 -3 -26 -5 -49 -5c-66 0 -101 41 -101 95c0 71 34 126 77 162v711c0 20 10 32 30 32h10c20 0 30 -12 30 -32z" />
    <glyph glyph-name="Idotaccent" unicode="&#x130;" horiz-adv-x="260" 
d="M80 850c0 28 22 50 50 50s50 -22 50 -50s-22 -50 -50 -50s-50 22 -50 50zM165 718v-686c0 -20 -10 -32 -30 -32h-10c-20 0 -30 12 -30 32v686c0 20 10 32 30 32h10c20 0 30 -12 30 -32z" />
    <glyph glyph-name="IJ" unicode="&#x132;" horiz-adv-x="639" 
d="M165 718v-686c0 -20 -10 -32 -30 -32h-10c-20 0 -30 12 -30 32v686c0 20 10 32 30 32h10c20 0 30 -12 30 -32zM544 718v-578c0 -96 -54 -150 -179 -150c-13 0 -29 1 -41 2c-18 2 -29 13 -29 30v9c0 15 12 27 29 24c8 -1 22 -2 41 -2c65 0 109 20 109 85v580
c0 20 10 32 30 32h10c20 0 30 -12 30 -32z" />
    <glyph glyph-name="Jcircumflex" unicode="&#x134;" horiz-adv-x="379" 
d="M315 878l60 -53c12 -10 5 -25 -6 -25h-5c-13 0 -24 5 -37 12l-78 44l-78 -44c-13 -7 -24 -12 -37 -12h-5c-11 0 -18 15 -6 25l60 53c19 16 31 22 47 22h38c16 0 28 -6 47 -22zM284 718v-578c0 -96 -54 -150 -179 -150c-13 0 -29 1 -41 2c-18 2 -29 13 -29 30v9
c0 15 12 27 29 24c8 -1 22 -2 41 -2c65 0 109 20 109 85v580c0 20 10 32 30 32h10c20 0 30 -12 30 -32z" />
    <glyph glyph-name="Kcommaaccent" unicode="&#x136;" horiz-adv-x="595" 
d="M239 -226l19 148c2 17 13 28 32 28h16c20 0 31 -18 26 -36l-40 -141c-5 -16 -14 -23 -28 -23h-3c-16 0 -24 12 -22 24zM143 718v-348l307 346c25 29 34 34 56 34h13c17 0 27 -21 13 -36l-272 -303l303 -373c12 -15 7 -38 -15 -38h-8c-35 0 -42 9 -66 39l-259 322l-72 -80
v-249c0 -20 -10 -32 -30 -32h-8c-20 0 -30 12 -30 32v686c0 20 10 32 30 32h8c20 0 30 -12 30 -32z" />
    <glyph glyph-name="Lacute" unicode="&#x139;" horiz-adv-x="530" 
d="M94 827l25 49c8 16 20 24 36 24h19c17 0 28 -21 14 -36l-42 -47c-10 -11 -18 -17 -28 -17h-9c-14 0 -22 14 -15 27zM460 0h-355c-20 0 -30 12 -30 32v686c0 20 10 32 30 32h8c20 0 30 -12 30 -32v-655h317c19 0 30 -10 30 -29v-5c0 -19 -11 -29 -30 -29z" />
    <glyph glyph-name="Lcommaaccent" unicode="&#x13b;" horiz-adv-x="530" 
d="M229 -226l19 148c2 17 13 28 32 28h16c20 0 31 -18 26 -36l-40 -141c-5 -16 -14 -23 -28 -23h-3c-16 0 -24 12 -22 24zM460 0h-355c-20 0 -30 12 -30 32v686c0 20 10 32 30 32h8c20 0 30 -12 30 -32v-655h317c19 0 30 -10 30 -29v-5c0 -19 -11 -29 -30 -29z" />
    <glyph glyph-name="Lcaron" unicode="&#x13d;" horiz-adv-x="530" 
d="M225 574l12 148c2 17 12 28 31 28h13c22 0 33 -16 28 -36l-34 -141c-5 -16 -13 -23 -26 -23h-3c-16 0 -23 12 -21 24zM460 0h-355c-20 0 -30 12 -30 32v686c0 20 10 32 30 32h8c20 0 30 -12 30 -32v-655h317c19 0 30 -10 30 -29v-5c0 -19 -11 -29 -30 -29z" />
    <glyph glyph-name="Ldot" unicode="&#x13f;" horiz-adv-x="530" 
d="M324 375c0 28 22 50 50 50s50 -22 50 -50s-22 -50 -50 -50s-50 22 -50 50zM460 0h-355c-20 0 -30 12 -30 32v686c0 20 10 32 30 32h8c20 0 30 -12 30 -32v-655h317c19 0 30 -10 30 -29v-5c0 -19 -11 -29 -30 -29z" />
    <glyph glyph-name="Lslash" unicode="&#x141;" horiz-adv-x="560" 
d="M363 439l-192 -118v-258h317c19 0 30 -10 30 -29v-5c0 -19 -11 -29 -30 -29h-355c-20 0 -30 12 -30 32v248l-64 -39c-18 -11 -34 1 -34 18v3c0 16 4 22 17 30l81 49v377c0 20 10 32 30 32h8c20 0 30 -12 30 -32v-335l175 107c18 11 34 -1 34 -18v-3c0 -16 -4 -22 -17 -30
z" />
    <glyph glyph-name="Nacute" unicode="&#x143;" horiz-adv-x="670" 
d="M323 827l25 49c8 16 20 24 36 24h19c17 0 28 -21 14 -36l-42 -47c-10 -11 -18 -17 -28 -17h-9c-14 0 -22 14 -15 27zM135 736l394 -597l-2 579c0 20 10 32 30 32h8c20 0 30 -12 30 -32v-686c0 -20 -10 -32 -30 -32h-5c-13 0 -19 5 -25 14l-394 597l2 -579
c0 -20 -10 -32 -30 -32h-8c-20 0 -30 12 -30 32v686c0 20 10 32 30 32h5c13 0 19 -5 25 -14z" />
    <glyph glyph-name="Ncommaaccent" unicode="&#x145;" horiz-adv-x="670" 
d="M279 -226l19 148c2 17 13 28 32 28h16c20 0 31 -18 26 -36l-40 -141c-5 -16 -14 -23 -28 -23h-3c-16 0 -24 12 -22 24zM135 736l394 -597l-2 579c0 20 10 32 30 32h8c20 0 30 -12 30 -32v-686c0 -20 -10 -32 -30 -32h-5c-13 0 -19 5 -25 14l-394 597l2 -579
c0 -20 -10 -32 -30 -32h-8c-20 0 -30 12 -30 32v686c0 20 10 32 30 32h5c13 0 19 -5 25 -14z" />
    <glyph glyph-name="Ncaron" unicode="&#x147;" horiz-adv-x="670" 
d="M269 822l-60 53c-12 10 -5 25 6 25h5c13 0 24 -5 37 -12l78 -44l78 44c13 7 24 12 37 12h5c11 0 18 -15 6 -25l-60 -53c-19 -16 -31 -22 -47 -22h-38c-16 0 -28 6 -47 22zM135 736l394 -597l-2 579c0 20 10 32 30 32h8c20 0 30 -12 30 -32v-686c0 -20 -10 -32 -30 -32h-5
c-13 0 -19 5 -25 14l-394 597l2 -579c0 -20 -10 -32 -30 -32h-8c-20 0 -30 12 -30 32v686c0 20 10 32 30 32h5c13 0 19 -5 25 -14z" />
    <glyph glyph-name="Eng" unicode="&#x14a;" horiz-adv-x="670" 
d="M431 -255c-21 0 -32 9 -32 27v5c0 18 12 27 32 27c67 0 98 36 98 97v122l-388 588l2 -579c0 -20 -10 -32 -30 -32h-8c-20 0 -30 12 -30 32v686c0 20 10 32 30 32h5c13 0 19 -5 25 -14l394 -597l-2 579c0 20 10 32 30 32h8c20 0 30 -12 30 -32v-823
c0 -98 -69 -150 -164 -150z" />
    <glyph glyph-name="Omacron" unicode="&#x14c;" horiz-adv-x="680" 
d="M232 880h216c19 0 29 -10 29 -28v-4c0 -18 -10 -28 -29 -28h-216c-18 0 -29 10 -29 28v4c0 18 11 28 29 28zM340 53c181 0 208 142 208 322s-27 322 -208 322s-208 -142 -208 -322s27 -322 208 -322zM340 -10c-245 0 -280 189 -280 385s35 385 280 385s280 -189 280 -385
s-35 -385 -280 -385z" />
    <glyph glyph-name="Obreve" unicode="&#x14e;" horiz-adv-x="680" 
d="M340 790c-103 0 -130 43 -140 77c-6 20 6 33 21 33h3c15 0 22 -7 28 -23c5 -14 27 -32 88 -32s83 18 88 32c6 16 13 23 28 23h3c15 0 27 -13 21 -33c-10 -34 -37 -77 -140 -77zM340 53c181 0 208 142 208 322s-27 322 -208 322s-208 -142 -208 -322s27 -322 208 -322z
M340 -10c-245 0 -280 189 -280 385s35 385 280 385s280 -189 280 -385s-35 -385 -280 -385z" />
    <glyph glyph-name="Ohungarumlaut" unicode="&#x150;" horiz-adv-x="680" 
d="M268 827l25 49c8 16 20 24 36 24h19c17 0 28 -21 14 -36l-42 -47c-10 -11 -18 -17 -28 -17h-9c-14 0 -22 14 -15 27zM388 827l25 49c8 16 20 24 36 24h19c17 0 28 -21 14 -36l-42 -47c-10 -11 -18 -17 -28 -17h-9c-14 0 -22 14 -15 27zM340 53c181 0 208 142 208 322
s-27 322 -208 322s-208 -142 -208 -322s27 -322 208 -322zM340 -10c-245 0 -280 189 -280 385s35 385 280 385s280 -189 280 -385s-35 -385 -280 -385z" />
    <glyph glyph-name="Racute" unicode="&#x154;" horiz-adv-x="621" 
d="M278 827l25 49c8 16 20 24 36 24h19c17 0 28 -21 14 -36l-42 -47c-10 -11 -18 -17 -28 -17h-9c-14 0 -22 14 -15 27zM417 340l160 -304c10 -19 -4 -36 -21 -36h-8c-20 0 -35 8 -47 31l-152 298c-11 -1 -22 -1 -33 -1h-173v-296c0 -20 -10 -32 -30 -32h-8
c-20 0 -30 12 -30 32v686c0 20 10 32 30 32h205c187 0 245 -82 245 -211c0 -100 -35 -172 -138 -199zM143 687v-296h185c133 0 153 68 153 148s-20 148 -153 148h-185z" />
    <glyph glyph-name="Rcommaaccent" unicode="&#x156;" horiz-adv-x="621" 
d="M254 -226l19 148c2 17 13 28 32 28h16c20 0 31 -18 26 -36l-40 -141c-5 -16 -14 -23 -28 -23h-3c-16 0 -24 12 -22 24zM417 340l160 -304c10 -19 -4 -36 -21 -36h-8c-20 0 -35 8 -47 31l-152 298c-11 -1 -22 -1 -33 -1h-173v-296c0 -20 -10 -32 -30 -32h-8
c-20 0 -30 12 -30 32v686c0 20 10 32 30 32h205c187 0 245 -82 245 -211c0 -100 -35 -172 -138 -199zM143 687v-296h185c133 0 153 68 153 148s-20 148 -153 148h-185z" />
    <glyph glyph-name="Rcaron" unicode="&#x158;" horiz-adv-x="621" 
d="M224 822l-60 53c-12 10 -5 25 6 25h5c13 0 24 -5 37 -12l78 -44l78 44c13 7 24 12 37 12h5c11 0 18 -15 6 -25l-60 -53c-19 -16 -31 -22 -47 -22h-38c-16 0 -28 6 -47 22zM417 340l160 -304c10 -19 -4 -36 -21 -36h-8c-20 0 -35 8 -47 31l-152 298c-11 -1 -22 -1 -33 -1
h-173v-296c0 -20 -10 -32 -30 -32h-8c-20 0 -30 12 -30 32v686c0 20 10 32 30 32h205c187 0 245 -82 245 -211c0 -100 -35 -172 -138 -199zM143 687v-296h185c133 0 153 68 153 148s-20 148 -153 148h-185z" />
    <glyph glyph-name="Sacute" unicode="&#x15a;" horiz-adv-x="595" 
d="M294 827l25 49c8 16 20 24 36 24h19c17 0 28 -21 14 -36l-42 -47c-10 -11 -18 -17 -28 -17h-9c-14 0 -22 14 -15 27zM265 53c156 0 203 73 203 163c0 107 -44 128 -169 144c-177 22 -245 63 -245 191c0 87 42 209 252 209c92 0 147 -17 168 -24s27 -21 27 -34v-14
c0 -14 -12 -25 -35 -16c-33 13 -87 25 -161 25c-148 0 -182 -68 -182 -147c0 -107 62 -117 180 -132c147 -19 238 -55 238 -202c0 -102 -54 -226 -277 -226c-83 0 -160 22 -184 30c-20 7 -26 22 -26 34v11c0 13 10 26 32 19c35 -12 96 -31 179 -31z" />
    <glyph glyph-name="Scircumflex" unicode="&#x15c;" horiz-adv-x="595" 
d="M372 878l60 -53c12 -10 5 -25 -6 -25h-5c-13 0 -24 5 -37 12l-78 44l-78 -44c-13 -7 -24 -12 -37 -12h-5c-11 0 -18 15 -6 25l60 53c19 16 31 22 47 22h38c16 0 28 -6 47 -22zM265 53c156 0 203 73 203 163c0 107 -44 128 -169 144c-177 22 -245 63 -245 191
c0 87 42 209 252 209c92 0 147 -17 168 -24s27 -21 27 -34v-14c0 -14 -12 -25 -35 -16c-33 13 -87 25 -161 25c-148 0 -182 -68 -182 -147c0 -107 62 -117 180 -132c147 -19 238 -55 238 -202c0 -102 -54 -226 -277 -226c-83 0 -160 22 -184 30c-20 7 -26 22 -26 34v11
c0 13 10 26 32 19c35 -12 96 -31 179 -31z" />
    <glyph glyph-name="Scedilla" unicode="&#x15e;" horiz-adv-x="595" 
d="M265 53c156 0 203 73 203 163c0 107 -44 128 -169 144c-177 22 -245 63 -245 191c0 87 42 209 252 209c92 0 147 -17 168 -24s27 -21 27 -34v-14c0 -14 -12 -25 -35 -16c-33 13 -87 25 -161 25c-148 0 -182 -68 -182 -147c0 -107 62 -117 180 -132
c147 -19 238 -55 238 -202c0 -96 -49 -212 -241 -224l5 -56c40 -10 95 -35 95 -97c0 -54 -41 -89 -111 -89c-25 0 -49 2 -72 9c-18 6 -22 16 -22 27v5c0 11 8 20 25 16c18 -4 34 -6 52 -6c41 0 67 11 67 36c0 36 -27 52 -64 59c-17 3 -24 13 -22 31l6 63
c-81 1 -156 22 -179 30c-20 7 -26 22 -26 34v11c0 13 10 26 32 19c35 -12 96 -31 179 -31z" />
    <glyph glyph-name="Scommaaccent" unicode="&#x218;" horiz-adv-x="595" 
d="M219 -226l19 148c2 17 13 28 32 28h16c20 0 31 -18 26 -36l-40 -141c-5 -16 -14 -23 -28 -23h-3c-16 0 -24 12 -22 24zM265 53c156 0 203 73 203 163c0 107 -44 128 -169 144c-177 22 -245 63 -245 191c0 87 42 209 252 209c92 0 147 -17 168 -24s27 -21 27 -34v-14
c0 -14 -12 -25 -35 -16c-33 13 -87 25 -161 25c-148 0 -182 -68 -182 -147c0 -107 62 -117 180 -132c147 -19 238 -55 238 -202c0 -102 -54 -226 -277 -226c-83 0 -160 22 -184 30c-20 7 -26 22 -26 34v11c0 13 10 26 32 19c35 -12 96 -31 179 -31z" />
    <glyph glyph-name="Scaron" unicode="&#x160;" horiz-adv-x="595" 
d="M240 822l-60 53c-12 10 -5 25 6 25h5c13 0 24 -5 37 -12l78 -44l78 44c13 7 24 12 37 12h5c11 0 18 -15 6 -25l-60 -53c-19 -16 -31 -22 -47 -22h-38c-16 0 -28 6 -47 22zM265 53c156 0 203 73 203 163c0 107 -44 128 -169 144c-177 22 -245 63 -245 191
c0 87 42 209 252 209c92 0 147 -17 168 -24s27 -21 27 -34v-14c0 -14 -12 -25 -35 -16c-33 13 -87 25 -161 25c-148 0 -182 -68 -182 -147c0 -107 62 -117 180 -132c147 -19 238 -55 238 -202c0 -102 -54 -226 -277 -226c-83 0 -160 22 -184 30c-20 7 -26 22 -26 34v11
c0 13 10 26 32 19c35 -12 96 -31 179 -31z" />
    <glyph glyph-name="Tcommaaccent" unicode="&#x162;" horiz-adv-x="560" 
d="M222 -226l19 148c2 17 13 28 32 28h16c20 0 31 -18 26 -36l-40 -141c-5 -16 -14 -23 -28 -23h-3c-16 0 -24 12 -22 24zM69 750h422c19 0 30 -10 30 -29v-5c0 -19 -11 -29 -30 -29h-177v-655c0 -20 -10 -32 -30 -32h-8c-20 0 -30 12 -30 32v655h-177c-19 0 -30 10 -30 29
v5c0 19 11 29 30 29z" />
    <glyph glyph-name="Tcaron" unicode="&#x164;" horiz-adv-x="560" 
d="M214 822l-60 53c-12 10 -5 25 6 25h5c13 0 24 -5 37 -12l78 -44l78 44c13 7 24 12 37 12h5c11 0 18 -15 6 -25l-60 -53c-19 -16 -31 -22 -47 -22h-38c-16 0 -28 6 -47 22zM69 750h422c19 0 30 -10 30 -29v-5c0 -19 -11 -29 -30 -29h-177v-655c0 -20 -10 -32 -30 -32h-8
c-20 0 -30 12 -30 32v655h-177c-19 0 -30 10 -30 29v5c0 19 11 29 30 29z" />
    <glyph glyph-name="Tbar" unicode="&#x166;" horiz-adv-x="560" 
d="M69 750h422c19 0 30 -10 30 -29v-5c0 -19 -11 -29 -30 -29h-177v-266h98c17 0 27 -9 27 -26v-9c0 -17 -10 -26 -27 -26h-98v-328c0 -20 -10 -32 -30 -32h-8c-20 0 -30 12 -30 32v328h-98c-17 0 -27 9 -27 26v9c0 17 10 26 27 26h98v266h-177c-19 0 -30 10 -30 29v5
c0 19 11 29 30 29z" />
    <glyph glyph-name="Utilde" unicode="&#x168;" horiz-adv-x="670" 
d="M259 910c82 0 100 -61 152 -61c32 0 41 15 45 27c6 17 14 24 30 24h2c18 0 28 -14 26 -32c-5 -44 -43 -78 -103 -78c-82 0 -100 61 -152 61c-32 0 -41 -15 -45 -27c-6 -17 -14 -24 -30 -24h-2c-18 0 -28 14 -26 32c5 44 43 78 103 78zM70 235v483c0 20 10 32 30 32h8
c20 0 30 -12 30 -32v-472c0 -180 130 -193 197 -193s197 13 197 193v472c0 20 10 32 30 32h8c20 0 30 -12 30 -32v-483c0 -213 -175 -245 -265 -245s-265 32 -265 245z" />
    <glyph glyph-name="Umacron" unicode="&#x16a;" horiz-adv-x="670" 
d="M227 880h216c19 0 29 -10 29 -28v-4c0 -18 -10 -28 -29 -28h-216c-18 0 -29 10 -29 28v4c0 18 11 28 29 28zM70 235v483c0 20 10 32 30 32h8c20 0 30 -12 30 -32v-472c0 -180 130 -193 197 -193s197 13 197 193v472c0 20 10 32 30 32h8c20 0 30 -12 30 -32v-483
c0 -213 -175 -245 -265 -245s-265 32 -265 245z" />
    <glyph glyph-name="Ubreve" unicode="&#x16c;" horiz-adv-x="670" 
d="M335 790c-103 0 -130 43 -140 77c-6 20 6 33 21 33h3c15 0 22 -7 28 -23c5 -14 27 -32 88 -32s83 18 88 32c6 16 13 23 28 23h3c15 0 27 -13 21 -33c-10 -34 -37 -77 -140 -77zM70 235v483c0 20 10 32 30 32h8c20 0 30 -12 30 -32v-472c0 -180 130 -193 197 -193
s197 13 197 193v472c0 20 10 32 30 32h8c20 0 30 -12 30 -32v-483c0 -213 -175 -245 -265 -245s-265 32 -265 245z" />
    <glyph glyph-name="Uring" unicode="&#x16e;" horiz-adv-x="670" 
d="M335 921c50 0 94 -16 94 -71s-44 -71 -94 -71s-94 16 -94 71s44 71 94 71zM335 828c30 0 44 7 44 22s-14 22 -44 22s-44 -7 -44 -22s14 -22 44 -22zM70 235v483c0 20 10 32 30 32h8c20 0 30 -12 30 -32v-472c0 -180 130 -193 197 -193s197 13 197 193v472
c0 20 10 32 30 32h8c20 0 30 -12 30 -32v-483c0 -213 -175 -245 -265 -245s-265 32 -265 245z" />
    <glyph glyph-name="Uhungarumlaut" unicode="&#x170;" horiz-adv-x="670" 
d="M263 827l25 49c8 16 20 24 36 24h19c17 0 28 -21 14 -36l-42 -47c-10 -11 -18 -17 -28 -17h-9c-14 0 -22 14 -15 27zM383 827l25 49c8 16 20 24 36 24h19c17 0 28 -21 14 -36l-42 -47c-10 -11 -18 -17 -28 -17h-9c-14 0 -22 14 -15 27zM70 235v483c0 20 10 32 30 32h8
c20 0 30 -12 30 -32v-472c0 -180 130 -193 197 -193s197 13 197 193v472c0 20 10 32 30 32h8c20 0 30 -12 30 -32v-483c0 -213 -175 -245 -265 -245s-265 32 -265 245z" />
    <glyph glyph-name="Uogonek" unicode="&#x172;" horiz-adv-x="670" 
d="M70 235v483c0 20 10 32 30 32h8c20 0 30 -12 30 -32v-472c0 -180 130 -193 197 -193s197 13 197 193v472c0 20 10 32 30 32h8c20 0 30 -12 30 -32v-483c0 -156 -85 -205 -169 -232c-71 -23 -116 -93 -116 -145c0 -34 16 -57 54 -57c13 0 27 2 32 3c18 4 25 -5 25 -16v-6
c0 -11 -3 -23 -22 -27c-13 -3 -26 -5 -49 -5c-66 0 -101 41 -101 95c0 64 34 111 75 145c-91 2 -259 36 -259 245z" />
    <glyph glyph-name="Wcircumflex" unicode="&#x174;" horiz-adv-x="880" 
d="M431 750h18c19 0 32 -10 37 -31l168 -623l128 625c4 18 14 29 33 29h13c17 0 29 -13 25 -33l-156 -698c-5 -22 -19 -29 -37 -29h-12c-18 0 -32 10 -37 29l-171 641l-171 -641c-5 -19 -19 -29 -37 -29h-12c-18 0 -32 7 -37 29l-156 698c-4 20 8 33 25 33h13
c19 0 29 -11 33 -29l128 -625l168 623c5 21 18 31 37 31zM506 878l60 -53c12 -10 5 -25 -6 -25h-5c-13 0 -24 5 -37 12l-78 44l-78 -44c-13 -7 -24 -12 -37 -12h-5c-11 0 -18 15 -6 25l60 53c19 16 31 22 47 22h38c16 0 28 -6 47 -22z" />
    <glyph glyph-name="Ycircumflex" unicode="&#x176;" horiz-adv-x="670" 
d="M401 878l60 -53c12 -10 5 -25 -6 -25h-5c-13 0 -24 5 -37 12l-78 44l-78 -44c-13 -7 -24 -12 -37 -12h-5c-11 0 -18 15 -6 25l60 53c19 16 31 22 47 22h38c16 0 28 -6 47 -22zM634 712l-265 -404v-276c0 -20 -10 -32 -30 -32h-8c-20 0 -30 12 -30 32v276l-265 404
c-11 17 -3 38 18 38h9c20 0 31 -10 40 -24l232 -361l232 361c9 14 20 24 40 24h9c21 0 29 -21 18 -38z" />
    <glyph glyph-name="Ydieresis" unicode="&#x178;" horiz-adv-x="670" 
d="M190 850c0 28 22 50 50 50s50 -22 50 -50s-22 -50 -50 -50s-50 22 -50 50zM380 850c0 28 22 50 50 50s50 -22 50 -50s-22 -50 -50 -50s-50 22 -50 50zM634 712l-265 -404v-276c0 -20 -10 -32 -30 -32h-8c-20 0 -30 12 -30 32v276l-265 404c-11 17 -3 38 18 38h9
c20 0 31 -10 40 -24l232 -361l232 361c9 14 20 24 40 24h9c21 0 29 -21 18 -38z" />
    <glyph glyph-name="Zacute" unicode="&#x179;" horiz-adv-x="610" 
d="M293 827l25 49c8 16 20 24 36 24h19c17 0 28 -21 14 -36l-42 -47c-10 -11 -18 -17 -28 -17h-9c-14 0 -22 14 -15 27zM90 750h435c19 0 30 -10 30 -29v-3c0 -13 -3 -19 -21 -46l-406 -611l412 2c19 0 30 -10 30 -29v-5c0 -19 -11 -29 -30 -29h-470c-19 0 -30 10 -30 29v3
c0 13 3 19 21 46l406 611l-377 -2c-19 0 -30 10 -30 29v5c0 19 11 29 30 29z" />
    <glyph glyph-name="Zdotaccent" unicode="&#x17b;" horiz-adv-x="610" 
d="M255 850c0 28 22 50 50 50s50 -22 50 -50s-22 -50 -50 -50s-50 22 -50 50zM90 750h435c19 0 30 -10 30 -29v-3c0 -13 -3 -19 -21 -46l-406 -611l412 2c19 0 30 -10 30 -29v-5c0 -19 -11 -29 -30 -29h-470c-19 0 -30 10 -30 29v3c0 13 3 19 21 46l406 611l-377 -2
c-19 0 -30 10 -30 29v5c0 19 11 29 30 29z" />
    <glyph glyph-name="Zcaron" unicode="&#x17d;" horiz-adv-x="610" 
d="M239 822l-60 53c-12 10 -5 25 6 25h5c13 0 24 -5 37 -12l78 -44l78 44c13 7 24 12 37 12h5c11 0 18 -15 6 -25l-60 -53c-19 -16 -31 -22 -47 -22h-38c-16 0 -28 6 -47 22zM90 750h435c19 0 30 -10 30 -29v-3c0 -13 -3 -19 -21 -46l-406 -611l412 2c19 0 30 -10 30 -29v-5
c0 -19 -11 -29 -30 -29h-470c-19 0 -30 10 -30 29v3c0 13 3 19 21 46l406 611l-377 -2c-19 0 -30 10 -30 29v5c0 19 11 29 30 29z" />
    <glyph glyph-name="agrave" unicode="&#xe0;" horiz-adv-x="495" 
d="M223 723l37 -149c3 -12 -4 -24 -20 -24h-3c-14 0 -24 7 -30 23l-56 141c-7 18 2 36 22 36h15c19 0 31 -10 35 -27zM360 266l-137 -13c-71 -7 -102 -44 -102 -102c0 -45 11 -99 106 -99c54 0 90 15 133 40v174zM241 448c-60 0 -99 -11 -119 -17c-25 -7 -37 6 -37 19v12
c0 11 4 21 22 28c27 10 79 20 134 20c150 0 189 -68 189 -168v-319c0 -14 -7 -23 -21 -23h-2c-14 0 -18 7 -25 24l-6 16c-45 -33 -101 -50 -151 -50c-131 0 -175 77 -175 161c0 85 47 148 178 156l132 8v28c0 73 -26 105 -119 105z" />
    <glyph glyph-name="aacute" unicode="&#xe1;" horiz-adv-x="495" 
d="M222 574l37 149c4 17 16 27 35 27h15c20 0 29 -18 22 -36l-56 -141c-6 -16 -16 -23 -30 -23h-3c-16 0 -23 12 -20 24zM360 266l-137 -13c-71 -7 -102 -44 -102 -102c0 -45 11 -99 106 -99c54 0 90 15 133 40v174zM241 448c-60 0 -99 -11 -119 -17c-25 -7 -37 6 -37 19v12
c0 11 4 21 22 28c27 10 79 20 134 20c150 0 189 -68 189 -168v-319c0 -14 -7 -23 -21 -23h-2c-14 0 -18 7 -25 24l-6 16c-45 -33 -101 -50 -151 -50c-131 0 -175 77 -175 161c0 85 47 148 178 156l132 8v28c0 73 -26 105 -119 105z" />
    <glyph glyph-name="acircumflex" unicode="&#xe2;" horiz-adv-x="495" 
d="M294 731l114 -155c9 -12 2 -26 -11 -26h-6c-16 0 -24 4 -36 17l-114 124l-114 -124c-12 -13 -20 -17 -36 -17h-6c-13 0 -20 14 -11 26l114 155c11 16 19 19 35 19h36c16 0 24 -3 35 -19zM360 266l-137 -13c-71 -7 -102 -44 -102 -102c0 -45 11 -99 106 -99
c54 0 90 15 133 40v174zM241 448c-60 0 -99 -11 -119 -17c-25 -7 -37 6 -37 19v12c0 11 4 21 22 28c27 10 79 20 134 20c150 0 189 -68 189 -168v-319c0 -14 -7 -23 -21 -23h-2c-14 0 -18 7 -25 24l-6 16c-45 -33 -101 -50 -151 -50c-131 0 -175 77 -175 161
c0 85 47 148 178 156l132 8v28c0 73 -26 105 -119 105z" />
    <glyph glyph-name="atilde" unicode="&#xe3;" horiz-adv-x="495" 
d="M165 715c82 0 100 -71 152 -71c32 0 41 15 45 27c6 17 14 24 30 24h2c18 0 28 -14 26 -32c-5 -44 -43 -78 -103 -78c-82 0 -100 71 -152 71c-32 0 -41 -15 -45 -27c-6 -17 -14 -24 -30 -24h-2c-18 0 -28 14 -26 32c5 44 43 78 103 78zM360 266l-137 -13
c-71 -7 -102 -44 -102 -102c0 -45 11 -99 106 -99c54 0 90 15 133 40v174zM241 448c-60 0 -99 -11 -119 -17c-25 -7 -37 6 -37 19v12c0 11 4 21 22 28c27 10 79 20 134 20c150 0 189 -68 189 -168v-319c0 -14 -7 -23 -21 -23h-2c-14 0 -18 7 -25 24l-6 16
c-45 -33 -101 -50 -151 -50c-131 0 -175 77 -175 161c0 85 47 148 178 156l132 8v28c0 73 -26 105 -119 105z" />
    <glyph glyph-name="adieresis" unicode="&#xe4;" horiz-adv-x="495" 
d="M96 650c0 28 22 50 50 50s50 -22 50 -50s-22 -50 -50 -50s-50 22 -50 50zM286 650c0 28 22 50 50 50s50 -22 50 -50s-22 -50 -50 -50s-50 22 -50 50zM360 266l-137 -13c-71 -7 -102 -44 -102 -102c0 -45 11 -99 106 -99c54 0 90 15 133 40v174zM241 448
c-60 0 -99 -11 -119 -17c-25 -7 -37 6 -37 19v12c0 11 4 21 22 28c27 10 79 20 134 20c150 0 189 -68 189 -168v-319c0 -14 -7 -23 -21 -23h-2c-14 0 -18 7 -25 24l-6 16c-45 -33 -101 -50 -151 -50c-131 0 -175 77 -175 161c0 85 47 148 178 156l132 8v28
c0 73 -26 105 -119 105z" />
    </font>
</defs>
</svg>
