<?xml version="1.0" standalone="no"?>
<!DOCTYPE svg PUBLIC "-//W3C//DTD SVG 1.1//EN" "http://www.w3.org/Graphics/SVG/1.1/DTD/svg11.dtd" >
<svg xmlns="http://www.w3.org/2000/svg" xmlns:xlink="http://www.w3.org/1999/xlink" version="1.1">
<metadata>
Created by FontForge 20190801 at Wed Jul  7 05:44:51 2010
 By Unknown
Copyright (c) 2010 Village Type and Design LLC. All rights reserved.
</metadata>
<defs>
<font id="ApexRounded-Medium" horiz-adv-x="600" >
  <font-face 
    font-family="Apex Rounded Medium"
    font-weight="620"
    font-stretch="normal"
    units-per-em="1000"
    panose-1="0 0 0 0 0 0 0 0 0 0"
    ascent="750"
    descent="-250"
    x-height="500"
    cap-height="750"
    bbox="-124.806 -270 1410 932"
    underline-thickness="50"
    underline-position="-100"
    unicode-range="U+0020-F778"
  />
<missing-glyph horiz-adv-x="880" 
d="M65 0v750h750v-750h-750zM181 684l259 -259l259 259h-518zM440 325l-259 -259h518zM490 375l254 -254v508zM390 375l-254 254v-508z" />
    <glyph glyph-name="interrobang" unicode="&#x21;&#x3f;" horiz-adv-x="475" 
d="M66 642c-29 -7 -43 11 -43 32v32c0 19 5 33 31 40c32 9 85 16 136 16c213 0 254 -97 254 -209c0 -132 -88 -169 -182 -203c-17 -6 -28 -11 -37 -16l-6 -95c-1 -19 -10 -29 -28 -29h-24c-18 0 -27 10 -28 29l-26 412c-20 -3 -36 -7 -47 -9zM106 61c0 40 33 73 73 73
s73 -33 73 -73s-33 -73 -73 -73s-73 33 -73 73zM331 550c0 53 -20 88 -87 101l-13 -223c58 24 100 47 100 122z" />
    <glyph glyph-name="interrobangdown" unicode="&#xa1;&#xbf;" horiz-adv-x="475" 
d="M409 -142c29 7 43 -11 43 -32v-32c0 -19 -5 -33 -31 -40c-32 -9 -85 -16 -136 -16c-213 0 -254 97 -254 209c0 132 88 169 182 203c16 6 28 10 37 15l6 96c1 19 10 29 28 29h24c18 0 27 -10 28 -29l25 -412c20 3 37 7 48 9zM369 439c0 -40 -33 -73 -73 -73s-73 33 -73 73
s33 73 73 73s73 -33 73 -73zM144 -50c0 -53 19 -88 86 -101l14 223c-58 -25 -100 -47 -100 -122z" />
    <glyph glyph-name="fi" unicode="fi" horiz-adv-x="639" 
d="M308 665c-50 0 -90 -19 -90 -76v-89h103c25 0 38 -14 38 -40v-15c0 -26 -13 -40 -38 -40h-103v-365c0 -26 -13 -40 -38 -40h-36c-25 0 -38 14 -38 40v365h-58c-21 0 -33 11 -33 32v10c0 21 7 30 29 36l62 17v99c0 107 60 163 194 163c18 0 38 -1 54 -5
c21 -5 28 -18 28 -37v-38c0 -17 -14 -28 -36 -22c-12 3 -26 5 -38 5zM447 102v358c0 26 13 40 38 40h36c25 0 38 -14 38 -40v-342c0 -18 8 -26 24 -30c15 -4 23 -13 23 -30v-30c0 -23 -17 -35 -45 -35c-64 0 -114 35 -114 109zM430 648c0 40 33 73 73 73s73 -33 73 -73
s-33 -73 -73 -73s-73 33 -73 73z" />
    <glyph glyph-name="fl" unicode="fl" horiz-adv-x="639" 
d="M308 665c-50 0 -90 -19 -90 -76v-89h103c25 0 38 -14 38 -40v-15c0 -26 -13 -40 -38 -40h-103v-365c0 -26 -13 -40 -38 -40h-36c-25 0 -38 14 -38 40v365h-58c-21 0 -33 11 -33 32v10c0 21 7 30 29 36l62 17v99c0 107 60 163 194 163c18 0 38 -1 54 -5
c21 -5 28 -18 28 -37v-38c0 -17 -14 -28 -36 -22c-12 3 -26 5 -38 5zM447 102v608c0 26 13 40 38 40h36c25 0 38 -14 38 -40v-592c0 -18 8 -26 24 -30c15 -4 23 -13 23 -30v-30c0 -23 -17 -35 -45 -35c-64 0 -114 35 -114 109z" />
    <glyph glyph-name="f_dotlessi" unicode="f&#x131;" horiz-adv-x="639" 
d="M308 665c-50 0 -90 -19 -90 -76v-89h103c25 0 38 -14 38 -40v-15c0 -26 -13 -40 -38 -40h-103v-365c0 -26 -13 -40 -38 -40h-36c-25 0 -38 14 -38 40v365h-58c-21 0 -33 11 -33 32v10c0 21 7 30 29 36l62 17v99c0 107 60 163 194 163c18 0 38 -1 54 -5
c21 -5 28 -18 28 -37v-38c0 -17 -14 -28 -36 -22c-12 3 -26 5 -38 5zM447 102v358c0 26 13 40 38 40h36c25 0 38 -14 38 -40v-342c0 -18 8 -26 24 -30c15 -4 23 -13 23 -30v-30c0 -23 -17 -35 -45 -35c-64 0 -114 35 -114 109z" />
    <glyph glyph-name=".notdef" horiz-adv-x="880" 
d="M65 0v750h750v-750h-750zM181 684l259 -259l259 259h-518zM440 325l-259 -259h518zM490 375l254 -254v508zM390 375l-254 254v-508z" />
    <glyph glyph-name="space" unicode=" " horiz-adv-x="192" 
 />
    <glyph glyph-name="A" unicode="A" horiz-adv-x="640" 
d="M96 0h-44c-25 0 -41 22 -31 52l227 667c10 28 22 40 50 40h44c28 0 40 -12 50 -40l227 -667c10 -30 -6 -52 -31 -52h-44c-30 0 -42 12 -51 41l-43 142h-260l-43 -142c-9 -29 -21 -41 -51 -41zM422 275l-102 335l-102 -335h204z" />
    <glyph glyph-name="B" unicode="B" horiz-adv-x="608" 
d="M61 45v660c0 29 14 45 43 45h209c183 0 238 -89 238 -205c0 -64 -33 -122 -90 -149c72 -21 113 -90 113 -176c0 -124 -61 -220 -255 -220h-215c-29 0 -43 16 -43 45zM173 342v-239h150c105 0 131 58 131 120c0 77 -35 119 -130 119h-151zM431 540c0 50 -17 107 -115 107
h-143v-210h147c90 0 111 55 111 103z" />
    <glyph glyph-name="C" unicode="C" horiz-adv-x="587" 
d="M166 375c0 -185 58 -282 201 -282c58 0 99 9 131 20c25 8 38 -5 38 -25v-40c0 -19 -10 -33 -36 -41c-25 -8 -69 -19 -140 -19c-221 0 -309 141 -309 387s88 387 309 387c71 0 115 -11 140 -19c26 -8 36 -22 36 -41v-40c0 -20 -13 -33 -38 -25c-32 11 -73 20 -131 20
c-143 0 -201 -97 -201 -282z" />
    <glyph glyph-name="D" unicode="D" horiz-adv-x="650" 
d="M61 45v660c0 29 14 45 43 45h180c249 0 318 -162 318 -375s-69 -375 -318 -375h-180c-29 0 -43 16 -43 45zM173 647v-544h114c150 0 198 109 198 272s-48 272 -198 272h-114z" />
    <glyph glyph-name="E" unicode="E" horiz-adv-x="565" 
d="M173 647v-207h269c28 0 43 -14 43 -43v-17c0 -29 -15 -43 -43 -43h-269v-234h301c29 0 43 -14 43 -43v-17c0 -29 -14 -43 -43 -43h-370c-29 0 -43 16 -43 45v660c0 29 14 45 43 45h370c29 0 43 -14 43 -43v-17c0 -29 -14 -43 -43 -43h-301z" />
    <glyph glyph-name="F" unicode="F" horiz-adv-x="544" 
d="M433 333h-260v-288c0 -29 -14 -45 -44 -45h-25c-29 0 -43 16 -43 45v660c0 29 14 45 43 45h361c29 0 44 -14 44 -43v-17c0 -29 -15 -43 -44 -43h-292v-211h260c29 0 44 -14 44 -43v-17c0 -28 -15 -43 -44 -43z" />
    <glyph glyph-name="G" unicode="G" horiz-adv-x="651" 
d="M391 413h157c29 0 44 -15 44 -45v-298c0 -29 -13 -43 -38 -52c-33 -12 -105 -30 -198 -30c-223 0 -305 151 -305 387s82 387 308 387c90 0 144 -12 181 -24c28 -9 34 -23 34 -43v-42c0 -21 -16 -35 -41 -26c-44 15 -83 30 -160 30c-154 0 -207 -104 -207 -282
c0 -184 55 -282 207 -282c46 0 85 6 107 14v205h-90c-28 0 -43 14 -43 42v16c0 29 15 43 44 43z" />
    <glyph glyph-name="H" unicode="H" horiz-adv-x="650" 
d="M477 45v292h-304v-292c0 -29 -14 -45 -44 -45h-25c-29 0 -43 16 -43 45v660c0 29 14 45 43 45h25c30 0 44 -16 44 -45v-265h304v265c0 29 14 45 44 45h25c29 0 43 -16 43 -45v-660c0 -29 -14 -45 -43 -45h-25c-30 0 -44 16 -44 45z" />
    <glyph glyph-name="I" unicode="I" horiz-adv-x="266" 
d="M77 45v660c0 29 14 45 43 45h26c29 0 43 -16 43 -45v-660c0 -29 -14 -45 -43 -45h-26c-29 0 -43 16 -43 45z" />
    <glyph glyph-name="J" unicode="J" horiz-adv-x="374" 
d="M304 705v-550c0 -109 -60 -167 -198 -167c-18 0 -42 2 -56 6c-19 4 -28 12 -28 35v49c0 16 12 27 28 23c15 -3 33 -6 50 -6c54 0 92 20 92 77v533c0 29 14 45 43 45h26c29 0 43 -16 43 -45z" />
    <glyph glyph-name="K" unicode="K" horiz-adv-x="623" 
d="M173 705l-1 -303l265 318c20 23 31 30 56 30h55c25 0 34 -25 17 -45l-257 -292l282 -367c15 -20 4 -46 -21 -46h-55c-26 0 -41 9 -60 34l-221 294l-61 -70l1 -213c0 -29 -14 -45 -44 -45h-25c-29 0 -43 16 -43 45v660c0 29 14 45 43 45h25c30 0 44 -16 44 -45z" />
    <glyph glyph-name="L" unicode="L" horiz-adv-x="524" 
d="M455 0h-351c-29 0 -43 16 -43 45v660c0 29 14 45 43 45h25c30 0 44 -16 44 -45v-602h282c29 0 44 -14 44 -43v-17c0 -29 -15 -43 -44 -43z" />
    <glyph glyph-name="M" unicode="M" horiz-adv-x="816" 
d="M392 103c-29 0 -43 14 -50 32l-174 429l5 -519c0 -29 -14 -45 -44 -45h-25c-29 0 -43 16 -43 45v660c0 29 14 45 43 45h64c29 0 43 -14 50 -32l190 -479l190 479c7 18 21 32 50 32h64c29 0 43 -16 43 -45v-660c0 -29 -14 -45 -43 -45h-25c-30 0 -44 16 -44 45l5 519
l-174 -429c-7 -18 -21 -32 -50 -32h-32z" />
    <glyph glyph-name="N" unicode="N" horiz-adv-x="658" 
d="M181 720l308 -503l-3 488c0 29 14 45 44 45h24c29 0 43 -16 43 -45v-660c0 -29 -14 -45 -43 -45h-25c-29 0 -42 13 -52 30l-308 503l3 -488c0 -29 -14 -45 -44 -45h-24c-29 0 -43 16 -43 45v660c0 29 14 45 43 45h25c29 0 42 -13 52 -30z" />
    <glyph glyph-name="O" unicode="O" horiz-adv-x="680" 
d="M340 -12c-241 0 -289 175 -289 387s48 387 289 387s289 -175 289 -387s-48 -387 -289 -387zM340 660c-142 0 -174 -107 -174 -285s32 -285 174 -285s174 107 174 285s-32 285 -174 285z" />
    <glyph glyph-name="P" unicode="P" horiz-adv-x="580" 
d="M61 45v660c0 29 14 45 43 45h198c193 0 260 -112 260 -235s-67 -234 -260 -234h-129v-236c0 -29 -14 -45 -43 -45h-26c-29 0 -43 16 -43 45zM173 647v-264h134c112 0 133 76 133 132s-21 132 -133 132h-134z" />
    <glyph glyph-name="Q" unicode="Q" horiz-adv-x="680" 
d="M471 20l195 -40c29 -6 39 -20 39 -47v-39c0 -24 -16 -36 -45 -27l-422 133c-155 47 -187 193 -187 375c0 221 50 387 289 387c240 0 289 -166 289 -387c0 -170 -25 -306 -158 -354v-1zM340 660c-142 0 -174 -107 -174 -285s32 -285 174 -285s174 107 174 285
s-32 285 -174 285z" />
    <glyph glyph-name="R" unicode="R" horiz-adv-x="621" 
d="M61 45v660c0 29 14 45 43 45h201c194 0 256 -87 256 -223c0 -97 -30 -168 -122 -200l150 -274c15 -29 -5 -53 -30 -53h-46c-31 0 -43 11 -56 38l-128 267h-156v-260c0 -29 -14 -45 -43 -45h-26c-29 0 -43 16 -43 45zM173 647v-240h148c104 0 118 59 118 120
c0 62 -14 120 -118 120h-148z" />
    <glyph glyph-name="S" unicode="S" horiz-adv-x="595" 
d="M260 94c135 0 175 55 175 126c0 83 -35 103 -136 116c-183 23 -254 72 -254 209c0 110 62 217 266 217c79 0 132 -10 169 -22c28 -9 34 -23 34 -43v-42c0 -21 -16 -35 -41 -26c-44 15 -79 27 -156 27c-117 0 -157 -48 -157 -112c0 -81 46 -95 145 -108
c156 -21 247 -56 247 -209c0 -142 -84 -239 -285 -239c-79 0 -151 16 -188 28c-28 9 -34 23 -34 43v42c0 21 16 35 41 26c44 -15 97 -33 174 -33z" />
    <glyph glyph-name="T" unicode="T" horiz-adv-x="556" 
d="M334 647v-602c0 -29 -14 -45 -43 -45h-25c-30 0 -44 16 -44 45v602h-151c-29 0 -44 14 -44 43v17c0 29 15 43 44 43h414c29 0 44 -14 44 -43v-17c0 -29 -15 -43 -44 -43h-151z" />
    <glyph glyph-name="U" unicode="U" horiz-adv-x="656" 
d="M328 -12c-102 0 -272 38 -272 248v469c0 29 14 45 43 45h26c29 0 43 -16 43 -45v-459c0 -141 98 -156 160 -156s160 15 160 156v459c0 29 14 45 43 45h26c29 0 43 -16 43 -45v-469c0 -210 -170 -248 -272 -248z" />
    <glyph glyph-name="V" unicode="V" horiz-adv-x="640" 
d="M147 709l173 -569l173 569c9 29 21 41 51 41h44c25 0 41 -22 31 -52l-227 -667c-10 -28 -22 -40 -50 -40h-44c-28 0 -40 12 -50 40l-227 667c-10 30 6 52 31 52h44c30 0 42 -12 51 -41z" />
    <glyph glyph-name="W" unicode="W" horiz-adv-x="884" 
d="M412 750h60c28 0 42 -10 49 -42l128 -549l94 550c5 28 18 41 45 41h41c26 0 38 -17 32 -46l-133 -670c-6 -29 -21 -43 -49 -43h-52c-28 0 -43 14 -50 43l-135 585l-135 -585c-7 -29 -22 -43 -50 -43h-52c-28 0 -43 14 -49 43l-133 670c-6 29 6 46 32 46h41
c27 0 40 -13 45 -41l94 -550l128 549c7 32 21 42 49 42z" />
    <glyph glyph-name="X" unicode="X" horiz-adv-x="653" 
d="M318 302l-168 -270c-13 -21 -26 -32 -53 -32h-47c-27 0 -38 28 -24 50l215 334l-205 315c-16 24 -8 51 21 51h54c28 0 36 -11 49 -32l158 -267l158 267c13 21 21 32 49 32h54c29 0 37 -27 21 -51l-205 -315l215 -334c14 -22 3 -50 -24 -50h-47c-27 0 -40 11 -53 32z" />
    <glyph glyph-name="Y" unicode="Y" horiz-adv-x="670" 
d="M150 718l185 -318l185 318c12 21 26 32 53 32h47c27 0 38 -28 24 -50l-252 -399v-256c0 -29 -14 -45 -43 -45h-27c-30 0 -44 16 -44 45v256l-252 399c-14 22 -3 50 24 50h47c27 0 41 -11 53 -32z" />
    <glyph glyph-name="Z" unicode="Z" horiz-adv-x="610" 
d="M551 654l-370 -548l354 2c29 0 45 -14 45 -44v-21c0 -29 -16 -43 -45 -43h-460c-29 0 -45 14 -45 43v14c0 16 4 24 14 39l370 548l-314 -2c-29 0 -45 14 -45 44v21c0 29 16 43 45 43h420c29 0 45 -14 45 -43v-14c0 -16 -4 -24 -14 -39z" />
    <glyph glyph-name="Oslash" unicode="&#xd8;" horiz-adv-x="680" 
d="M589 716l-29 -47c54 -71 69 -177 69 -294c0 -212 -48 -387 -289 -387c-74 0 -129 16 -171 44l-9 -15c-8 -13 -16 -17 -32 -17h-22c-17 0 -27 15 -15 34l28 46c-54 72 -68 178 -68 295c0 212 48 387 289 387c73 0 129 -16 170 -45l10 16c8 13 16 17 32 17h22
c17 0 27 -15 15 -34zM514 375c0 74 -6 135 -23 182l-263 -429c26 -25 62 -38 112 -38c142 0 174 107 174 285zM340 660c-142 0 -174 -107 -174 -285c0 -74 6 -136 22 -183l264 430c-26 24 -62 38 -112 38z" />
    <glyph glyph-name="OE" unicode="&#x152;" horiz-adv-x="946" 
d="M457 103v544h-94c-150 0 -198 -109 -198 -272s48 -272 198 -272h94zM855 0h-489c-249 0 -318 162 -318 375s69 375 318 375h489c29 0 43 -14 43 -43v-17c0 -29 -14 -43 -43 -43h-286v-207h254c28 0 43 -14 43 -43v-17c0 -29 -15 -43 -43 -43h-254v-234h286
c29 0 43 -14 43 -43v-17c0 -29 -14 -43 -43 -43z" />
    <glyph glyph-name="Ydieresis" unicode="&#x178;" horiz-adv-x="670" 
d="M150 718l185 -318l185 318c12 21 26 32 53 32h47c27 0 38 -28 24 -50l-252 -399v-256c0 -29 -14 -45 -43 -45h-27c-30 0 -44 16 -44 45v256l-252 399c-14 22 -3 50 24 50h47c27 0 41 -11 53 -32zM156 850c0 40 33 73 73 73s73 -33 73 -73s-33 -73 -73 -73s-73 33 -73 73z
M368 850c0 40 33 73 73 73s73 -33 73 -73s-33 -73 -73 -73s-73 33 -73 73z" />
    <glyph glyph-name="a" unicode="a" horiz-adv-x="496" 
d="M444 334v-301c0 -21 -11 -33 -32 -33h-11c-21 0 -27 8 -36 29l-5 11c-40 -33 -96 -52 -151 -52c-129 0 -172 80 -172 160c0 108 70 154 183 163l112 9v25c0 51 -24 71 -98 71c-55 0 -101 -14 -120 -20c-22 -7 -36 6 -36 23v37c0 19 7 31 28 37c27 8 83 19 136 19
c164 0 202 -72 202 -178zM332 243l-105 -12c-50 -6 -79 -25 -79 -77c0 -38 16 -74 77 -74c45 0 76 13 107 33v130z" />
    <glyph glyph-name="b" unicode="b" horiz-adv-x="542" 
d="M139 40l-5 -11c-9 -21 -15 -29 -36 -29h-11c-21 0 -32 12 -32 33v677c0 26 13 40 38 40h36c25 0 38 -14 38 -40v-237c36 23 84 39 134 39c146 0 200 -99 200 -262c0 -164 -54 -262 -200 -262c-67 0 -118 20 -162 52zM275 417c-53 0 -88 -18 -108 -29v-276
c20 -11 55 -29 108 -29c98 0 113 74 113 167c0 92 -15 167 -113 167z" />
    <glyph glyph-name="c" unicode="c" horiz-adv-x="450" 
d="M41 250c0 156 54 262 231 262c44 0 83 -7 110 -15c21 -6 28 -18 28 -37v-38c0 -17 -14 -29 -36 -22c-19 6 -40 13 -95 13c-97 0 -125 -66 -125 -163s28 -163 125 -163c55 0 76 7 95 13c22 7 36 -5 36 -22v-38c0 -19 -7 -31 -28 -37c-27 -8 -66 -15 -110 -15
c-177 0 -231 106 -231 262z" />
    <glyph glyph-name="d" unicode="d" horiz-adv-x="542" 
d="M408 29l-5 11c-44 -32 -95 -52 -162 -52c-146 0 -200 98 -200 262c0 163 54 262 200 262c50 0 98 -16 134 -39v237c0 26 13 40 38 40h36c25 0 38 -14 38 -40v-677c0 -21 -11 -33 -32 -33h-11c-21 0 -27 8 -36 29zM267 417c-98 0 -113 -75 -113 -167
c0 -93 15 -167 113 -167c53 0 88 18 108 29v276c-20 11 -55 29 -108 29z" />
    <glyph glyph-name="e" unicode="e" horiz-adv-x="510" 
d="M263 415c-82 0 -105 -53 -109 -128h200c0 68 -4 128 -91 128zM429 209h-275c2 -75 29 -124 131 -124c60 0 109 15 128 21c22 7 36 -6 36 -23v-37c0 -19 -7 -30 -28 -37c-28 -9 -89 -21 -153 -21c-167 0 -227 100 -227 262c0 161 59 262 222 262c176 0 204 -116 204 -254
v-9c0 -26 -13 -40 -38 -40z" />
    <glyph glyph-name="f" unicode="f" horiz-adv-x="382" 
d="M308 665c-50 0 -90 -19 -90 -76v-89h103c25 0 38 -14 38 -40v-15c0 -26 -13 -40 -38 -40h-103v-365c0 -26 -13 -40 -38 -40h-36c-25 0 -38 14 -38 40v365h-58c-21 0 -33 11 -33 32v10c0 21 7 30 29 36l62 17v99c0 107 60 163 194 163c18 0 38 -1 54 -5
c21 -5 28 -18 28 -37v-38c0 -17 -14 -28 -36 -22c-12 3 -26 5 -38 5z" />
    <glyph glyph-name="g" unicode="g" horiz-adv-x="524" 
d="M352 -33l-142 18c-51 -9 -97 -32 -97 -80c0 -56 40 -78 132 -78c88 0 165 26 165 86c0 34 -17 49 -58 54zM142 322c0 -57 19 -101 103 -101s103 44 103 101s-19 101 -103 101s-103 -44 -103 -101zM337 500h140c21 0 33 -11 33 -32v-11c0 -21 -7 -30 -29 -36l-42 -12
c10 -26 15 -55 15 -87c0 -114 -56 -190 -209 -190c-21 0 -41 1 -58 4c-8 -8 -14 -19 -14 -29c0 -17 9 -26 30 -29l181 -22c99 -12 134 -57 134 -140c0 -129 -136 -178 -281 -178c-134 0 -231 43 -231 146c0 68 51 108 104 124v1c-25 14 -39 42 -39 69c0 37 22 63 45 81
c-57 32 -80 90 -80 163c0 114 56 190 209 190c36 0 66 -4 92 -12z" />
    <glyph glyph-name="h" unicode="h" horiz-adv-x="524" 
d="M361 40v303c0 51 -26 74 -79 74c-52 0 -88 -14 -115 -29v-348c0 -26 -13 -40 -38 -40h-36c-25 0 -38 14 -38 40v670c0 26 13 40 38 40h36c25 0 38 -14 38 -40v-235c39 23 83 37 134 37c127 0 172 -63 172 -159v-313c0 -26 -13 -40 -38 -40h-36c-25 0 -38 14 -38 40z" />
    <glyph glyph-name="i" unicode="i" horiz-adv-x="257" 
d="M65 102v358c0 26 13 40 38 40h36c25 0 38 -14 38 -40v-342c0 -18 8 -26 24 -30c15 -4 23 -13 23 -30v-30c0 -23 -17 -35 -45 -35c-64 0 -114 35 -114 109zM48 648c0 40 33 73 73 73s73 -33 73 -73s-33 -73 -73 -73s-73 33 -73 73z" />
    <glyph glyph-name="j" unicode="j" horiz-adv-x="242" 
d="M48 648c0 40 33 73 73 73s73 -33 73 -73s-33 -73 -73 -73s-73 33 -73 73zM177 460v-550c0 -117 -84 -170 -183 -170c-29 0 -46 12 -46 36v36c0 20 10 36 38 36c49 0 79 27 79 81v531c0 26 13 40 38 40h36c25 0 38 -14 38 -40z" />
    <glyph glyph-name="k" unicode="k" horiz-adv-x="522" 
d="M167 171v-131c0 -26 -13 -40 -38 -40h-36c-25 0 -38 14 -38 40v670c0 26 13 40 38 40h36c25 0 38 -14 38 -40v-409l177 170c21 21 33 29 60 29h44c30 0 40 -33 20 -51l-170 -156l198 -240c18 -23 6 -53 -24 -53h-43c-26 0 -41 11 -56 30l-151 191z" />
    <glyph glyph-name="l" unicode="l" horiz-adv-x="257" 
d="M65 102v608c0 26 13 40 38 40h36c25 0 38 -14 38 -40v-592c0 -18 8 -26 24 -30c15 -4 23 -13 23 -30v-30c0 -23 -17 -35 -45 -35c-64 0 -114 35 -114 109z" />
    <glyph glyph-name="m" unicode="m" horiz-adv-x="794" 
d="M455 331v-291c0 -26 -13 -40 -38 -40h-36c-25 0 -38 14 -38 40v313c0 47 -26 64 -71 64c-46 0 -79 -14 -105 -29v-348c0 -26 -13 -40 -38 -40h-36c-25 0 -38 14 -38 40v427c0 21 11 33 32 33h11c21 0 27 -8 36 -29l5 -11c42 33 102 52 151 52c67 0 107 -19 128 -50
c45 32 105 50 160 50c118 0 165 -64 165 -159v-313c0 -26 -13 -40 -38 -40h-36c-25 0 -38 14 -38 40v313c0 47 -27 64 -71 64c-49 0 -82 -15 -108 -31c2 -18 3 -35 3 -55z" />
    <glyph glyph-name="n" unicode="n" horiz-adv-x="524" 
d="M55 40v427c0 21 11 33 32 33h11c21 0 27 -8 36 -29l5 -11c51 35 108 52 162 52c127 0 172 -63 172 -159v-313c0 -26 -13 -40 -38 -40h-36c-25 0 -38 14 -38 40v303c0 51 -26 74 -79 74c-52 0 -88 -14 -115 -29v-348c0 -26 -13 -40 -38 -40h-36c-25 0 -38 14 -38 40z" />
    <glyph glyph-name="o" unicode="o" horiz-adv-x="526" 
d="M263 82c95 0 109 61 109 168s-14 168 -109 168s-109 -61 -109 -168s14 -168 109 -168zM263 -12c-178 0 -222 108 -222 262s44 262 222 262s222 -108 222 -262s-44 -262 -222 -262z" />
    <glyph glyph-name="p" unicode="p" horiz-adv-x="542" 
d="M134 471l5 -11c44 32 95 52 162 52c146 0 200 -98 200 -262c0 -163 -54 -262 -200 -262c-50 0 -98 16 -134 39v-237c0 -26 -13 -40 -38 -40h-36c-25 0 -38 14 -38 40v677c0 21 11 33 32 33h11c21 0 27 -8 36 -29zM275 83c98 0 113 75 113 167c0 93 -15 167 -113 167
c-53 0 -88 -18 -108 -29v-276c20 -11 55 -29 108 -29z" />
    <glyph glyph-name="q" unicode="q" horiz-adv-x="542" 
d="M403 460l5 11c9 21 15 29 36 29h11c21 0 32 -12 32 -33v-677c0 -26 -13 -40 -38 -40h-36c-25 0 -38 14 -38 40v237c-36 -23 -84 -39 -134 -39c-146 0 -200 99 -200 262c0 164 54 262 200 262c67 0 118 -20 162 -52zM267 83c53 0 88 18 108 29v276c-20 11 -55 29 -108 29
c-98 0 -113 -74 -113 -167c0 -92 15 -167 113 -167z" />
    <glyph glyph-name="s" unicode="s" horiz-adv-x="465" 
d="M247 418c-59 0 -96 -17 -96 -62c0 -35 18 -50 83 -56c150 -13 189 -58 189 -151c0 -86 -53 -161 -213 -161c-54 0 -110 9 -139 18c-24 7 -31 24 -31 40v24c0 21 14 39 43 31c21 -6 65 -18 111 -18c80 0 119 18 119 62c0 37 -16 56 -83 62c-151 13 -188 60 -188 146
s56 159 203 159c58 0 100 -7 128 -15c24 -7 32 -23 32 -42v-23c0 -22 -18 -38 -47 -30c-17 4 -54 16 -111 16z" />
    <glyph glyph-name="t" unicode="t" horiz-adv-x="380" 
d="M216 616v-116h103c25 0 38 -14 38 -40v-15c0 -26 -13 -40 -38 -40h-103v-248c0 -57 32 -74 82 -74c7 0 7 0 16 1c21 3 30 -8 30 -23v-38c0 -15 -7 -27 -30 -32c-9 -2 -18 -3 -34 -3c-111 0 -176 48 -176 156v261h-58c-21 0 -33 11 -33 32v10c0 21 7 30 29 36l62 17v91
c0 21 7 30 29 36l48 14c21 6 35 -7 35 -25z" />
    <glyph glyph-name="u" unicode="u" horiz-adv-x="524" 
d="M469 460v-427c0 -21 -11 -33 -32 -33h-11c-21 0 -27 8 -36 29l-5 11c-51 -35 -108 -52 -162 -52c-127 0 -172 63 -172 159v313c0 26 13 40 38 40h36c25 0 38 -14 38 -40v-303c0 -51 26 -74 79 -74c52 0 88 14 115 29v348c0 26 13 40 38 40h36c25 0 38 -14 38 -40z" />
    <glyph glyph-name="v" unicode="v" horiz-adv-x="500" 
d="M260 -9h-20c-30 0 -41 11 -51 37l-167 418c-12 30 4 54 33 54h32c26 0 40 -13 47 -34l116 -328l116 328c7 21 21 34 47 34h32c29 0 45 -24 33 -54l-167 -418c-10 -26 -21 -37 -51 -37z" />
    <glyph glyph-name="w" unicode="w" horiz-adv-x="696" 
d="M335 500h26c26 0 42 -12 49 -39l86 -305l70 306c6 26 19 38 44 38h33c25 0 43 -19 34 -51l-118 -419c-7 -24 -19 -39 -47 -39h-20c-30 0 -44 15 -51 41l-93 336l-93 -336c-7 -26 -21 -41 -51 -41h-20c-28 0 -40 15 -47 39l-118 419c-9 32 9 51 34 51h33
c25 0 38 -12 44 -38l70 -306l86 305c7 27 23 39 49 39z" />
    <glyph glyph-name="x" unicode="x" horiz-adv-x="510" 
d="M363 28l-108 157l-108 -157c-13 -19 -30 -28 -53 -28h-39c-32 0 -42 37 -25 59l151 198l-142 189c-17 22 -7 54 25 54h40c26 0 38 -8 52 -28l99 -146l99 146c14 20 26 28 52 28h40c32 0 42 -32 25 -54l-142 -189l151 -198c17 -22 7 -59 -25 -59h-39c-23 0 -40 9 -53 28z
" />
    <glyph glyph-name="y" unicode="y" horiz-adv-x="500" 
d="M478 446l-264 -662c-9 -22 -23 -34 -49 -34h-48c-29 0 -44 29 -31 56l107 212l-171 428c-12 30 4 54 33 54h32c26 0 40 -14 47 -34l116 -328l116 328c7 21 21 34 47 34h32c29 0 45 -24 33 -54z" />
    <glyph glyph-name="z" unicode="z" horiz-adv-x="439" 
d="M35 101l236 301h-198c-25 0 -38 14 -38 40v18c0 26 13 40 38 40h306c24 0 36 -12 36 -36v-24c0 -16 -4 -24 -18 -41l-236 -301h227c25 0 38 -14 38 -40v-18c0 -26 -13 -40 -38 -40h-335c-24 0 -36 12 -36 36v24c0 16 4 24 18 41z" />
    <glyph glyph-name="dotlessi" unicode="&#x131;" horiz-adv-x="257" 
d="M65 102v358c0 26 13 40 38 40h36c25 0 38 -14 38 -40v-342c0 -18 8 -26 24 -30c15 -4 23 -13 23 -30v-30c0 -23 -17 -35 -45 -35c-64 0 -114 35 -114 109z" />
    <glyph glyph-name="oslash" unicode="&#xf8;" horiz-adv-x="526" 
d="M461 466l-20 -27c33 -47 44 -112 44 -189c0 -154 -44 -262 -222 -262c-55 0 -98 11 -130 29c-9 -13 -16 -17 -32 -17h-21c-17 0 -28 16 -15 34l20 28c-33 46 -44 111 -44 188c0 154 44 262 222 262c55 0 97 -11 129 -30l1 1c9 13 16 17 32 17h21c17 0 28 -16 15 -34z
M263 82c95 0 109 61 109 168c0 33 -2 62 -6 86l-172 -236c16 -12 38 -18 69 -18zM154 250c0 -34 1 -62 6 -86l172 235c-16 12 -39 19 -69 19c-95 0 -109 -61 -109 -168z" />
    <glyph glyph-name="germandbls" unicode="&#xdf;" horiz-adv-x="563" 
d="M348 83c62 0 86 26 86 68c0 46 -34 64 -85 80c-93 30 -127 65 -127 141c0 128 131 123 131 223c0 49 -39 70 -89 70c-52 0 -90 -23 -90 -72v-554c0 -26 -12 -39 -37 -39h-37c-25 0 -38 13 -38 39v560c0 107 66 163 202 163c135 0 198 -60 198 -164
c0 -128 -131 -136 -131 -215c0 -36 16 -51 71 -70c105 -36 142 -73 142 -162c0 -97 -67 -163 -185 -163c-82 0 -138 20 -138 58v21c0 18 10 33 30 33c17 0 40 -17 97 -17z" />
    <glyph glyph-name="ordfeminine" unicode="&#xaa;" horiz-adv-x="387" 
d="M184 680c-67 0 -79 -15 -102 -15c-16 0 -27 10 -27 27v17c0 42 82 53 140 53c123 0 151 -54 151 -134v-217c0 -23 -13 -35 -35 -35h-15c-15 0 -24 7 -30 22c-29 -19 -68 -34 -108 -34c-93 0 -131 45 -131 123c0 76 48 115 142 121l80 5v15c0 34 -14 52 -65 52zM249 551
l-71 -6c-36 -4 -59 -22 -59 -53c0 -29 17 -51 58 -51c23 0 53 9 72 20v90z" />
    <glyph glyph-name="ordmasculine" unicode="&#xba;" horiz-adv-x="422" 
d="M389 563c0 -132 -50 -199 -178 -199s-178 67 -178 199s50 199 178 199s178 -67 178 -199zM128 563c0 -84 25 -115 83 -115s83 31 83 115s-25 115 -83 115s-83 -31 -83 -115z" />
    <glyph glyph-name="ampersand" unicode="&#x26;" horiz-adv-x="734" 
d="M683 94c23 -8 28 -27 18 -50l-12 -27c-9 -22 -29 -24 -54 -15c-13 5 -66 24 -119 58c-64 -47 -140 -72 -224 -72c-150 0 -253 65 -253 220c0 112 50 167 134 213c-25 45 -42 99 -42 155c0 85 48 186 190 186c140 0 183 -85 183 -179c0 -106 -85 -155 -185 -205
c45 -64 112 -137 179 -185c51 64 85 154 92 265c2 33 13 42 40 42h37c27 0 38 -16 36 -42c-7 -135 -49 -245 -111 -324c43 -24 77 -35 91 -40zM414 125c-79 50 -151 134 -194 203c-48 -29 -67 -60 -67 -117c0 -88 71 -119 138 -119c45 0 91 13 123 33zM240 577
c0 -39 9 -73 30 -113c73 38 127 62 126 118c0 42 -18 76 -74 76c-59 0 -82 -36 -82 -81z" />
    <glyph glyph-name="acute" unicode="&#xb4;" horiz-adv-x="526" 
d="M310 750h63c26 0 37 -22 23 -46l-71 -124c-13 -22 -26 -30 -45 -30h-34c-20 0 -29 13 -23 33l41 133c7 22 22 34 46 34z" />
    <glyph glyph-name="grave" unicode="`" horiz-adv-x="526" 
d="M153 750h63c24 0 39 -12 46 -34l41 -133c6 -20 -3 -33 -23 -33h-34c-19 0 -32 8 -45 30l-71 124c-14 24 -3 46 23 46z" />
    <glyph glyph-name="dieresis" unicode="&#xa8;" horiz-adv-x="526" 
d="M84 648c0 40 33 73 73 73s73 -33 73 -73s-33 -73 -73 -73s-73 33 -73 73zM296 648c0 40 33 73 73 73s73 -33 73 -73s-33 -73 -73 -73s-73 33 -73 73z" />
    <glyph glyph-name="ring" unicode="&#x2da;" horiz-adv-x="526" 
d="M368 650c0 -70 -43 -103 -105 -103c-61 0 -105 33 -105 103s44 103 105 103c62 0 105 -33 105 -103zM225 650c0 -27 15 -37 38 -37s39 10 39 37s-16 37 -39 37s-38 -10 -38 -37z" />
    <glyph glyph-name="macron" unicode="&#xaf;" horiz-adv-x="526" 
d="M373 605h-220c-25 0 -38 13 -38 37v15c0 24 13 37 38 37h220c25 0 38 -13 38 -37v-15c0 -24 -13 -37 -38 -37z" />
    <glyph glyph-name="hungarumlaut" unicode="&#x2dd;" horiz-adv-x="526" 
d="M395 750h63c26 0 37 -22 23 -46l-71 -124c-13 -22 -26 -30 -45 -30h-34c-20 0 -29 13 -23 33l41 133c7 22 22 34 46 34zM225 750h63c26 0 37 -22 23 -46l-71 -124c-13 -22 -26 -30 -45 -30h-34c-20 0 -29 13 -23 33l41 133c7 22 22 34 46 34z" />
    <glyph glyph-name="dotaccent" unicode="&#x2d9;" horiz-adv-x="526" 
d="M190 648c0 40 33 73 73 73s73 -33 73 -73s-33 -73 -73 -73s-73 33 -73 73z" />
    <glyph glyph-name="cedilla" unicode="&#xb8;" horiz-adv-x="526" 
d="M221 0h54l3 -53c61 -16 94 -54 94 -100c0 -64 -49 -97 -119 -97c-30 0 -52 4 -72 10c-19 6 -25 16 -25 31v24c0 16 10 26 28 21c14 -4 32 -9 54 -9c33 0 54 8 54 30c0 24 -19 36 -58 45c-16 3 -23 12 -21 26z" />
    <glyph glyph-name="ogonek" unicode="&#x2db;" horiz-adv-x="526" 
d="M280 -250c-67 0 -123 37 -123 109c0 52 29 116 129 167l66 -26c-55 -25 -106 -64 -106 -125c0 -30 20 -51 56 -51c14 0 23 0 37 4c22 6 29 -5 29 -21v-18c0 -15 -6 -25 -26 -31s-38 -8 -62 -8z" />
    <glyph glyph-name="period" unicode="." horiz-adv-x="220" 
d="M37 61c0 40 33 73 73 73s73 -33 73 -73s-33 -73 -73 -73s-73 33 -73 73z" />
    <glyph glyph-name="comma" unicode="," horiz-adv-x="220" 
d="M86 106h47c29 0 41 -24 31 -50l-58 -149c-9 -24 -22 -32 -44 -32h-19c-17 0 -29 12 -26 33l23 157c3 28 20 41 46 41z" />
    <glyph glyph-name="colon" unicode=":" horiz-adv-x="220" 
d="M37 61c0 40 33 73 73 73s73 -33 73 -73s-33 -73 -73 -73s-73 33 -73 73zM37 375c0 40 33 73 73 73s73 -33 73 -73s-33 -73 -73 -73s-73 33 -73 73z" />
    <glyph glyph-name="semicolon" unicode=";" horiz-adv-x="220" 
d="M86 106h47c29 0 41 -24 31 -50l-58 -149c-9 -24 -22 -32 -44 -32h-19c-17 0 -29 12 -26 33l23 157c3 28 20 41 46 41zM37 375c0 40 33 73 73 73s73 -33 73 -73s-33 -73 -73 -73s-73 33 -73 73z" />
    <glyph glyph-name="ellipsis" unicode="&#x2026;" horiz-adv-x="1000" 
d="M94 61c0 40 33 73 73 73s73 -33 73 -73s-33 -73 -73 -73s-73 33 -73 73zM427 61c0 40 33 73 73 73s73 -33 73 -73s-33 -73 -73 -73s-73 33 -73 73zM760 61c0 40 33 73 73 73s73 -33 73 -73s-33 -73 -73 -73s-73 33 -73 73z" />
    <glyph glyph-name="exclam" unicode="!" horiz-adv-x="220" 
d="M71 750h78c27 0 38 -16 36 -42l-35 -469c-1 -19 -10 -29 -28 -29h-24c-18 0 -27 10 -28 29l-35 469c-2 26 9 42 36 42zM37 61c0 40 33 73 73 73s73 -33 73 -73s-33 -73 -73 -73s-73 33 -73 73z" />
    <glyph glyph-name="exclamdown" unicode="&#xa1;" horiz-adv-x="220" 
d="M149 -250h-78c-27 0 -38 16 -36 42l35 469c1 19 10 29 28 29h24c18 0 27 -10 28 -29l35 -469c2 -26 -9 -42 -36 -42zM183 439c0 -40 -33 -73 -73 -73s-73 33 -73 73s33 73 73 73s73 -33 73 -73z" />
    <glyph glyph-name="question" unicode="?" horiz-adv-x="475" 
d="M106 61c0 40 33 73 73 73s73 -33 73 -73s-33 -73 -73 -73s-73 33 -73 73zM182 656c-48 0 -94 -9 -116 -14c-29 -7 -43 11 -43 32v32c0 19 5 33 31 40c32 9 85 16 136 16c213 0 254 -97 254 -209c0 -132 -88 -169 -182 -203c-67 -24 -62 -71 -62 -115
c0 -16 -9 -25 -24 -25h-25c-14 0 -23 6 -27 21c-4 16 -8 41 -8 61c0 49 15 94 83 123c74 31 132 47 132 135c0 67 -31 106 -149 106z" />
    <glyph glyph-name="questiondown" unicode="&#xbf;" horiz-adv-x="475" 
d="M369 439c0 -40 -33 -73 -73 -73s-73 33 -73 73s33 73 73 73s73 -33 73 -73zM293 -156c48 0 94 9 116 14c29 7 43 -11 43 -32v-32c0 -19 -5 -33 -31 -40c-32 -9 -85 -16 -136 -16c-213 0 -254 97 -254 209c0 132 88 169 182 203c67 24 62 71 62 115c0 16 9 25 24 25h25
c14 0 23 -6 27 -21c4 -16 8 -41 8 -61c0 -49 -15 -94 -83 -123c-74 -31 -132 -47 -132 -135c0 -67 31 -106 149 -106z" />
    <glyph glyph-name="quoteleft" unicode="&#x2018;" horiz-adv-x="166" 
d="M73 500h-51c-29 0 -41 24 -31 50l68 168c10 24 22 32 44 32h19c17 0 29 -12 26 -33l-29 -176c-5 -28 -20 -41 -46 -41z" />
    <glyph glyph-name="quoteright" unicode="&#x2019;" horiz-adv-x="166" 
d="M93 750h51c29 0 41 -24 31 -50l-68 -168c-10 -24 -22 -32 -44 -32h-19c-17 0 -29 12 -26 33l29 176c5 28 20 41 46 41z" />
    <glyph glyph-name="quotedblleft" unicode="&#x201c;" horiz-adv-x="336" 
d="M73 500h-51c-29 0 -41 24 -31 50l68 168c10 24 22 32 44 32h19c17 0 29 -12 26 -33l-29 -176c-5 -28 -20 -41 -46 -41zM243 500h-51c-29 0 -41 24 -31 50l68 168c10 24 22 32 44 32h19c17 0 29 -12 26 -33l-29 -176c-5 -28 -20 -41 -46 -41z" />
    <glyph glyph-name="quotedblright" unicode="&#x201d;" horiz-adv-x="336" 
d="M93 750h51c29 0 41 -24 31 -50l-68 -168c-10 -24 -22 -32 -44 -32h-19c-17 0 -29 12 -26 33l29 176c5 28 20 41 46 41zM263 750h51c29 0 41 -24 31 -50l-68 -168c-10 -24 -22 -32 -44 -32h-19c-17 0 -29 12 -26 33l29 176c5 28 20 41 46 41z" />
    <glyph glyph-name="quotesinglbase" unicode="&#x201a;" horiz-adv-x="177" 
d="M78 82h51c29 0 41 -24 31 -50l-68 -168c-10 -24 -22 -32 -44 -32h-19c-17 0 -29 12 -26 33l29 176c5 28 20 41 46 41z" />
    <glyph glyph-name="quotedblbase" unicode="&#x201e;" horiz-adv-x="347" 
d="M78 82h51c29 0 41 -24 31 -50l-68 -168c-10 -24 -22 -32 -44 -32h-19c-17 0 -29 12 -26 33l29 176c5 28 20 41 46 41zM248 82h51c29 0 41 -24 31 -50l-68 -168c-10 -24 -22 -32 -44 -32h-19c-17 0 -29 12 -26 33l29 176c5 28 20 41 46 41z" />
    <glyph glyph-name="guilsinglleft" unicode="&#x2039;" horiz-adv-x="289" 
d="M47 232v36c0 22 4 32 27 50l123 102c17 14 40 5 40 -14v-35c0 -23 -6 -31 -23 -47l-79 -74l79 -74c17 -16 23 -24 23 -47v-35c0 -19 -23 -28 -40 -14l-123 102c-23 18 -27 28 -27 50z" />
    <glyph glyph-name="guilsinglright" unicode="&#x203a;" horiz-adv-x="289" 
d="M242 268v-36c0 -22 -4 -32 -27 -50l-123 -102c-17 -14 -40 -5 -40 14v35c0 23 6 31 23 47l79 74l-79 74c-17 16 -23 24 -23 47v35c0 19 23 28 40 14l123 -102c23 -18 27 -28 27 -50z" />
    <glyph glyph-name="guillemotleft" unicode="&#xab;" horiz-adv-x="479" 
d="M47 232v36c0 22 4 32 27 50l123 102c17 14 40 5 40 -14v-35c0 -23 -6 -31 -23 -47l-79 -74l79 -74c17 -16 23 -24 23 -47v-35c0 -19 -23 -28 -40 -14l-123 102c-23 18 -27 28 -27 50zM237 232v36c0 22 4 32 27 50l123 102c17 14 40 5 40 -14v-35c0 -23 -6 -31 -23 -47
l-79 -74l79 -74c17 -16 23 -24 23 -47v-35c0 -19 -23 -28 -40 -14l-123 102c-23 18 -27 28 -27 50z" />
    <glyph glyph-name="guillemotright" unicode="&#xbb;" horiz-adv-x="479" 
d="M432 232c0 -22 -4 -32 -27 -50l-123 -102c-17 -14 -40 -5 -40 14v35c0 23 6 31 23 47l79 74l-79 74c-17 16 -23 24 -23 47v35c0 19 23 28 40 14l123 -102c23 -18 27 -28 27 -50v-36zM242 232c0 -22 -4 -32 -27 -50l-123 -102c-17 -14 -40 -5 -40 14v35c0 23 6 31 23 47
l79 74l-79 74c-17 16 -23 24 -23 47v35c0 19 23 28 40 14l123 -102c23 -18 27 -28 27 -50v-36z" />
    <glyph glyph-name="slash" unicode="/" horiz-adv-x="463" 
d="M447 745l-323 -909c-8 -22 -22 -36 -48 -36h-31c-29 0 -39 28 -29 55l323 909c8 22 22 36 48 36h31c29 0 39 -28 29 -55z" />
    <glyph glyph-name="backslash" unicode="\" horiz-adv-x="463" 
d="M339 -164l-323 909c-10 27 0 55 29 55h31c26 0 40 -14 48 -36l323 -909c10 -27 0 -55 -29 -55h-31c-26 0 -40 14 -48 36z" />
    <glyph glyph-name="bar" unicode="|" horiz-adv-x="266" 
d="M77 -160v920c0 26 13 40 38 40h36c25 0 38 -14 38 -40v-920c0 -26 -13 -40 -38 -40h-36c-25 0 -38 14 -38 40z" />
    <glyph glyph-name="bullet" unicode="&#x2022;" horiz-adv-x="384" 
d="M55 375c0 76 61 137 137 137s137 -61 137 -137s-61 -137 -137 -137s-137 61 -137 137z" />
    <glyph glyph-name="nbspace" unicode="&#xa0;" horiz-adv-x="200" 
 />
    <glyph glyph-name="periodcentered" unicode="&#xb7;" horiz-adv-x="220" 
d="M37 312c0 40 33 73 73 73s73 -33 73 -73s-33 -73 -73 -73s-73 33 -73 73z" />
    <glyph glyph-name="hyphen" unicode="-" horiz-adv-x="315" 
d="M249 261h-183c-25 0 -38 14 -38 40v21c0 26 13 40 38 40h183c25 0 38 -14 38 -40v-21c0 -26 -13 -40 -38 -40z" />
    <glyph glyph-name="endash" unicode="&#x2013;" horiz-adv-x="500" 
d="M419 261h-338c-25 0 -38 14 -38 40v21c0 26 13 40 38 40h338c25 0 38 -14 38 -40v-21c0 -26 -13 -40 -38 -40z" />
    <glyph glyph-name="emdash" unicode="&#x2014;" horiz-adv-x="1000" 
d="M919 261h-838c-25 0 -38 14 -38 40v21c0 26 13 40 38 40h838c25 0 38 -14 38 -40v-21c0 -26 -13 -40 -38 -40z" />
    <glyph glyph-name="parenleft" unicode="(" horiz-adv-x="318" 
d="M50 305c0 251 67 402 109 485c10 19 22 26 39 26h51c21 0 31 -15 18 -39c-48 -88 -105 -247 -105 -472s57 -384 105 -472c13 -24 3 -39 -18 -39h-51c-17 0 -29 7 -39 26c-42 83 -109 234 -109 485z" />
    <glyph glyph-name="parenright" unicode=")" horiz-adv-x="318" 
d="M268 305c0 -251 -67 -402 -109 -485c-10 -19 -22 -26 -39 -26h-51c-21 0 -31 15 -18 39c48 88 105 247 105 472s-57 384 -105 472c-13 24 -3 39 18 39h51c17 0 29 -7 39 -26c42 -83 109 -234 109 -485z" />
    <glyph glyph-name="bracketleft" unicode="[" horiz-adv-x="268" 
d="M65 776c0 26 13 40 38 40h97c25 0 38 -14 38 -40v-24c0 -26 -13 -40 -38 -40h-26v-814h26c25 0 38 -14 38 -40v-24c0 -26 -13 -40 -38 -40h-97c-25 0 -38 14 -38 40v942z" />
    <glyph glyph-name="bracketright" unicode="]" horiz-adv-x="268" 
d="M203 -166c0 -26 -13 -40 -38 -40h-97c-25 0 -38 14 -38 40v24c0 26 13 40 38 40h26v814h-26c-25 0 -38 14 -38 40v24c0 26 13 40 38 40h97c25 0 38 -14 38 -40v-942z" />
    <glyph glyph-name="braceleft" unicode="{" horiz-adv-x="248" 
d="M18 290v30c0 22 8 36 27 39c18 3 26 15 25 37l-18 311c-4 77 48 109 118 109h10c25 0 38 -14 38 -40v-26c0 -21 -8 -34 -25 -38c-21 -5 -34 -12 -32 -39l18 -292c2 -31 -11 -59 -34 -76c23 -17 36 -45 34 -76l-18 -292c-2 -27 11 -34 32 -39c17 -4 25 -17 25 -38v-26
c0 -26 -13 -40 -38 -40h-10c-70 0 -122 32 -118 109l18 311c1 22 -7 34 -25 37c-19 3 -27 17 -27 39z" />
    <glyph glyph-name="braceright" unicode="}" horiz-adv-x="248" 
d="M230 320v-30c0 -22 -8 -36 -27 -39c-18 -3 -26 -15 -25 -37l18 -311c4 -77 -48 -109 -118 -109h-10c-25 0 -38 14 -38 40v26c0 21 8 34 25 38c21 5 34 12 32 39l-18 292c-2 31 11 59 34 76c-23 17 -36 45 -34 76l18 292c2 27 -11 34 -32 39c-17 4 -25 17 -25 38v26
c0 26 13 40 38 40h10c70 0 122 -32 118 -109l-18 -311c-1 -22 7 -34 25 -37c19 -3 27 -17 27 -39z" />
    <glyph glyph-name="asterisk" unicode="*" horiz-adv-x="500" 
d="M299 366l-49 91l-49 -91c-12 -23 -35 -27 -55 -13l-42 31c-21 15 -24 38 -5 57l71 73l-100 18c-26 4 -37 24 -29 48l16 50c8 23 29 33 53 22l91 -45l-14 100c-4 26 12 43 37 43h52c25 0 41 -17 37 -43l-14 -100l91 45c24 11 45 1 53 -22l16 -50c8 -24 -3 -44 -29 -48
l-100 -18l71 -73c19 -19 16 -42 -5 -57l-42 -31c-20 -14 -43 -10 -55 13z" />
    <glyph glyph-name="section" unicode="&#xa7;" horiz-adv-x="658" 
d="M372 653c-118 0 -144 -50 -144 -110c0 -72 52 -88 148 -103c189 -29 237 -77 237 -204c0 -59 -25 -129 -95 -173c20 -28 30 -64 30 -109c0 -92 -46 -216 -264 -216c-83 0 -140 13 -177 25c-28 9 -34 23 -34 43v43c0 21 16 35 41 26c44 -15 92 -28 172 -28
c118 0 144 50 144 110c0 72 -52 88 -148 103c-189 29 -237 77 -237 204c0 59 25 129 94 173c-20 27 -29 63 -29 109c0 92 45 216 264 216c83 0 140 -13 177 -25c28 -9 34 -23 34 -43v-43c0 -21 -16 -35 -41 -26c-44 15 -92 28 -172 28zM360 338c-53 8 -96 18 -128 32
c-51 -22 -70 -64 -70 -107c0 -73 46 -85 136 -101c52 -9 96 -19 127 -32c52 22 71 64 71 107c0 73 -46 85 -136 101z" />
    <glyph glyph-name="asciicircum" unicode="^" horiz-adv-x="566" 
d="M420 405l-137 237l-137 -237c-13 -22 -26 -30 -50 -30h-45c-24 0 -32 21 -20 41l184 311c15 26 26 35 54 35h28c28 0 39 -9 54 -35l184 -311c12 -20 4 -41 -20 -41h-45c-24 0 -37 8 -50 30z" />
    <glyph glyph-name="underscore" unicode="_" horiz-adv-x="294" 
d="M295 -132v-19c0 -25 -13 -37 -38 -37h-219c-25 0 -38 12 -38 37v19c0 24 13 37 38 37h219c25 0 38 -13 38 -37z" />
    <glyph glyph-name="quotesingle" unicode="'" horiz-adv-x="200" 
d="M112 500h-21c-16 0 -26 10 -28 27l-22 181c-3 26 11 42 38 42h46c26 0 41 -16 38 -42l-23 -181c-2 -17 -12 -27 -28 -27z" />
    <glyph glyph-name="quotedbl" unicode="&#x22;" horiz-adv-x="365" 
d="M112 500h-21c-16 0 -26 10 -28 27l-22 181c-3 26 11 42 38 42h46c26 0 41 -16 38 -42l-23 -181c-2 -17 -12 -27 -28 -27zM277 500h-21c-16 0 -26 10 -28 27l-22 181c-3 26 11 42 38 42h46c26 0 41 -16 38 -42l-23 -181c-2 -17 -12 -27 -28 -27z" />
    <glyph glyph-name="at" unicode="@" horiz-adv-x="962" 
d="M255 250c0 145 84 213 190 213c58 0 117 -23 150 -53l4 9c9 20 22 31 44 31h4c21 0 32 -12 32 -33v-292c111 0 135 87 135 187c0 178 -102 252 -328 252c-227 0 -336 -94 -336 -314c0 -221 109 -314 336 -314c115 0 214 25 250 36c26 8 38 -7 38 -24v-19
c0 -17 -5 -28 -25 -35c-38 -13 -153 -35 -263 -35c-273 0 -422 128 -422 391s149 391 422 391c272 0 412 -112 412 -332c0 -114 -43 -259 -223 -259h-32c-22 0 -35 11 -44 31l-4 9c-33 -30 -92 -53 -150 -53c-106 0 -190 68 -190 213zM367 250c0 -84 34 -117 98 -117
c48 0 82 16 102 27v180c-20 11 -54 27 -102 27c-64 0 -98 -33 -98 -117z" />
    <glyph glyph-name="florin.hybrid" horiz-adv-x="519" 
d="M235 375h195c25 0 38 -13 38 -37v-20c0 -25 -13 -37 -38 -37h-195v-363c0 -29 -15 -42 -43 -42h-24c-28 0 -43 13 -43 42v363h-64c-25 0 -38 12 -38 37v20c0 24 13 37 38 37h64v77c0 106 48 185 211 185c66 0 111 -10 136 -17c22 -7 30 -19 30 -39v-28
c0 -21 -17 -37 -43 -30c-21 5 -51 13 -113 13c-65 0 -111 -31 -111 -93v-68z" />
    <glyph glyph-name="yen.hybrid" 
d="M300 333l132 259c11 21 26 33 54 33h50c27 0 42 -25 24 -53l-95 -153h61c25 0 38 -12 38 -37v-7c0 -24 -13 -36 -38 -36h-111l-32 -53h143c25 0 38 -13 38 -37v-6c0 -25 -13 -37 -38 -37h-170v-162c0 -29 -14 -44 -43 -44h-26c-29 0 -43 15 -43 44v162h-170
c-25 0 -38 12 -38 37v6c0 24 13 37 38 37h143l-32 53h-111c-25 0 -38 12 -38 36v7c0 25 13 37 38 37h61l-95 153c-18 28 -3 53 24 53h50c28 0 43 -12 54 -33z" />
    <glyph glyph-name="numbersign.hybrid" horiz-adv-x="650" 
d="M90 410l9 31c6 19 20 29 39 29h64l38 126c6 19 20 29 39 29h49c20 0 26 -16 21 -34l-37 -121h121l38 126c6 19 20 29 39 29h49c20 0 26 -16 21 -34l-37 -121h66c20 0 27 -16 21 -34l-9 -32c-6 -19 -19 -28 -39 -28h-67l-39 -127h62c20 0 28 -15 22 -34l-9 -31
c-6 -19 -20 -29 -39 -29h-64l-38 -126c-6 -19 -20 -29 -39 -29h-49c-20 0 -26 16 -21 34l36 121h-120l-38 -126c-6 -19 -20 -29 -39 -29h-49c-20 0 -26 16 -21 34l36 121h-65c-20 0 -27 16 -21 34l9 32c6 19 19 28 39 28h67l38 127h-61c-20 0 -28 15 -22 34zM284 376
l-39 -127h121l38 127h-120z" />
    <glyph glyph-name="zero.hybrid" horiz-adv-x="586" 
d="M293 -12c-181 0 -243 98 -243 325s62 324 243 324s243 -97 243 -324s-62 -325 -243 -325zM293 535c-102 0 -131 -66 -131 -222c0 -158 29 -223 131 -223s131 65 131 223c0 156 -29 222 -131 222z" />
    <glyph glyph-name="one.hybrid" horiz-adv-x="344" 
d="M247 597v-557c0 -26 -13 -40 -38 -40h-34c-25 0 -38 14 -38 40v483l-94 -4c-20 -1 -30 10 -30 29v14c0 18 7 27 30 33l124 35c17 5 27 7 37 7h5c25 0 38 -14 38 -40z" />
    <glyph glyph-name="two.hybrid" horiz-adv-x="520" 
d="M38 38v15c0 21 9 31 23 41c235 180 291 269 291 347c0 61 -27 94 -116 94c-58 0 -96 -12 -116 -18c-30 -8 -47 10 -47 33v27c0 20 8 33 29 40c26 8 80 20 144 20c189 0 221 -96 221 -186c0 -119 -73 -191 -278 -348l250 1c25 0 38 -13 38 -38v-28c0 -25 -13 -38 -38 -38
h-363c-25 0 -38 13 -38 38z" />
    <glyph glyph-name="three.hybrid" horiz-adv-x="584" 
d="M249 637c188 0 264 -80 264 -205c0 -76 -41 -135 -97 -162c70 -18 121 -83 121 -175c0 -137 -81 -232 -287 -232c-77 0 -140 13 -173 23c-22 7 -29 20 -29 40v29c0 23 16 42 46 33c36 -11 88 -21 152 -21c130 0 174 54 174 128c0 88 -49 117 -148 117h-101
c-26 0 -39 13 -39 38v26c0 25 13 38 39 38h103c82 0 122 44 122 107c0 73 -44 113 -159 113c-59 0 -106 -10 -142 -21c-30 -9 -46 10 -46 33v28c0 20 7 33 29 40c33 10 91 23 171 23z" />
    <glyph glyph-name="four.hybrid" horiz-adv-x="599" 
d="M167 161l198 2l2 287zM475 598v-435h55c25 0 38 -14 38 -40v-25c0 -26 -13 -40 -38 -40h-55v-143c0 -26 -13 -40 -38 -40h-34c-25 0 -38 14 -38 40v143h-296c-24 0 -36 13 -36 36v22c0 12 4 21 14 36l322 459c13 19 23 26 42 26h26c25 0 38 -14 38 -39z" />
    <glyph glyph-name="five.hybrid" horiz-adv-x="584" 
d="M246 -137c-68 0 -132 12 -165 22c-22 7 -29 20 -29 40v27c0 23 16 42 46 33c36 -11 85 -20 142 -20c83 0 170 21 170 142c0 112 -75 116 -151 116h-141c-25 0 -38 14 -38 40v322c0 26 13 40 38 40h355c25 0 38 -14 38 -40v-24c0 -26 -13 -40 -38 -40h-282v-198
c16 2 72 3 86 3c129 0 248 -24 248 -219c0 -218 -158 -244 -279 -244z" />
    <glyph glyph-name="six.hybrid" horiz-adv-x="592" 
d="M351 658c-152 0 -189 -108 -192 -266c30 47 89 81 168 81c194 0 220 -137 220 -243s-32 -242 -239 -242c-212 0 -255 127 -255 345c0 254 51 429 289 429c63 0 118 -10 151 -21c24 -8 29 -20 29 -40v-28c0 -23 -16 -42 -46 -33c-36 11 -75 18 -125 18zM435 230
c0 70 -21 143 -124 143c-113 0 -143 -67 -143 -143c0 -77 29 -142 137 -142c105 0 130 72 130 142z" />
    <glyph glyph-name="seven.hybrid" horiz-adv-x="541" 
d="M503 528l-272 -619c-10 -22 -23 -34 -49 -34h-54c-29 0 -45 31 -31 58l308 591l-342 -2c-25 0 -38 14 -38 40v23c0 26 13 40 38 40h415c24 0 36 -13 36 -36v-25c0 -12 -4 -21 -11 -36z" />
    <glyph glyph-name="eight.hybrid" horiz-adv-x="584" 
d="M293 436c83 0 119 52 119 111c0 61 -33 116 -119 116c-87 0 -120 -55 -120 -116c0 -59 36 -111 120 -111zM293 88c114 0 147 68 147 128c0 82 -49 126 -147 126c-99 0 -147 -44 -147 -126c0 -60 32 -128 147 -128zM293 -12c-176 0 -259 90 -259 227c0 85 49 159 114 181
c-51 25 -90 82 -90 156c0 122 66 210 235 210s235 -88 235 -210c0 -74 -39 -131 -90 -156c65 -22 114 -96 114 -181c0 -137 -83 -227 -259 -227z" />
    <glyph glyph-name="nine.hybrid" horiz-adv-x="592" 
d="M246 -33c152 0 189 108 192 266c-30 -47 -89 -81 -168 -81c-194 0 -220 137 -220 243s32 242 239 242c212 0 255 -127 255 -345c0 -254 -51 -429 -289 -429c-63 0 -123 12 -156 23c-24 8 -29 20 -29 40v28c0 23 16 42 46 33c36 -11 80 -20 130 -20zM162 395
c0 -70 21 -143 124 -143c113 0 143 67 143 143c0 77 -29 142 -137 142c-105 0 -130 -72 -130 -142z" />
    <glyph glyph-name="fraction" unicode="&#x2044;" horiz-adv-x="403" 
d="M478 727l-501 -710c-10 -12 -15 -17 -32 -17h-56c-14 0 -18 11 -9 23l502 710c9 12 15 17 32 17h55c14 0 18 -11 9 -23z" />
    <glyph glyph-name="percent.hybrid" horiz-adv-x="1008" 
d="M964 181c0 -126 -57 -193 -181 -193c-123 0 -180 66 -180 193c0 126 57 193 180 193c124 0 181 -66 181 -193zM705 181c0 -77 24 -102 78 -102c55 0 79 25 79 102s-24 102 -79 102c-54 0 -78 -25 -78 -102zM405 444c0 -126 -56 -193 -180 -193s-181 66 -181 193
c0 126 57 193 181 193s180 -66 180 -193zM146 444c0 -77 24 -102 79 -102c54 0 79 25 79 102s-25 102 -79 102c-55 0 -79 -25 -79 -102zM252 30l405 571c12 17 24 24 41 24h47c16 0 23 -15 12 -30l-405 -571c-12 -17 -24 -24 -41 -24h-47c-16 0 -23 15 -12 30z" />
    <glyph glyph-name="bullseye" unicode="&#x25ce;" horiz-adv-x="850" 
d="M50 678v72h12l297 -206c-3 -4 -5 -7 -6 -10zM502 552l286 198h12v-72l-291 -138zM50 589v66l300 -125l-6 -10zM513 535l287 120v-66l-279 -66c-3 3 -5 7 -7 11zM100 750h88l180 -191l-6 -10zM330 503l-280 7v59l290 -54c-3 -5 -6 -9 -10 -12zM491 568l171 182h88
l-252 -193zM524 517l276 52v-59l-264 -7zM50 490l267 6c-7 -11 -13 -16 -21 -20l-246 -46v60zM542 496l258 -6v-60l-232 44zM584 461l216 -51v-65l-176 73c-10 17 -24 30 -40 43zM212 750h60l107 -176l-8 -11zM479 587l99 163h60l-151 -176zM50 345v65l214 51
c-34 -13 -69 -21 -98 -39s-51 -38 -68 -57zM290 750h47l56 -160l-10 -11zM631 401l169 -80v-21c-67 15 -158 50 -167 94c-1 2 -2 5 -2 7zM464 609l49 141h47l-85 -157zM351 750h41l18 -145l-13 -11zM441 622l17 128h41l-40 -133l-6 9c-4 -1 -8 -2 -12 -4zM416 610l-11 140
h39l-11 -131c-6 -2 -11 -6 -17 -9zM71 331c-12 -12 -20 -22 -21 -28v18z" />
    <glyph glyph-name="plus" unicode="+" 
d="M247 393v131c0 26 13 40 38 40h30c25 0 38 -14 38 -40v-131h131c26 0 40 -13 40 -38v-30c0 -25 -14 -38 -40 -38h-131v-131c0 -26 -13 -40 -38 -40h-30c-25 0 -38 14 -38 40v131h-131c-26 0 -40 13 -40 38v30c0 25 14 38 40 38h131z" />
    <glyph glyph-name="plusminus" unicode="&#xb1;" 
d="M353 462h131c26 0 40 -13 40 -38v-30c0 -25 -14 -38 -40 -38h-131v-131c0 -26 -13 -40 -38 -40h-30c-25 0 -38 14 -38 40v131h-131c-26 0 -40 13 -40 38v30c0 25 14 38 40 38h131v131c0 26 13 40 38 40h30c25 0 38 -14 38 -40v-131zM484 146c26 0 40 -13 40 -38v-30
c0 -25 -14 -38 -40 -38h-368c-26 0 -40 13 -40 38v30c0 25 14 38 40 38h368z" />
    <glyph glyph-name="divide" unicode="&#xf7;" 
d="M484 394c26 0 40 -13 40 -38v-31c0 -25 -14 -38 -40 -38h-368c-26 0 -40 13 -40 38v31c0 25 14 38 40 38h368zM227 516c0 40 33 73 73 73s73 -33 73 -73s-33 -73 -73 -73s-73 33 -73 73zM227 170c0 40 33 73 73 73s73 -33 73 -73s-33 -73 -73 -73s-73 33 -73 73z" />
    <glyph glyph-name="equal" unicode="=" 
d="M484 481c26 0 40 -13 40 -38v-30c0 -25 -14 -38 -40 -38h-368c-26 0 -40 13 -40 38v30c0 25 14 38 40 38h368zM484 305c26 0 40 -13 40 -38v-30c0 -25 -14 -38 -40 -38h-368c-26 0 -40 13 -40 38v30c0 25 14 38 40 38h368z" />
    <glyph glyph-name="approxequal" unicode="&#x2248;" 
d="M418 337c-103 0 -164 73 -230 73c-44 0 -61 -26 -86 -26c-16 0 -26 11 -26 24v47c0 19 9 32 26 40c28 13 55 17 80 17c103 0 164 -73 230 -73c44 0 61 26 86 26c16 0 26 -11 26 -24v-47c0 -19 -9 -32 -26 -40c-28 -13 -55 -17 -80 -17zM418 169c-103 0 -164 73 -230 73
c-44 0 -61 -26 -86 -26c-16 0 -26 11 -26 24v47c0 19 9 32 26 40c28 13 55 17 80 17c103 0 164 -73 230 -73c44 0 61 26 86 26c16 0 26 -11 26 -24v-47c0 -19 -9 -32 -26 -40c-28 -13 -55 -17 -80 -17z" />
    <glyph glyph-name="less" unicode="&#x3c;" 
d="M76 354c0 22 4 34 27 46l381 197c22 11 40 -3 40 -22v-52c0 -23 -8 -34 -23 -41l-295 -141l295 -141c15 -7 23 -18 23 -41v-52c0 -19 -18 -33 -40 -22l-381 197c-23 12 -27 24 -27 46v26z" />
    <glyph glyph-name="greater" unicode="&#x3e;" 
d="M524 328c0 -22 -4 -34 -27 -46l-381 -197c-22 -11 -40 3 -40 22v52c0 23 8 34 23 41l295 141l-295 141c-15 7 -23 18 -23 41v52c0 19 18 33 40 22l381 -197c23 -12 27 -24 27 -46v-26z" />
    <glyph glyph-name="lessequal" unicode="&#x2264;" 
d="M76 399v11c0 22 4 34 27 42l378 150c25 10 43 -8 43 -27v-50c0 -23 -7 -32 -23 -37l-261 -90l253 -87c21 -7 31 -20 31 -44v-21c0 -19 -16 -35 -40 -26l-381 137c-23 10 -27 20 -27 42zM116 310l377 -136c21 -8 31 -20 31 -44v-19c0 -19 -16 -35 -40 -26l-377 136
c-21 7 -31 20 -31 44v19c0 19 16 35 40 26z" />
    <glyph glyph-name="greaterequal" unicode="&#x2265;" 
d="M524 410v-11c0 -22 -4 -32 -27 -42l-381 -137c-24 -9 -40 7 -40 26v21c0 24 10 37 31 44l253 87l-261 90c-16 5 -23 14 -23 37v50c0 19 18 37 43 27l378 -150c23 -8 27 -20 27 -42zM107 174l377 136c24 9 40 -7 40 -26v-19c0 -24 -10 -37 -31 -44l-377 -136
c-24 -9 -40 7 -40 26v19c0 24 10 36 31 44z" />
    <glyph glyph-name="logicalnot" unicode="&#xac;" horiz-adv-x="610" 
d="M524 460v-240c0 -25 -12 -39 -37 -39h-32c-25 0 -37 14 -37 39v173h-305c-24 0 -37 12 -37 36v32c0 25 13 38 37 38h373c26 0 38 -14 38 -39z" />
    <glyph glyph-name="integral" unicode="&#x222b;" horiz-adv-x="341" 
d="M177 589v-679c0 -117 -84 -170 -183 -170c-29 0 -46 12 -46 36v36c0 20 10 36 38 36c49 0 79 27 79 81v670c0 107 60 163 194 163c18 0 38 -1 54 -5c21 -5 28 -18 28 -37v-38c0 -17 -14 -28 -36 -22c-12 3 -26 5 -38 5c-50 0 -90 -19 -90 -76z" />
    <glyph glyph-name="radical" unicode="&#x221a;" horiz-adv-x="781" 
d="M126 405h-70c-24 0 -36 11 -36 34v25c0 23 11 35 36 36h119c29 0 43 -13 47 -36l68 -355l351 610c14 24 28 31 50 31h40c28 0 42 -28 25 -56l-398 -672c-13 -22 -27 -34 -50 -34h-59c-25 0 -38 12 -43 38z" />
    <glyph glyph-name="increment" unicode="&#x2206;" horiz-adv-x="760" 
d="M401 762c26 0 41 -13 51 -35l282 -626c7 -15 11 -30 11 -42v-23c0 -24 -13 -36 -36 -36h-658c-23 0 -36 12 -36 36v23c0 12 4 27 11 42l282 626c10 22 25 35 51 35h42zM380 642l-233 -539h466z" />
    <glyph glyph-name="ohm" horiz-adv-x="704" 
d="M352 660c-128 0 -204 -87 -204 -226c0 -145 90 -284 164 -348c6 -5 10 -14 10 -27v-23c0 -24 -13 -36 -38 -36h-212c-25 0 -38 12 -38 36v24c0 25 13 38 38 37l108 -2c-74 72 -142 212 -142 339c0 200 110 328 314 328s314 -128 314 -328c0 -127 -68 -267 -142 -339
l108 2c25 1 38 -12 38 -37v-24c0 -24 -13 -36 -38 -36h-212c-25 0 -38 12 -38 36v23c0 13 4 22 10 27c74 64 164 203 164 348c0 139 -76 226 -204 226z" />
    <glyph glyph-name="product" unicode="&#x220f;" horiz-adv-x="740" 
d="M705 713v-24c0 -24 -13 -37 -38 -37h-59v-613c0 -26 -12 -39 -37 -39h-37c-25 0 -38 13 -38 39v613h-252v-613c0 -26 -12 -39 -37 -39h-37c-25 0 -38 13 -38 39v613h-59c-25 0 -38 13 -38 37v24c0 24 13 37 38 37h594c25 0 38 -13 38 -37z" />
    <glyph glyph-name="summation" unicode="&#x2211;" horiz-adv-x="624" 
d="M363 385l-282 257c-13 12 -23 26 -23 45v25c0 25 13 38 38 38h433c29 0 43 -14 43 -43v-12c0 -29 -14 -43 -43 -43l-316 2l246 -220c16 -14 25 -26 25 -44v-11c0 -18 -9 -30 -25 -44l-269 -239l362 2c28 0 43 -14 43 -42v-14c0 -28 -15 -42 -43 -42h-485
c-25 0 -38 12 -38 37v25c0 20 9 33 23 45z" />
    <glyph glyph-name="lozenge" unicode="&#x25ca;" horiz-adv-x="690" 
d="M671 375c0 -8 -2 -14 -8 -21l-290 -350c-8 -11 -16 -17 -28 -17s-20 6 -28 17l-290 350c-6 7 -8 13 -8 21s2 14 8 21l290 350c8 11 16 17 28 17s20 -6 28 -17l290 -350c6 -7 8 -13 8 -21zM345 630l-210 -255l210 -255l210 255z" />
    <glyph glyph-name="degree" unicode="&#xb0;" horiz-adv-x="378" 
d="M341 617c0 -104 -62 -145 -152 -145c-89 0 -152 41 -152 145s63 145 152 145c90 0 152 -41 152 -145zM129 617c0 -40 21 -59 60 -59s60 19 60 59s-21 59 -60 59s-60 -19 -60 -59z" />
    <glyph glyph-name="a.smcp" unicode="&#xe201;" horiz-adv-x="548" 
d="M293 509c28 0 40 -12 52 -39l179 -415c13 -30 -3 -55 -31 -55h-37c-27 0 -39 12 -48 36l-25 65h-218l-25 -65c-9 -24 -21 -36 -48 -36h-37c-28 0 -44 25 -31 55l179 415c12 27 24 39 52 39h38zM274 383l-77 -199h154z" />
    <glyph glyph-name="a.smcp" unicode="&#xf761;" horiz-adv-x="548" 
d="M293 509c28 0 40 -12 52 -39l179 -415c13 -30 -3 -55 -31 -55h-37c-27 0 -39 12 -48 36l-25 65h-218l-25 -65c-9 -24 -21 -36 -48 -36h-37c-28 0 -44 25 -31 55l179 415c12 27 24 39 52 39h38zM274 383l-77 -199h154z" />
    <glyph glyph-name="b.smcp" unicode="&#xe202;" horiz-adv-x="511" 
d="M109 0c-30 0 -44 16 -44 45v410c0 29 14 45 44 45h181c123 0 168 -49 168 -132c0 -44 -23 -76 -46 -90c42 -17 68 -68 68 -118c0 -91 -43 -160 -174 -160h-197zM361 159c0 32 -13 60 -67 60h-117v-120h120c54 0 64 28 64 60zM344 352c0 27 -8 49 -53 49h-114v-98h110
c48 0 57 21 57 49z" />
    <glyph glyph-name="b.smcp" unicode="&#xf762;" horiz-adv-x="511" 
d="M109 0c-30 0 -44 16 -44 45v410c0 29 14 45 44 45h181c123 0 168 -49 168 -132c0 -44 -23 -76 -46 -90c42 -17 68 -68 68 -118c0 -91 -43 -160 -174 -160h-197zM361 159c0 32 -13 60 -67 60h-117v-120h120c54 0 64 28 64 60zM344 352c0 27 -8 49 -53 49h-114v-98h110
c48 0 57 21 57 49z" />
    <glyph glyph-name="c.smcp" unicode="&#xe203;" horiz-adv-x="499" 
d="M50 250c0 161 76 262 242 262c58 0 100 -9 128 -17c24 -7 32 -23 32 -42v-26c0 -22 -18 -38 -47 -30c-17 4 -48 14 -98 14c-101 0 -144 -68 -144 -161s43 -161 144 -161c50 0 81 10 98 14c29 8 47 -8 47 -30v-26c0 -19 -8 -35 -32 -42c-28 -8 -70 -17 -128 -17
c-166 0 -242 101 -242 262z" />
    <glyph glyph-name="c.smcp" unicode="&#xf763;" horiz-adv-x="499" 
d="M50 250c0 161 76 262 242 262c58 0 100 -9 128 -17c24 -7 32 -23 32 -42v-26c0 -22 -18 -38 -47 -30c-17 4 -48 14 -98 14c-101 0 -144 -68 -144 -161s43 -161 144 -161c50 0 81 10 98 14c29 8 47 -8 47 -30v-26c0 -19 -8 -35 -32 -42c-28 -8 -70 -17 -128 -17
c-166 0 -242 101 -242 262z" />
    <glyph glyph-name="d.smcp" unicode="&#xe204;" horiz-adv-x="551" 
d="M65 45v410c0 29 14 45 44 45h150c173 0 244 -97 244 -250s-71 -250 -244 -250h-150c-30 0 -44 16 -44 45zM177 99h79c104 0 135 62 135 151s-31 151 -135 151h-79v-302z" />
    <glyph glyph-name="d.smcp" unicode="&#xf764;" horiz-adv-x="551" 
d="M65 45v410c0 29 14 45 44 45h150c173 0 244 -97 244 -250s-71 -250 -244 -250h-150c-30 0 -44 16 -44 45zM177 99h79c104 0 135 62 135 151s-31 151 -135 151h-79v-302z" />
    <glyph glyph-name="e.smcp" unicode="&#xe205;" horiz-adv-x="500" 
d="M177 401v-99h203c22 0 34 -11 34 -34v-30c0 -22 -12 -33 -34 -33h-203v-106h226c28 0 43 -14 43 -43v-13c0 -29 -15 -43 -43 -43h-295c-29 0 -43 16 -43 45v410c0 29 14 45 43 45h295c28 0 43 -14 43 -43v-13c0 -29 -15 -43 -43 -43h-226z" />
    <glyph glyph-name="e.smcp" unicode="&#xf765;" horiz-adv-x="500" 
d="M177 401v-99h203c22 0 34 -11 34 -34v-30c0 -22 -12 -33 -34 -33h-203v-106h226c28 0 43 -14 43 -43v-13c0 -29 -15 -43 -43 -43h-295c-29 0 -43 16 -43 45v410c0 29 14 45 43 45h295c28 0 43 -14 43 -43v-13c0 -29 -15 -43 -43 -43h-226z" />
    <glyph glyph-name="f.smcp" unicode="&#xe206;" horiz-adv-x="476" 
d="M364 201h-187v-156c0 -29 -14 -45 -44 -45h-25c-29 0 -43 16 -43 45v410c0 29 14 45 43 45h285c28 0 43 -14 43 -43v-13c0 -29 -15 -43 -43 -43h-216v-103h187c26 0 40 -13 40 -39v-18c0 -27 -14 -40 -40 -40z" />
    <glyph glyph-name="f.smcp" unicode="&#xf766;" horiz-adv-x="476" 
d="M364 201h-187v-156c0 -29 -14 -45 -44 -45h-25c-29 0 -43 16 -43 45v410c0 29 14 45 43 45h285c28 0 43 -14 43 -43v-13c0 -29 -15 -43 -43 -43h-216v-103h187c26 0 40 -13 40 -39v-18c0 -27 -14 -40 -40 -40z" />
    <glyph glyph-name="h.smcp" unicode="&#xe208;" horiz-adv-x="580" 
d="M403 208h-226v-163c0 -29 -14 -45 -44 -45h-24c-30 0 -44 16 -44 45v410c0 29 14 45 44 45h24c30 0 44 -16 44 -45v-150h226v150c0 29 14 45 44 45h24c30 0 44 -16 44 -45v-410c0 -29 -14 -45 -44 -45h-24c-30 0 -44 16 -44 45v163z" />
    <glyph glyph-name="h.smcp" unicode="&#xf768;" horiz-adv-x="580" 
d="M403 208h-226v-163c0 -29 -14 -45 -44 -45h-24c-30 0 -44 16 -44 45v410c0 29 14 45 44 45h24c30 0 44 -16 44 -45v-150h226v150c0 29 14 45 44 45h24c30 0 44 -16 44 -45v-410c0 -29 -14 -45 -44 -45h-24c-30 0 -44 16 -44 45v163z" />
    <glyph glyph-name="i.smcp" unicode="&#xe209;" horiz-adv-x="262" 
d="M187 455v-410c0 -29 -14 -45 -44 -45h-24c-30 0 -44 16 -44 45v410c0 29 14 45 44 45h24c30 0 44 -16 44 -45z" />
    <glyph glyph-name="i.smcp" unicode="&#xf769;" horiz-adv-x="262" 
d="M187 455v-410c0 -29 -14 -45 -44 -45h-24c-30 0 -44 16 -44 45v410c0 29 14 45 44 45h24c30 0 44 -16 44 -45z" />
    <glyph glyph-name="j.smcp" unicode="&#xe20a;" horiz-adv-x="376" 
d="M315 455v-299c0 -103 -61 -168 -197 -168c-16 0 -40 2 -60 6c-23 5 -32 22 -32 44v22c0 22 15 40 42 35c8 -1 24 -4 43 -4c57 0 92 19 92 68v296c0 29 14 45 44 45h24c30 0 44 -16 44 -45z" />
    <glyph glyph-name="j.smcp" unicode="&#xf76a;" horiz-adv-x="376" 
d="M315 455v-299c0 -103 -61 -168 -197 -168c-16 0 -40 2 -60 6c-23 5 -32 22 -32 44v22c0 22 15 40 42 35c8 -1 24 -4 43 -4c57 0 92 19 92 68v296c0 29 14 45 44 45h24c30 0 44 -16 44 -45z" />
    <glyph glyph-name="k.smcp" unicode="&#xe20b;" horiz-adv-x="545" 
d="M174 286l187 185c23 22 34 29 61 29h47c30 0 39 -34 20 -52l-171 -159l198 -235c19 -22 6 -54 -24 -54h-46c-26 0 -42 11 -57 30l-148 188l-66 -61l2 -112c0 -29 -14 -45 -44 -45h-24c-30 0 -44 16 -44 45v410c0 29 14 45 44 45h24c30 0 45 -16 44 -45z" />
    <glyph glyph-name="k.smcp" unicode="&#xf76b;" horiz-adv-x="545" 
d="M174 286l187 185c23 22 34 29 61 29h47c30 0 39 -34 20 -52l-171 -159l198 -235c19 -22 6 -54 -24 -54h-46c-26 0 -42 11 -57 30l-148 188l-66 -61l2 -112c0 -29 -14 -45 -44 -45h-24c-30 0 -44 16 -44 45v410c0 29 14 45 44 45h24c30 0 45 -16 44 -45z" />
    <glyph glyph-name="l.smcp" unicode="&#xe20c;" horiz-adv-x="476" 
d="M402 0h-294c-29 0 -43 16 -43 45v410c0 29 14 45 43 45h25c30 0 44 -16 44 -45v-356h225c29 0 44 -14 44 -43v-13c0 -29 -15 -43 -44 -43z" />
    <glyph glyph-name="l.smcp" unicode="&#xf76c;" horiz-adv-x="476" 
d="M402 0h-294c-29 0 -43 16 -43 45v410c0 29 14 45 43 45h25c30 0 44 -16 44 -45v-356h225c29 0 44 -14 44 -43v-13c0 -29 -15 -43 -44 -43z" />
    <glyph glyph-name="m.smcp" unicode="&#xe20d;" horiz-adv-x="688" 
d="M325 56c-21 0 -34 7 -42 26l-113 261l6 -298c1 -29 -14 -45 -44 -45h-23c-30 0 -44 16 -44 45v410c0 29 14 45 44 45h66c22 0 36 -7 45 -28l125 -287l125 287c9 21 23 28 45 28h66c30 0 44 -16 44 -45v-410c0 -29 -14 -45 -44 -45h-23c-30 0 -45 16 -44 45l6 298
l-113 -261c-8 -19 -21 -26 -42 -26h-40z" />
    <glyph glyph-name="m.smcp" unicode="&#xf76d;" horiz-adv-x="688" 
d="M325 56c-21 0 -34 7 -42 26l-113 261l6 -298c1 -29 -14 -45 -44 -45h-23c-30 0 -44 16 -44 45v410c0 29 14 45 44 45h66c22 0 36 -7 45 -28l125 -287l125 287c9 21 23 28 45 28h66c30 0 44 -16 44 -45v-410c0 -29 -14 -45 -44 -45h-23c-30 0 -45 16 -44 45l6 298
l-113 -261c-8 -19 -21 -26 -42 -26h-40z" />
    <glyph glyph-name="n.smcp" unicode="&#xe20e;" horiz-adv-x="584" 
d="M413 182l-5 273c0 29 14 45 44 45h23c30 0 44 -16 44 -45v-410c0 -29 -14 -45 -44 -45h-24c-18 0 -30 6 -43 22l-236 296l4 -273c0 -29 -14 -45 -44 -45h-23c-30 0 -44 16 -44 45v410c0 29 14 45 44 45h24c18 0 30 -6 43 -22z" />
    <glyph glyph-name="n.smcp" unicode="&#xf76e;" horiz-adv-x="584" 
d="M413 182l-5 273c0 29 14 45 44 45h23c30 0 44 -16 44 -45v-410c0 -29 -14 -45 -44 -45h-24c-18 0 -30 6 -43 22l-236 296l4 -273c0 -29 -14 -45 -44 -45h-23c-30 0 -44 16 -44 45v410c0 29 14 45 44 45h24c18 0 30 -6 43 -22z" />
    <glyph glyph-name="o.smcp" unicode="&#xe20f;" 
d="M50 250c0 165 75 262 250 262s250 -97 250 -262s-75 -262 -250 -262s-250 97 -250 262zM437 250c0 102 -32 165 -137 165s-137 -63 -137 -165s32 -165 137 -165s137 63 137 165z" />
    <glyph glyph-name="o.smcp" unicode="&#xf76f;" 
d="M50 250c0 165 75 262 250 262s250 -97 250 -262s-75 -262 -250 -262s-250 97 -250 262zM437 250c0 102 -32 165 -137 165s-137 -63 -137 -165s32 -165 137 -165s137 63 137 165z" />
    <glyph glyph-name="p.smcp" unicode="&#xe200;" horiz-adv-x="504" 
d="M292 156h-115v-111c0 -29 -14 -45 -44 -45h-24c-30 0 -44 16 -44 45v410c0 29 14 45 44 45h183c132 0 177 -76 177 -172s-45 -172 -177 -172zM177 401v-146h103c56 0 75 29 75 73s-19 73 -75 73h-103z" />
    <glyph glyph-name="p.smcp" unicode="&#xf770;" horiz-adv-x="504" 
d="M292 156h-115v-111c0 -29 -14 -45 -44 -45h-24c-30 0 -44 16 -44 45v410c0 29 14 45 44 45h183c132 0 177 -76 177 -172s-45 -172 -177 -172zM177 401v-146h103c56 0 75 29 75 73s-19 73 -75 73h-103z" />
    <glyph glyph-name="q.smcp" unicode="&#xe211;" 
d="M437 250c0 102 -32 165 -137 165s-137 -63 -137 -165s32 -165 137 -165s137 63 137 165zM624 -131l-419 131c-108 33 -155 117 -155 250c0 165 75 262 250 262s250 -97 250 -262c0 -115 -35 -191 -111 -229v-1l191 -40c28 -6 40 -21 40 -47v-33c0 -27 -22 -38 -46 -31z
" />
    <glyph glyph-name="q.smcp" unicode="&#xf771;" 
d="M437 250c0 102 -32 165 -137 165s-137 -63 -137 -165s32 -165 137 -165s137 63 137 165zM624 -131l-419 131c-108 33 -155 117 -155 250c0 165 75 262 250 262s250 -97 250 -262c0 -115 -35 -191 -111 -229v-1l191 -40c28 -6 40 -21 40 -47v-33c0 -27 -22 -38 -46 -31z
" />
    <glyph glyph-name="r.smcp" unicode="&#xe212;" horiz-adv-x="536" 
d="M65 45v410c0 29 14 45 44 45h196c131 0 174 -71 174 -162c0 -60 -22 -121 -84 -145l96 -136c20 -29 2 -57 -24 -57h-38c-26 0 -42 9 -60 39l-84 138h-108v-132c0 -29 -14 -45 -44 -45h-24c-30 0 -44 16 -44 45zM361 338c0 31 -11 63 -66 63h-118v-125h118
c55 1 66 31 66 62z" />
    <glyph glyph-name="r.smcp" unicode="&#xf772;" horiz-adv-x="536" 
d="M65 45v410c0 29 14 45 44 45h196c131 0 174 -71 174 -162c0 -60 -22 -121 -84 -145l96 -136c20 -29 2 -57 -24 -57h-38c-26 0 -42 9 -60 39l-84 138h-108v-132c0 -29 -14 -45 -44 -45h-24c-30 0 -44 16 -44 45zM361 338c0 31 -11 63 -66 63h-118v-125h118
c55 1 66 31 66 62z" />
    <glyph glyph-name="s.smcp" unicode="&#xe213;" horiz-adv-x="505" 
d="M233 -12c-51 0 -114 10 -146 19c-26 7 -31 21 -31 40v28c0 21 14 39 43 31c21 -6 77 -18 135 -18c82 0 111 21 111 62c0 40 -26 53 -98 59c-150 13 -195 46 -195 143c0 99 62 160 210 160c51 0 112 -9 144 -18c26 -7 31 -21 31 -40v-28c0 -21 -14 -39 -43 -31
c-21 6 -75 17 -133 17c-74 0 -100 -18 -100 -60c0 -37 28 -45 100 -51c150 -13 195 -45 195 -151c0 -90 -58 -162 -223 -162z" />
    <glyph glyph-name="s.smcp" unicode="&#xf773;" horiz-adv-x="505" 
d="M233 -12c-51 0 -114 10 -146 19c-26 7 -31 21 -31 40v28c0 21 14 39 43 31c21 -6 77 -18 135 -18c82 0 111 21 111 62c0 40 -26 53 -98 59c-150 13 -195 46 -195 143c0 99 62 160 210 160c51 0 112 -9 144 -18c26 -7 31 -21 31 -40v-28c0 -21 -14 -39 -43 -31
c-21 6 -75 17 -133 17c-74 0 -100 -18 -100 -60c0 -37 28 -45 100 -51c150 -13 195 -45 195 -151c0 -90 -58 -162 -223 -162z" />
    <glyph glyph-name="t.smcp" unicode="&#xe214;" horiz-adv-x="500" 
d="M306 401v-356c0 -29 -14 -45 -43 -45h-25c-30 0 -44 16 -44 45v356h-115c-29 0 -44 14 -44 43v13c0 29 15 43 44 43h342c29 0 44 -14 44 -43v-13c0 -29 -15 -43 -44 -43h-115z" />
    <glyph glyph-name="t.smcp" unicode="&#xf774;" horiz-adv-x="500" 
d="M306 401v-356c0 -29 -14 -45 -43 -45h-25c-30 0 -44 16 -44 45v356h-115c-29 0 -44 14 -44 43v13c0 29 15 43 44 43h342c29 0 44 -14 44 -43v-13c0 -29 -15 -43 -44 -43h-115z" />
    <glyph glyph-name="u.smcp" unicode="&#xe215;" horiz-adv-x="576" 
d="M61 455c0 29 14 45 44 45h24c30 0 44 -16 44 -45v-281c0 -60 42 -85 115 -85s115 25 115 85v281c0 29 14 45 44 45h24c30 0 44 -16 44 -45v-290c0 -111 -74 -177 -227 -177s-227 66 -227 177v290z" />
    <glyph glyph-name="u.smcp" unicode="&#xf775;" horiz-adv-x="576" 
d="M61 455c0 29 14 45 44 45h24c30 0 44 -16 44 -45v-281c0 -60 42 -85 115 -85s115 25 115 85v281c0 29 14 45 44 45h24c30 0 44 -16 44 -45v-290c0 -111 -74 -177 -227 -177s-227 66 -227 177v290z" />
    <glyph glyph-name="v.smcp" unicode="&#xe216;" horiz-adv-x="548" 
d="M289 -9h-30c-28 0 -40 12 -52 39l-184 415c-13 30 3 55 31 55h37c27 0 38 -12 48 -36l135 -330l135 330c10 24 21 36 48 36h37c28 0 44 -25 31 -55l-184 -415c-12 -27 -24 -39 -52 -39z" />
    <glyph glyph-name="v.smcp" unicode="&#xf776;" horiz-adv-x="548" 
d="M289 -9h-30c-28 0 -40 12 -52 39l-184 415c-13 30 3 55 31 55h37c27 0 38 -12 48 -36l135 -330l135 330c10 24 21 36 48 36h37c28 0 44 -25 31 -55l-184 -415c-12 -27 -24 -39 -52 -39z" />
    <glyph glyph-name="w.smcp" unicode="&#xe217;" horiz-adv-x="744" 
d="M471 31l-99 340l-99 -340c-7 -25 -21 -40 -50 -40h-37c-29 0 -41 15 -48 40l-115 420c-7 27 6 49 35 49h40c28 0 40 -12 46 -40l67 -304l85 305c8 29 20 39 49 39h54c29 0 41 -10 49 -39l85 -305l67 304c6 28 18 40 46 40h40c29 0 42 -22 35 -49l-115 -420
c-7 -25 -19 -40 -48 -40h-37c-29 0 -43 15 -50 40z" />
    <glyph glyph-name="w.smcp" unicode="&#xf777;" horiz-adv-x="744" 
d="M471 31l-99 340l-99 -340c-7 -25 -21 -40 -50 -40h-37c-29 0 -41 15 -48 40l-115 420c-7 27 6 49 35 49h40c28 0 40 -12 46 -40l67 -304l85 305c8 29 20 39 49 39h54c29 0 41 -10 49 -39l85 -305l67 304c6 28 18 40 46 40h40c29 0 42 -22 35 -49l-115 -420
c-7 -25 -19 -40 -48 -40h-37c-29 0 -43 15 -50 40z" />
    <glyph glyph-name="x.smcp" unicode="&#xf778;" horiz-adv-x="558" 
d="M391 30l-112 151l-112 -151c-14 -19 -31 -30 -57 -30h-46c-30 0 -41 33 -22 57l159 201l-147 187c-19 23 -10 55 20 55h50c26 0 37 -9 52 -30l103 -145l103 145c15 21 26 30 52 30h50c30 0 39 -32 20 -55l-147 -187l159 -201c19 -24 8 -57 -22 -57h-46
c-26 0 -43 11 -57 30z" />
    <glyph glyph-name="y.smcp" unicode="&#xe219;" horiz-adv-x="566" 
d="M532 443l-194 -278l1 -120c0 -29 -14 -45 -43 -45h-25c-30 0 -44 16 -44 45l1 120l-194 278c-18 25 -6 57 24 57h45c29 0 41 -10 56 -34l124 -195l124 195c15 24 27 34 56 34h45c30 0 42 -32 24 -57z" />
    <glyph glyph-name="y.smcp" unicode="&#xf779;" horiz-adv-x="566" 
d="M532 443l-194 -278l1 -120c0 -29 -14 -45 -43 -45h-25c-30 0 -44 16 -44 45l1 120l-194 278c-18 25 -6 57 24 57h45c29 0 41 -10 56 -34l124 -195l124 195c15 24 27 34 56 34h45c30 0 42 -32 24 -57z" />
    <glyph glyph-name="z.smcp" unicode="&#xe21a;" horiz-adv-x="530" 
d="M464 406l-267 -305l249 1c29 0 44 -14 44 -43v-16c0 -29 -15 -43 -44 -43h-360c-29 0 -43 16 -43 45v9c0 15 6 27 17 40l267 305l-220 -1c-29 0 -44 14 -44 43v16c0 29 15 43 44 43h331c29 0 43 -16 43 -45v-9c0 -15 -6 -27 -17 -40z" />
    <glyph glyph-name="z.smcp" unicode="&#xf77a;" horiz-adv-x="530" 
d="M464 406l-267 -305l249 1c29 0 44 -14 44 -43v-16c0 -29 -15 -43 -44 -43h-360c-29 0 -43 16 -43 45v9c0 15 6 27 17 40l267 305l-220 -1c-29 0 -44 14 -44 43v16c0 29 15 43 44 43h331c29 0 43 -16 43 -45v-9c0 -15 -6 -27 -17 -40z" />
    <glyph glyph-name="a.school" unicode="&#xe151;" horiz-adv-x="542" 
d="M487 33c0 -21 -11 -33 -32 -33h-11c-21 0 -27 8 -36 29l-5 11c-44 -32 -95 -52 -162 -52c-146 0 -200 98 -200 262s54 262 200 262c67 0 118 -20 162 -52l5 11c9 21 15 29 36 29h11c21 0 32 -12 32 -33v-434zM375 388c-20 11 -55 29 -108 29c-98 0 -113 -74 -113 -167
s15 -167 113 -167c53 0 88 18 108 29v276z" />
    <glyph glyph-name="g.school" unicode="&#xe161;" horiz-adv-x="542" 
d="M375 -49v76c-36 -23 -84 -39 -134 -39c-146 0 -200 99 -200 262c0 164 54 262 200 262c67 0 118 -20 162 -52l5 11c9 21 15 29 36 29h11c21 0 32 -12 32 -33v-502c0 -123 -35 -227 -244 -227c-65 0 -123 11 -156 24c-21 8 -27 23 -27 38v35c0 20 18 34 42 25
c25 -9 68 -27 141 -27c111 0 132 53 132 118zM267 83c53 0 88 18 108 29v276c-20 11 -55 29 -108 29c-98 0 -113 -74 -113 -167c0 -92 15 -167 113 -167z" />
    <glyph glyph-name="r" unicode="r" horiz-adv-x="366" 
d="M295 416c-59 0 -103 -14 -128 -30v-346c0 -26 -13 -40 -38 -40h-36c-25 0 -38 14 -38 40v427c0 21 11 33 32 33h11c21 0 27 -8 36 -29l5 -11c37 30 93 52 158 52c5 0 17 -1 23 -2c23 -4 30 -17 30 -32v-41c0 -15 -9 -26 -30 -23c-9 1 -18 2 -25 2z" />
    <glyph glyph-name="dollar.hybrid" horiz-adv-x="508" 
d="M392 643l-33 -78c14 -2 33 -5 50 -10c25 -7 30 -22 30 -41v-27c0 -23 -17 -37 -46 -29c-26 6 -69 16 -132 16c-71 0 -106 -16 -106 -60c0 -37 33 -46 106 -52c152 -13 202 -41 202 -151c0 -94 -68 -161 -235 -161l-28 -81c-7 -21 -22 -32 -44 -32h-28
c-23 0 -33 22 -23 44l33 77c-21 3 -41 7 -56 11c-19 5 -28 19 -28 39v27c0 25 17 40 46 31c26 -7 71 -17 134 -17c77 0 118 19 118 62c0 41 -31 54 -105 60c-152 13 -200 44 -200 141c0 103 72 161 223 161l28 82c7 21 22 32 44 32h27c23 0 33 -22 23 -44z" />
    <glyph glyph-name="y.school" unicode="&#xe16b;" horiz-adv-x="524" 
d="M469 460v-495c0 -123 -35 -227 -244 -227c-49 0 -99 7 -136 19c-21 7 -27 23 -27 38v34c0 20 18 33 42 24c25 -9 61 -20 121 -20c111 0 132 53 132 118v71c-44 -23 -90 -34 -134 -34c-127 0 -172 63 -172 159v313c0 26 13 40 38 40h36c25 0 38 -14 38 -40v-303
c0 -51 26 -74 79 -74c52 0 88 14 115 29v348c0 26 13 40 38 40h36c25 0 38 -14 38 -40z" />
    <glyph glyph-name="g.smcp" unicode="&#xe207;" horiz-adv-x="550" 
d="M313 411c-107 0 -150 -62 -150 -161s43 -161 150 -161c22 0 50 3 66 8v89h-44c-29 0 -44 14 -44 43v11c0 29 15 43 44 43h111c29 0 43 -16 43 -45v-184c0 -29 -11 -39 -39 -47c-22 -6 -84 -19 -147 -19c-185 0 -253 107 -253 262s68 262 253 262c59 0 115 -8 144 -17
c24 -7 31 -24 31 -40v-28c0 -21 -14 -39 -43 -31c-21 6 -68 15 -122 15z" />
    <glyph glyph-name="g.smcp" unicode="&#xf767;" horiz-adv-x="550" 
d="M313 411c-107 0 -150 -62 -150 -161s43 -161 150 -161c22 0 50 3 66 8v89h-44c-29 0 -44 14 -44 43v11c0 29 15 43 44 43h111c29 0 43 -16 43 -45v-184c0 -29 -11 -39 -39 -47c-22 -6 -84 -19 -147 -19c-185 0 -253 107 -253 262s68 262 253 262c59 0 115 -8 144 -17
c24 -7 31 -24 31 -40v-28c0 -21 -14 -39 -43 -31c-21 6 -68 15 -122 15z" />
    <glyph glyph-name="lowline" unicode="&#xe511;" horiz-adv-x="374" 
d="M335 56v-19c0 -25 -13 -37 -38 -37h-219c-25 0 -38 12 -38 37v19c0 24 13 37 38 37h219c25 0 38 -13 38 -37z" />
    <glyph glyph-name="underscoremonospace" unicode="&#xe512;" 
d="M585 -132v-19c0 -25 -13 -37 -38 -37h-509c-25 0 -38 12 -38 37v19c0 24 13 37 38 37h509c25 0 38 -13 38 -37z" />
    <glyph glyph-name="underscoremonospace" unicode="&#xff3f;" 
d="M585 -132v-19c0 -25 -13 -37 -38 -37h-509c-25 0 -38 12 -38 37v19c0 24 13 37 38 37h509c25 0 38 -13 38 -37z" />
    <glyph glyph-name="tripleprime" unicode="&#x2034;" horiz-adv-x="530" 
d="M112 500h-21c-16 0 -26 10 -28 27l-22 181c-3 26 11 42 38 42h46c26 0 41 -16 38 -42l-23 -181c-2 -17 -12 -27 -28 -27zM277 500h-21c-16 0 -26 10 -28 27l-22 181c-3 26 11 42 38 42h46c26 0 41 -16 38 -42l-23 -181c-2 -17 -12 -27 -28 -27zM442 500h-21
c-16 0 -26 10 -28 27l-22 181c-3 26 11 42 38 42h46c26 0 41 -16 38 -42l-23 -181c-2 -17 -12 -27 -28 -27z" />
    <glyph glyph-name="exclamdown.cap" unicode="&#xe441;" horiz-adv-x="220" 
d="M149 0h-78c-27 0 -38 16 -36 42l35 469c1 19 10 29 28 29h24c18 0 27 -10 28 -29l35 -469c2 -26 -9 -42 -36 -42zM183 689c0 -40 -33 -73 -73 -73s-73 33 -73 73s33 73 73 73s73 -33 73 -73z" />
    <glyph glyph-name="Euro.hybrid" horiz-adv-x="591" 
d="M384 536c-97 0 -150 -42 -173 -114h211c23 0 32 -18 24 -38l-5 -14c-7 -21 -22 -31 -43 -31h-201s-1 -14 -1 -26s1 -26 1 -26h178c23 0 32 -18 24 -38l-5 -14c-7 -21 -22 -31 -43 -31h-140c23 -72 76 -115 173 -115c51 0 93 8 120 15c30 8 44 -10 44 -31v-31
c0 -21 -8 -32 -32 -39c-24 -8 -73 -15 -138 -15c-162 0 -255 75 -285 216h-35c-25 0 -38 12 -38 37v8c0 25 13 38 38 38h26s-1 14 -1 26s1 26 1 26h-26c-25 0 -38 12 -38 37v8c0 25 13 38 38 38h35c30 141 123 215 285 215c65 0 114 -7 138 -15c24 -7 32 -18 32 -39v-31
c0 -21 -14 -39 -44 -31c-27 7 -69 15 -120 15z" />
    <glyph glyph-name="sterling.hybrid" horiz-adv-x="543" 
d="M332 535c-85 0 -128 -32 -128 -102v-70h201c25 0 38 -13 38 -37v-16c0 -25 -13 -37 -38 -37h-201v-172h273c28 0 43 -14 43 -42v-17c0 -28 -15 -42 -43 -42h-411c-29 0 -43 14 -43 42v17c0 28 14 42 43 42h26v172h-31c-25 0 -38 12 -38 37v16c0 24 13 37 38 37h31v80
c0 109 52 194 232 194c64 0 121 -12 146 -19c22 -7 30 -19 30 -39v-30c0 -21 -17 -37 -43 -30c-21 5 -63 16 -125 16z" />
    <glyph glyph-name="cent.hybrid" horiz-adv-x="504" 
d="M47 312c0 160 75 261 241 262l28 81c7 21 22 32 44 32h28c23 0 32 -22 23 -44l-32 -77c17 -3 31 -6 43 -9c24 -7 32 -23 32 -42v-25c0 -22 -18 -38 -47 -30c-17 4 -53 13 -99 13c-106 0 -149 -58 -149 -161s43 -161 149 -161c46 0 82 9 99 13c29 8 47 -8 47 -30v-25
c0 -19 -8 -35 -32 -42c-28 -8 -75 -17 -133 -17h-17l-28 -81c-7 -21 -22 -32 -44 -32h-28c-23 0 -32 22 -23 44l36 86c-94 35 -138 122 -138 245z" />
    <glyph glyph-name="copyright" unicode="&#xa9;" horiz-adv-x="792" 
d="M395 -12c-181 0 -334 87 -334 324c0 238 153 325 334 325c183 0 336 -87 336 -325c0 -237 -153 -324 -336 -324zM397 64c138 0 255 68 255 248c0 181 -117 249 -255 249c-140 0 -257 -68 -257 -249c0 -180 117 -248 257 -248zM222 312c0 129 72 183 181 183
c36 0 57 -2 85 -8c20 -4 27 -18 27 -34v-22c0 -18 -15 -32 -39 -26c-14 2 -32 6 -62 6c-58 0 -95 -29 -95 -99s37 -99 95 -99c30 0 48 4 62 6c24 6 39 -8 39 -26v-22c0 -16 -7 -30 -27 -34c-28 -6 -49 -8 -85 -8c-109 0 -181 54 -181 183z" />
    <glyph glyph-name="published" unicode="&#x2117;" horiz-adv-x="792" 
d="M461 365c0 16 -11 37 -33 37h-63v-74h63c28 0 33 21 33 37zM395 -12c-181 0 -334 87 -334 324c0 238 153 325 334 325c183 0 336 -87 336 -325c0 -237 -153 -324 -336 -324zM397 64c138 0 255 68 255 248c0 181 -117 249 -255 249c-140 0 -257 -68 -257 -249
c0 -180 117 -248 257 -248zM306 484h128c90 0 122 -54 122 -118c0 -63 -32 -118 -122 -118h-69v-74c0 -22 -10 -32 -32 -32h-27c-23 0 -33 10 -33 32v278c0 22 10 32 33 32z" />
    <glyph glyph-name="trademark" unicode="&#x2122;" horiz-adv-x="575" 
d="M401 516h-14c-12 0 -21 4 -28 19l-47 112l3 -120c0 -18 -8 -27 -26 -27h-10c-17 0 -26 9 -26 27v196c0 18 9 27 26 27h31c15 0 24 -7 30 -22l54 -131l54 131c6 15 15 22 30 22h31c17 0 26 -9 26 -27v-196c0 -18 -9 -27 -26 -27h-10c-18 0 -26 9 -26 27l3 120l-47 -112
c-7 -15 -16 -19 -28 -19zM80 690h-43c-18 0 -26 8 -26 26v9c0 17 8 25 26 25h153c18 0 26 -8 26 -25v-9c0 -18 -8 -26 -26 -26h-43v-163c0 -18 -8 -27 -26 -27h-15c-18 0 -26 9 -26 27v163z" />
    <glyph glyph-name="servicemark" unicode="&#x2120;" horiz-adv-x="580" 
d="M406 516h-14c-12 0 -21 4 -28 19l-47 112l3 -120c0 -18 -8 -27 -26 -27h-10c-17 0 -26 9 -26 27v196c0 18 9 27 26 27h31c15 0 24 -7 30 -22l54 -131l54 131c6 15 15 22 30 22h31c17 0 26 -9 26 -27v-196c0 -18 -9 -27 -26 -27h-10c-18 0 -26 9 -26 27l3 120l-47 -112
c-7 -15 -16 -19 -28 -19zM112 548c38 0 52 12 52 25c0 19 -12 24 -49 27c-74 6 -96 24 -96 75c0 47 27 82 110 82c27 0 46 -3 63 -7c14 -4 21 -14 21 -27v-10c0 -14 -12 -23 -27 -19c-17 4 -35 8 -63 8c-36 0 -47 -9 -47 -25c0 -18 15 -21 51 -24c79 -7 94 -29 94 -79
c0 -45 -27 -81 -111 -81c-24 0 -50 4 -67 8c-15 3 -21 13 -21 26v10c0 14 13 23 29 19c17 -5 32 -8 61 -8z" />
    <glyph glyph-name="at.cap" unicode="&#xe513;" horiz-adv-x="1035" 
d="M522 -138c-394 0 -482 249 -482 513s88 513 482 513s472 -181 472 -422c0 -209 -72 -341 -269 -341h-43c-21 0 -27 8 -36 29l-5 11c-44 -32 -95 -52 -162 -52c-146 0 -200 98 -200 262s54 262 200 262c67 0 118 -20 162 -52l5 11c9 21 15 29 36 29h11c21 0 32 -12 32 -33
v-392c134 0 183 102 183 266c0 199 -57 345 -386 345s-396 -215 -396 -436s67 -436 396 -436c115 0 214 25 250 36c26 8 38 -7 38 -24v-19c0 -17 -5 -28 -25 -35c-38 -13 -153 -35 -263 -35zM613 513c-20 11 -55 29 -108 29c-98 0 -113 -74 -113 -167s15 -167 113 -167
c53 0 88 18 108 29v276z" />
    <glyph glyph-name="Euro.LP" unicode="&#xe521;" 
d="M399 89c48 0 81 6 108 13c29 7 47 -9 47 -30v-26c0 -20 -7 -33 -30 -41c-23 -7 -73 -17 -133 -17c-175 0 -261 87 -287 262h-34c-25 0 -37 12 -37 36v21c0 25 12 37 37 37h26v62h-26c-25 0 -37 12 -37 36v21c0 24 12 37 37 37h34c26 175 112 262 287 262
c60 0 110 -10 133 -17c23 -8 30 -21 30 -41v-26c0 -21 -18 -37 -47 -30c-27 7 -60 13 -108 13c-106 0 -158 -54 -179 -161h230c22 0 31 -18 23 -38l-8 -26c-7 -20 -22 -30 -43 -30h-213v-62h187c23 0 31 -18 24 -38l-8 -26c-7 -20 -22 -30 -43 -30h-149
c21 -107 73 -161 179 -161z" />
    <glyph glyph-name="dollar.LP" unicode="&#xe522;" horiz-adv-x="508" 
d="M392 706l-33 -78c14 -2 33 -5 50 -10c25 -7 30 -22 30 -41v-27c0 -23 -17 -37 -46 -29c-26 6 -69 16 -132 16c-71 0 -106 -16 -106 -60c0 -37 33 -46 106 -52c152 -13 202 -41 202 -151c0 -94 -68 -161 -235 -161l-28 -81c-7 -21 -22 -32 -44 -32h-28
c-23 0 -33 22 -23 44l33 77c-21 3 -41 7 -56 11c-19 5 -28 19 -28 39v27c0 25 17 40 46 31c26 -7 71 -17 134 -17c77 0 118 19 118 62c0 41 -31 54 -105 60c-152 13 -200 44 -200 141c0 103 72 161 223 161l28 82c7 21 22 32 44 32h27c23 0 33 -22 23 -44z" />
    <glyph glyph-name="cent.LP" unicode="&#xe523;" horiz-adv-x="504" 
d="M47 375c0 160 75 261 241 262l28 81c7 21 22 32 44 32h28c23 0 32 -22 23 -44l-32 -77c17 -3 31 -6 43 -9c24 -7 32 -23 32 -42v-25c0 -22 -18 -38 -47 -30c-17 4 -53 13 -99 13c-106 0 -149 -58 -149 -161s43 -161 149 -161c46 0 82 9 99 13c29 8 47 -8 47 -30v-25
c0 -19 -8 -35 -32 -42c-28 -8 -75 -17 -133 -17h-17l-28 -81c-7 -21 -22 -32 -44 -32h-28c-23 0 -32 22 -23 44l36 86c-94 35 -138 122 -138 245z" />
    <glyph glyph-name="sterling.LP" unicode="&#xe524;" horiz-adv-x="581" 
d="M473 386v-22c0 -24 -13 -36 -38 -36h-214v-225h290c28 0 42 -14 42 -42v-20c0 -28 -14 -41 -42 -41h-436c-28 0 -42 13 -42 41v20c0 28 14 42 42 42h34v225h-39c-24 0 -37 12 -37 36v22c0 24 13 36 37 36h39v138c0 113 59 202 239 202c67 0 129 -13 154 -21
c22 -7 31 -20 31 -40v-28c0 -21 -17 -37 -43 -30c-20 5 -68 18 -133 18c-91 0 -136 -33 -136 -109v-130h214c25 0 38 -12 38 -36z" />
    <glyph glyph-name="florin.LP" unicode="&#xe525;" horiz-adv-x="525" 
d="M346 660c-66 0 -111 -31 -111 -93v-67h195c25 0 38 -12 38 -36v-22c0 -24 -13 -36 -38 -36h-195v-365c0 -28 -14 -41 -42 -41h-26c-28 0 -42 13 -42 41v365h-65c-24 0 -37 12 -37 36v22c0 24 13 36 37 36h65v77c0 108 52 184 212 184c62 0 109 -9 134 -17
c22 -7 31 -20 31 -40v-28c0 -21 -17 -37 -43 -30c-20 5 -59 14 -113 14z" />
    <glyph glyph-name="yen.LP" unicode="&#xe526;" horiz-adv-x="620" 
d="M326 0h-32c-28 0 -42 15 -42 43v207h-181c-25 0 -38 12 -38 36v22c0 24 13 36 38 36h163l-36 62h-127c-25 0 -38 11 -38 36v21c0 25 13 37 38 37h73l-110 190c-18 28 -7 60 25 60h42c30 0 46 -14 57 -36l152 -315l152 315c11 22 27 36 57 36h42c32 0 43 -32 25 -60
l-110 -190h73c25 0 38 -12 38 -37v-21c0 -25 -13 -36 -38 -36h-127l-36 -62h163c25 0 38 -12 38 -36v-22c0 -24 -13 -36 -38 -36h-181v-207c0 -28 -14 -43 -42 -43z" />
    <glyph glyph-name="numbersign.LP" unicode="&#xe533;" horiz-adv-x="640" 
d="M78 505l9 31c6 19 20 29 39 29h61l35 156c4 19 20 29 39 29h50c20 0 27 -16 23 -34l-34 -151h121l35 156c4 19 20 29 39 29h50c20 0 27 -16 23 -34l-34 -151h63c20 0 27 -16 21 -34l-9 -32c-6 -19 -19 -28 -39 -28h-56l-42 -192h67c20 0 28 -15 22 -34l-9 -31
c-6 -19 -20 -29 -39 -29h-62l-34 -156c-4 -19 -20 -29 -39 -29h-50c-20 0 -27 16 -23 34l33 151h-121l-34 -156c-4 -19 -20 -29 -39 -29h-50c-20 0 -27 16 -23 34l33 151h-62c-20 0 -27 16 -21 34l9 32c6 19 19 28 39 28h55l43 192h-67c-20 0 -28 15 -22 34zM280 471
l-42 -192h120l43 192h-121z" />
    <glyph glyph-name="zero.LP" unicode="&#xe534;" horiz-adv-x="584" 
d="M50 375c0 261 36 387 242 387s242 -126 242 -387s-36 -387 -242 -387s-242 126 -242 387zM422 375c0 192 -8 285 -130 285s-130 -93 -130 -285s8 -285 130 -285s130 93 130 285z" />
    <glyph glyph-name="one.LP" unicode="&#xe536;" horiz-adv-x="344" 
d="M247 722v-682c0 -26 -13 -40 -38 -40h-34c-25 0 -38 14 -38 40v608l-94 -4c-20 -1 -30 10 -30 29v14c0 18 7 27 30 33l124 35c17 5 27 7 37 7h5c25 0 38 -14 38 -40z" />
    <glyph glyph-name="two.LP" unicode="&#xe537;" horiz-adv-x="584" 
d="M44 38v16c0 21 11 34 23 46c299 290 342 359 342 447c0 65 -28 112 -134 112c-67 0 -115 -15 -140 -23c-30 -9 -47 10 -47 33v30c0 20 8 33 29 40c40 13 97 23 165 23c204 0 243 -107 243 -211c0 -102 -50 -190 -336 -448l306 3c25 0 38 -13 38 -38v-30
c0 -25 -13 -38 -38 -38h-413c-25 0 -38 13 -38 38z" />
    <glyph glyph-name="three.LP" unicode="&#xe538;" horiz-adv-x="584" 
d="M249 762c188 0 264 -80 264 -205c0 -76 -41 -135 -97 -162c70 -18 121 -83 121 -175c0 -137 -81 -232 -287 -232c-77 0 -140 13 -173 23c-22 7 -29 20 -29 40v29c0 23 16 42 46 33c36 -11 88 -21 152 -21c130 0 174 54 174 128c0 88 -49 117 -148 117h-101
c-26 0 -39 13 -39 38v26c0 25 13 38 39 38h103c82 0 122 44 122 107c0 73 -44 113 -159 113c-59 0 -106 -10 -142 -21c-30 -9 -46 10 -46 33v28c0 20 7 33 29 40c33 10 91 23 171 23z" />
    <glyph glyph-name="four.LP" unicode="&#xe539;" horiz-adv-x="599" 
d="M167 286l198 2l2 287zM475 723v-435h55c25 0 38 -14 38 -40v-25c0 -26 -13 -40 -38 -40h-55v-143c0 -26 -13 -40 -38 -40h-34c-25 0 -38 14 -38 40v143h-296c-24 0 -36 13 -36 36v22c0 12 4 21 14 36l322 459c13 19 23 26 42 26h26c25 0 38 -14 38 -39z" />
    <glyph glyph-name="five.LP" unicode="&#xe53a;" horiz-adv-x="584" 
d="M246 -12c-68 0 -132 12 -165 22c-22 7 -29 20 -29 40v27c0 23 16 42 46 33c36 -11 85 -20 142 -20c83 0 170 21 170 142c0 112 -75 116 -151 116h-141c-25 0 -38 14 -38 40v322c0 26 13 40 38 40h355c25 0 38 -14 38 -40v-24c0 -26 -13 -40 -38 -40h-282v-198
c16 2 72 3 86 3c129 0 248 -24 248 -219c0 -218 -158 -244 -279 -244z" />
    <glyph glyph-name="six.LP" unicode="&#xe53b;" horiz-adv-x="592" 
d="M351 658c-152 0 -189 -108 -192 -266c30 47 89 81 168 81c194 0 220 -137 220 -243s-32 -242 -239 -242c-212 0 -255 127 -255 345c0 254 51 429 289 429c63 0 118 -10 151 -21c24 -8 29 -20 29 -40v-28c0 -23 -16 -42 -46 -33c-36 11 -75 18 -125 18zM435 230
c0 70 -21 143 -124 143c-113 0 -143 -67 -143 -143c0 -77 29 -142 137 -142c105 0 130 72 130 142z" />
    <glyph glyph-name="seven.LP" unicode="&#xe53c;" horiz-adv-x="541" 
d="M503 653l-272 -619c-10 -22 -23 -34 -49 -34h-54c-29 0 -45 31 -31 58l308 591l-342 -2c-25 0 -38 14 -38 40v23c0 26 13 40 38 40h415c24 0 36 -13 36 -36v-25c0 -12 -4 -21 -11 -36z" />
    <glyph glyph-name="eight.LP" unicode="&#xe53d;" horiz-adv-x="584" 
d="M292 435c85 0 121 53 121 112c0 61 -33 117 -121 117s-121 -56 -121 -117c0 -59 36 -112 121 -112zM292 86c116 0 148 69 148 129c0 83 -49 127 -148 127s-148 -44 -148 -127c0 -60 32 -129 148 -129zM292 -12c-176 0 -259 91 -259 226c0 85 49 159 115 181
c-52 26 -91 83 -91 157c0 121 66 210 235 210s235 -89 235 -210c0 -74 -39 -131 -91 -157c66 -22 115 -96 115 -181c0 -135 -83 -226 -259 -226z" />
    <glyph glyph-name="nine.LP" unicode="&#xe53e;" horiz-adv-x="592" 
d="M246 92c152 0 189 108 192 266c-30 -47 -89 -81 -168 -81c-194 0 -220 137 -220 243s32 242 239 242c212 0 255 -127 255 -345c0 -254 -51 -429 -289 -429c-63 0 -123 11 -156 22c-24 8 -29 20 -29 40v28c0 23 16 42 46 33c36 -11 80 -19 130 -19zM162 520
c0 -70 21 -143 124 -143c113 0 143 67 143 143c0 77 -29 142 -137 142c-105 0 -130 -72 -130 -142z" />
    <glyph glyph-name="zero.LT" unicode="&#xe53f;" 
d="M58 375c0 261 36 387 242 387s242 -126 242 -387s-36 -387 -242 -387s-242 126 -242 387zM430 375c0 192 -8 285 -130 285s-130 -93 -130 -285s8 -285 130 -285s130 93 130 285z" />
    <glyph glyph-name="one.LT" unicode="&#xe541;" 
d="M506 0h-378c-20 0 -30 10 -30 29v26c0 18 8 30 28 31l135 6v554l-133 -8c-20 -1 -30 10 -30 29v11c0 18 7 27 30 33l165 44c17 5 27 7 37 7h5c25 0 38 -14 38 -40v-630l135 -6c20 -1 28 -13 28 -31v-26c0 -19 -10 -29 -30 -29z" />
    <glyph glyph-name="two.LT" unicode="&#xe542;" 
d="M55 38v16c0 21 10 35 23 46c316 277 342 352 342 447c0 65 -27 112 -133 112c-67 0 -116 -15 -141 -23c-30 -9 -47 10 -47 33v30c0 20 8 33 29 40c40 13 98 23 166 23c203 0 242 -107 242 -211c0 -113 -62 -227 -336 -449l307 4c25 0 38 -13 38 -38v-30
c0 -25 -13 -38 -38 -38h-414c-25 0 -38 13 -38 38z" />
    <glyph glyph-name="three.LT" unicode="&#xe543;" 
d="M255 762c188 0 264 -80 264 -205c0 -76 -41 -135 -97 -162c70 -18 121 -83 121 -175c0 -137 -81 -232 -287 -232c-77 0 -140 13 -173 23c-22 7 -29 20 -29 40v29c0 23 16 42 46 33c36 -11 88 -21 152 -21c130 0 174 54 174 128c0 88 -49 117 -148 117h-101
c-26 0 -39 13 -39 38v26c0 25 13 38 39 38h103c82 0 122 44 122 107c0 73 -44 113 -159 113c-59 0 -106 -10 -142 -21c-30 -9 -46 10 -46 33v28c0 20 7 33 29 40c33 10 91 23 171 23z" />
    <glyph glyph-name="four.LT" unicode="&#xe544;" 
d="M171 300l183 3l3 265zM464 722v-419h59c25 0 38 -14 38 -40v-25c0 -26 -13 -40 -38 -40h-59v-158c0 -26 -13 -40 -38 -40h-34c-25 0 -38 14 -38 40v158h-280c-24 0 -36 13 -36 36v17c0 12 4 21 14 36l313 448c13 19 23 26 42 26h19c25 0 38 -14 38 -39z" />
    <glyph glyph-name="five.LT" unicode="&#xe545;" 
d="M257 -12c-68 0 -132 12 -165 22c-22 7 -29 20 -29 40v27c0 23 16 42 46 33c36 -11 85 -20 142 -20c83 0 170 21 170 142c0 112 -75 116 -151 116h-141c-25 0 -38 14 -38 40v322c0 26 13 40 38 40h355c25 0 38 -14 38 -40v-24c0 -26 -13 -40 -38 -40h-282v-198
c16 2 72 3 86 3c129 0 248 -24 248 -219c0 -218 -158 -244 -279 -244z" />
    <glyph glyph-name="six.LT" unicode="&#xe546;" 
d="M178 230c0 -71 21 -141 130 -141c102 0 118 80 118 141s-10 141 -118 141c-107 0 -130 -82 -130 -141zM348 657c-135 0 -176 -104 -177 -261c30 43 78 77 162 77c183 0 205 -141 205 -243c0 -101 -36 -242 -230 -242c-213 0 -246 136 -246 345c0 244 46 429 280 429
c63 0 115 -10 148 -21c24 -8 29 -20 29 -40v-29c0 -23 -16 -42 -46 -33c-36 11 -75 18 -125 18z" />
    <glyph glyph-name="seven.LT" unicode="&#xe547;" 
d="M539 652l-285 -618c-10 -22 -23 -34 -49 -34h-54c-29 0 -45 31 -31 58l311 591l-343 -2c-25 0 -38 14 -38 40v23c0 26 13 40 38 40h426c24 0 36 -13 36 -36v-26c0 -12 -4 -21 -11 -36z" />
    <glyph glyph-name="eight.LT" unicode="&#xe548;" 
d="M300 435c85 0 121 53 121 112c0 61 -33 117 -121 117s-121 -56 -121 -117c0 -59 36 -112 121 -112zM300 86c116 0 148 69 148 129c0 83 -49 127 -148 127s-148 -44 -148 -127c0 -60 32 -129 148 -129zM300 -12c-176 0 -259 91 -259 226c0 85 49 159 115 181
c-52 26 -91 83 -91 157c0 121 66 210 235 210s235 -89 235 -210c0 -74 -39 -131 -91 -157c66 -22 115 -96 115 -181c0 -135 -83 -226 -259 -226z" />
    <glyph glyph-name="nine.LT" unicode="&#xe549;" 
d="M422 520c0 71 -21 141 -130 141c-102 0 -118 -80 -118 -141s10 -141 118 -141c107 0 130 82 130 141zM252 93c135 0 176 104 177 261c-30 -43 -78 -77 -162 -77c-183 0 -205 141 -205 243c0 101 36 242 230 242c213 0 246 -136 246 -345c0 -244 -46 -429 -280 -429
c-63 0 -118 10 -151 21c-24 8 -29 20 -29 40v29c0 23 16 42 46 33c36 -11 78 -18 128 -18z" />
    <glyph glyph-name="zero.slash" unicode="&#xe515;" 
d="M300 -12c-206 0 -242 126 -242 387s36 387 242 387c207 0 242 -126 242 -387s-35 -387 -242 -387zM430 375c0 73 -1 135 -13 180l-200 -438c19 -19 46 -27 83 -27c120 0 130 92 130 285zM300 660c-122 0 -130 -93 -130 -285c0 -74 0 -136 12 -181l200 439
c-19 18 -46 27 -82 27z" />
    <glyph glyph-name="Euro.OP" horiz-adv-x="529" 
d="M79 270h-27c-25 0 -37 12 -37 36v9c0 24 12 37 37 37h39c28 100 102 160 230 160c58 0 105 -9 133 -17c24 -7 32 -23 32 -42v-25c0 -22 -18 -38 -47 -30c-17 4 -53 13 -99 13c-63 0 -104 -21 -127 -59h185c22 0 29 -17 23 -38l-4 -14c-6 -20 -22 -30 -43 -30h-183v-40
h167c22 0 29 -17 23 -38l-4 -14c-6 -20 -22 -30 -43 -30h-121c23 -39 64 -59 127 -59c46 0 82 9 99 13c29 8 47 -8 47 -30v-25c0 -19 -8 -35 -32 -42c-28 -8 -75 -17 -133 -17c-128 0 -202 59 -230 160h-39c-25 0 -37 12 -37 36v9c0 24 12 37 37 37h27v40z" />
    <glyph glyph-name="dollar.OP" horiz-adv-x="508" 
d="M392 581l-33 -78c14 -2 33 -5 50 -10c25 -7 30 -22 30 -41v-27c0 -23 -17 -37 -46 -29c-26 6 -69 16 -132 16c-71 0 -106 -16 -106 -60c0 -37 33 -46 106 -52c152 -13 202 -41 202 -151c0 -94 -68 -161 -235 -161l-28 -81c-7 -21 -22 -32 -44 -32h-28
c-23 0 -33 22 -23 44l33 77c-21 3 -41 7 -56 11c-19 5 -28 19 -28 39v27c0 25 17 40 46 31c26 -7 71 -17 134 -17c77 0 118 19 118 62c0 41 -31 54 -105 60c-152 13 -200 44 -200 141c0 103 72 161 223 161l28 82c7 21 22 32 44 32h27c23 0 33 -22 23 -44z" />
    <glyph glyph-name="cent.OP" horiz-adv-x="504" 
d="M47 250c0 160 75 261 241 262l28 81c7 21 22 32 44 32h28c23 0 32 -22 23 -44l-32 -77c17 -3 31 -6 43 -9c24 -7 32 -23 32 -42v-25c0 -22 -18 -38 -47 -30c-17 4 -53 13 -99 13c-106 0 -149 -58 -149 -161s43 -161 149 -161c46 0 82 9 99 13c29 8 47 -8 47 -30v-25
c0 -19 -8 -35 -32 -42c-28 -8 -75 -17 -133 -17c-6 0 -12 1 -17 1l-28 -82c-7 -21 -22 -32 -44 -32h-28c-23 0 -32 22 -23 44l36 86c-94 35 -138 122 -138 245z" />
    <glyph glyph-name="sterling.OP" horiz-adv-x="527" 
d="M215 332v-41h154c25 0 37 -12 37 -37v-9c0 -24 -12 -36 -37 -36h-154v-110h230c25 0 38 -13 38 -37v-26c0 -24 -13 -36 -38 -36h-377c-24 0 -37 12 -37 36v26c0 24 13 37 37 37h34v110h-34c-24 0 -37 12 -37 36v9c0 25 13 37 37 37h34v49c0 109 65 172 215 172
c56 0 95 -9 115 -15c20 -5 31 -18 31 -38v-26c0 -21 -16 -35 -41 -29c-17 4 -54 11 -101 11c-82 0 -106 -23 -106 -83z" />
    <glyph glyph-name="florin.OP" horiz-adv-x="497" 
d="M112 -214v423h-44c-24 0 -37 12 -37 36v9c0 25 13 37 37 37h44v49c0 106 62 172 204 172c42 0 76 -6 96 -12c20 -5 31 -18 31 -38v-26c0 -21 -16 -35 -41 -29c-17 4 -46 8 -81 8c-62 0 -96 -16 -96 -83v-41h154c25 0 37 -12 37 -37v-9c0 -24 -12 -36 -37 -36h-154v-423
c0 -24 -13 -36 -38 -36h-38c-24 0 -37 12 -37 36z" />
    <glyph glyph-name="yen.OP" horiz-adv-x="579" 
d="M302 0h-26c-29 0 -43 15 -43 44v64h-150c-25 0 -38 12 -38 37v8c0 24 13 37 38 37h147l-30 40h-117c-25 0 -38 12 -38 36v9c0 25 13 37 38 37h57l-100 135c-20 26 -3 53 24 53h50c28 0 41 -13 54 -33l121 -193l121 193c13 20 26 33 54 33h50c27 0 44 -27 24 -53
l-100 -135h57c25 0 38 -12 38 -37v-9c0 -24 -13 -36 -38 -36h-117l-30 -40h147c25 0 38 -13 38 -37v-8c0 -25 -13 -37 -38 -37h-150v-64c0 -29 -14 -44 -43 -44z" />
    <glyph glyph-name="numbersign.OP" horiz-adv-x="580" 
d="M96 125h-49c-23 0 -33 18 -27 39l4 13c7 21 21 30 42 30h55l26 86h-53c-23 0 -33 18 -27 39l4 13c7 21 21 30 42 30h58l28 94c6 21 21 31 43 31h39c23 0 33 -19 27 -39l-26 -86h90l28 94c6 21 21 31 43 31h39c23 0 33 -19 27 -39l-26 -86h49c23 0 33 -18 27 -39l-4 -13
c-7 -21 -21 -30 -42 -30h-55l-26 -86h53c23 0 33 -18 27 -39l-4 -13c-7 -21 -21 -30 -42 -30h-58l-28 -94c-6 -21 -21 -31 -43 -31h-39c-23 0 -33 19 -27 39l26 86h-90l-28 -94c-6 -21 -21 -31 -43 -31h-39c-23 0 -33 19 -27 39zM258 293l-26 -86h90l26 86h-90z" />
    <glyph glyph-name="zero.OP" unicode="&#xe54a;" horiz-adv-x="580" 
d="M530 250c0 -190 -89 -262 -240 -262s-240 72 -240 262s89 262 240 262s240 -72 240 -262zM160 250c0 -121 43 -166 130 -166s130 45 130 166s-43 166 -130 166s-130 -45 -130 -166z" />
    <glyph glyph-name="one.OP" unicode="&#xe54c;" horiz-adv-x="344" 
d="M247 472v-432c0 -26 -13 -40 -38 -40h-34c-25 0 -38 14 -38 40v358l-94 -4c-20 -1 -30 10 -30 29v14c0 18 7 27 30 33l124 35c17 5 27 7 37 7h5c25 0 38 -14 38 -40z" />
    <glyph glyph-name="two.OP" unicode="&#xe54d;" horiz-adv-x="500" 
d="M41 38v10c0 21 9 32 23 41c231 151 267 191 267 247s-34 81 -108 81c-46 0 -86 -10 -106 -16c-30 -8 -47 10 -47 33v19c0 20 8 33 29 40c26 8 78 19 142 19c157 0 204 -70 204 -163s-83 -156 -248 -253l224 2c25 0 38 -13 38 -38v-22c0 -25 -13 -38 -38 -38h-342
c-25 0 -38 13 -38 38z" />
    <glyph glyph-name="three.OP" unicode="&#xe54e;" horiz-adv-x="518" 
d="M220 -165c116 0 153 58 153 130c0 86 -43 121 -142 121h-83c-26 0 -39 13 -39 38v28c0 25 13 38 39 38h75c85 0 121 51 121 111c0 63 -26 115 -133 115c-54 0 -98 -13 -119 -19c-29 -8 -43 10 -43 31v26c0 19 5 33 31 40c32 9 93 18 144 18c174 0 234 -84 234 -205
c0 -73 -41 -135 -96 -162c69 -20 119 -87 119 -175c0 -132 -66 -232 -256 -232c-51 0 -114 11 -146 20c-26 7 -31 21 -31 40v26c0 21 14 39 43 31c21 -6 75 -20 129 -20z" />
    <glyph glyph-name="four.OP" unicode="&#xe54f;" horiz-adv-x="613" 
d="M160 47l199 3l2 285zM470 473v-424h76c25 0 38 -14 38 -40v-18c0 -26 -13 -40 -38 -40h-76v-161c0 -26 -13 -40 -38 -40h-35c-25 0 -38 14 -38 40v161h-290c-24 0 -36 13 -36 36v22c0 12 5 21 15 36l316 441c13 19 23 26 42 26h26c25 0 38 -14 38 -39z" />
    <glyph glyph-name="five.OP" unicode="&#xe540;" horiz-adv-x="514" 
d="M217 -165c80 0 170 28 170 148c0 118 -75 127 -159 127h-121c-25 0 -38 14 -38 40v310c0 26 13 40 38 40h332c25 0 38 -14 38 -40v-18c0 -26 -13 -40 -38 -40h-260v-196c16 2 62 3 76 3c116 0 240 -23 240 -224c0 -216 -150 -247 -279 -247c-58 0 -111 10 -147 21
c-22 7 -29 20 -29 40v23c0 23 16 42 46 33c36 -11 78 -20 131 -20z" />
    <glyph glyph-name="six.OP" unicode="&#xe551;" horiz-adv-x="595" 
d="M434 230c0 70 -21 146 -123 146c-111 0 -143 -71 -143 -146c0 -77 31 -146 138 -146c103 0 128 76 128 146zM352 664c-152 0 -194 -114 -193 -271c30 47 91 80 169 80c194 0 220 -137 220 -243s-32 -242 -240 -242c-212 0 -255 127 -255 345c0 254 51 429 289 429
c63 0 118 -11 152 -22c24 -8 29 -20 29 -40v-22c0 -23 -16 -42 -46 -33c-36 11 -75 19 -125 19z" />
    <glyph glyph-name="seven.OP" unicode="&#xe552;" horiz-adv-x="471" 
d="M448 401l-243 -617c-10 -22 -23 -34 -49 -34h-47c-29 0 -46 29 -32 60l276 593l-303 -2c-25 0 -38 14 -38 40v19c0 26 13 40 38 40h373c24 0 36 -13 36 -36v-27c0 -12 -4 -21 -11 -36z" />
    <glyph glyph-name="eight.OP" unicode="&#xe553;" horiz-adv-x="584" 
d="M292 435c85 0 121 53 121 112c0 61 -33 117 -121 117s-121 -56 -121 -117c0 -59 36 -112 121 -112zM292 86c116 0 148 69 148 129c0 83 -49 127 -148 127s-148 -44 -148 -127c0 -60 32 -129 148 -129zM292 -12c-176 0 -259 91 -259 226c0 85 49 159 115 181
c-52 26 -91 83 -91 157c0 121 66 210 235 210s235 -89 235 -210c0 -74 -39 -131 -91 -157c66 -22 115 -96 115 -181c0 -135 -83 -226 -259 -226z" />
    <glyph glyph-name="nine.OP" unicode="&#xe554;" horiz-adv-x="595" 
d="M164 270c0 -70 21 -146 123 -146c111 0 143 71 143 146c0 77 -31 146 -138 146c-103 0 -128 -76 -128 -146zM244 -163c151 0 195 113 195 270c-30 -47 -91 -80 -169 -80c-194 0 -220 137 -220 243s32 242 240 242c212 0 255 -127 255 -345c0 -254 -53 -429 -292 -429
c-63 0 -120 12 -154 23c-24 8 -29 20 -29 40v22c0 23 16 42 46 33c36 -11 78 -19 128 -19z" />
    <glyph glyph-name="zero.OT" unicode="&#xe555;" 
d="M542 250c0 -190 -91 -262 -242 -262s-242 72 -242 262s91 262 242 262s242 -72 242 -262zM168 250c0 -121 45 -166 132 -166s132 45 132 166s-45 166 -132 166s-132 -45 -132 -166z" />
    <glyph glyph-name="one.OT" unicode="&#xe557;" 
d="M506 0h-378c-20 0 -30 10 -30 29v26c0 18 8 30 28 31l135 6v304l-133 -8c-20 -1 -30 10 -30 29v11c0 18 7 27 30 33l165 44c17 5 27 7 37 7h5c25 0 38 -14 38 -40v-380l135 -6c20 -1 28 -13 28 -31v-26c0 -19 -10 -29 -30 -29z" />
    <glyph glyph-name="two.OT" unicode="&#xe558;" 
d="M50 38v15c0 21 8 34 23 41c229 109 336 169 336 242c0 51 -30 80 -128 80c-77 0 -135 -13 -155 -19c-30 -8 -47 10 -47 33v21c0 20 8 33 29 40c26 8 99 21 178 21c180 0 240 -63 240 -162c0 -105 -103 -164 -299 -253l277 1c25 0 38 -13 38 -38v-22
c0 -25 -13 -38 -38 -38h-416c-25 0 -38 13 -38 38z" />
    <glyph glyph-name="three.OT" unicode="&#xe559;" 
d="M256 512c188 0 265 -80 265 -205c0 -76 -41 -136 -97 -162c70 -19 120 -83 120 -175c0 -137 -80 -232 -287 -232c-70 0 -140 12 -173 22c-22 7 -29 20 -29 40v26c0 23 16 42 46 33c36 -11 88 -22 152 -22c138 0 180 54 180 128c0 89 -51 121 -150 121h-105
c-26 0 -39 13 -39 38v28c0 25 13 38 39 38h106c81 0 123 48 123 111c0 72 -39 113 -161 113c-59 0 -108 -12 -144 -23c-30 -9 -46 10 -46 33v25c0 20 7 33 29 40c33 10 91 23 171 23z" />
    <glyph glyph-name="four.OT" unicode="&#xe55a;" 
d="M166 47l179 3l2 268zM456 473v-424h67c25 0 38 -14 38 -40v-18c0 -26 -13 -40 -38 -40h-67v-161c0 -26 -13 -40 -38 -40h-35c-25 0 -38 14 -38 40v161h-266c-24 0 -36 13 -36 36v24c0 12 5 21 15 36l294 439c13 19 23 26 42 26h24c25 0 38 -14 38 -39z" />
    <glyph glyph-name="five.OT" unicode="&#xe55b;" 
d="M275 98h-144c-25 0 -38 14 -38 40v322c0 26 13 40 38 40h355c25 0 38 -14 38 -40v-18c0 -26 -13 -40 -38 -40h-283v-206c16 1 73 2 87 2c129 0 248 -26 248 -215c0 -215 -158 -245 -279 -245c-68 0 -131 13 -164 23c-22 7 -29 20 -29 40v23c0 23 16 42 46 33
c36 -11 84 -21 141 -21c87 0 176 23 176 137c0 117 -71 125 -154 125z" />
    <glyph glyph-name="six.OT" unicode="&#xe55c;" 
d="M180 230c0 -71 22 -146 131 -146c102 0 116 85 116 146s-9 146 -116 146c-108 0 -131 -78 -131 -146zM351 662c-136 0 -181 -113 -180 -265c30 42 85 76 162 76c186 0 207 -141 207 -243c0 -101 -31 -242 -229 -242c-215 0 -246 136 -246 345c0 244 44 429 280 429
c58 0 117 -9 150 -20c24 -8 29 -20 29 -40v-26c0 -23 -16 -42 -46 -33c-36 11 -77 19 -127 19z" />
    <glyph glyph-name="seven.OT" unicode="&#xe55d;" 
d="M539 405l-284 -621c-10 -22 -23 -34 -49 -34h-54c-29 0 -45 31 -31 58l318 595l-351 -2c-25 0 -38 14 -38 40v19c0 26 13 40 38 40h426c24 0 36 -13 36 -36v-23c0 -12 -4 -21 -11 -36z" />
    <glyph glyph-name="eight.OT" unicode="&#xe55e;" 
d="M300 435c85 0 121 53 121 112c0 61 -33 117 -121 117s-121 -56 -121 -117c0 -59 36 -112 121 -112zM300 86c116 0 148 69 148 129c0 83 -49 127 -148 127s-148 -44 -148 -127c0 -60 32 -129 148 -129zM300 -12c-176 0 -259 91 -259 226c0 85 49 159 115 181
c-52 26 -91 83 -91 157c0 121 66 210 235 210s235 -89 235 -210c0 -74 -39 -131 -91 -157c66 -22 115 -96 115 -181c0 -135 -83 -226 -259 -226z" />
    <glyph glyph-name="nine.OT" unicode="&#xe55f;" 
d="M425 270c0 71 -21 146 -130 146c-102 0 -117 -85 -117 -146s9 -146 117 -146c107 0 130 78 130 146zM253 -162c137 0 182 106 181 265c-30 -42 -85 -76 -162 -76c-186 0 -207 141 -207 243c0 101 32 242 230 242c215 0 245 -136 245 -345c0 -249 -45 -429 -281 -429
c-58 0 -120 10 -153 21c-24 8 -29 20 -29 40v26c0 23 16 42 46 33c36 -11 80 -20 130 -20z" />
    <glyph glyph-name="zero.XP" horiz-adv-x="580" 
d="M530 250c0 -190 -89 -262 -240 -262s-240 72 -240 262s89 262 240 262s240 -72 240 -262zM160 250c0 -121 43 -166 130 -166s130 45 130 166s-43 166 -130 166s-130 -45 -130 -166z" />
    <glyph glyph-name="one.XP" horiz-adv-x="352" 
d="M251 472v-432c0 -26 -13 -40 -38 -40h-34c-25 0 -38 14 -38 40v358l-94 -4c-20 -1 -30 10 -30 29v14c0 18 7 27 30 33l124 35c17 5 27 7 37 7h5c25 0 38 -14 38 -40z" />
    <glyph glyph-name="two.XP" horiz-adv-x="500" 
d="M41 38v10c0 21 9 32 23 41c231 151 267 191 267 247s-34 81 -108 81c-46 0 -86 -10 -106 -16c-30 -8 -47 10 -47 33v19c0 20 7 33 29 40c26 8 78 19 142 19c157 0 204 -70 204 -163s-83 -156 -248 -253l224 2c25 0 38 -13 38 -38v-22c0 -25 -13 -38 -38 -38h-342
c-25 0 -38 13 -38 38z" />
    <glyph glyph-name="three.XP" horiz-adv-x="503" 
d="M232 85c83 0 122 24 122 66c0 49 -22 68 -98 68h-94c-26 0 -39 13 -39 38v9c0 25 13 38 39 38h96c62 0 80 19 80 57s-36 55 -111 54c-66 0 -112 -13 -133 -19c-29 -8 -43 10 -43 31v26c0 19 5 33 31 40c32 9 95 19 151 19c140 0 214 -42 214 -139c0 -55 -28 -88 -57 -100
c43 -17 78 -59 78 -127c0 -101 -73 -158 -235 -158c-60 0 -126 11 -158 20c-26 7 -31 21 -31 40v24c0 21 14 39 43 31c21 -6 74 -18 145 -18z" />
    <glyph glyph-name="four.XP" horiz-adv-x="518" 
d="M155 209l138 2l2 160zM396 473v-262h51c25 0 38 -14 38 -40v-20c0 -26 -13 -40 -38 -40h-51v-71c0 -26 -13 -40 -38 -40h-27c-25 0 -38 14 -38 40v71h-238c-24 0 -36 13 -36 36v15c0 15 5 24 15 36l240 288c15 18 26 26 45 26h39c25 0 38 -14 38 -39z" />
    <glyph glyph-name="five.XP" horiz-adv-x="493" 
d="M225 85c80 0 121 19 121 68c0 52 -24 65 -100 65h-151c-25 0 -38 14 -38 40v202c0 26 13 40 38 40h310c25 0 38 -14 38 -40v-18c0 -26 -13 -40 -38 -40h-245v-99c16 2 49 3 85 3c157 0 213 -41 213 -155c0 -115 -78 -163 -234 -163c-63 0 -119 9 -155 20
c-22 7 -29 20 -29 40v21c0 23 16 42 46 33c36 -11 82 -17 139 -17z" />
    <glyph glyph-name="six.XP" horiz-adv-x="522" 
d="M307 416c-101 0 -152 -37 -157 -141c28 32 83 54 152 54c138 0 177 -67 177 -166s-55 -175 -211 -175c-157 0 -223 77 -223 253c0 185 71 271 243 271c60 0 110 -11 136 -19c21 -6 29 -20 29 -40v-19c0 -23 -17 -41 -47 -33c-20 6 -54 15 -99 15zM162 173
c7 -66 47 -89 108 -89c69 0 98 34 98 79c0 47 -23 74 -87 74c-69 0 -101 -29 -119 -64z" />
    <glyph glyph-name="seven.XP" horiz-adv-x="453" 
d="M421 408l-191 -374c-11 -21 -23 -34 -49 -34h-50c-29 0 -46 32 -28 61l208 343l-251 -1c-25 0 -38 14 -38 40v17c0 26 13 40 38 40h337c24 0 36 -13 36 -36v-18c0 -12 -5 -25 -12 -38z" />
    <glyph glyph-name="eight.XP" horiz-adv-x="487" 
d="M244 -12c-161 0 -209 66 -209 158c0 55 26 108 76 126c-29 14 -55 50 -55 98c0 87 45 142 188 142c142 0 188 -55 188 -142c0 -48 -27 -84 -56 -98c50 -18 76 -71 76 -126c0 -92 -48 -158 -208 -158zM244 221c-74 0 -96 -32 -96 -69c0 -35 21 -68 96 -68s96 33 96 68
c0 37 -22 69 -96 69zM244 307c63 0 82 24 82 54c0 29 -18 54 -82 54c-63 0 -82 -25 -82 -54c0 -30 20 -54 82 -54z" />
    <glyph glyph-name="nine.XP" horiz-adv-x="522" 
d="M360 327c-7 66 -47 89 -108 89c-69 0 -98 -34 -98 -79c0 -47 23 -74 87 -74c69 0 101 29 119 64zM232 -12c-62 0 -111 11 -137 19c-21 6 -29 20 -29 40v20c0 23 17 41 47 33c20 -6 55 -14 100 -14c102 0 154 35 159 139c-28 -32 -83 -54 -152 -54
c-138 0 -177 67 -177 166s55 175 211 175c157 0 223 -77 223 -253c0 -185 -72 -271 -245 -271z" />
    <glyph glyph-name="zero.XT" 
d="M542 250c0 -190 -91 -262 -242 -262s-242 72 -242 262s91 262 242 262s242 -72 242 -262zM168 250c0 -121 45 -166 132 -166s132 45 132 166s-45 166 -132 166s-132 -45 -132 -166z" />
    <glyph glyph-name="one.XT" 
d="M506 0h-378c-20 0 -30 10 -30 29v26c0 18 8 30 28 31l135 6v304l-133 -8c-20 -1 -30 10 -30 29v11c0 18 7 27 30 33l165 44c17 5 27 7 37 7h5c25 0 38 -14 38 -40v-380l135 -6c20 -1 28 -13 28 -31v-26c0 -19 -10 -29 -30 -29z" />
    <glyph glyph-name="two.XT" 
d="M50 38v15c0 21 8 34 23 41c229 109 336 169 336 242c0 51 -30 80 -128 80c-77 0 -135 -13 -155 -19c-30 -8 -47 10 -47 33v21c0 20 8 33 29 40c26 8 99 21 178 21c180 0 240 -63 240 -162c0 -105 -103 -164 -299 -253l277 1c25 0 38 -13 38 -38v-22
c0 -25 -13 -38 -38 -38h-416c-25 0 -38 13 -38 38z" />
    <glyph glyph-name="three.XT" 
d="M274 512c162 0 249 -42 249 -139c0 -59 -33 -88 -64 -100c42 -12 85 -53 85 -127c0 -104 -92 -158 -269 -158c-62 0 -148 12 -183 21c-26 7 -31 21 -31 40v26c0 21 14 39 43 31c21 -6 88 -20 169 -20c111 0 158 23 158 66c0 47 -32 67 -110 67h-141c-26 0 -39 13 -39 38
v9c0 25 13 38 39 38h143c64 0 91 15 91 53c0 39 -42 57 -139 57c-80 0 -143 -14 -164 -20c-29 -8 -43 10 -43 31v27c0 19 5 33 31 40c32 9 112 20 175 20z" />
    <glyph glyph-name="four.XT" 
d="M181 207l175 4l3 173zM460 473v-262h70c25 0 38 -14 38 -40v-20c0 -26 -13 -40 -38 -40h-70v-71c0 -26 -13 -40 -38 -40h-28c-25 0 -38 14 -38 40v71h-284c-24 0 -36 13 -36 36v15c0 15 3 24 15 36l280 288c18 19 27 26 46 26h45c25 0 38 -14 38 -39z" />
    <glyph glyph-name="five.XT" 
d="M271 87c94 0 162 18 162 69c0 52 -28 62 -101 62h-221c-25 0 -38 14 -38 40v202c0 26 13 40 38 40h382c25 0 38 -14 38 -40v-20c0 -26 -13 -40 -38 -40h-317v-95s92 4 151 4c161 0 219 -42 219 -156c0 -118 -119 -165 -275 -165c-63 0 -150 9 -186 20
c-22 7 -29 20 -29 40v21c0 23 16 42 46 33c36 -11 112 -15 169 -15z" />
    <glyph glyph-name="six.XT" 
d="M345 414c-113 0 -185 -35 -191 -146c33 40 117 61 191 61c155 0 204 -63 204 -167s-70 -174 -243 -174c-168 0 -256 77 -256 253c0 188 94 271 276 271c75 0 135 -9 168 -19c22 -7 29 -20 29 -40v-24c0 -23 -16 -42 -46 -33c-36 11 -78 18 -132 18zM164 175
c10 -70 71 -92 145 -92c83 0 129 28 129 80c0 53 -29 77 -110 77c-87 0 -144 -31 -164 -65z" />
    <glyph glyph-name="seven.XT" 
d="M544 407l-244 -373c-12 -19 -28 -34 -54 -34h-55c-29 0 -49 31 -26 62l258 341l-341 -1c-25 0 -38 14 -38 40v18c0 26 13 40 38 40h442c24 0 36 -13 36 -36v-18c0 -12 -6 -24 -16 -39z" />
    <glyph glyph-name="eight.XT" 
d="M300 84c110 0 133 31 133 68c0 41 -15 68 -133 68s-133 -27 -133 -68c0 -37 23 -68 133 -68zM300 305c99 0 116 23 116 56c0 31 -22 54 -116 54s-116 -23 -116 -54c0 -33 17 -56 116 -56zM300 -12c-187 0 -245 67 -245 162c0 64 39 107 90 122c-32 10 -67 42 -67 99
c0 92 62 141 222 141s222 -49 222 -141c0 -57 -35 -89 -67 -99c51 -15 90 -58 90 -122c0 -95 -58 -162 -245 -162z" />
    <glyph glyph-name="nine.XT" 
d="M436 325c-10 70 -71 92 -145 92c-83 0 -130 -28 -130 -80c0 -53 29 -77 111 -77c86 0 143 31 164 65zM251 86c113 0 188 35 195 146c-33 -40 -118 -61 -192 -61c-154 0 -204 63 -204 167s71 174 244 174c167 0 255 -77 255 -253c0 -188 -97 -271 -279 -271
c-80 0 -141 11 -174 21c-22 7 -29 20 -29 40v24c0 23 16 42 46 33c36 -11 79 -20 138 -20z" />
    <glyph glyph-name="uni2080" unicode="&#x2080;" horiz-adv-x="486" 
d="M243 -12c-128 0 -201 64 -201 217s73 216 201 216s201 -63 201 -216s-73 -217 -201 -217zM243 324c-64 0 -100 -34 -100 -119c0 -87 36 -119 100 -119s100 32 100 119c0 85 -36 119 -100 119z" />
    <glyph glyph-name="uni2081" unicode="&#x2081;" horiz-adv-x="323" 
d="M140 315l-78 -3c-19 0 -31 11 -31 30v6c0 19 9 28 30 34l100 29c26 7 37 10 49 10h3c22 0 31 -12 31 -35v-347c0 -26 -13 -39 -38 -39h-28c-25 0 -38 13 -38 39v276z" />
    <glyph glyph-name="uni2082" unicode="&#x2082;" horiz-adv-x="427" 
d="M37 37v13c0 18 10 29 26 39c156 99 198 139 198 188c0 28 -19 48 -73 48c-34 0 -70 -7 -94 -14c-25 -6 -40 8 -40 28v29c0 18 8 31 28 37c29 8 71 16 116 16c138 0 178 -63 178 -132c0 -87 -97 -143 -191 -196l164 1c25 0 38 -13 38 -38v-19c0 -25 -13 -37 -38 -37h-274
c-25 0 -38 12 -38 37z" />
    <glyph glyph-name="uni2083" unicode="&#x2083;" horiz-adv-x="449" 
d="M152 248h88c40 0 51 15 51 39c0 23 -24 39 -87 39c-50 0 -84 -6 -109 -13c-26 -7 -40 9 -40 28v29c0 17 7 31 27 36c29 8 69 15 130 15c116 0 185 -38 185 -117c0 -44 -23 -72 -47 -81c37 -14 64 -48 64 -104c0 -80 -67 -131 -201 -131c-58 0 -105 7 -138 16
c-20 5 -28 19 -28 36v29c0 19 14 34 41 28c28 -7 72 -14 117 -14c73 0 98 19 98 45c0 30 -14 43 -58 43h-93c-24 0 -36 12 -36 36v5c0 24 12 36 36 36z" />
    <glyph glyph-name="uni2084" unicode="&#x2084;" horiz-adv-x="460" 
d="M22 128v15c0 13 6 23 19 38l187 215c16 18 27 25 43 25h49c24 0 35 -12 35 -36v-201h36c25 0 39 -12 39 -37v-18c0 -25 -14 -37 -39 -37h-36v-56c0 -24 -12 -36 -35 -36h-30c-24 0 -36 12 -36 36v56h-193c-25 0 -39 13 -39 36zM156 183l98 1l3 113z" />
    <glyph glyph-name="uni2085" unicode="&#x2085;" horiz-adv-x="438" 
d="M222 172h-130c-26 0 -39 14 -39 40v157c0 26 13 40 39 40h260c25 0 39 -13 39 -38v-20c0 -26 -14 -39 -39 -39h-198v-59c7 1 42 2 61 2c141 0 190 -37 190 -131c0 -90 -62 -136 -200 -136c-55 0 -102 6 -139 16c-19 5 -27 17 -27 36v29c0 19 12 35 40 28
c35 -9 79 -14 124 -14c65 0 91 16 91 47c0 30 -22 42 -72 42z" />
    <glyph glyph-name="uni2086" unicode="&#x2086;" horiz-adv-x="470" 
d="M274 328c-60 0 -119 -23 -123 -97c21 23 66 40 119 40c122 0 165 -53 165 -137c0 -88 -56 -146 -191 -146c-136 0 -199 71 -199 215c0 148 71 218 220 218c60 0 94 -7 123 -14c20 -5 26 -19 26 -36v-28c0 -19 -14 -34 -40 -27c-25 7 -56 12 -100 12zM247 79
c53 0 77 21 77 54c0 31 -19 51 -71 51c-49 0 -78 -20 -89 -43c8 -43 40 -62 83 -62z" />
    <glyph glyph-name="uni2087" unicode="&#x2087;" horiz-adv-x="403" 
d="M168 0h-47c-26 0 -39 28 -23 52l162 263l-201 -2c-24 0 -37 12 -37 36v24c0 24 13 36 37 36h285c24 0 36 -12 36 -36v-12c0 -14 -4 -27 -13 -44l-148 -283c-11 -21 -24 -34 -51 -34z" />
    <glyph glyph-name="uni2088" unicode="&#x2088;" horiz-adv-x="435" 
d="M218 81c55 0 71 20 71 47c0 26 -16 46 -71 46c-56 0 -73 -20 -73 -46c0 -27 17 -47 73 -47zM218 254c49 0 62 16 62 37s-13 39 -62 39s-63 -18 -63 -39s14 -37 63 -37zM218 -12c-131 0 -183 48 -183 130c0 45 24 89 63 105c-25 9 -46 39 -46 79c0 76 49 119 166 119
c115 0 164 -43 164 -119c0 -40 -20 -70 -46 -79c40 -16 64 -60 64 -105c0 -82 -52 -130 -182 -130z" />
    <glyph glyph-name="uni2089" unicode="&#x2089;" horiz-adv-x="470" 
d="M204 81c65 0 119 23 123 97c-20 -23 -66 -40 -119 -40c-122 0 -165 53 -165 137c0 88 56 146 191 146c136 0 199 -71 199 -215c0 -148 -72 -218 -226 -218c-60 0 -94 7 -123 15c-20 5 -26 19 -26 35v28c0 19 12 34 38 27c27 -7 64 -12 108 -12zM231 330
c-53 0 -78 -21 -78 -54c0 -31 20 -51 71 -51c49 0 78 20 90 43c-8 43 -40 62 -83 62z" />
    <glyph glyph-name="uni208A" unicode="&#x208a;" horiz-adv-x="405" 
d="M185 364h34c25 0 37 -13 37 -38v-68h67c25 0 38 -13 38 -37v-33c0 -24 -13 -37 -38 -37h-67v-68c0 -25 -12 -38 -37 -38h-34c-25 0 -38 13 -38 38v68h-68c-24 0 -37 13 -37 37v33c0 24 13 37 37 37h68v68c0 25 13 38 38 38z" />
    <glyph glyph-name="uni208B" unicode="&#x208b;" horiz-adv-x="405" 
d="M361 221v-33c0 -24 -13 -37 -38 -37h-244c-24 0 -37 13 -37 37v33c0 24 13 37 37 37h244c25 0 38 -13 38 -37z" />
    <glyph glyph-name="uni208C" unicode="&#x208c;" horiz-adv-x="405" 
d="M361 292v-33c0 -24 -13 -37 -38 -37h-244c-24 0 -37 13 -37 37v33c0 24 13 37 37 37h244c25 0 38 -13 38 -37zM361 150v-33c0 -24 -13 -37 -38 -37h-244c-24 0 -37 13 -37 37v33c0 24 13 37 37 37h244c25 0 38 -13 38 -37z" />
    <glyph glyph-name="uni208D" unicode="&#x208d;" horiz-adv-x="214" 
d="M32 205c0 82 22 153 46 200c10 18 19 25 36 25h45c18 0 36 -16 25 -39c-15 -33 -45 -101 -45 -186s30 -153 45 -186c11 -23 -7 -39 -25 -39h-45c-17 0 -26 7 -36 25c-24 47 -46 118 -46 200z" />
    <glyph glyph-name="uni208E" unicode="&#x208e;" horiz-adv-x="214" 
d="M181 205c0 -82 -22 -153 -46 -200c-10 -18 -19 -25 -36 -25h-45c-18 0 -36 16 -25 39c15 33 45 101 45 186s-30 153 -45 186c-11 23 7 39 25 39h45c17 0 26 -7 36 -25c24 -47 46 -118 46 -200z" />
    <glyph glyph-name="perthousand.hybrid" horiz-adv-x="1422" 
d="M964 181c0 -126 -57 -193 -181 -193c-123 0 -180 66 -180 193c0 126 57 193 180 193c124 0 181 -66 181 -193zM705 181c0 -77 24 -102 78 -102c55 0 79 25 79 102s-24 102 -79 102c-54 0 -78 -25 -78 -102zM405 444c0 -126 -56 -193 -180 -193s-181 66 -181 193
c0 126 57 193 181 193s180 -66 180 -193zM146 444c0 -77 24 -102 79 -102c54 0 79 25 79 102s-25 102 -79 102c-55 0 -79 -25 -79 -102zM252 30l405 571c12 17 24 24 41 24h47c16 0 23 -15 12 -30l-405 -571c-12 -17 -24 -24 -41 -24h-47c-16 0 -23 15 -12 30zM1378 181
c0 -126 -56 -193 -180 -193s-181 66 -181 193c0 126 57 193 181 193s180 -66 180 -193zM1119 181c0 -77 24 -102 79 -102c54 0 79 25 79 102s-25 102 -79 102c-55 0 -79 -25 -79 -102z" />
    <glyph glyph-name="percent.LP" horiz-adv-x="940" 
d="M896 186c0 -133 -56 -198 -180 -198s-181 65 -181 198s57 198 181 198s180 -64 180 -198zM637 186c0 -82 24 -107 79 -107c54 0 78 25 78 107c0 83 -24 108 -78 108c-55 0 -79 -26 -79 -108zM405 564c0 -133 -56 -198 -180 -198s-181 64 -181 198c0 133 57 198 181 198
s180 -65 180 -198zM146 564c0 -83 24 -108 79 -108c54 0 79 26 79 108s-25 107 -79 107c-55 0 -79 -25 -79 -107zM182 41l485 685c12 17 23 24 42 24h34c18 0 31 -20 16 -41l-485 -685c-12 -17 -23 -24 -42 -24h-34c-18 0 -31 20 -16 41z" />
    <glyph glyph-name="perthousand.LP" horiz-adv-x="1365" 
d="M896 186c0 -133 -56 -198 -180 -198s-181 65 -181 198s57 198 181 198s180 -64 180 -198zM637 186c0 -82 24 -107 79 -107c54 0 78 25 78 107c0 83 -24 108 -78 108c-55 0 -79 -26 -79 -108zM405 564c0 -133 -56 -198 -180 -198s-181 64 -181 198c0 133 57 198 181 198
s180 -65 180 -198zM146 564c0 -83 24 -108 79 -108c54 0 79 26 79 108s-25 107 -79 107c-55 0 -79 -25 -79 -107zM182 41l485 685c12 17 23 24 42 24h34c18 0 31 -20 16 -41l-485 -685c-12 -17 -23 -24 -42 -24h-34c-18 0 -31 20 -16 41zM1321 186
c0 -133 -57 -198 -180 -198c-124 0 -181 65 -181 198s57 198 181 198c123 0 180 -64 180 -198zM1062 186c0 -82 24 -107 79 -107c54 0 78 25 78 107c0 83 -24 108 -78 108c-55 0 -79 -26 -79 -108z" />
    <glyph glyph-name="percent.OP" horiz-adv-x="1050" 
d="M408 335c0 -113 -56 -177 -182 -177c-125 0 -182 64 -182 177s57 177 182 177c126 0 182 -64 182 -177zM147 335c0 -61 23 -86 79 -86s80 25 80 86c0 60 -24 86 -80 86s-79 -26 -79 -86zM642 165c0 113 56 177 182 177c125 0 182 -64 182 -177s-57 -177 -182 -177
c-126 0 -182 64 -182 177zM903 165c0 61 -23 86 -79 86s-80 -25 -80 -86c0 -60 24 -86 80 -86s79 26 79 86zM725 459l-308 -435c-12 -17 -23 -24 -42 -24h-34c-18 0 -31 20 -16 41l308 435c12 17 23 24 42 24h34c18 0 31 -20 16 -41z" />
    <glyph glyph-name="perthousand.OP" horiz-adv-x="1454" 
d="M408 335c0 -113 -56 -177 -182 -177c-125 0 -182 64 -182 177s57 177 182 177c126 0 182 -64 182 -177zM147 335c0 -61 23 -86 79 -86s80 25 80 86c0 60 -24 86 -80 86s-79 -26 -79 -86zM642 165c0 113 56 177 182 177c125 0 182 -64 182 -177s-57 -177 -182 -177
c-126 0 -182 64 -182 177zM903 165c0 61 -23 86 -79 86s-80 -25 -80 -86c0 -60 24 -86 80 -86s79 26 79 86zM725 459l-308 -435c-12 -17 -23 -24 -42 -24h-34c-18 0 -31 20 -16 41l308 435c12 17 23 24 42 24h34c18 0 31 -20 16 -41zM1046 165c0 113 56 177 182 177
c125 0 182 -64 182 -177s-57 -177 -182 -177c-126 0 -182 64 -182 177zM1307 165c0 61 -23 86 -79 86s-80 -25 -80 -86c0 -60 24 -86 80 -86s79 26 79 86z" />
    <glyph glyph-name="minus" unicode="&#x2212;" 
d="M484 393c26 0 40 -13 40 -38v-30c0 -25 -14 -38 -40 -38h-368c-26 0 -40 13 -40 38v30c0 25 14 38 40 38h368z" />
    <glyph glyph-name="multiply" unicode="&#xd7;" 
d="M177 538l123 -123l123 123c18 18 38 19 55 1l21 -21c18 -17 17 -37 -1 -55l-123 -123l123 -123c18 -18 19 -38 1 -55l-21 -21c-17 -18 -37 -17 -55 1l-123 123l-123 -123c-18 -18 -38 -19 -55 -1l-21 21c-18 17 -17 37 1 55l123 123l-123 123c-18 18 -19 38 -1 55l21 21
c17 18 37 17 55 -1z" />
    <glyph glyph-name="notequal" unicode="&#x2260;" 
d="M277 199l-39 -97c-8 -21 -22 -32 -44 -32h-26c-23 0 -35 23 -23 44l44 85h-73c-26 0 -40 13 -40 38v30c0 25 14 38 40 38h368c26 0 40 -13 40 -38v-30c0 -25 -14 -38 -40 -38h-207zM323 481l39 97c8 21 22 32 44 32h26c23 0 35 -23 23 -44l-44 -85h73c26 0 40 -13 40 -38
v-30c0 -25 -14 -38 -40 -38h-368c-26 0 -40 13 -40 38v30c0 25 14 38 40 38h207z" />
    <glyph glyph-name="plus.cap" unicode="&#xe591;" horiz-adv-x="880" 
d="M424 749h33c24 0 36 -13 36 -38v-283h284c25 0 38 -13 38 -38v-31c0 -24 -13 -37 -38 -37h-284v-284c0 -25 -12 -38 -36 -38h-33c-24 0 -37 13 -37 38v284h-285c-24 0 -37 13 -37 37v31c0 25 13 38 37 38h285v283c0 25 13 38 37 38z" />
    <glyph glyph-name="minus.cap" unicode="&#xe592;" horiz-adv-x="880" 
d="M815 390v-31c0 -24 -13 -37 -38 -37h-675c-24 0 -37 13 -37 37v31c0 25 13 38 37 38h675c25 0 38 -13 38 -38z" />
    <glyph glyph-name="multiply.cap" unicode="&#xe593;" horiz-adv-x="880" 
d="M81 90l284 285l-284 285c-18 16 -19 35 -2 52l24 24c17 18 36 17 53 -1l284 -284l284 284c17 18 36 19 53 1l24 -24c17 -17 16 -36 -2 -52l-284 -285l284 -285c18 -16 19 -35 2 -52l-24 -24c-17 -18 -36 -17 -53 1l-284 284l-284 -284c-17 -18 -36 -19 -53 -1l-24 24
c-17 17 -16 36 2 52z" />
    <glyph glyph-name="divide.cap" unicode="&#xe594;" horiz-adv-x="880" 
d="M367 61c0 40 33 73 73 73s73 -33 73 -73s-33 -73 -73 -73s-73 33 -73 73zM367 689c0 40 33 73 73 73s73 -33 73 -73s-33 -73 -73 -73s-73 33 -73 73zM815 390v-31c0 -24 -13 -37 -38 -37h-675c-24 0 -37 13 -37 37v31c0 25 13 38 37 38h675c25 0 38 -13 38 -38z" />
    <glyph glyph-name="equal.cap" unicode="&#xe595;" horiz-adv-x="880" 
d="M815 510v-31c0 -24 -13 -37 -38 -37h-675c-24 0 -37 13 -37 37v31c0 25 13 38 37 38h675c25 0 38 -13 38 -38zM815 270v-31c0 -24 -13 -37 -38 -37h-675c-24 0 -37 13 -37 37v31c0 25 13 38 37 38h675c25 0 38 -13 38 -38z" />
    <glyph glyph-name="less.cap" unicode="&#xe596;" horiz-adv-x="880" 
d="M65 366v18c0 28 10 41 36 53l671 306c21 10 43 1 43 -22v-43c0 -24 -12 -36 -33 -45l-583 -258l583 -258c21 -9 33 -21 33 -45v-43c0 -23 -22 -32 -43 -22l-671 306c-26 12 -36 25 -36 53z" />
    <glyph glyph-name="greater.cap" unicode="&#xe597;" horiz-adv-x="880" 
d="M815 384v-18c0 -28 -10 -41 -36 -53l-671 -306c-21 -10 -43 -1 -43 22v43c0 24 12 36 33 45l583 258l-583 258c-21 9 -33 21 -33 45v43c0 23 22 32 43 22l671 -306c26 -12 36 -25 36 -53z" />
    <glyph glyph-name="infinity" unicode="&#x221e;" horiz-adv-x="800" 
d="M343 357c-26 34 -65 72 -120 75c-43 1 -76 -19 -76 -75s33 -76 76 -75c55 3 94 41 120 75zM400 279c-44 -51 -109 -90 -183 -90c-107 0 -176 56 -176 168s69 168 176 168c74 0 139 -40 183 -91c44 51 109 91 183 91c107 0 176 -56 176 -168s-69 -168 -176 -168
c-74 0 -139 39 -183 90zM457 357c26 -34 65 -72 120 -75c43 -1 76 19 76 75s-33 76 -76 75c-55 -3 -94 -41 -120 -75z" />
    <glyph glyph-name="partialdiff" unicode="&#x2202;" horiz-adv-x="526" 
d="M218 658c-59 0 -94 -9 -120 -17c-27 -9 -41 8 -41 27v38c0 17 6 30 27 36c29 9 75 20 140 20c218 0 261 -180 261 -512c0 -154 -41 -262 -222 -262c-179 0 -222 108 -222 262s44 262 209 262c50 0 93 -12 121 -36c-12 133 -69 182 -153 182zM263 418
c-95 0 -109 -61 -109 -168s14 -168 109 -168c94 0 109 61 109 168s-15 168 -109 168z" />
    <glyph glyph-name="interrobangdown.cap" horiz-adv-x="475" 
d="M409 108c29 7 43 -11 43 -32v-32c0 -19 -5 -33 -31 -40c-32 -9 -85 -16 -136 -16c-213 0 -254 97 -254 209c0 132 88 169 182 203c16 6 28 10 37 15l6 96c1 19 10 29 28 29h24c18 0 27 -10 28 -29l25 -412c20 3 37 6 48 9zM369 689c0 -40 -33 -73 -73 -73s-73 33 -73 73
s33 73 73 73s73 -33 73 -73zM144 200c0 -53 19 -89 86 -101l14 223c-58 -25 -100 -47 -100 -122z" />
    <glyph glyph-name="reversequoteleft" unicode="&#x201b;" horiz-adv-x="166" 
d="M22 750h51c26 0 41 -13 46 -41l29 -176c3 -21 -9 -33 -26 -33h-19c-22 0 -34 8 -44 32l-68 168c-10 26 2 50 31 50z" />
    <glyph glyph-name="reversequotedblleft" unicode="&#x201f;" horiz-adv-x="336" 
d="M22 750h51c26 0 41 -13 46 -41l29 -176c3 -21 -9 -33 -26 -33h-19c-22 0 -34 8 -44 32l-68 168c-10 26 2 50 31 50zM192 750h51c26 0 41 -13 46 -41l29 -176c3 -21 -9 -33 -26 -33h-19c-22 0 -34 8 -44 32l-68 168c-10 26 2 50 31 50z" />
    <glyph glyph-name="guilsinglleft.cap" unicode="&#xe451;" horiz-adv-x="289" 
d="M47 357v36c0 22 4 32 27 50l123 102c17 14 40 5 40 -14v-35c0 -23 -6 -31 -23 -47l-79 -74l79 -74c17 -16 23 -24 23 -47v-35c0 -19 -23 -28 -40 -14l-123 102c-23 18 -27 28 -27 50z" />
    <glyph glyph-name="guilsinglright.cap" unicode="&#xe452;" horiz-adv-x="289" 
d="M242 393v-36c0 -22 -4 -32 -27 -50l-123 -102c-17 -14 -40 -5 -40 14v35c0 23 6 31 23 47l79 74l-79 74c-17 16 -23 24 -23 47v35c0 19 23 28 40 14l123 -102c23 -18 27 -28 27 -50z" />
    <glyph glyph-name="guillemotleft.cap" unicode="&#xe453;" horiz-adv-x="479" 
d="M47 357v36c0 22 4 32 27 50l123 102c17 14 40 5 40 -14v-35c0 -23 -6 -31 -23 -47l-79 -74l79 -74c17 -16 23 -24 23 -47v-35c0 -19 -23 -28 -40 -14l-123 102c-23 18 -27 28 -27 50zM237 357v36c0 22 4 32 27 50l123 102c17 14 40 5 40 -14v-35c0 -23 -6 -31 -23 -47
l-79 -74l79 -74c17 -16 23 -24 23 -47v-35c0 -19 -23 -28 -40 -14l-123 102c-23 18 -27 28 -27 50z" />
    <glyph glyph-name="guillemotright.cap" unicode="&#xe454;" horiz-adv-x="479" 
d="M432 357c0 -22 -4 -32 -27 -50l-123 -102c-17 -14 -40 -5 -40 14v35c0 23 6 31 23 47l79 74l-79 74c-17 16 -23 24 -23 47v35c0 19 23 28 40 14l123 -102c23 -18 27 -28 27 -50v-36zM242 357c0 -22 -4 -32 -27 -50l-123 -102c-17 -14 -40 -5 -40 14v35c0 23 6 31 23 47
l79 74l-79 74c-17 16 -23 24 -23 47v35c0 19 23 28 40 14l123 -102c23 -18 27 -28 27 -50v-36z" />
    <glyph glyph-name="doublebar" unicode="&#x2016;" horiz-adv-x="428" 
d="M77 -160v920c0 26 13 40 38 40h36c25 0 38 -14 38 -40v-920c0 -26 -13 -40 -38 -40h-36c-25 0 -38 14 -38 40zM239 -160v920c0 26 13 40 38 40h36c25 0 38 -14 38 -40v-920c0 -26 -13 -40 -38 -40h-36c-25 0 -38 14 -38 40z" />
    <glyph glyph-name="brokenbar" unicode="&#xa6;" horiz-adv-x="266" 
d="M77 365v395c0 26 13 40 38 40h36c25 0 38 -14 38 -40v-395c0 -26 -13 -40 -38 -40h-36c-25 0 -38 14 -38 40zM77 -160v395c0 26 13 40 38 40h36c25 0 38 -14 38 -40v-395c0 -26 -13 -40 -38 -40h-36c-25 0 -38 14 -38 40z" />
    <glyph glyph-name="enspace" unicode="&#x2002;" horiz-adv-x="500" 
 />
    <glyph glyph-name="emspace" unicode="&#x2003;" horiz-adv-x="1000" 
 />
    <glyph glyph-name="threeperemspace" unicode="&#x2004;" horiz-adv-x="333" 
 />
    <glyph glyph-name="fourperemspace" unicode="&#x2005;" horiz-adv-x="250" 
 />
    <glyph glyph-name="sixperemspace" unicode="&#x2006;" horiz-adv-x="167" 
 />
    <glyph glyph-name="figurespace" unicode="&#x2007;" 
 />
    <glyph glyph-name="punctuationspace" unicode="&#x2008;" horiz-adv-x="214" 
 />
    <glyph glyph-name="thinspace" unicode="&#x2009;" horiz-adv-x="100" 
 />
    <glyph glyph-name="hairspace" unicode="&#x200a;" horiz-adv-x="50" 
 />
    <glyph glyph-name="zerowidthspace" unicode="&#x200b;" horiz-adv-x="0" 
 />
    <glyph glyph-name="uni00AD" unicode="&#xad;" horiz-adv-x="315" 
d="M249 261h-183c-25 0 -38 14 -38 40v21c0 26 13 40 38 40h183c25 0 38 -14 38 -40v-21c0 -26 -13 -40 -38 -40z" />
    <glyph glyph-name="onethirdemdash" unicode="&#xe471;" horiz-adv-x="333" 
d="M252 261h-171c-25 0 -38 14 -38 40v21c0 26 13 40 38 40h171c25 0 38 -14 38 -40v-21c0 -26 -13 -40 -38 -40z" />
    <glyph glyph-name="threequarteremdash" unicode="&#xe472;" horiz-adv-x="750" 
d="M669 261h-588c-25 0 -38 14 -38 40v21c0 26 13 40 38 40h588c25 0 38 -14 38 -40v-21c0 -26 -13 -40 -38 -40z" />
    <glyph glyph-name="figuredash" unicode="&#x2012;" 
d="M519 261h-438c-25 0 -38 14 -38 40v21c0 26 13 40 38 40h438c25 0 38 -14 38 -40v-21c0 -26 -13 -40 -38 -40z" />
    <glyph glyph-name="periodcentered.cap" unicode="&#xe481;" horiz-adv-x="220" 
d="M37 375c0 40 33 73 73 73s73 -33 73 -73s-33 -73 -73 -73s-73 33 -73 73z" />
    <glyph glyph-name="hyphen.cap" unicode="&#xe482;" horiz-adv-x="315" 
d="M249 324h-183c-25 0 -38 14 -38 40v21c0 26 13 40 38 40h183c25 0 38 -14 38 -40v-21c0 -26 -13 -40 -38 -40z" />
    <glyph glyph-name="onethirdemdash.cap" unicode="&#xe483;" horiz-adv-x="333" 
d="M252 324h-171c-25 0 -38 14 -38 40v21c0 26 13 40 38 40h171c25 0 38 -14 38 -40v-21c0 -26 -13 -40 -38 -40z" />
    <glyph glyph-name="endash.cap" unicode="&#xe484;" horiz-adv-x="500" 
d="M419 324h-338c-25 0 -38 14 -38 40v21c0 26 13 40 38 40h338c25 0 38 -14 38 -40v-21c0 -26 -13 -40 -38 -40z" />
    <glyph glyph-name="threequarteremdash.cap" unicode="&#xe485;" horiz-adv-x="750" 
d="M669 324h-588c-25 0 -38 14 -38 40v21c0 26 13 40 38 40h588c25 0 38 -14 38 -40v-21c0 -26 -13 -40 -38 -40z" />
    <glyph glyph-name="emdash.cap" unicode="&#xe486;" horiz-adv-x="1000" 
d="M919 324h-838c-25 0 -38 14 -38 40v21c0 26 13 40 38 40h838c25 0 38 -14 38 -40v-21c0 -26 -13 -40 -38 -40z" />
    <glyph glyph-name="figuredash.cap" unicode="&#xe487;" 
d="M519 324h-438c-25 0 -38 14 -38 40v21c0 26 13 40 38 40h438c25 0 38 -14 38 -40v-21c0 -26 -13 -40 -38 -40z" />
    <glyph glyph-name="anglebracketleft" unicode="&#x3008;" horiz-adv-x="318" 
d="M40 305c0 7 1 11 2 16l123 459c8 28 21 36 47 36h29c29 0 42 -20 34 -49l-121 -462l121 -462c8 -29 -5 -49 -34 -49h-29c-26 0 -39 8 -47 36l-123 459c-1 5 -2 9 -2 16z" />
    <glyph glyph-name="anglebracketright" unicode="&#x3009;" horiz-adv-x="318" 
d="M278 305c0 -7 -1 -11 -2 -16l-123 -459c-8 -28 -21 -36 -47 -36h-29c-29 0 -42 20 -34 49l121 462l-121 462c-8 29 5 49 34 49h29c26 0 39 -8 47 -36l123 -459c1 -5 2 -9 2 -16z" />
    <glyph glyph-name="parenleft.cap" unicode="&#xe491;" horiz-adv-x="318" 
d="M50 375c0 251 67 402 109 485c10 19 22 26 39 26h51c21 0 31 -15 18 -39c-48 -88 -105 -247 -105 -472s57 -384 105 -472c13 -24 3 -39 -18 -39h-51c-17 0 -29 7 -39 26c-42 83 -109 234 -109 485z" />
    <glyph glyph-name="parenright.cap" unicode="&#xe492;" horiz-adv-x="318" 
d="M268 375c0 -251 -67 -402 -109 -485c-10 -19 -22 -26 -39 -26h-51c-21 0 -31 15 -18 39c48 88 105 247 105 472s-57 384 -105 472c-13 24 -3 39 18 39h51c17 0 29 -7 39 -26c42 -83 109 -234 109 -485z" />
    <glyph glyph-name="bracketleft.cap" unicode="&#xe493;" horiz-adv-x="268" 
d="M65 846c0 26 13 40 38 40h97c25 0 38 -14 38 -40v-24c0 -26 -13 -40 -38 -40h-26v-814h26c25 0 38 -14 38 -40v-24c0 -26 -13 -40 -38 -40h-97c-25 0 -38 14 -38 40v942z" />
    <glyph glyph-name="bracketright.cap" unicode="&#xe494;" horiz-adv-x="268" 
d="M203 -96c0 -26 -13 -40 -38 -40h-97c-25 0 -38 14 -38 40v24c0 26 13 40 38 40h26v814h-26c-25 0 -38 14 -38 40v24c0 26 13 40 38 40h97c25 0 38 -14 38 -40v-942z" />
    <glyph glyph-name="braceleft.cap" unicode="&#xe495;" horiz-adv-x="248" 
d="M18 360v30c0 22 8 36 27 39c18 3 26 15 25 37l-18 311c-4 77 48 109 118 109h10c25 0 38 -14 38 -40v-26c0 -21 -8 -34 -25 -38c-21 -5 -34 -12 -32 -39l18 -292c2 -31 -11 -59 -34 -76c23 -17 36 -45 34 -76l-18 -292c-2 -27 11 -34 32 -39c17 -4 25 -17 25 -38v-26
c0 -26 -13 -40 -38 -40h-10c-70 0 -122 32 -118 109l18 311c1 22 -7 34 -25 37c-19 3 -27 17 -27 39z" />
    <glyph glyph-name="braceright.cap" unicode="&#xe496;" horiz-adv-x="248" 
d="M230 390v-30c0 -22 -8 -36 -27 -39c-18 -3 -26 -15 -25 -37l18 -311c4 -77 -48 -109 -118 -109h-10c-25 0 -38 14 -38 40v26c0 21 8 34 25 38c21 5 34 12 32 39l-18 292c-2 31 11 59 34 76c-23 17 -36 45 -34 76l18 292c2 27 -11 34 -32 39c-17 4 -25 17 -25 38v26
c0 26 13 40 38 40h10c70 0 122 -32 118 -109l-18 -311c-1 -22 7 -34 25 -37c19 -3 27 -17 27 -39z" />
    <glyph glyph-name="anglebracketleft.cap" unicode="&#xe497;" horiz-adv-x="318" 
d="M40 375c0 7 1 11 2 16l123 459c8 28 21 36 47 36h29c29 0 42 -20 34 -49l-121 -462l121 -462c8 -29 -5 -49 -34 -49h-29c-26 0 -39 8 -47 36l-123 459c-1 5 -2 9 -2 16z" />
    <glyph glyph-name="anglebracketright.cap" unicode="&#xe498;" horiz-adv-x="318" 
d="M278 375c0 -7 -1 -11 -2 -16l-123 -459c-8 -28 -21 -36 -47 -36h-29c-29 0 -42 20 -34 49l121 462l-121 462c-8 29 5 49 34 49h29c26 0 39 -8 47 -36l123 -459c1 -5 2 -9 2 -16z" />
    <glyph glyph-name="dagger" unicode="&#x2020;" horiz-adv-x="500" 
d="M286 250h-73c-27 0 -42 16 -38 42l29 202l-122 -18c-26 -4 -42 11 -42 38v51c0 26 16 42 42 38l122 -18l-18 123c-4 26 11 42 38 42h51c26 0 42 -16 38 -42l-18 -123l122 18c26 4 42 -12 42 -38v-51c0 -27 -16 -42 -42 -38l-122 18l29 -202c4 -26 -11 -42 -38 -42z" />
    <glyph glyph-name="daggerdbl" unicode="&#x2021;" horiz-adv-x="500" 
d="M295 335l122 18c26 4 42 -12 42 -38v-51c0 -27 -16 -42 -42 -38l-122 18l29 -202c4 -26 -11 -42 -38 -42h-73c-27 0 -42 16 -38 42l29 202l-122 -18c-26 -4 -42 11 -42 38v51c0 26 16 42 42 38l122 -18l-10 64c-1 6 -2 12 -2 16s1 10 2 16l10 63l-122 -18
c-26 -4 -42 11 -42 38v51c0 26 16 42 42 38l122 -18l-18 123c-4 26 11 42 38 42h51c26 0 42 -16 38 -42l-18 -123l122 18c26 4 42 -12 42 -38v-51c0 -27 -16 -42 -42 -38l-122 18l10 -63c1 -6 2 -12 2 -16s-1 -10 -2 -16z" />
    <glyph glyph-name="paragraph" unicode="&#xb6;" horiz-adv-x="626" 
d="M395 281v-236c0 -29 -14 -45 -43 -45h-26c-29 0 -43 16 -43 45v236c-189 2 -255 112 -255 234c0 123 67 235 260 235h234c29 0 43 -16 43 -45v-660c0 -29 -14 -45 -43 -45h-26c-29 0 -43 16 -43 45v236h-58zM150 515c0 -56 21 -132 133 -132v264
c-112 0 -133 -76 -133 -132zM453 383v264h-58v-264h58z" />
    <glyph glyph-name="asciitilde" unicode="~" horiz-adv-x="490" 
d="M344 252c-101 0 -124 73 -190 73c-44 0 -58 -29 -83 -29c-16 0 -26 11 -26 24v50c0 19 9 32 26 40c28 13 50 17 75 17c101 0 124 -73 190 -73c44 0 58 29 83 29c16 0 26 -11 26 -24v-50c0 -19 -9 -32 -26 -40c-28 -13 -50 -17 -75 -17z" />
    <glyph glyph-name="circumflex" unicode="&#x2c6;" horiz-adv-x="526" 
d="M348 573l-85 95l-85 -95c-14 -16 -24 -23 -47 -23h-39c-17 0 -27 19 -13 37l109 136c18 23 28 27 50 27h50c22 0 32 -4 50 -27l109 -136c14 -18 4 -37 -13 -37h-39c-23 0 -33 7 -47 23z" />
    <glyph glyph-name="tilde" unicode="&#x2dc;" horiz-adv-x="526" 
d="M343 653c28 0 39 11 45 26c7 18 17 28 36 28h15c19 0 28 -14 27 -32c-3 -38 -25 -108 -122 -108c-88 0 -108 74 -161 74c-28 0 -39 -11 -45 -26c-7 -18 -17 -28 -36 -28h-15c-19 0 -28 14 -27 32c3 38 25 108 122 108c88 0 108 -74 161 -74z" />
    <glyph glyph-name="breve" unicode="&#x2d8;" horiz-adv-x="526" 
d="M263 639c76 0 98 32 103 84c2 18 9 27 29 27h27c18 0 28 -12 27 -29c-6 -103 -50 -171 -186 -171s-180 68 -186 171c-1 17 9 29 27 29h27c20 0 27 -9 29 -27c5 -52 27 -84 103 -84z" />
    <glyph glyph-name="invertedbreve" unicode="&#xe411;" horiz-adv-x="526" 
d="M263 661c-76 0 -98 -32 -103 -84c-2 -18 -9 -27 -29 -27h-27c-18 0 -28 12 -27 29c6 103 50 171 186 171s180 -68 186 -171c1 -17 -9 -29 -27 -29h-27c-20 0 -27 9 -29 27c-5 52 -27 84 -103 84z" />
    <glyph glyph-name="doublegrave" unicode="&#xe412;" horiz-adv-x="526" 
d="M68 750h63c24 0 39 -12 46 -34l41 -133c6 -20 -3 -33 -23 -33h-34c-19 0 -32 8 -45 30l-71 124c-14 24 -3 46 23 46zM238 750h63c24 0 39 -12 46 -34l41 -133c6 -20 -3 -33 -23 -33h-34c-19 0 -32 8 -45 30l-71 124c-14 24 -3 46 23 46z" />
    <glyph glyph-name="caron" unicode="&#x2c7;" horiz-adv-x="526" 
d="M178 727l85 -95l85 95c14 16 24 23 47 23h39c17 0 27 -19 13 -37l-109 -136c-18 -23 -28 -27 -50 -27h-50c-22 0 -32 4 -50 27l-109 136c-14 18 -4 37 13 37h39c23 0 33 -7 47 -23z" />
    <glyph glyph-name="caronSlovak" unicode="&#xe413;" horiz-adv-x="526" 
d="M362 750h21c24 0 36 -16 30 -40l-37 -130c-5 -20 -14 -30 -34 -30h-4c-19 0 -26 12 -24 30l12 136c2 23 14 34 36 34z" />
    <glyph glyph-name="commaaccent" unicode="&#xe414;" horiz-adv-x="526" 
d="M242 -50h50c29 0 41 -24 31 -50l-44 -118c-9 -24 -22 -32 -44 -32h-31c-17 0 -29 12 -26 33l18 126c4 29 20 41 46 41z" />
    <glyph glyph-name="commaaccent" unicode="&#xf6c3;" horiz-adv-x="526" 
d="M242 -50h50c29 0 41 -24 31 -50l-44 -118c-9 -24 -22 -32 -44 -32h-31c-17 0 -29 12 -26 33l18 126c4 29 20 41 46 41z" />
    <glyph glyph-name="altcedilla" unicode="&#xe416;" horiz-adv-x="526" 
d="M241 -46c84 -9 131 -53 131 -107c0 -64 -49 -97 -119 -97c-30 0 -52 4 -72 10c-19 6 -25 16 -25 31v24c0 16 10 26 28 21c14 -4 32 -9 54 -9c33 0 54 8 54 30c0 24 -19 36 -58 45c-16 3 -23 12 -21 26l1 8c2 14 11 20 27 18z" />
    <glyph glyph-name="ampersand.alt" horiz-adv-x="729" 
d="M342 762c132 0 170 -64 170 -140c0 -12 -1 -29 -5 -45c-4 -17 -15 -31 -35 -31h-49c-16 0 -27 12 -22 29c2 8 5 17 5 30c0 31 -12 53 -63 53c-65 0 -79 -50 -79 -95c0 -111 64 -318 227 -415c42 34 70 84 70 150c0 59 -28 80 -65 80c-9 0 -17 0 -30 -3
c-18 -4 -33 1 -33 24v44c0 22 15 32 35 35c17 3 33 4 47 4c109 0 160 -71 160 -184c0 -79 -27 -142 -79 -195c21 -5 52 -10 65 -10c25 0 37 -10 37 -34v-31c0 -26 -13 -40 -38 -40c-45 0 -111 15 -159 37c-50 -24 -112 -37 -175 -37c-174 0 -290 63 -290 241
c0 100 53 176 129 211c-10 39 -15 82 -15 120c0 88 43 202 192 202zM322 90c19 0 38 3 58 8c-82 60 -143 144 -179 233c-31 -21 -49 -54 -49 -101c0 -96 64 -140 170 -140z" />
    <glyph glyph-name="uni0323" unicode="&#x323;" horiz-adv-x="526" 
d="M336 -148c0 -40 -33 -73 -73 -73s-73 33 -73 73s33 73 73 73s73 -33 73 -73z" />
    <glyph glyph-name="uni0329" unicode="&#x329;" horiz-adv-x="526" 
d="M224 -212v124c0 25 13 38 37 38h4c24 0 37 -13 37 -38v-124c0 -25 -13 -38 -37 -38h-4c-24 0 -37 13 -37 38z" />
    <glyph glyph-name="questiondown.cap" unicode="&#xe444;" horiz-adv-x="475" 
d="M369 689c0 -40 -33 -73 -73 -73s-73 33 -73 73s33 73 73 73s73 -33 73 -73zM293 94c48 0 94 9 116 14c29 7 43 -11 43 -32v-32c0 -19 -5 -33 -31 -40c-32 -9 -85 -16 -136 -16c-213 0 -254 97 -254 209c0 132 88 169 182 203c67 24 62 71 62 115c0 16 9 25 24 25h25
c14 0 23 -6 27 -21c4 -16 8 -41 8 -61c0 -49 -15 -94 -83 -123c-74 -31 -132 -47 -132 -135c0 -67 31 -106 149 -106z" />
    <glyph glyph-name="registered.cap" horiz-adv-x="792" 
d="M395 -12c-181 0 -334 87 -334 324c0 238 153 325 334 325c183 0 336 -87 336 -325c0 -237 -153 -324 -336 -324zM397 64c138 0 255 68 255 248c0 181 -117 249 -255 249c-140 0 -257 -68 -257 -249c0 -180 117 -248 257 -248zM441 365c0 22 -11 37 -33 37h-68v-74h68
c28 0 33 21 33 37zM282 484h128c91 0 122 -51 122 -116c0 -38 -12 -78 -49 -99l58 -89c12 -17 6 -38 -14 -38h-52c-23 0 -32 9 -42 30l-35 80h-58v-78c0 -22 -10 -32 -32 -32h-26c-23 0 -33 10 -33 32v278c0 22 10 32 33 32z" />
    <glyph glyph-name="registered" unicode="&#xae;" horiz-adv-x="328" 
d="M23 625c0 115 67 137 141 137s141 -22 141 -137s-67 -137 -141 -137s-141 22 -141 137zM201 607l24 -41c5 -8 2 -17 -7 -17h-18c-9 0 -13 4 -17 13l-17 39h-25v-38c0 -9 -4 -14 -13 -14h-11c-9 0 -13 5 -13 14v125c0 9 4 13 13 13h56c40 0 51 -21 51 -47
c0 -22 -6 -36 -23 -47zM184 652c0 8 -4 14 -15 14h-28v-31h28c12 0 15 8 15 17zM266 625c0 87 -44 101 -102 101s-102 -14 -102 -101s44 -101 102 -101s102 14 102 101z" />
    <glyph glyph-name="Agrave" unicode="&#xc0;" horiz-adv-x="640" 
d="M96 0h-44c-25 0 -41 22 -31 52l227 667c10 28 22 40 50 40h44c28 0 40 -12 50 -40l227 -667c10 -30 -6 -52 -31 -52h-44c-30 0 -42 12 -51 41l-43 142h-260l-43 -142c-9 -29 -21 -41 -51 -41zM422 275l-102 335l-102 -335h204zM210 905h63c24 0 40 -6 53 -26l33 -50
c12 -17 3 -34 -17 -34h-38c-19 0 -32 3 -51 19l-55 47c-21 18 -14 44 12 44z" />
    <glyph glyph-name="Aacute" unicode="&#xc1;" horiz-adv-x="640" 
d="M493 41l-43 142h-260l-43 -142c-9 -29 -21 -41 -51 -41h-44c-25 0 -41 22 -31 52l227 667c10 28 22 40 50 40h44c28 0 40 -12 50 -40l227 -667c10 -30 -6 -52 -31 -52h-44c-30 0 -42 12 -51 41zM320 610l-102 -335h204zM367 905h63c26 0 33 -26 12 -44l-55 -47
c-19 -16 -32 -19 -51 -19h-38c-20 0 -29 17 -17 34l33 50c13 20 29 26 53 26z" />
    <glyph glyph-name="Acircumflex" unicode="&#xc2;" horiz-adv-x="640" 
d="M96 0h-44c-25 0 -41 22 -31 52l227 667c10 28 22 40 50 40h44c28 0 40 -12 50 -40l227 -667c10 -30 -6 -52 -31 -52h-44c-30 0 -42 12 -51 41l-43 142h-260l-43 -142c-9 -29 -21 -41 -51 -41zM422 275l-102 335l-102 -335h204zM377 808l-57 31l-57 -31
c-19 -10 -29 -13 -55 -13h-51c-17 0 -27 23 -7 37l74 54c19 14 35 19 57 19h78c22 0 38 -5 57 -19l74 -54c20 -14 10 -37 -7 -37h-51c-26 0 -36 3 -55 13z" />
    <glyph glyph-name="Atilde" unicode="&#xc3;" horiz-adv-x="640" 
d="M96 0h-44c-25 0 -41 22 -31 52l227 667c10 28 22 40 50 40h44c28 0 40 -12 50 -40l227 -667c10 -30 -6 -52 -31 -52h-44c-30 0 -42 12 -51 41l-43 142h-260l-43 -142c-9 -29 -21 -41 -51 -41zM402 860c55 0 30 45 70 45h17c18 0 28 -11 28 -29c0 -42 -31 -99 -113 -99
c-84 0 -115 63 -166 63c-55 0 -30 -45 -70 -45h-17c-18 0 -28 11 -28 29c0 42 31 99 113 99c84 0 115 -63 166 -63zM422 275l-102 335l-102 -335h204z" />
    <glyph glyph-name="Adieresis" unicode="&#xc4;" horiz-adv-x="640" 
d="M96 0h-44c-25 0 -41 22 -31 52l227 667c10 28 22 40 50 40h44c28 0 40 -12 50 -40l227 -667c10 -30 -6 -52 -31 -52h-44c-30 0 -42 12 -51 41l-43 142h-260l-43 -142c-9 -29 -21 -41 -51 -41zM422 275l-102 335l-102 -335h204zM141 850c0 40 33 73 73 73s73 -33 73 -73
s-33 -73 -73 -73s-73 33 -73 73zM353 850c0 40 33 73 73 73s73 -33 73 -73s-33 -73 -73 -73s-73 33 -73 73z" />
    <glyph glyph-name="Aring" unicode="&#xc5;" horiz-adv-x="640" 
d="M96 0h-44c-25 0 -41 22 -31 52l227 667c10 28 22 40 50 40h44c28 0 40 -12 50 -40l227 -667c10 -30 -6 -52 -31 -52h-44c-30 0 -42 12 -51 41l-43 142h-260l-43 -142c-9 -29 -21 -41 -51 -41zM422 275l-102 335l-102 -335h204zM220 850c0 63 44 82 100 82
s100 -19 100 -82s-44 -82 -100 -82s-100 19 -100 82zM354 850c0 11 -11 17 -34 17s-34 -6 -34 -17s11 -17 34 -17s34 6 34 17z" />
    <glyph glyph-name="AE" unicode="&#xc6;" horiz-adv-x="944" 
d="M421 750h452c29 0 43 -14 43 -43v-17c0 -29 -14 -43 -43 -43h-341l32 -207h277c28 0 43 -14 43 -43v-17c0 -29 -15 -43 -43 -43h-261l36 -234h257c29 0 43 -14 43 -43v-17c0 -29 -14 -43 -43 -43h-321c-31 0 -45 13 -49 42l-20 141h-268l-71 -149
c-12 -25 -27 -34 -56 -34h-44c-25 0 -38 20 -25 45l341 664c14 28 31 41 61 41zM422 617l-163 -342h210z" />
    <glyph glyph-name="Ccedilla" unicode="&#xc7;" horiz-adv-x="587" 
d="M166 375c0 -185 58 -282 201 -282c58 0 99 9 131 20c25 8 38 -5 38 -25v-40c0 -19 -10 -33 -36 -41c-25 -8 -69 -19 -140 -19l2 -41c61 -16 94 -54 94 -100c0 -64 -49 -97 -119 -97c-30 0 -52 4 -72 10c-19 6 -25 16 -25 31v24c0 16 10 26 28 21c14 -4 32 -9 54 -9
c33 0 54 8 54 30c0 24 -19 36 -58 45c-16 3 -23 12 -21 26l7 64c-180 22 -253 159 -253 383c0 246 88 387 309 387c71 0 115 -11 140 -19c26 -8 36 -22 36 -41v-40c0 -20 -13 -33 -38 -25c-32 11 -73 20 -131 20c-143 0 -201 -97 -201 -282z" />
    <glyph glyph-name="Egrave" unicode="&#xc8;" horiz-adv-x="565" 
d="M173 647v-207h269c28 0 43 -14 43 -43v-17c0 -29 -15 -43 -43 -43h-269v-234h301c29 0 43 -14 43 -43v-17c0 -29 -14 -43 -43 -43h-370c-29 0 -43 16 -43 45v660c0 29 14 45 43 45h370c29 0 43 -14 43 -43v-17c0 -29 -14 -43 -43 -43h-301zM187 905h63c24 0 40 -6 53 -26
l33 -50c12 -17 3 -34 -17 -34h-38c-19 0 -32 3 -51 19l-55 47c-21 18 -14 44 12 44z" />
    <glyph glyph-name="Eacute" unicode="&#xc9;" horiz-adv-x="565" 
d="M173 647v-207h269c28 0 43 -14 43 -43v-17c0 -29 -15 -43 -43 -43h-269v-234h301c29 0 43 -14 43 -43v-17c0 -29 -14 -43 -43 -43h-370c-29 0 -43 16 -43 45v660c0 29 14 45 43 45h370c29 0 43 -14 43 -43v-17c0 -29 -14 -43 -43 -43h-301zM344 905h63
c26 0 33 -26 12 -44l-55 -47c-19 -16 -32 -19 -51 -19h-38c-20 0 -29 17 -17 34l33 50c13 20 29 26 53 26z" />
    <glyph glyph-name="Ecircumflex" unicode="&#xca;" horiz-adv-x="565" 
d="M173 647v-207h269c28 0 43 -14 43 -43v-17c0 -29 -15 -43 -43 -43h-269v-234h301c29 0 43 -14 43 -43v-17c0 -29 -14 -43 -43 -43h-370c-29 0 -43 16 -43 45v660c0 29 14 45 43 45h370c29 0 43 -14 43 -43v-17c0 -29 -14 -43 -43 -43h-301zM354 808l-57 31l-57 -31
c-19 -10 -29 -13 -55 -13h-51c-17 0 -27 23 -7 37l74 54c19 14 35 19 57 19h78c22 0 38 -5 57 -19l74 -54c20 -14 10 -37 -7 -37h-51c-26 0 -36 3 -55 13z" />
    <glyph glyph-name="Edieresis" unicode="&#xcb;" horiz-adv-x="565" 
d="M173 647v-207h269c28 0 43 -14 43 -43v-17c0 -29 -15 -43 -43 -43h-269v-234h301c29 0 43 -14 43 -43v-17c0 -29 -14 -43 -43 -43h-370c-29 0 -43 16 -43 45v660c0 29 14 45 43 45h370c29 0 43 -14 43 -43v-17c0 -29 -14 -43 -43 -43h-301zM118 850c0 40 33 73 73 73
s73 -33 73 -73s-33 -73 -73 -73s-73 33 -73 73zM330 850c0 40 33 73 73 73s73 -33 73 -73s-33 -73 -73 -73s-73 33 -73 73z" />
    <glyph glyph-name="Igrave" unicode="&#xcc;" horiz-adv-x="266" 
d="M77 45v660c0 29 14 45 43 45h26c29 0 43 -16 43 -45v-660c0 -29 -14 -45 -43 -45h-26c-29 0 -43 16 -43 45zM23 905h63c24 0 40 -6 53 -26l33 -50c12 -17 3 -34 -17 -34h-38c-19 0 -32 3 -51 19l-55 47c-21 18 -14 44 12 44z" />
    <glyph glyph-name="Iacute" unicode="&#xcd;" horiz-adv-x="266" 
d="M77 45v660c0 29 14 45 43 45h26c29 0 43 -16 43 -45v-660c0 -29 -14 -45 -43 -45h-26c-29 0 -43 16 -43 45zM180 905h63c26 0 33 -26 12 -44l-55 -47c-19 -16 -32 -19 -51 -19h-38c-20 0 -29 17 -17 34l33 50c13 20 29 26 53 26z" />
    <glyph glyph-name="Icircumflex" unicode="&#xce;" horiz-adv-x="266" 
d="M77 45v660c0 29 14 45 43 45h26c29 0 43 -16 43 -45v-660c0 -29 -14 -45 -43 -45h-26c-29 0 -43 16 -43 45zM190 808l-57 31l-57 -31c-19 -10 -29 -13 -55 -13h-51c-17 0 -27 23 -7 37l74 54c19 14 35 19 57 19h78c22 0 38 -5 57 -19l74 -54c20 -14 10 -37 -7 -37h-51
c-26 0 -36 3 -55 13z" />
    <glyph glyph-name="Idieresis" unicode="&#xcf;" horiz-adv-x="266" 
d="M77 45v660c0 29 14 45 43 45h26c29 0 43 -16 43 -45v-660c0 -29 -14 -45 -43 -45h-26c-29 0 -43 16 -43 45zM-36 850c0 40 33 73 73 73s73 -33 73 -73s-33 -73 -73 -73s-73 33 -73 73zM176 850c0 40 33 73 73 73s73 -33 73 -73s-33 -73 -73 -73s-73 33 -73 73z" />
    <glyph glyph-name="Eth" unicode="&#xd0;" horiz-adv-x="695" 
d="M106 45v290h-49c-25 0 -38 13 -38 37v21c0 24 13 37 38 37h49v275c0 29 14 45 43 45h180c249 0 318 -162 318 -375s-69 -375 -318 -375h-180c-29 0 -43 16 -43 45zM338 335h-120v-232h114c150 0 198 109 198 272s-48 272 -198 272h-114v-217h120c25 0 38 -13 38 -37v-21
c0 -24 -13 -37 -38 -37z" />
    <glyph glyph-name="Ntilde" unicode="&#xd1;" horiz-adv-x="658" 
d="M181 720l308 -503l-3 488c0 29 14 45 44 45h24c29 0 43 -16 43 -45v-660c0 -29 -14 -45 -43 -45h-25c-29 0 -42 13 -52 30l-308 503l3 -488c0 -29 -14 -45 -44 -45h-24c-29 0 -43 16 -43 45v660c0 29 14 45 43 45h25c29 0 42 -13 52 -30zM411 860c55 0 30 45 70 45h17
c18 0 28 -11 28 -29c0 -42 -31 -99 -113 -99c-84 0 -115 63 -166 63c-55 0 -30 -45 -70 -45h-17c-18 0 -28 11 -28 29c0 42 31 99 113 99c84 0 115 -63 166 -63z" />
    <glyph glyph-name="Ograve" unicode="&#xd2;" horiz-adv-x="680" 
d="M340 -12c-241 0 -289 175 -289 387s48 387 289 387s289 -175 289 -387s-48 -387 -289 -387zM340 660c-142 0 -174 -107 -174 -285s32 -285 174 -285s174 107 174 285s-32 285 -174 285zM230 905h63c24 0 40 -6 53 -26l33 -50c12 -17 3 -34 -17 -34h-38
c-19 0 -32 3 -51 19l-55 47c-21 18 -14 44 12 44z" />
    <glyph glyph-name="Oacute" unicode="&#xd3;" horiz-adv-x="680" 
d="M340 -12c-241 0 -289 175 -289 387s48 387 289 387s289 -175 289 -387s-48 -387 -289 -387zM340 660c-142 0 -174 -107 -174 -285s32 -285 174 -285s174 107 174 285s-32 285 -174 285zM387 905h63c26 0 33 -26 12 -44l-55 -47c-19 -16 -32 -19 -51 -19h-38
c-20 0 -29 17 -17 34l33 50c13 20 29 26 53 26z" />
    <glyph glyph-name="Ocircumflex" unicode="&#xd4;" horiz-adv-x="680" 
d="M340 -12c-241 0 -289 175 -289 387s48 387 289 387s289 -175 289 -387s-48 -387 -289 -387zM340 660c-142 0 -174 -107 -174 -285s32 -285 174 -285s174 107 174 285s-32 285 -174 285zM397 808l-57 31l-57 -31c-19 -10 -29 -13 -55 -13h-51c-17 0 -27 23 -7 37l74 54
c19 14 35 19 57 19h78c22 0 38 -5 57 -19l74 -54c20 -14 10 -37 -7 -37h-51c-26 0 -36 3 -55 13z" />
    <glyph glyph-name="Otilde" unicode="&#xd5;" horiz-adv-x="680" 
d="M340 -12c-241 0 -289 175 -289 387s48 387 289 387s289 -175 289 -387s-48 -387 -289 -387zM340 660c-142 0 -174 -107 -174 -285s32 -285 174 -285s174 107 174 285s-32 285 -174 285zM422 860c55 0 30 45 70 45h17c18 0 28 -11 28 -29c0 -42 -31 -99 -113 -99
c-84 0 -115 63 -166 63c-55 0 -30 -45 -70 -45h-17c-18 0 -28 11 -28 29c0 42 31 99 113 99c84 0 115 -63 166 -63z" />
    <glyph glyph-name="Odieresis" unicode="&#xd6;" horiz-adv-x="680" 
d="M340 -12c-241 0 -289 175 -289 387s48 387 289 387s289 -175 289 -387s-48 -387 -289 -387zM340 660c-142 0 -174 -107 -174 -285s32 -285 174 -285s174 107 174 285s-32 285 -174 285zM161 850c0 40 33 73 73 73s73 -33 73 -73s-33 -73 -73 -73s-73 33 -73 73zM373 850
c0 40 33 73 73 73s73 -33 73 -73s-33 -73 -73 -73s-73 33 -73 73z" />
    <glyph glyph-name="Ugrave" unicode="&#xd9;" horiz-adv-x="656" 
d="M328 -12c-102 0 -272 38 -272 248v469c0 29 14 45 43 45h26c29 0 43 -16 43 -45v-459c0 -141 98 -156 160 -156s160 15 160 156v459c0 29 14 45 43 45h26c29 0 43 -16 43 -45v-469c0 -210 -170 -248 -272 -248zM218 905h63c24 0 40 -6 53 -26l33 -50
c12 -17 3 -34 -17 -34h-38c-19 0 -32 3 -51 19l-55 47c-21 18 -14 44 12 44z" />
    <glyph glyph-name="Uacute" unicode="&#xda;" horiz-adv-x="656" 
d="M328 -12c-102 0 -272 38 -272 248v469c0 29 14 45 43 45h26c29 0 43 -16 43 -45v-459c0 -141 98 -156 160 -156s160 15 160 156v459c0 29 14 45 43 45h26c29 0 43 -16 43 -45v-469c0 -210 -170 -248 -272 -248zM375 905h63c26 0 33 -26 12 -44l-55 -47
c-19 -16 -32 -19 -51 -19h-38c-20 0 -29 17 -17 34l33 50c13 20 29 26 53 26z" />
    <glyph glyph-name="Ucircumflex" unicode="&#xdb;" horiz-adv-x="656" 
d="M488 705c0 29 14 45 43 45h26c29 0 43 -16 43 -45v-469c0 -210 -170 -248 -272 -248s-272 38 -272 248v469c0 29 14 45 43 45h26c29 0 43 -16 43 -45v-459c0 -141 98 -156 160 -156s160 15 160 156v459zM385 808l-57 31l-57 -31c-19 -10 -29 -13 -55 -13h-51
c-17 0 -27 23 -7 37l74 54c19 14 35 19 57 19h78c22 0 38 -5 57 -19l74 -54c20 -14 10 -37 -7 -37h-51c-26 0 -36 3 -55 13z" />
    <glyph glyph-name="Udieresis" unicode="&#xdc;" horiz-adv-x="656" 
d="M488 705c0 29 14 45 43 45h26c29 0 43 -16 43 -45v-469c0 -210 -170 -248 -272 -248s-272 38 -272 248v469c0 29 14 45 43 45h26c29 0 43 -16 43 -45v-459c0 -141 98 -156 160 -156s160 15 160 156v459zM149 850c0 40 33 73 73 73s73 -33 73 -73s-33 -73 -73 -73
s-73 33 -73 73zM361 850c0 40 33 73 73 73s73 -33 73 -73s-33 -73 -73 -73s-73 33 -73 73z" />
    <glyph glyph-name="Yacute" unicode="&#xdd;" horiz-adv-x="670" 
d="M150 718l185 -318l185 318c12 21 26 32 53 32h47c27 0 38 -28 24 -50l-252 -399v-256c0 -29 -14 -45 -43 -45h-27c-30 0 -44 16 -44 45v256l-252 399c-14 22 -3 50 24 50h47c27 0 41 -11 53 -32zM382 905h63c26 0 33 -26 12 -44l-55 -47c-19 -16 -32 -19 -51 -19h-38
c-20 0 -29 17 -17 34l33 50c13 20 29 26 53 26z" />
    <glyph glyph-name="Thorn" unicode="&#xde;" horiz-adv-x="590" 
d="M61 45v660c0 29 14 45 43 45h26c29 0 43 -16 43 -45v-95h129c193 0 260 -112 260 -235s-67 -234 -260 -234h-129v-96c0 -29 -14 -45 -43 -45h-26c-29 0 -43 16 -43 45zM173 507v-264h134c112 0 133 76 133 132s-21 132 -133 132h-134z" />
    <glyph glyph-name="Amacron" unicode="&#x100;" horiz-adv-x="640" 
d="M96 0h-44c-25 0 -41 22 -31 52l227 667c10 28 22 40 50 40h44c28 0 40 -12 50 -40l227 -667c10 -30 -6 -52 -31 -52h-44c-30 0 -42 12 -51 41l-43 142h-260l-43 -142c-9 -29 -21 -41 -51 -41zM422 275l-102 335l-102 -335h204zM430 805h-220c-25 0 -38 13 -38 37v15
c0 24 13 37 38 37h220c25 0 38 -13 38 -37v-15c0 -24 -13 -37 -38 -37z" />
    <glyph glyph-name="Abreve" unicode="&#x102;" horiz-adv-x="640" 
d="M96 0h-44c-25 0 -41 22 -31 52l227 667c10 28 22 40 50 40h44c28 0 40 -12 50 -40l227 -667c10 -30 -6 -52 -31 -52h-44c-30 0 -42 12 -51 41l-43 142h-260l-43 -142c-9 -29 -21 -41 -51 -41zM422 275l-102 335l-102 -335h204zM320 777c-131 0 -163 53 -163 105
c0 14 10 23 24 23h37c42 0 8 -55 102 -55s60 55 102 55h37c14 0 24 -9 24 -23c0 -52 -32 -105 -163 -105z" />
    <glyph glyph-name="Aogonek" unicode="&#x104;" horiz-adv-x="640" 
d="M543 -250c-67 0 -123 40 -123 115c0 43 20 97 83 143l-53 175h-260l-43 -142c-9 -29 -21 -41 -51 -41h-44c-25 0 -41 22 -31 52l227 667c10 28 22 40 50 40h44c28 0 40 -12 50 -40l227 -667c8 -25 -1 -42 -19 -50c-43 -20 -91 -62 -91 -121c0 -34 20 -57 56 -57
c14 0 23 0 37 4c22 6 29 -5 29 -21v-18c0 -15 -6 -25 -26 -31s-38 -8 -62 -8zM320 610l-102 -335h204z" />
    <glyph glyph-name="Cacute" unicode="&#x106;" horiz-adv-x="587" 
d="M166 375c0 -185 58 -282 201 -282c58 0 99 9 131 20c25 8 38 -5 38 -25v-40c0 -19 -10 -33 -36 -41c-25 -8 -69 -19 -140 -19c-221 0 -309 141 -309 387s88 387 309 387c71 0 115 -11 140 -19c26 -8 36 -22 36 -41v-40c0 -20 -13 -33 -38 -25c-32 11 -73 20 -131 20
c-143 0 -201 -97 -201 -282zM390 905h63c26 0 33 -26 12 -44l-55 -47c-19 -16 -32 -19 -51 -19h-38c-20 0 -29 17 -17 34l33 50c13 20 29 26 53 26z" />
    <glyph glyph-name="Ccircumflex" unicode="&#x108;" horiz-adv-x="587" 
d="M166 375c0 -185 58 -282 201 -282c58 0 99 9 131 20c25 8 38 -5 38 -25v-40c0 -19 -10 -33 -36 -41c-25 -8 -69 -19 -140 -19c-221 0 -309 141 -309 387s88 387 309 387c71 0 115 -11 140 -19c26 -8 36 -22 36 -41v-40c0 -20 -13 -33 -38 -25c-32 11 -73 20 -131 20
c-143 0 -201 -97 -201 -282zM400 808l-57 31l-57 -31c-19 -10 -29 -13 -55 -13h-51c-17 0 -27 23 -7 37l74 54c19 14 35 19 57 19h78c22 0 38 -5 57 -19l74 -54c20 -14 10 -37 -7 -37h-51c-26 0 -36 3 -55 13z" />
    <glyph glyph-name="Cdotaccent" unicode="&#x10a;" horiz-adv-x="587" 
d="M166 375c0 -185 58 -282 201 -282c58 0 99 9 131 20c25 8 38 -5 38 -25v-40c0 -19 -10 -33 -36 -41c-25 -8 -69 -19 -140 -19c-221 0 -309 141 -309 387s88 387 309 387c71 0 115 -11 140 -19c26 -8 36 -22 36 -41v-40c0 -20 -13 -33 -38 -25c-32 11 -73 20 -131 20
c-143 0 -201 -97 -201 -282zM270 850c0 40 33 73 73 73s73 -33 73 -73s-33 -73 -73 -73s-73 33 -73 73z" />
    <glyph glyph-name="Ccaron" unicode="&#x10c;" horiz-adv-x="587" 
d="M166 375c0 -185 58 -282 201 -282c58 0 99 9 131 20c25 8 38 -5 38 -25v-40c0 -19 -10 -33 -36 -41c-25 -8 -69 -19 -140 -19c-221 0 -309 141 -309 387s88 387 309 387c71 0 115 -11 140 -19c26 -8 36 -22 36 -41v-40c0 -20 -13 -33 -38 -25c-32 11 -73 20 -131 20
c-143 0 -201 -97 -201 -282zM286 892l57 -31l57 31c19 10 29 13 55 13h51c17 0 27 -23 7 -37l-74 -54c-19 -14 -35 -19 -57 -19h-78c-22 0 -38 5 -57 19l-74 54c-20 14 -10 37 7 37h51c26 0 36 -3 55 -13z" />
    <glyph glyph-name="Dcaron" unicode="&#x10e;" horiz-adv-x="650" 
d="M61 45v660c0 29 14 45 43 45h180c249 0 318 -162 318 -375s-69 -375 -318 -375h-180c-29 0 -43 16 -43 45zM173 647v-544h114c150 0 198 109 198 272s-48 272 -198 272h-114zM240 892l57 -31l57 31c19 10 29 13 55 13h51c17 0 27 -23 7 -37l-74 -54
c-19 -14 -35 -19 -57 -19h-78c-22 0 -38 5 -57 19l-74 54c-20 14 -10 37 7 37h51c26 0 36 -3 55 -13z" />
    <glyph glyph-name="Dcroat" unicode="&#x110;" horiz-adv-x="695" 
d="M106 45v290h-49c-25 0 -38 13 -38 37v21c0 24 13 37 38 37h49v275c0 29 14 45 43 45h180c249 0 318 -162 318 -375s-69 -375 -318 -375h-180c-29 0 -43 16 -43 45zM338 335h-120v-232h114c150 0 198 109 198 272s-48 272 -198 272h-114v-217h120c25 0 38 -13 38 -37v-21
c0 -24 -13 -37 -38 -37z" />
    <glyph glyph-name="Emacron" unicode="&#x112;" horiz-adv-x="565" 
d="M173 647v-207h269c28 0 43 -14 43 -43v-17c0 -29 -15 -43 -43 -43h-269v-234h301c29 0 43 -14 43 -43v-17c0 -29 -14 -43 -43 -43h-370c-29 0 -43 16 -43 45v660c0 29 14 45 43 45h370c29 0 43 -14 43 -43v-17c0 -29 -14 -43 -43 -43h-301zM407 805h-220
c-25 0 -38 13 -38 37v15c0 24 13 37 38 37h220c25 0 38 -13 38 -37v-15c0 -24 -13 -37 -38 -37z" />
    <glyph glyph-name="Ebreve" unicode="&#x114;" horiz-adv-x="565" 
d="M173 647v-207h269c28 0 43 -14 43 -43v-17c0 -29 -15 -43 -43 -43h-269v-234h301c29 0 43 -14 43 -43v-17c0 -29 -14 -43 -43 -43h-370c-29 0 -43 16 -43 45v660c0 29 14 45 43 45h370c29 0 43 -14 43 -43v-17c0 -29 -14 -43 -43 -43h-301zM297 777
c-131 0 -163 53 -163 105c0 14 10 23 24 23h37c42 0 8 -55 102 -55s60 55 102 55h37c14 0 24 -9 24 -23c0 -52 -32 -105 -163 -105z" />
    <glyph glyph-name="Edotaccent" unicode="&#x116;" horiz-adv-x="565" 
d="M173 647v-207h269c28 0 43 -14 43 -43v-17c0 -29 -15 -43 -43 -43h-269v-234h301c29 0 43 -14 43 -43v-17c0 -29 -14 -43 -43 -43h-370c-29 0 -43 16 -43 45v660c0 29 14 45 43 45h370c29 0 43 -14 43 -43v-17c0 -29 -14 -43 -43 -43h-301zM224 850c0 40 33 73 73 73
s73 -33 73 -73s-33 -73 -73 -73s-73 33 -73 73z" />
    <glyph glyph-name="Eogonek" unicode="&#x118;" horiz-adv-x="565" 
d="M445 -250c-67 0 -123 37 -123 109c0 48 17 98 70 141h-288c-29 0 -43 16 -43 45v660c0 29 14 45 43 45h370c29 0 43 -14 43 -43v-17c0 -29 -14 -43 -43 -43h-301v-207h269c28 0 43 -14 43 -43v-17c0 -29 -15 -43 -43 -43h-269v-234h301c29 0 43 -14 43 -43v-19
c0 -21 -8 -30 -23 -38c-48 -25 -83 -67 -83 -128c0 -30 20 -51 56 -51c14 0 23 0 37 4c22 6 29 -5 29 -21v-18c0 -15 -6 -25 -26 -31s-38 -8 -62 -8z" />
    <glyph glyph-name="Ecaron" unicode="&#x11a;" horiz-adv-x="565" 
d="M173 647v-207h269c28 0 43 -14 43 -43v-17c0 -29 -15 -43 -43 -43h-269v-234h301c29 0 43 -14 43 -43v-17c0 -29 -14 -43 -43 -43h-370c-29 0 -43 16 -43 45v660c0 29 14 45 43 45h370c29 0 43 -14 43 -43v-17c0 -29 -14 -43 -43 -43h-301zM240 892l57 -31l57 31
c19 10 29 13 55 13h51c17 0 27 -23 7 -37l-74 -54c-19 -14 -35 -19 -57 -19h-78c-22 0 -38 5 -57 19l-74 54c-20 14 -10 37 7 37h51c26 0 36 -3 55 -13z" />
    <glyph glyph-name="Gcircumflex" unicode="&#x11c;" horiz-adv-x="650" 
d="M391 413h157c29 0 44 -15 44 -45v-298c0 -29 -13 -43 -38 -52c-33 -12 -105 -30 -198 -30c-223 0 -305 151 -305 387s82 387 308 387c90 0 144 -12 181 -24c28 -9 34 -23 34 -43v-42c0 -21 -16 -35 -41 -26c-44 15 -83 30 -160 30c-154 0 -207 -104 -207 -282
c0 -184 55 -282 207 -282c46 0 85 6 107 14v205h-90c-28 0 -43 14 -43 42v16c0 29 15 43 44 43zM409 808l-57 31l-57 -31c-19 -10 -29 -13 -55 -13h-51c-17 0 -27 23 -7 37l74 54c19 14 35 19 57 19h78c22 0 38 -5 57 -19l74 -54c20 -14 10 -37 -7 -37h-51
c-26 0 -36 3 -55 13z" />
    <glyph glyph-name="Gbreve" unicode="&#x11e;" horiz-adv-x="650" 
d="M391 413h157c29 0 44 -15 44 -45v-298c0 -29 -13 -43 -38 -52c-33 -12 -105 -30 -198 -30c-223 0 -305 151 -305 387s82 387 308 387c90 0 144 -12 181 -24c28 -9 34 -23 34 -43v-42c0 -21 -16 -35 -41 -26c-44 15 -83 30 -160 30c-154 0 -207 -104 -207 -282
c0 -184 55 -282 207 -282c46 0 85 6 107 14v205h-90c-28 0 -43 14 -43 42v16c0 29 15 43 44 43zM352 777c-131 0 -163 53 -163 105c0 14 10 23 24 23h37c42 0 8 -55 102 -55s60 55 102 55h37c14 0 24 -9 24 -23c0 -52 -32 -105 -163 -105z" />
    <glyph glyph-name="Gdotaccent" unicode="&#x120;" horiz-adv-x="650" 
d="M391 413h157c29 0 44 -15 44 -45v-298c0 -29 -13 -43 -38 -52c-33 -12 -105 -30 -198 -30c-223 0 -305 151 -305 387s82 387 308 387c90 0 144 -12 181 -24c28 -9 34 -23 34 -43v-42c0 -21 -16 -35 -41 -26c-44 15 -83 30 -160 30c-154 0 -207 -104 -207 -282
c0 -184 55 -282 207 -282c46 0 85 6 107 14v205h-90c-28 0 -43 14 -43 42v16c0 29 15 43 44 43zM279 850c0 40 33 73 73 73s73 -33 73 -73s-33 -73 -73 -73s-73 33 -73 73z" />
    <glyph glyph-name="Gcommaaccent" unicode="&#x122;" horiz-adv-x="650" 
d="M391 413h157c29 0 44 -15 44 -45v-298c0 -29 -13 -43 -38 -52c-33 -12 -105 -30 -198 -30c-223 0 -305 151 -305 387s82 387 308 387c90 0 144 -12 181 -24c28 -9 34 -23 34 -43v-42c0 -21 -16 -35 -41 -26c-44 15 -83 30 -160 30c-154 0 -207 -104 -207 -282
c0 -184 55 -282 207 -282c46 0 85 6 107 14v205h-90c-28 0 -43 14 -43 42v16c0 29 15 43 44 43zM336 -50h50c29 0 41 -24 31 -50l-44 -118c-9 -24 -22 -32 -44 -32h-31c-17 0 -29 12 -26 33l18 126c4 29 20 41 46 41z" />
    <glyph glyph-name="Hcircumflex" unicode="&#x124;" horiz-adv-x="650" 
d="M477 45v292h-304v-292c0 -29 -14 -45 -44 -45h-25c-29 0 -43 16 -43 45v660c0 29 14 45 43 45h25c30 0 44 -16 44 -45v-265h304v265c0 29 14 45 44 45h25c29 0 43 -16 43 -45v-660c0 -29 -14 -45 -43 -45h-25c-30 0 -44 16 -44 45zM382 808l-57 31l-57 -31
c-19 -10 -29 -13 -55 -13h-51c-17 0 -27 23 -7 37l74 54c19 14 35 19 57 19h78c22 0 38 -5 57 -19l74 -54c20 -14 10 -37 -7 -37h-51c-26 0 -36 3 -55 13z" />
    <glyph glyph-name="Hbar" unicode="&#x126;" horiz-adv-x="650" 
d="M477 45v292h-304v-292c0 -29 -14 -45 -44 -45h-25c-29 0 -43 16 -43 45v660c0 29 14 45 43 45h25c30 0 44 -16 44 -45v-71h304v71c0 29 14 45 44 45h25c29 0 43 -16 43 -45v-660c0 -29 -14 -45 -43 -45h-25c-30 0 -44 16 -44 45zM173 440h304v104h-304v-104z" />
    <glyph glyph-name="Itilde" unicode="&#x128;" horiz-adv-x="266" 
d="M77 45v660c0 29 14 45 43 45h26c29 0 43 -16 43 -45v-660c0 -29 -14 -45 -43 -45h-26c-29 0 -43 16 -43 45zM215 860c55 0 30 45 70 45h17c18 0 28 -11 28 -29c0 -42 -31 -99 -113 -99c-84 0 -115 63 -166 63c-55 0 -30 -45 -70 -45h-17c-18 0 -28 11 -28 29
c0 42 31 99 113 99c84 0 115 -63 166 -63z" />
    <glyph glyph-name="Imacron" unicode="&#x12a;" horiz-adv-x="266" 
d="M77 45v660c0 29 14 45 43 45h26c29 0 43 -16 43 -45v-660c0 -29 -14 -45 -43 -45h-26c-29 0 -43 16 -43 45zM243 805h-220c-25 0 -38 13 -38 37v15c0 24 13 37 38 37h220c25 0 38 -13 38 -37v-15c0 -24 -13 -37 -38 -37z" />
    <glyph glyph-name="Ibreve" unicode="&#x12c;" horiz-adv-x="266" 
d="M77 45v660c0 29 14 45 43 45h26c29 0 43 -16 43 -45v-660c0 -29 -14 -45 -43 -45h-26c-29 0 -43 16 -43 45zM133 777c-131 0 -163 53 -163 105c0 14 10 23 24 23h37c42 0 8 -55 102 -55s60 55 102 55h37c14 0 24 -9 24 -23c0 -52 -32 -105 -163 -105z" />
    <glyph glyph-name="Iogonek" unicode="&#x12e;" horiz-adv-x="266" 
d="M132 -250c-67 0 -123 33 -123 121c0 35 17 88 68 134v700c0 29 14 45 43 45h26c29 0 43 -16 43 -45v-660c0 -21 -4 -32 -20 -41c-37 -21 -71 -73 -71 -122c0 -41 20 -58 56 -58c14 0 23 0 37 4c22 6 29 -5 29 -21v-18c0 -15 -6 -25 -26 -31s-38 -8 -62 -8z" />
    <glyph glyph-name="Idotaccent" unicode="&#x130;" horiz-adv-x="266" 
d="M77 45v660c0 29 14 45 43 45h26c29 0 43 -16 43 -45v-660c0 -29 -14 -45 -43 -45h-26c-29 0 -43 16 -43 45zM60 850c0 40 33 73 73 73s73 -33 73 -73s-33 -73 -73 -73s-73 33 -73 73z" />
    <glyph glyph-name="IJ" unicode="&#x132;" horiz-adv-x="624" 
d="M77 45v660c0 29 14 45 43 45h26c29 0 43 -16 43 -45v-660c0 -29 -14 -45 -43 -45h-26c-29 0 -43 16 -43 45zM554 705v-550c0 -109 -60 -167 -198 -167c-18 0 -42 2 -56 6c-19 4 -28 12 -28 35v49c0 16 12 27 28 23c15 -3 33 -6 50 -6c54 0 92 20 92 77v533
c0 29 14 45 43 45h26c29 0 43 -16 43 -45z" />
    <glyph glyph-name="Jcircumflex" unicode="&#x134;" horiz-adv-x="374" 
d="M304 705v-550c0 -109 -60 -167 -198 -167c-18 0 -42 2 -56 6c-19 4 -28 12 -28 35v49c0 16 12 27 28 23c15 -3 33 -6 50 -6c54 0 92 20 92 77v533c0 29 14 45 43 45h26c29 0 43 -16 43 -45zM305 808l-57 31l-57 -31c-19 -10 -29 -13 -55 -13h-51c-17 0 -27 23 -7 37
l74 54c19 14 35 19 57 19h78c22 0 38 -5 57 -19l74 -54c20 -14 10 -37 -7 -37h-51c-26 0 -36 3 -55 13z" />
    <glyph glyph-name="Kcommaaccent" unicode="&#x136;" horiz-adv-x="623" 
d="M173 705l-1 -303l265 318c20 23 31 30 56 30h55c25 0 34 -25 17 -45l-257 -292l282 -367c15 -20 4 -46 -21 -46h-55c-26 0 -41 9 -60 34l-221 294l-61 -70l1 -213c0 -29 -14 -45 -44 -45h-25c-29 0 -43 16 -43 45v660c0 29 14 45 43 45h25c30 0 44 -16 44 -45zM284 -50
h50c29 0 41 -24 31 -50l-44 -118c-9 -24 -22 -32 -44 -32h-31c-17 0 -29 12 -26 33l18 126c4 29 20 41 46 41z" />
    <glyph glyph-name="Lacute" unicode="&#x139;" horiz-adv-x="524" 
d="M455 0h-351c-29 0 -43 16 -43 45v660c0 29 14 45 43 45h25c30 0 44 -16 44 -45v-602h282c29 0 44 -14 44 -43v-17c0 -29 -15 -43 -44 -43zM164 905h63c26 0 33 -26 12 -44l-55 -47c-19 -16 -32 -19 -51 -19h-38c-20 0 -29 17 -17 34l33 50c13 20 29 26 53 26z" />
    <glyph glyph-name="Lcommaaccent" unicode="&#x13b;" horiz-adv-x="524" 
d="M455 0h-351c-29 0 -43 16 -43 45v660c0 29 14 45 43 45h25c30 0 44 -16 44 -45v-602h282c29 0 44 -14 44 -43v-17c0 -29 -15 -43 -44 -43zM259 -50h50c29 0 41 -24 31 -50l-44 -118c-9 -24 -22 -32 -44 -32h-31c-17 0 -29 12 -26 33l18 126c4 29 20 41 46 41z" />
    <glyph glyph-name="Lcaron" unicode="&#x13d;" horiz-adv-x="524" 
d="M455 0h-351c-29 0 -43 16 -43 45v660c0 29 14 45 43 45h25c30 0 44 -16 44 -45v-602h282c29 0 44 -14 44 -43v-17c0 -29 -15 -43 -44 -43zM292 750h21c24 0 36 -16 30 -40l-37 -130c-5 -20 -14 -30 -34 -30h-4c-19 0 -26 12 -24 30l12 136c2 23 14 34 36 34z" />
    <glyph glyph-name="Ldot" unicode="&#x13f;" horiz-adv-x="524" 
d="M455 0h-351c-29 0 -43 16 -43 45v660c0 29 14 45 43 45h25c30 0 44 -16 44 -45v-602h282c29 0 44 -14 44 -43v-17c0 -29 -15 -43 -44 -43zM307 375c0 40 33 73 73 73s73 -33 73 -73s-33 -73 -73 -73s-73 33 -73 73z" />
    <glyph glyph-name="Lslash" unicode="&#x141;" horiz-adv-x="560" 
d="M376 408l-168 -93v-212h282c29 0 44 -14 44 -43v-17c0 -29 -15 -43 -44 -43h-351c-29 0 -43 16 -43 45v208l-60 -33c-16 -9 -31 0 -31 19v29c0 23 6 29 24 39l67 37v361c0 29 14 45 43 45h25c30 0 44 -16 44 -45v-299l161 89c16 9 31 1 31 -18v-30c0 -23 -6 -29 -24 -39z
" />
    <glyph glyph-name="Nacute" unicode="&#x143;" horiz-adv-x="658" 
d="M181 720l308 -503l-3 488c0 29 14 45 44 45h24c29 0 43 -16 43 -45v-660c0 -29 -14 -45 -43 -45h-25c-29 0 -42 13 -52 30l-308 503l3 -488c0 -29 -14 -45 -44 -45h-24c-29 0 -43 16 -43 45v660c0 29 14 45 43 45h25c29 0 42 -13 52 -30zM376 905h63c26 0 33 -26 12 -44
l-55 -47c-19 -16 -32 -19 -51 -19h-38c-20 0 -29 17 -17 34l33 50c13 20 29 26 53 26z" />
    <glyph glyph-name="Ncommaaccent" unicode="&#x145;" horiz-adv-x="658" 
d="M181 720l308 -503l-3 488c0 29 14 45 44 45h24c29 0 43 -16 43 -45v-660c0 -29 -14 -45 -43 -45h-25c-29 0 -42 13 -52 30l-308 503l3 -488c0 -29 -14 -45 -44 -45h-24c-29 0 -43 16 -43 45v660c0 29 14 45 43 45h25c29 0 42 -13 52 -30zM308 -50h50c29 0 41 -24 31 -50
l-44 -118c-9 -24 -22 -32 -44 -32h-31c-17 0 -29 12 -26 33l18 126c4 29 20 41 46 41z" />
    <glyph glyph-name="Ncaron" unicode="&#x147;" horiz-adv-x="658" 
d="M181 720l308 -503l-3 488c0 29 14 45 44 45h24c29 0 43 -16 43 -45v-660c0 -29 -14 -45 -43 -45h-25c-29 0 -42 13 -52 30l-308 503l3 -488c0 -29 -14 -45 -44 -45h-24c-29 0 -43 16 -43 45v660c0 29 14 45 43 45h25c29 0 42 -13 52 -30zM272 892l57 -31l57 31
c19 10 29 13 55 13h51c17 0 27 -23 7 -37l-74 -54c-19 -14 -35 -19 -57 -19h-78c-22 0 -38 5 -57 19l-74 54c-20 14 -10 37 7 37h51c26 0 36 -3 55 -13z" />
    <glyph glyph-name="Eng" unicode="&#x14a;" horiz-adv-x="658" 
d="M181 720l308 -503l-3 488c0 29 14 45 44 45h24c29 0 43 -16 43 -45v-795c0 -117 -84 -170 -183 -170c-29 0 -46 12 -46 36v36c0 20 10 36 38 36c49 0 81 27 81 81v84l-318 520l3 -488c0 -29 -14 -45 -44 -45h-24c-29 0 -43 16 -43 45v660c0 29 14 45 43 45h25
c29 0 42 -13 52 -30z" />
    <glyph glyph-name="Omacron" unicode="&#x14c;" horiz-adv-x="680" 
d="M340 -12c-241 0 -289 175 -289 387s48 387 289 387s289 -175 289 -387s-48 -387 -289 -387zM340 660c-142 0 -174 -107 -174 -285s32 -285 174 -285s174 107 174 285s-32 285 -174 285zM450 805h-220c-25 0 -38 13 -38 37v15c0 24 13 37 38 37h220c25 0 38 -13 38 -37
v-15c0 -24 -13 -37 -38 -37z" />
    <glyph glyph-name="Obreve" unicode="&#x14e;" horiz-adv-x="680" 
d="M340 -12c-241 0 -289 175 -289 387s48 387 289 387s289 -175 289 -387s-48 -387 -289 -387zM340 660c-142 0 -174 -107 -174 -285s32 -285 174 -285s174 107 174 285s-32 285 -174 285zM340 777c-131 0 -163 53 -163 105c0 14 10 23 24 23h37c42 0 8 -55 102 -55
s60 55 102 55h37c14 0 24 -9 24 -23c0 -52 -32 -105 -163 -105z" />
    <glyph glyph-name="Ohungarumlaut" unicode="&#x150;" horiz-adv-x="680" 
d="M340 -12c-241 0 -289 175 -289 387s48 387 289 387s289 -175 289 -387s-48 -387 -289 -387zM340 660c-142 0 -174 -107 -174 -285s32 -285 174 -285s174 107 174 285s-32 285 -174 285zM472 905h63c26 0 33 -26 12 -44l-55 -47c-19 -16 -32 -19 -51 -19h-38
c-20 0 -29 17 -17 34l33 50c13 20 29 26 53 26zM302 905h63c26 0 33 -26 12 -44l-55 -47c-19 -16 -32 -19 -51 -19h-38c-20 0 -29 17 -17 34l33 50c13 20 29 26 53 26z" />
    <glyph glyph-name="Racute" unicode="&#x154;" horiz-adv-x="621" 
d="M61 45v660c0 29 14 45 43 45h201c194 0 256 -87 256 -223c0 -97 -30 -168 -122 -200l150 -274c15 -29 -5 -53 -30 -53h-46c-31 0 -43 11 -56 38l-128 267h-156v-260c0 -29 -14 -45 -43 -45h-26c-29 0 -43 16 -43 45zM173 647v-240h148c104 0 118 59 118 120
c0 62 -14 120 -118 120h-148zM337 905h63c26 0 33 -26 12 -44l-55 -47c-19 -16 -32 -19 -51 -19h-38c-20 0 -29 17 -17 34l33 50c13 20 29 26 53 26z" />
    <glyph glyph-name="Rcommaaccent" unicode="&#x156;" horiz-adv-x="621" 
d="M61 45v660c0 29 14 45 43 45h201c194 0 256 -87 256 -223c0 -97 -30 -168 -122 -200l150 -274c15 -29 -5 -53 -30 -53h-46c-31 0 -43 11 -56 38l-128 267h-156v-260c0 -29 -14 -45 -43 -45h-26c-29 0 -43 16 -43 45zM173 647v-240h148c104 0 118 59 118 120
c0 62 -14 120 -118 120h-148zM293 -50h50c29 0 41 -24 31 -50l-44 -118c-9 -24 -22 -32 -44 -32h-31c-17 0 -29 12 -26 33l18 126c4 29 20 41 46 41z" />
    <glyph glyph-name="Rcaron" unicode="&#x158;" horiz-adv-x="621" 
d="M61 45v660c0 29 14 45 43 45h201c194 0 256 -87 256 -223c0 -97 -30 -168 -122 -200l150 -274c15 -29 -5 -53 -30 -53h-46c-31 0 -43 11 -56 38l-128 267h-156v-260c0 -29 -14 -45 -43 -45h-26c-29 0 -43 16 -43 45zM173 647v-240h148c104 0 118 59 118 120
c0 62 -14 120 -118 120h-148zM233 892l57 -31l57 31c19 10 29 13 55 13h51c17 0 27 -23 7 -37l-74 -54c-19 -14 -35 -19 -57 -19h-78c-22 0 -38 5 -57 19l-74 54c-20 14 -10 37 7 37h51c26 0 36 -3 55 -13z" />
    <glyph glyph-name="Sacute" unicode="&#x15a;" horiz-adv-x="595" 
d="M260 94c135 0 175 55 175 126c0 83 -35 103 -136 116c-183 23 -254 72 -254 209c0 110 62 217 266 217c79 0 132 -10 169 -22c28 -9 34 -23 34 -43v-42c0 -21 -16 -35 -41 -26c-44 15 -79 27 -156 27c-117 0 -157 -48 -157 -112c0 -81 46 -95 145 -108
c156 -21 247 -56 247 -209c0 -142 -84 -239 -285 -239c-79 0 -151 16 -188 28c-28 9 -34 23 -34 43v42c0 21 16 35 41 26c44 -15 97 -33 174 -33zM350 905h63c26 0 33 -26 12 -44l-55 -47c-19 -16 -32 -19 -51 -19h-38c-20 0 -29 17 -17 34l33 50c13 20 29 26 53 26z" />
    <glyph glyph-name="Scircumflex" unicode="&#x15c;" horiz-adv-x="595" 
d="M260 94c135 0 175 55 175 126c0 83 -35 103 -136 116c-183 23 -254 72 -254 209c0 110 62 217 266 217c79 0 132 -10 169 -22c28 -9 34 -23 34 -43v-42c0 -21 -16 -35 -41 -26c-44 15 -79 27 -156 27c-117 0 -157 -48 -157 -112c0 -81 46 -95 145 -108
c156 -21 247 -56 247 -209c0 -142 -84 -239 -285 -239c-79 0 -151 16 -188 28c-28 9 -34 23 -34 43v42c0 21 16 35 41 26c44 -15 97 -33 174 -33zM360 808l-57 31l-57 -31c-19 -10 -29 -13 -55 -13h-51c-17 0 -27 23 -7 37l74 54c19 14 35 19 57 19h78c22 0 38 -5 57 -19
l74 -54c20 -14 10 -37 -7 -37h-51c-26 0 -36 3 -55 13z" />
    <glyph glyph-name="Scedilla" unicode="&#x15e;" horiz-adv-x="595" 
d="M260 94c135 0 175 55 175 126c0 83 -35 103 -136 116c-183 23 -254 72 -254 209c0 110 62 217 266 217c79 0 132 -10 169 -22c28 -9 34 -23 34 -43v-42c0 -21 -16 -35 -41 -26c-44 15 -79 27 -156 27c-117 0 -157 -48 -157 -112c0 -81 46 -95 145 -108
c156 -21 247 -56 247 -209c0 -133 -73 -226 -247 -238l3 -42c61 -16 94 -54 94 -100c0 -64 -49 -97 -119 -97c-30 0 -52 4 -72 10c-19 6 -25 16 -25 31v24c0 16 10 26 28 21c14 -4 32 -9 54 -9c33 0 54 8 54 30c0 24 -19 36 -58 45c-16 3 -23 12 -21 26l6 60
c-72 2 -136 17 -170 28c-28 9 -34 23 -34 43v42c0 21 16 35 41 26c44 -15 97 -33 174 -33z" />
    <glyph glyph-name="Scommaaccent" unicode="&#x218;" horiz-adv-x="595" 
d="M260 94c135 0 175 55 175 126c0 83 -35 103 -136 116c-183 23 -254 72 -254 209c0 110 62 217 266 217c79 0 132 -10 169 -22c28 -9 34 -23 34 -43v-42c0 -21 -16 -35 -41 -26c-44 15 -79 27 -156 27c-117 0 -157 -48 -157 -112c0 -81 46 -95 145 -108
c156 -21 247 -56 247 -209c0 -142 -84 -239 -285 -239c-79 0 -151 16 -188 28c-28 9 -34 23 -34 43v42c0 21 16 35 41 26c44 -15 97 -33 174 -33zM262 -50h50c29 0 41 -24 31 -50l-44 -118c-9 -24 -22 -32 -44 -32h-31c-17 0 -29 12 -26 33l18 126c4 29 20 41 46 41z" />
    <glyph glyph-name="Scaron" unicode="&#x160;" horiz-adv-x="595" 
d="M260 94c135 0 175 55 175 126c0 83 -35 103 -136 116c-183 23 -254 72 -254 209c0 110 62 217 266 217c79 0 132 -10 169 -22c28 -9 34 -23 34 -43v-42c0 -21 -16 -35 -41 -26c-44 15 -79 27 -156 27c-117 0 -157 -48 -157 -112c0 -81 46 -95 145 -108
c156 -21 247 -56 247 -209c0 -142 -84 -239 -285 -239c-79 0 -151 16 -188 28c-28 9 -34 23 -34 43v42c0 21 16 35 41 26c44 -15 97 -33 174 -33zM246 892l57 -31l57 31c19 10 29 13 55 13h51c17 0 27 -23 7 -37l-74 -54c-19 -14 -35 -19 -57 -19h-78c-22 0 -38 5 -57 19
l-74 54c-20 14 -10 37 7 37h51c26 0 36 -3 55 -13z" />
    <glyph glyph-name="Tcommaaccent" unicode="&#x162;" horiz-adv-x="556" 
d="M334 647v-602c0 -29 -14 -45 -43 -45h-25c-30 0 -44 16 -44 45v602h-151c-29 0 -44 14 -44 43v17c0 29 15 43 44 43h414c29 0 44 -14 44 -43v-17c0 -29 -15 -43 -44 -43h-151zM252 -50h50c29 0 41 -24 31 -50l-44 -118c-9 -24 -22 -32 -44 -32h-31c-17 0 -29 12 -26 33
l18 126c4 29 20 41 46 41z" />
    <glyph glyph-name="Tcaron" unicode="&#x164;" horiz-adv-x="556" 
d="M334 647v-602c0 -29 -14 -45 -43 -45h-25c-30 0 -44 16 -44 45v602h-151c-29 0 -44 14 -44 43v17c0 29 15 43 44 43h414c29 0 44 -14 44 -43v-17c0 -29 -15 -43 -44 -43h-151zM221 892l57 -31l57 31c19 10 29 13 55 13h51c17 0 27 -23 7 -37l-74 -54
c-19 -14 -35 -19 -57 -19h-78c-22 0 -38 5 -57 19l-74 54c-20 14 -10 37 7 37h51c26 0 36 -3 55 -13z" />
    <glyph glyph-name="Tbar" unicode="&#x166;" horiz-adv-x="556" 
d="M411 344h-77v-299c0 -29 -14 -45 -43 -45h-25c-30 0 -44 16 -44 45v299h-77c-25 0 -38 13 -38 37v15c0 24 13 37 38 37h77v214h-151c-29 0 -44 14 -44 43v17c0 29 15 43 44 43h414c29 0 44 -14 44 -43v-17c0 -29 -15 -43 -44 -43h-151v-214h77c25 0 38 -13 38 -37v-15
c0 -24 -13 -37 -38 -37z" />
    <glyph glyph-name="Utilde" unicode="&#x168;" horiz-adv-x="656" 
d="M488 705c0 29 14 45 43 45h26c29 0 43 -16 43 -45v-469c0 -210 -170 -248 -272 -248s-272 38 -272 248v469c0 29 14 45 43 45h26c29 0 43 -16 43 -45v-459c0 -141 98 -156 160 -156s160 15 160 156v459zM410 860c55 0 30 45 70 45h17c18 0 28 -11 28 -29
c0 -42 -31 -99 -113 -99c-84 0 -115 63 -166 63c-55 0 -30 -45 -70 -45h-17c-18 0 -28 11 -28 29c0 42 31 99 113 99c84 0 115 -63 166 -63z" />
    <glyph glyph-name="Umacron" unicode="&#x16a;" horiz-adv-x="656" 
d="M488 705c0 29 14 45 43 45h26c29 0 43 -16 43 -45v-469c0 -210 -170 -248 -272 -248s-272 38 -272 248v469c0 29 14 45 43 45h26c29 0 43 -16 43 -45v-459c0 -141 98 -156 160 -156s160 15 160 156v459zM438 805h-220c-25 0 -38 13 -38 37v15c0 24 13 37 38 37h220
c25 0 38 -13 38 -37v-15c0 -24 -13 -37 -38 -37z" />
    <glyph glyph-name="Ubreve" unicode="&#x16c;" horiz-adv-x="656" 
d="M328 -12c-102 0 -272 38 -272 248v469c0 29 14 45 43 45h26c29 0 43 -16 43 -45v-459c0 -141 98 -156 160 -156s160 15 160 156v459c0 29 14 45 43 45h26c29 0 43 -16 43 -45v-469c0 -210 -170 -248 -272 -248zM328 777c-131 0 -163 53 -163 105c0 14 10 23 24 23h37
c42 0 8 -55 102 -55s60 55 102 55h37c14 0 24 -9 24 -23c0 -52 -32 -105 -163 -105z" />
    <glyph glyph-name="Uring" unicode="&#x16e;" horiz-adv-x="656" 
d="M488 705c0 29 14 45 43 45h26c29 0 43 -16 43 -45v-469c0 -210 -170 -248 -272 -248s-272 38 -272 248v469c0 29 14 45 43 45h26c29 0 43 -16 43 -45v-459c0 -141 98 -156 160 -156s160 15 160 156v459zM228 850c0 63 44 82 100 82s100 -19 100 -82s-44 -82 -100 -82
s-100 19 -100 82zM362 850c0 11 -11 17 -34 17s-34 -6 -34 -17s11 -17 34 -17s34 6 34 17z" />
    <glyph glyph-name="Uhungarumlaut" unicode="&#x170;" horiz-adv-x="656" 
d="M328 -12c-102 0 -272 38 -272 248v469c0 29 14 45 43 45h26c29 0 43 -16 43 -45v-459c0 -141 98 -156 160 -156s160 15 160 156v459c0 29 14 45 43 45h26c29 0 43 -16 43 -45v-469c0 -210 -170 -248 -272 -248zM460 905h63c26 0 33 -26 12 -44l-55 -47
c-19 -16 -32 -19 -51 -19h-38c-20 0 -29 17 -17 34l33 50c13 20 29 26 53 26zM290 905h63c26 0 33 -26 12 -44l-55 -47c-19 -16 -32 -19 -51 -19h-38c-20 0 -29 17 -17 34l33 50c13 20 29 26 53 26z" />
    <glyph glyph-name="Uogonek" unicode="&#x172;" horiz-adv-x="656" 
d="M353 -250c-67 0 -123 37 -123 109c0 40 17 87 70 130c-102 7 -244 55 -244 247v469c0 29 14 45 43 45h26c29 0 43 -16 43 -45v-459c0 -141 98 -156 160 -156s160 15 160 156v459c0 29 14 45 43 45h26c29 0 43 -16 43 -45v-469c0 -151 -85 -209 -173 -236
c-57 -17 -108 -64 -108 -125c0 -30 20 -51 56 -51c14 0 23 0 37 4c22 6 29 -5 29 -21v-18c0 -15 -6 -25 -26 -31s-38 -8 -62 -8z" />
    <glyph glyph-name="Wcircumflex" unicode="&#x174;" horiz-adv-x="884" 
d="M412 750h60c28 0 42 -10 49 -42l128 -549l94 550c5 28 18 41 45 41h41c26 0 38 -17 32 -46l-133 -670c-6 -29 -21 -43 -49 -43h-52c-28 0 -43 14 -50 43l-135 585l-135 -585c-7 -29 -22 -43 -50 -43h-52c-28 0 -43 14 -49 43l-133 670c-6 29 6 46 32 46h41
c27 0 40 -13 45 -41l94 -550l128 549c7 32 21 42 49 42zM499 808l-57 31l-57 -31c-19 -10 -29 -13 -55 -13h-51c-17 0 -27 23 -7 37l74 54c19 14 35 19 57 19h78c22 0 38 -5 57 -19l74 -54c20 -14 10 -37 -7 -37h-51c-26 0 -36 3 -55 13z" />
    <glyph glyph-name="Ycircumflex" unicode="&#x176;" horiz-adv-x="670" 
d="M150 718l185 -318l185 318c12 21 26 32 53 32h47c27 0 38 -28 24 -50l-252 -399v-256c0 -29 -14 -45 -43 -45h-27c-30 0 -44 16 -44 45v256l-252 399c-14 22 -3 50 24 50h47c27 0 41 -11 53 -32zM392 808l-57 31l-57 -31c-19 -10 -29 -13 -55 -13h-51c-17 0 -27 23 -7 37
l74 54c19 14 35 19 57 19h78c22 0 38 -5 57 -19l74 -54c20 -14 10 -37 -7 -37h-51c-26 0 -36 3 -55 13z" />
    <glyph glyph-name="Zacute" unicode="&#x179;" horiz-adv-x="610" 
d="M551 654l-370 -548l354 2c29 0 45 -14 45 -44v-21c0 -29 -16 -43 -45 -43h-460c-29 0 -45 14 -45 43v14c0 16 4 24 14 39l370 548l-314 -2c-29 0 -45 14 -45 44v21c0 29 16 43 45 43h420c29 0 45 -14 45 -43v-14c0 -16 -4 -24 -14 -39zM355 905h63c26 0 33 -26 12 -44
l-55 -47c-19 -16 -32 -19 -51 -19h-38c-20 0 -29 17 -17 34l33 50c13 20 29 26 53 26z" />
    <glyph glyph-name="Zdotaccent" unicode="&#x17b;" horiz-adv-x="610" 
d="M551 654l-370 -548l354 2c29 0 45 -14 45 -44v-21c0 -29 -16 -43 -45 -43h-460c-29 0 -45 14 -45 43v14c0 16 4 24 14 39l370 548l-314 -2c-29 0 -45 14 -45 44v21c0 29 16 43 45 43h420c29 0 45 -14 45 -43v-14c0 -16 -4 -24 -14 -39zM235 850c0 40 33 73 73 73
s73 -33 73 -73s-33 -73 -73 -73s-73 33 -73 73z" />
    <glyph glyph-name="Zcaron" unicode="&#x17d;" horiz-adv-x="610" 
d="M551 654l-370 -548l354 2c29 0 45 -14 45 -44v-21c0 -29 -16 -43 -45 -43h-460c-29 0 -45 14 -45 43v14c0 16 4 24 14 39l370 548l-314 -2c-29 0 -45 14 -45 44v21c0 29 16 43 45 43h420c29 0 45 -14 45 -43v-14c0 -16 -4 -24 -14 -39zM251 892l57 -31l57 31
c19 10 29 13 55 13h51c17 0 27 -23 7 -37l-74 -54c-19 -14 -35 -19 -57 -19h-78c-22 0 -38 5 -57 19l-74 54c-20 14 -10 37 7 37h51c26 0 36 -3 55 -13z" />
    <glyph glyph-name="Anocross" horiz-adv-x="640" 
d="M493 41l-173 569l-173 -569c-9 -29 -21 -41 -51 -41h-44c-25 0 -41 22 -31 52l227 667c10 28 22 40 50 40h44c28 0 40 -12 50 -40l227 -667c10 -30 -6 -52 -31 -52h-44c-30 0 -42 12 -51 41z" />
    <glyph glyph-name="agrave" unicode="&#xe0;" horiz-adv-x="496" 
d="M444 334v-301c0 -21 -11 -33 -32 -33h-11c-21 0 -27 8 -36 29l-5 11c-40 -33 -96 -52 -151 -52c-129 0 -172 80 -172 160c0 108 70 154 183 163l112 9v25c0 51 -24 71 -98 71c-55 0 -101 -14 -120 -20c-22 -7 -36 6 -36 23v37c0 19 7 31 28 37c27 8 83 19 136 19
c164 0 202 -72 202 -178zM332 243l-105 -12c-50 -6 -79 -25 -79 -77c0 -38 16 -74 77 -74c45 0 76 13 107 33v130zM135 750h63c24 0 39 -12 46 -34l41 -133c6 -20 -3 -33 -23 -33h-34c-19 0 -32 8 -45 30l-71 124c-14 24 -3 46 23 46z" />
    <glyph glyph-name="aacute" unicode="&#xe1;" horiz-adv-x="496" 
d="M444 334v-301c0 -21 -11 -33 -32 -33h-11c-21 0 -27 8 -36 29l-5 11c-40 -33 -96 -52 -151 -52c-129 0 -172 80 -172 160c0 108 70 154 183 163l112 9v25c0 51 -24 71 -98 71c-55 0 -101 -14 -120 -20c-22 -7 -36 6 -36 23v37c0 19 7 31 28 37c27 8 83 19 136 19
c164 0 202 -72 202 -178zM332 243l-105 -12c-50 -6 -79 -25 -79 -77c0 -38 16 -74 77 -74c45 0 76 13 107 33v130zM292 750h63c26 0 37 -22 23 -46l-71 -124c-13 -22 -26 -30 -45 -30h-34c-20 0 -29 13 -23 33l41 133c7 22 22 34 46 34z" />
    <glyph glyph-name="acircumflex" unicode="&#xe2;" horiz-adv-x="496" 
d="M444 334v-301c0 -21 -11 -33 -32 -33h-11c-21 0 -27 8 -36 29l-5 11c-40 -33 -96 -52 -151 -52c-129 0 -172 80 -172 160c0 108 70 154 183 163l112 9v25c0 51 -24 71 -98 71c-55 0 -101 -14 -120 -20c-22 -7 -36 6 -36 23v37c0 19 7 31 28 37c27 8 83 19 136 19
c164 0 202 -72 202 -178zM330 573l-85 95l-85 -95c-14 -16 -24 -23 -47 -23h-39c-17 0 -27 19 -13 37l109 136c18 23 28 27 50 27h50c22 0 32 -4 50 -27l109 -136c14 -18 4 -37 -13 -37h-39c-23 0 -33 7 -47 23zM332 243l-105 -12c-50 -6 -79 -25 -79 -77
c0 -38 16 -74 77 -74c45 0 76 13 107 33v130z" />
    <glyph glyph-name="atilde" unicode="&#xe3;" horiz-adv-x="496" 
d="M444 334v-301c0 -21 -11 -33 -32 -33h-11c-21 0 -27 8 -36 29l-5 11c-40 -33 -96 -52 -151 -52c-129 0 -172 80 -172 160c0 108 70 154 183 163l112 9v25c0 51 -24 71 -98 71c-55 0 -101 -14 -120 -20c-22 -7 -36 6 -36 23v37c0 19 7 31 28 37c27 8 83 19 136 19
c164 0 202 -72 202 -178zM332 243l-105 -12c-50 -6 -79 -25 -79 -77c0 -38 16 -74 77 -74c45 0 76 13 107 33v130zM325 653c28 0 39 11 45 26c7 18 17 28 36 28h15c19 0 28 -14 27 -32c-3 -38 -25 -108 -122 -108c-88 0 -108 74 -161 74c-28 0 -39 -11 -45 -26
c-7 -18 -17 -28 -36 -28h-15c-19 0 -28 14 -27 32c3 38 25 108 122 108c88 0 108 -74 161 -74z" />
    <glyph glyph-name="adieresis" unicode="&#xe4;" horiz-adv-x="496" 
d="M444 334v-301c0 -21 -11 -33 -32 -33h-11c-21 0 -27 8 -36 29l-5 11c-40 -33 -96 -52 -151 -52c-129 0 -172 80 -172 160c0 108 70 154 183 163l112 9v25c0 51 -24 71 -98 71c-55 0 -101 -14 -120 -20c-22 -7 -36 6 -36 23v37c0 19 7 31 28 37c27 8 83 19 136 19
c164 0 202 -72 202 -178zM332 243l-105 -12c-50 -6 -79 -25 -79 -77c0 -38 16 -74 77 -74c45 0 76 13 107 33v130zM66 648c0 40 33 73 73 73s73 -33 73 -73s-33 -73 -73 -73s-73 33 -73 73zM278 648c0 40 33 73 73 73s73 -33 73 -73s-33 -73 -73 -73s-73 33 -73 73z" />
    <glyph glyph-name="aring" unicode="&#xe5;" horiz-adv-x="496" 
d="M444 334v-301c0 -21 -11 -33 -32 -33h-11c-21 0 -27 8 -36 29l-5 11c-40 -33 -96 -52 -151 -52c-129 0 -172 80 -172 160c0 108 70 154 183 163l112 9v25c0 51 -24 71 -98 71c-55 0 -101 -14 -120 -20c-22 -7 -36 6 -36 23v37c0 19 7 31 28 37c27 8 83 19 136 19
c164 0 202 -72 202 -178zM332 243l-105 -12c-50 -6 -79 -25 -79 -77c0 -38 16 -74 77 -74c45 0 76 13 107 33v130zM350 650c0 -70 -43 -103 -105 -103c-61 0 -105 33 -105 103s44 103 105 103c62 0 105 -33 105 -103zM207 650c0 -27 15 -37 38 -37s39 10 39 37
s-16 37 -39 37s-38 -10 -38 -37z" />
    <glyph glyph-name="ae" unicode="&#xe6;" horiz-adv-x="801" 
d="M332 212h-100c-64 0 -84 -26 -84 -66c0 -38 14 -66 77 -66c45 0 86 15 122 46c-8 23 -14 48 -15 86zM554 415c-82 0 -105 -53 -109 -128h200c0 68 -4 128 -91 128zM559 -12c-80 0 -135 22 -170 62c-56 -47 -119 -62 -180 -62c-129 0 -172 76 -172 154
c0 105 65 148 186 148h109v55c0 50 -21 71 -98 71c-55 0 -101 -14 -120 -20c-22 -7 -36 6 -36 23v37c0 19 7 31 28 37c27 8 83 19 136 19c82 0 134 -18 162 -49c37 37 97 48 150 49c176 0 204 -116 204 -254v-9c0 -26 -13 -40 -38 -40h-275c2 -75 29 -124 131 -124
c60 0 109 15 128 21c22 7 36 -6 36 -23v-37c0 -19 -7 -30 -28 -37c-28 -9 -89 -21 -153 -21z" />
    <glyph glyph-name="ccedilla" unicode="&#xe7;" horiz-adv-x="450" 
d="M41 250c0 156 54 262 231 262c44 0 83 -7 110 -15c21 -6 28 -18 28 -37v-38c0 -17 -14 -29 -36 -22c-19 6 -40 13 -95 13c-97 0 -125 -66 -125 -163s28 -163 125 -163c55 0 76 7 95 13c22 7 36 -5 36 -22v-38c0 -19 -7 -31 -28 -37c-26 -7 -62 -14 -102 -15l2 -41
c61 -16 94 -54 94 -100c0 -64 -49 -97 -119 -97c-30 0 -52 4 -72 10c-19 6 -25 16 -25 31v24c0 16 10 26 28 21c14 -4 32 -9 54 -9c33 0 54 8 54 30c0 24 -19 36 -58 45c-16 3 -23 12 -21 26l7 63c-139 18 -183 118 -183 259z" />
    <glyph glyph-name="egrave" unicode="&#xe8;" horiz-adv-x="510" 
d="M263 415c-82 0 -105 -53 -109 -128h200c0 68 -4 128 -91 128zM429 209h-275c2 -75 29 -124 131 -124c60 0 109 15 128 21c22 7 36 -6 36 -23v-37c0 -19 -7 -30 -28 -37c-28 -9 -89 -21 -153 -21c-167 0 -227 100 -227 262c0 161 59 262 222 262c176 0 204 -116 204 -254
v-9c0 -26 -13 -40 -38 -40zM153 750h63c24 0 39 -12 46 -34l41 -133c6 -20 -3 -33 -23 -33h-34c-19 0 -32 8 -45 30l-71 124c-14 24 -3 46 23 46z" />
    <glyph glyph-name="eacute" unicode="&#xe9;" horiz-adv-x="510" 
d="M263 415c-82 0 -105 -53 -109 -128h200c0 68 -4 128 -91 128zM429 209h-275c2 -75 29 -124 131 -124c60 0 109 15 128 21c22 7 36 -6 36 -23v-37c0 -19 -7 -30 -28 -37c-28 -9 -89 -21 -153 -21c-167 0 -227 100 -227 262c0 161 59 262 222 262c176 0 204 -116 204 -254
v-9c0 -26 -13 -40 -38 -40zM310 750h63c26 0 37 -22 23 -46l-71 -124c-13 -22 -26 -30 -45 -30h-34c-20 0 -29 13 -23 33l41 133c7 22 22 34 46 34z" />
    <glyph glyph-name="ecircumflex" unicode="&#xea;" horiz-adv-x="510" 
d="M429 209h-275c2 -75 29 -124 131 -124c60 0 109 15 128 21c22 7 36 -6 36 -23v-37c0 -19 -7 -30 -28 -37c-28 -9 -89 -21 -153 -21c-167 0 -227 100 -227 262c0 161 59 262 222 262c176 0 204 -116 204 -254v-9c0 -26 -13 -40 -38 -40zM348 573l-85 95l-85 -95
c-14 -16 -24 -23 -47 -23h-39c-17 0 -27 19 -13 37l109 136c18 23 28 27 50 27h50c22 0 32 -4 50 -27l109 -136c14 -18 4 -37 -13 -37h-39c-23 0 -33 7 -47 23zM263 415c-82 0 -105 -53 -109 -128h200c0 68 -4 128 -91 128z" />
    <glyph glyph-name="edieresis" unicode="&#xeb;" horiz-adv-x="510" 
d="M263 415c-82 0 -105 -53 -109 -128h200c0 68 -4 128 -91 128zM429 209h-275c2 -75 29 -124 131 -124c60 0 109 15 128 21c22 7 36 -6 36 -23v-37c0 -19 -7 -30 -28 -37c-28 -9 -89 -21 -153 -21c-167 0 -227 100 -227 262c0 161 59 262 222 262c176 0 204 -116 204 -254
v-9c0 -26 -13 -40 -38 -40zM84 648c0 40 33 73 73 73s73 -33 73 -73s-33 -73 -73 -73s-73 33 -73 73zM296 648c0 40 33 73 73 73s73 -33 73 -73s-33 -73 -73 -73s-73 33 -73 73z" />
    <glyph glyph-name="igrave" unicode="&#xec;" horiz-adv-x="257" 
d="M65 102v358c0 26 13 40 38 40h36c25 0 38 -14 38 -40v-342c0 -18 8 -26 24 -30c15 -4 23 -13 23 -30v-30c0 -23 -17 -35 -45 -35c-64 0 -114 35 -114 109zM11 750h63c24 0 39 -12 46 -34l41 -133c6 -20 -3 -33 -23 -33h-34c-19 0 -32 8 -45 30l-71 124
c-14 24 -3 46 23 46z" />
    <glyph glyph-name="iacute" unicode="&#xed;" horiz-adv-x="257" 
d="M65 102v358c0 26 13 40 38 40h36c25 0 38 -14 38 -40v-342c0 -18 8 -26 24 -30c15 -4 23 -13 23 -30v-30c0 -23 -17 -35 -45 -35c-64 0 -114 35 -114 109zM168 750h63c26 0 37 -22 23 -46l-71 -124c-13 -22 -26 -30 -45 -30h-34c-20 0 -29 13 -23 33l41 133
c7 22 22 34 46 34z" />
    <glyph glyph-name="icircumflex" unicode="&#xee;" horiz-adv-x="257" 
d="M65 102v358c0 26 13 40 38 40h36c25 0 38 -14 38 -40v-342c0 -18 8 -26 24 -30c15 -4 23 -13 23 -30v-30c0 -23 -17 -35 -45 -35c-64 0 -114 35 -114 109zM206 573l-85 95l-85 -95c-14 -16 -24 -23 -47 -23h-39c-17 0 -27 19 -13 37l109 136c18 23 28 27 50 27h50
c22 0 32 -4 50 -27l109 -136c14 -18 4 -37 -13 -37h-39c-23 0 -33 7 -47 23z" />
    <glyph glyph-name="idieresis" unicode="&#xef;" horiz-adv-x="257" 
d="M65 102v358c0 26 13 40 38 40h36c25 0 38 -14 38 -40v-342c0 -18 8 -26 24 -30c15 -4 23 -13 23 -30v-30c0 -23 -17 -35 -45 -35c-64 0 -114 35 -114 109zM-48 648c0 40 33 73 73 73s73 -33 73 -73s-33 -73 -73 -73s-73 33 -73 73zM144 648c0 40 33 73 73 73
s73 -33 73 -73s-33 -73 -73 -73s-73 33 -73 73z" />
    <glyph glyph-name="eth" unicode="&#xf0;" horiz-adv-x="526" 
d="M135 611l78 40c-48 38 -87 46 -104 51c-35 10 -28 48 -2 48h91c24 0 48 -6 74 -26l32 -27l82 42c18 10 34 -2 34 -19v-19c0 -16 -4 -22 -17 -30l-48 -25c91 -105 130 -234 130 -396c0 -154 -44 -262 -222 -262s-222 108 -222 262c0 164 54 262 212 262c36 0 67 -7 84 -18
c-24 45 -49 79 -72 106l-113 -57c-18 -11 -34 2 -34 19v19c0 16 4 22 17 30zM263 82c95 0 109 61 109 168s-14 168 -109 168s-109 -61 -109 -168s14 -168 109 -168z" />
    <glyph glyph-name="ntilde" unicode="&#xf1;" horiz-adv-x="524" 
d="M55 40v427c0 21 11 33 32 33h11c21 0 27 -8 36 -29l5 -11c51 35 108 52 162 52c127 0 172 -63 172 -159v-313c0 -26 -13 -40 -38 -40h-36c-25 0 -38 14 -38 40v303c0 51 -26 74 -79 74c-52 0 -88 -14 -115 -29v-348c0 -26 -13 -40 -38 -40h-36c-25 0 -38 14 -38 40z
M346 653c28 0 39 11 45 26c7 18 17 28 36 28h15c19 0 28 -14 27 -32c-3 -38 -25 -108 -122 -108c-88 0 -108 74 -161 74c-28 0 -39 -11 -45 -26c-7 -18 -17 -28 -36 -28h-15c-19 0 -28 14 -27 32c3 38 25 108 122 108c88 0 108 -74 161 -74z" />
    <glyph glyph-name="ograve" unicode="&#xf2;" horiz-adv-x="526" 
d="M263 82c95 0 109 61 109 168s-14 168 -109 168s-109 -61 -109 -168s14 -168 109 -168zM263 -12c-178 0 -222 108 -222 262s44 262 222 262s222 -108 222 -262s-44 -262 -222 -262zM153 750h63c24 0 39 -12 46 -34l41 -133c6 -20 -3 -33 -23 -33h-34c-19 0 -32 8 -45 30
l-71 124c-14 24 -3 46 23 46z" />
    <glyph glyph-name="oacute" unicode="&#xf3;" horiz-adv-x="526" 
d="M263 82c95 0 109 61 109 168s-14 168 -109 168s-109 -61 -109 -168s14 -168 109 -168zM263 -12c-178 0 -222 108 -222 262s44 262 222 262s222 -108 222 -262s-44 -262 -222 -262zM310 750h63c26 0 37 -22 23 -46l-71 -124c-13 -22 -26 -30 -45 -30h-34
c-20 0 -29 13 -23 33l41 133c7 22 22 34 46 34z" />
    <glyph glyph-name="ocircumflex" unicode="&#xf4;" horiz-adv-x="526" 
d="M263 -12c-178 0 -222 108 -222 262s44 262 222 262s222 -108 222 -262s-44 -262 -222 -262zM263 82c95 0 109 61 109 168s-14 168 -109 168s-109 -61 -109 -168s14 -168 109 -168zM348 573l-85 95l-85 -95c-14 -16 -24 -23 -47 -23h-39c-17 0 -27 19 -13 37l109 136
c18 23 28 27 50 27h50c22 0 32 -4 50 -27l109 -136c14 -18 4 -37 -13 -37h-39c-23 0 -33 7 -47 23z" />
    <glyph glyph-name="otilde" unicode="&#xf5;" horiz-adv-x="526" 
d="M263 82c95 0 109 61 109 168s-14 168 -109 168s-109 -61 -109 -168s14 -168 109 -168zM263 -12c-178 0 -222 108 -222 262s44 262 222 262s222 -108 222 -262s-44 -262 -222 -262zM343 653c28 0 39 11 45 26c7 18 17 28 36 28h15c19 0 28 -14 27 -32
c-3 -38 -25 -108 -122 -108c-88 0 -108 74 -161 74c-28 0 -39 -11 -45 -26c-7 -18 -17 -28 -36 -28h-15c-19 0 -28 14 -27 32c3 38 25 108 122 108c88 0 108 -74 161 -74z" />
    <glyph glyph-name="odieresis" unicode="&#xf6;" horiz-adv-x="526" 
d="M263 82c95 0 109 61 109 168s-14 168 -109 168s-109 -61 -109 -168s14 -168 109 -168zM263 -12c-178 0 -222 108 -222 262s44 262 222 262s222 -108 222 -262s-44 -262 -222 -262zM84 648c0 40 33 73 73 73s73 -33 73 -73s-33 -73 -73 -73s-73 33 -73 73zM296 648
c0 40 33 73 73 73s73 -33 73 -73s-33 -73 -73 -73s-73 33 -73 73z" />
    <glyph glyph-name="ugrave" unicode="&#xf9;" horiz-adv-x="524" 
d="M469 460v-427c0 -21 -11 -33 -32 -33h-11c-21 0 -27 8 -36 29l-5 11c-51 -35 -108 -52 -162 -52c-127 0 -172 63 -172 159v313c0 26 13 40 38 40h36c25 0 38 -14 38 -40v-303c0 -51 26 -74 79 -74c52 0 88 14 115 29v348c0 26 13 40 38 40h36c25 0 38 -14 38 -40z
M150 750h63c24 0 39 -12 46 -34l41 -133c6 -20 -3 -33 -23 -33h-34c-19 0 -32 8 -45 30l-71 124c-14 24 -3 46 23 46z" />
    <glyph glyph-name="uacute" unicode="&#xfa;" horiz-adv-x="524" 
d="M469 460v-427c0 -21 -11 -33 -32 -33h-11c-21 0 -27 8 -36 29l-5 11c-51 -35 -108 -52 -162 -52c-127 0 -172 63 -172 159v313c0 26 13 40 38 40h36c25 0 38 -14 38 -40v-303c0 -51 26 -74 79 -74c52 0 88 14 115 29v348c0 26 13 40 38 40h36c25 0 38 -14 38 -40z
M307 750h63c26 0 37 -22 23 -46l-71 -124c-13 -22 -26 -30 -45 -30h-34c-20 0 -29 13 -23 33l41 133c7 22 22 34 46 34z" />
    <glyph glyph-name="ucircumflex" unicode="&#xfb;" horiz-adv-x="524" 
d="M469 460v-427c0 -21 -11 -33 -32 -33h-11c-21 0 -27 8 -36 29l-5 11c-51 -35 -108 -52 -162 -52c-127 0 -172 63 -172 159v313c0 26 13 40 38 40h36c25 0 38 -14 38 -40v-303c0 -51 26 -74 79 -74c52 0 88 14 115 29v348c0 26 13 40 38 40h36c25 0 38 -14 38 -40z
M345 573l-85 95l-85 -95c-14 -16 -24 -23 -47 -23h-39c-17 0 -27 19 -13 37l109 136c18 23 28 27 50 27h50c22 0 32 -4 50 -27l109 -136c14 -18 4 -37 -13 -37h-39c-23 0 -33 7 -47 23z" />
    <glyph glyph-name="udieresis" unicode="&#xfc;" horiz-adv-x="524" 
d="M469 460v-427c0 -21 -11 -33 -32 -33h-11c-21 0 -27 8 -36 29l-5 11c-51 -35 -108 -52 -162 -52c-127 0 -172 63 -172 159v313c0 26 13 40 38 40h36c25 0 38 -14 38 -40v-303c0 -51 26 -74 79 -74c52 0 88 14 115 29v348c0 26 13 40 38 40h36c25 0 38 -14 38 -40zM81 648
c0 40 33 73 73 73s73 -33 73 -73s-33 -73 -73 -73s-73 33 -73 73zM293 648c0 40 33 73 73 73s73 -33 73 -73s-33 -73 -73 -73s-73 33 -73 73z" />
    <glyph glyph-name="yacute" unicode="&#xfd;" horiz-adv-x="500" 
d="M478 446l-264 -662c-9 -22 -23 -34 -49 -34h-48c-29 0 -44 29 -31 56l107 212l-171 428c-12 30 4 54 33 54h32c26 0 40 -14 47 -34l116 -328l116 328c7 21 21 34 47 34h32c29 0 45 -24 33 -54zM297 750h63c26 0 37 -22 23 -46l-71 -124c-13 -22 -26 -30 -45 -30h-34
c-20 0 -29 13 -23 33l41 133c7 22 22 34 46 34z" />
    <glyph glyph-name="thorn" unicode="&#xfe;" horiz-adv-x="542" 
d="M275 83c98 0 113 75 113 167c0 93 -15 167 -113 167c-53 0 -88 -18 -108 -29v-276c20 -11 55 -29 108 -29zM55 -210v920c0 26 13 40 38 40h36c25 0 38 -14 38 -40v-237c36 23 84 39 134 39c146 0 200 -99 200 -262s-54 -262 -200 -262c-50 0 -98 16 -134 39v-237
c0 -26 -13 -40 -38 -40h-36c-25 0 -38 14 -38 40z" />
    <glyph glyph-name="amacron" unicode="&#x101;" horiz-adv-x="496" 
d="M444 334v-301c0 -21 -11 -33 -32 -33h-11c-21 0 -27 8 -36 29l-5 11c-40 -33 -96 -52 -151 -52c-129 0 -172 80 -172 160c0 108 70 154 183 163l112 9v25c0 51 -24 71 -98 71c-55 0 -101 -14 -120 -20c-22 -7 -36 6 -36 23v37c0 19 7 31 28 37c27 8 83 19 136 19
c164 0 202 -72 202 -178zM332 243l-105 -12c-50 -6 -79 -25 -79 -77c0 -38 16 -74 77 -74c45 0 76 13 107 33v130zM355 605h-220c-25 0 -38 13 -38 37v15c0 24 13 37 38 37h220c25 0 38 -13 38 -37v-15c0 -24 -13 -37 -38 -37z" />
    <glyph glyph-name="abreve" unicode="&#x103;" horiz-adv-x="496" 
d="M444 334v-301c0 -21 -11 -33 -32 -33h-11c-21 0 -27 8 -36 29l-5 11c-40 -33 -96 -52 -151 -52c-129 0 -172 80 -172 160c0 108 70 154 183 163l112 9v25c0 51 -24 71 -98 71c-55 0 -101 -14 -120 -20c-22 -7 -36 6 -36 23v37c0 19 7 31 28 37c27 8 83 19 136 19
c164 0 202 -72 202 -178zM332 243l-105 -12c-50 -6 -79 -25 -79 -77c0 -38 16 -74 77 -74c45 0 76 13 107 33v130zM245 639c76 0 98 32 103 84c2 18 9 27 29 27h27c18 0 28 -12 27 -29c-6 -103 -50 -171 -186 -171s-180 68 -186 171c-1 17 9 29 27 29h27c20 0 27 -9 29 -27
c5 -52 27 -84 103 -84z" />
    <glyph glyph-name="aogonek" unicode="&#x105;" horiz-adv-x="496" 
d="M372 -250c-67 0 -123 37 -123 109c0 58 30 119 116 168l-5 13c-40 -33 -96 -52 -151 -52c-129 0 -172 80 -172 160c0 108 70 154 183 163l112 9v25c0 51 -24 71 -98 71c-55 0 -101 -14 -120 -20c-22 -7 -36 6 -36 23v37c0 19 7 31 28 37c27 8 83 19 136 19
c164 0 202 -72 202 -178v-301c0 -16 -6 -25 -18 -31c-46 -22 -88 -66 -88 -127c0 -30 20 -51 56 -51c14 0 23 0 37 4c22 6 29 -5 29 -21v-18c0 -15 -6 -25 -26 -31s-38 -8 -62 -8zM332 243l-105 -12c-50 -6 -79 -25 -79 -77c0 -38 16 -74 77 -74c45 0 76 13 107 33v130z" />
    <glyph glyph-name="cacute" unicode="&#x107;" horiz-adv-x="450" 
d="M41 250c0 156 54 262 231 262c44 0 83 -7 110 -15c21 -6 28 -18 28 -37v-38c0 -17 -14 -29 -36 -22c-19 6 -40 13 -95 13c-97 0 -125 -66 -125 -163s28 -163 125 -163c55 0 76 7 95 13c22 7 36 -5 36 -22v-38c0 -19 -7 -31 -28 -37c-27 -8 -66 -15 -110 -15
c-177 0 -231 106 -231 262zM304 750h63c26 0 37 -22 23 -46l-71 -124c-13 -22 -26 -30 -45 -30h-34c-20 0 -29 13 -23 33l41 133c7 22 22 34 46 34z" />
    <glyph glyph-name="ccircumflex" unicode="&#x109;" horiz-adv-x="450" 
d="M41 250c0 156 54 262 231 262c44 0 83 -7 110 -15c21 -6 28 -18 28 -37v-38c0 -17 -14 -29 -36 -22c-19 6 -40 13 -95 13c-97 0 -125 -66 -125 -163s28 -163 125 -163c55 0 76 7 95 13c22 7 36 -5 36 -22v-38c0 -19 -7 -31 -28 -37c-27 -8 -66 -15 -110 -15
c-177 0 -231 106 -231 262zM348 573l-85 95l-85 -95c-14 -16 -24 -23 -47 -23h-39c-17 0 -27 19 -13 37l109 136c18 23 28 27 50 27h50c22 0 32 -4 50 -27l109 -136c14 -18 4 -37 -13 -37h-39c-23 0 -33 7 -47 23z" />
    <glyph glyph-name="cdotaccent" unicode="&#x10b;" horiz-adv-x="450" 
d="M41 250c0 156 54 262 231 262c44 0 83 -7 110 -15c21 -6 28 -18 28 -37v-38c0 -17 -14 -29 -36 -22c-19 6 -40 13 -95 13c-97 0 -125 -66 -125 -163s28 -163 125 -163c55 0 76 7 95 13c22 7 36 -5 36 -22v-38c0 -19 -7 -31 -28 -37c-27 -8 -66 -15 -110 -15
c-177 0 -231 106 -231 262zM184 648c0 40 33 73 73 73s73 -33 73 -73s-33 -73 -73 -73s-73 33 -73 73z" />
    <glyph glyph-name="ccaron" unicode="&#x10d;" horiz-adv-x="450" 
d="M41 250c0 156 54 262 231 262c44 0 83 -7 110 -15c21 -6 28 -18 28 -37v-38c0 -17 -14 -29 -36 -22c-19 6 -40 13 -95 13c-97 0 -125 -66 -125 -163s28 -163 125 -163c55 0 76 7 95 13c22 7 36 -5 36 -22v-38c0 -19 -7 -31 -28 -37c-27 -8 -66 -15 -110 -15
c-177 0 -231 106 -231 262zM172 727l85 -95l85 95c14 16 24 23 47 23h39c17 0 27 -19 13 -37l-109 -136c-18 -23 -28 -27 -50 -27h-50c-22 0 -32 4 -50 27l-109 136c-14 18 -4 37 13 37h39c23 0 33 -7 47 -23z" />
    <glyph glyph-name="dcaron" unicode="&#x10f;" horiz-adv-x="552" 
d="M408 29l-5 11c-44 -32 -95 -52 -162 -52c-146 0 -200 98 -200 262c0 163 54 262 200 262c50 0 98 -16 134 -39v237c0 26 13 40 38 40h36c25 0 38 -14 38 -40v-677c0 -21 -11 -33 -32 -33h-11c-21 0 -27 8 -36 29zM267 417c-98 0 -113 -75 -113 -167
c0 -93 15 -167 113 -167c53 0 88 18 108 29v276c-20 11 -55 29 -108 29zM581 750h21c24 0 36 -16 30 -40l-37 -130c-5 -20 -14 -30 -34 -30h-4c-19 0 -26 12 -24 30l12 136c2 23 14 34 36 34z" />
    <glyph glyph-name="dcroat" unicode="&#x111;" horiz-adv-x="542" 
d="M540 577h-53v-544c0 -21 -11 -33 -32 -33h-11c-21 0 -27 8 -36 29l-5 11c-44 -32 -95 -52 -162 -52c-146 0 -200 98 -200 262c0 163 54 262 200 262c50 0 98 -16 134 -39v104h-86c-25 0 -38 13 -38 37v10c0 24 13 37 38 37h86v49c0 26 13 40 38 40h36c25 0 38 -14 38 -40
v-49h53c25 0 38 -13 38 -37v-10c0 -24 -13 -37 -38 -37zM267 417c-98 0 -113 -75 -113 -167c0 -93 15 -167 113 -167c53 0 88 18 108 29v276c-20 11 -55 29 -108 29z" />
    <glyph glyph-name="emacron" unicode="&#x113;" horiz-adv-x="510" 
d="M263 415c-82 0 -105 -53 -109 -128h200c0 68 -4 128 -91 128zM429 209h-275c2 -75 29 -124 131 -124c60 0 109 15 128 21c22 7 36 -6 36 -23v-37c0 -19 -7 -30 -28 -37c-28 -9 -89 -21 -153 -21c-167 0 -227 100 -227 262c0 161 59 262 222 262c176 0 204 -116 204 -254
v-9c0 -26 -13 -40 -38 -40zM373 605h-220c-25 0 -38 13 -38 37v15c0 24 13 37 38 37h220c25 0 38 -13 38 -37v-15c0 -24 -13 -37 -38 -37z" />
    <glyph glyph-name="ebreve" unicode="&#x115;" horiz-adv-x="510" 
d="M263 415c-82 0 -105 -53 -109 -128h200c0 68 -4 128 -91 128zM429 209h-275c2 -75 29 -124 131 -124c60 0 109 15 128 21c22 7 36 -6 36 -23v-37c0 -19 -7 -30 -28 -37c-28 -9 -89 -21 -153 -21c-167 0 -227 100 -227 262c0 161 59 262 222 262c176 0 204 -116 204 -254
v-9c0 -26 -13 -40 -38 -40zM263 639c76 0 98 32 103 84c2 18 9 27 29 27h27c18 0 28 -12 27 -29c-6 -103 -50 -171 -186 -171s-180 68 -186 171c-1 17 9 29 27 29h27c20 0 27 -9 29 -27c5 -52 27 -84 103 -84z" />
    <glyph glyph-name="edotaccent" unicode="&#x117;" horiz-adv-x="510" 
d="M263 415c-82 0 -105 -53 -109 -128h200c0 68 -4 128 -91 128zM429 209h-275c2 -75 29 -124 131 -124c60 0 109 15 128 21c22 7 36 -6 36 -23v-37c0 -19 -7 -30 -28 -37c-28 -9 -89 -21 -153 -21c-167 0 -227 100 -227 262c0 161 59 262 222 262c176 0 204 -116 204 -254
v-9c0 -26 -13 -40 -38 -40zM190 648c0 40 33 73 73 73s73 -33 73 -73s-33 -73 -73 -73s-73 33 -73 73z" />
    <glyph glyph-name="eogonek" unicode="&#x119;" horiz-adv-x="510" 
d="M311 -250c-67 0 -123 37 -123 109c0 45 20 89 69 129c-159 5 -216 103 -216 262c0 161 59 262 222 262c176 0 204 -116 204 -254v-9c0 -26 -13 -40 -38 -40h-275c2 -75 29 -124 131 -124c60 0 109 15 128 21c22 7 36 -6 36 -23v-37c0 -19 -7 -30 -28 -37
c-11 -4 -24 -6 -41 -11c-50 -15 -103 -61 -103 -123c0 -30 20 -51 56 -51c14 0 23 0 37 4c22 6 29 -5 29 -21v-18c0 -15 -6 -25 -26 -31s-38 -8 -62 -8zM263 415c-82 0 -105 -53 -109 -128h200c0 68 -4 128 -91 128z" />
    <glyph glyph-name="ecaron" unicode="&#x11b;" horiz-adv-x="510" 
d="M429 209h-275c2 -75 29 -124 131 -124c60 0 109 15 128 21c22 7 36 -6 36 -23v-37c0 -19 -7 -30 -28 -37c-28 -9 -89 -21 -153 -21c-167 0 -227 100 -227 262c0 161 59 262 222 262c176 0 204 -116 204 -254v-9c0 -26 -13 -40 -38 -40zM178 727l85 -95l85 95
c14 16 24 23 47 23h39c17 0 27 -19 13 -37l-109 -136c-18 -23 -28 -27 -50 -27h-50c-22 0 -32 4 -50 27l-109 136c-14 18 -4 37 13 37h39c23 0 33 -7 47 -23zM263 415c-82 0 -105 -53 -109 -128h200c0 68 -4 128 -91 128z" />
    <glyph glyph-name="gcircumflex" unicode="&#x11d;" horiz-adv-x="524" 
d="M337 500h140c21 0 33 -11 33 -32v-11c0 -21 -7 -30 -29 -36l-42 -12c10 -26 15 -55 15 -87c0 -114 -56 -190 -209 -190c-21 0 -41 1 -58 4c-8 -8 -14 -19 -14 -29c0 -17 9 -26 30 -29l181 -22c99 -12 134 -57 134 -140c0 -129 -136 -178 -281 -178
c-134 0 -231 43 -231 146c0 68 51 108 104 124v1c-25 14 -39 42 -39 69c0 37 22 63 45 81c-57 32 -80 90 -80 163c0 114 56 190 209 190c36 0 66 -4 92 -12zM330 573l-85 95l-85 -95c-14 -16 -24 -23 -47 -23h-39c-17 0 -27 19 -13 37l109 136c18 23 28 27 50 27h50
c22 0 32 -4 50 -27l109 -136c14 -18 4 -37 -13 -37h-39c-23 0 -33 7 -47 23zM352 -33l-142 18c-51 -9 -97 -32 -97 -80c0 -56 40 -78 132 -78c88 0 165 26 165 86c0 34 -17 49 -58 54zM142 322c0 -57 19 -101 103 -101s103 44 103 101s-19 101 -103 101s-103 -44 -103 -101z
" />
    <glyph glyph-name="gbreve" unicode="&#x11f;" horiz-adv-x="524" 
d="M352 -33l-142 18c-51 -9 -97 -32 -97 -80c0 -56 40 -78 132 -78c88 0 165 26 165 86c0 34 -17 49 -58 54zM142 322c0 -57 19 -101 103 -101s103 44 103 101s-19 101 -103 101s-103 -44 -103 -101zM337 500h140c21 0 33 -11 33 -32v-11c0 -21 -7 -30 -29 -36l-42 -12
c10 -26 15 -55 15 -87c0 -114 -56 -190 -209 -190c-21 0 -41 1 -58 4c-8 -8 -14 -19 -14 -29c0 -17 9 -26 30 -29l181 -22c99 -12 134 -57 134 -140c0 -129 -136 -178 -281 -178c-134 0 -231 43 -231 146c0 68 51 108 104 124v1c-25 14 -39 42 -39 69c0 37 22 63 45 81
c-57 32 -80 90 -80 163c0 114 56 190 209 190c36 0 66 -4 92 -12zM245 639c76 0 98 32 103 84c2 18 9 27 29 27h27c18 0 28 -12 27 -29c-6 -103 -50 -171 -186 -171s-180 68 -186 171c-1 17 9 29 27 29h27c20 0 27 -9 29 -27c5 -52 27 -84 103 -84z" />
    <glyph glyph-name="gdotaccent" unicode="&#x121;" horiz-adv-x="524" 
d="M352 -33l-142 18c-51 -9 -97 -32 -97 -80c0 -56 40 -78 132 -78c88 0 165 26 165 86c0 34 -17 49 -58 54zM142 322c0 -57 19 -101 103 -101s103 44 103 101s-19 101 -103 101s-103 -44 -103 -101zM337 500h140c21 0 33 -11 33 -32v-11c0 -21 -7 -30 -29 -36l-42 -12
c10 -26 15 -55 15 -87c0 -114 -56 -190 -209 -190c-21 0 -41 1 -58 4c-8 -8 -14 -19 -14 -29c0 -17 9 -26 30 -29l181 -22c99 -12 134 -57 134 -140c0 -129 -136 -178 -281 -178c-134 0 -231 43 -231 146c0 68 51 108 104 124v1c-25 14 -39 42 -39 69c0 37 22 63 45 81
c-57 32 -80 90 -80 163c0 114 56 190 209 190c36 0 66 -4 92 -12zM172 648c0 40 33 73 73 73s73 -33 73 -73s-33 -73 -73 -73s-73 33 -73 73z" />
    <glyph glyph-name="gcommaaccent" unicode="&#x123;" horiz-adv-x="524" 
d="M352 -33l-142 18c-51 -9 -97 -32 -97 -80c0 -56 40 -78 132 -78c88 0 165 26 165 86c0 34 -17 49 -58 54zM142 322c0 -57 19 -101 103 -101s103 44 103 101s-19 101 -103 101s-103 -44 -103 -101zM337 500h140c21 0 33 -11 33 -32v-11c0 -21 -7 -30 -29 -36l-42 -12
c10 -26 15 -55 15 -87c0 -114 -56 -190 -209 -190c-21 0 -41 1 -58 4c-8 -8 -14 -19 -14 -29c0 -17 9 -26 30 -29l181 -22c99 -12 134 -57 134 -140c0 -129 -136 -178 -281 -178c-134 0 -231 43 -231 146c0 68 51 108 104 124v1c-25 14 -39 42 -39 69c0 37 22 63 45 81
c-57 32 -80 90 -80 163c0 114 56 190 209 190c36 0 66 -4 92 -12zM266 550h-50c-29 0 -41 24 -31 50l44 118c9 24 22 32 44 32h31c17 0 29 -12 26 -33l-18 -126c-4 -29 -20 -41 -46 -41z" />
    <glyph glyph-name="hcircumflex" unicode="&#x125;" horiz-adv-x="524" 
d="M361 40v303c0 51 -26 74 -79 74c-52 0 -88 -14 -115 -29v-348c0 -26 -13 -40 -38 -40h-36c-25 0 -38 14 -38 40v670c0 26 13 40 38 40h36c25 0 38 -14 38 -40v-235c39 23 83 37 134 37c127 0 172 -63 172 -159v-313c0 -26 -13 -40 -38 -40h-36c-25 0 -38 14 -38 40z
M168 808l-57 31l-57 -31c-19 -10 -29 -13 -55 -13h-51c-17 0 -27 23 -7 37l74 54c19 14 35 19 57 19h78c22 0 38 -5 57 -19l74 -54c20 -14 10 -37 -7 -37h-51c-26 0 -36 3 -55 13z" />
    <glyph glyph-name="hbar" unicode="&#x127;" horiz-adv-x="524" 
d="M253 577h-86v-102c39 23 83 37 134 37c127 0 172 -63 172 -159v-313c0 -26 -13 -40 -38 -40h-36c-25 0 -38 14 -38 40v303c0 51 -26 74 -79 74c-52 0 -88 -14 -115 -29v-348c0 -26 -13 -40 -38 -40h-36c-25 0 -38 14 -38 40v537h-53c-25 0 -38 13 -38 37v10
c0 24 13 37 38 37h53v49c0 26 13 40 38 40h36c25 0 38 -14 38 -40v-49h86c25 0 38 -13 38 -37v-10c0 -24 -13 -37 -38 -37z" />
    <glyph glyph-name="itilde" unicode="&#x129;" horiz-adv-x="257" 
d="M65 102v358c0 26 13 40 38 40h36c25 0 38 -14 38 -40v-342c0 -18 8 -26 24 -30c15 -4 23 -13 23 -30v-30c0 -23 -17 -35 -45 -35c-64 0 -114 35 -114 109zM201 653c28 0 39 11 45 26c7 18 17 28 36 28h15c19 0 28 -14 27 -32c-3 -38 -25 -108 -122 -108
c-88 0 -108 74 -161 74c-28 0 -39 -11 -45 -26c-7 -18 -17 -28 -36 -28h-15c-19 0 -28 14 -27 32c3 38 25 108 122 108c88 0 108 -74 161 -74z" />
    <glyph glyph-name="imacron" unicode="&#x12b;" horiz-adv-x="257" 
d="M65 102v358c0 26 13 40 38 40h36c25 0 38 -14 38 -40v-342c0 -18 8 -26 24 -30c15 -4 23 -13 23 -30v-30c0 -23 -17 -35 -45 -35c-64 0 -114 35 -114 109zM231 605h-220c-25 0 -38 13 -38 37v15c0 24 13 37 38 37h220c25 0 38 -13 38 -37v-15c0 -24 -13 -37 -38 -37z" />
    <glyph glyph-name="ibreve" unicode="&#x12d;" horiz-adv-x="257" 
d="M65 102v358c0 26 13 40 38 40h36c25 0 38 -14 38 -40v-342c0 -18 8 -26 24 -30c15 -4 23 -13 23 -30v-30c0 -23 -17 -35 -45 -35c-64 0 -114 35 -114 109zM121 639c76 0 98 32 103 84c2 18 9 27 29 27h27c18 0 28 -12 27 -29c-6 -103 -50 -171 -186 -171
s-180 68 -186 171c-1 17 9 29 27 29h27c20 0 27 -9 29 -27c5 -52 27 -84 103 -84z" />
    <glyph glyph-name="iogonek" unicode="&#x12f;" horiz-adv-x="257" 
d="M155 -250c-67 0 -123 37 -123 109c0 51 24 102 87 146c-33 16 -54 48 -54 97v358c0 26 13 40 38 40h36c25 0 38 -14 38 -40v-342c0 -18 8 -26 24 -30c15 -4 23 -13 23 -30v-30c0 -16 -9 -25 -23 -32c-40 -20 -80 -61 -80 -121c0 -30 20 -51 56 -51c14 0 23 0 37 4
c22 6 29 -5 29 -21v-18c0 -15 -6 -25 -26 -31s-38 -8 -62 -8zM48 648c0 40 33 73 73 73s73 -33 73 -73s-33 -73 -73 -73s-73 33 -73 73z" />
    <glyph glyph-name="idotaccent" horiz-adv-x="257" 
d="M65 102v358c0 26 13 40 38 40h36c25 0 38 -14 38 -40v-342c0 -18 8 -26 24 -30c15 -4 23 -13 23 -30v-30c0 -23 -17 -35 -45 -35c-64 0 -114 35 -114 109zM48 648c0 40 33 73 73 73s73 -33 73 -73s-33 -73 -73 -73s-73 33 -73 73z" />
    <glyph glyph-name="ij" unicode="&#x133;" horiz-adv-x="454" 
d="M65 102v358c0 26 13 40 38 40h36c25 0 38 -14 38 -40v-342c0 -18 8 -26 24 -30c15 -4 23 -13 23 -30v-30c0 -23 -17 -35 -45 -35c-64 0 -114 35 -114 109zM48 648c0 40 33 73 73 73s73 -33 73 -73s-33 -73 -73 -73s-73 33 -73 73zM260 648c0 40 33 73 73 73
s73 -33 73 -73s-33 -73 -73 -73s-73 33 -73 73zM389 460v-550c0 -117 -84 -170 -183 -170c-29 0 -46 12 -46 36v36c0 20 10 36 38 36c49 0 79 27 79 81v531c0 26 13 40 38 40h36c25 0 38 -14 38 -40z" />
    <glyph glyph-name="jcircumflex" unicode="&#x135;" horiz-adv-x="242" 
d="M177 460v-550c0 -117 -84 -170 -183 -170c-29 0 -46 12 -46 36v36c0 20 10 36 38 36c49 0 79 27 79 81v531c0 26 13 40 38 40h36c25 0 38 -14 38 -40zM205 573l-85 95l-85 -95c-14 -16 -24 -23 -47 -23h-39c-17 0 -27 19 -13 37l109 136c18 23 28 27 50 27h50
c22 0 32 -4 50 -27l109 -136c14 -18 4 -37 -13 -37h-39c-23 0 -33 7 -47 23z" />
    <glyph glyph-name="kcommaaccent" unicode="&#x137;" horiz-adv-x="522" 
d="M167 171v-131c0 -26 -13 -40 -38 -40h-36c-25 0 -38 14 -38 40v670c0 26 13 40 38 40h36c25 0 38 -14 38 -40v-409l177 170c21 21 33 29 60 29h44c30 0 40 -33 20 -51l-170 -156l198 -240c18 -23 6 -53 -24 -53h-43c-26 0 -41 11 -56 30l-151 191zM242 -50h50
c29 0 41 -24 31 -50l-44 -118c-9 -24 -22 -32 -44 -32h-31c-17 0 -29 12 -26 33l18 126c4 29 20 41 46 41z" />
    <glyph glyph-name="lacute" unicode="&#x13a;" horiz-adv-x="257" 
d="M65 102v608c0 26 13 40 38 40h36c25 0 38 -14 38 -40v-592c0 -18 8 -26 24 -30c15 -4 23 -13 23 -30v-30c0 -23 -17 -35 -45 -35c-64 0 -114 35 -114 109zM168 905h63c26 0 33 -26 12 -44l-55 -47c-19 -16 -32 -19 -51 -19h-38c-20 0 -29 17 -17 34l33 50
c13 20 29 26 53 26z" />
    <glyph glyph-name="lcommaaccent" unicode="&#x13c;" horiz-adv-x="257" 
d="M65 102v608c0 26 13 40 38 40h36c25 0 38 -14 38 -40v-592c0 -18 8 -26 24 -30c15 -4 23 -13 23 -30v-30c0 -23 -17 -35 -45 -35c-64 0 -114 35 -114 109zM120 -50h50c29 0 41 -24 31 -50l-44 -118c-9 -24 -22 -32 -44 -32h-31c-17 0 -29 12 -26 33l18 126
c4 29 20 41 46 41z" />
    <glyph glyph-name="lcaron" unicode="&#x13e;" horiz-adv-x="267" 
d="M65 102v608c0 26 13 40 38 40h36c25 0 38 -14 38 -40v-592c0 -18 8 -26 24 -30c15 -4 23 -13 23 -30v-30c0 -23 -17 -35 -45 -35c-64 0 -114 35 -114 109zM271 750h21c24 0 36 -16 30 -40l-37 -130c-5 -20 -14 -30 -34 -30h-4c-19 0 -26 12 -24 30l12 136
c2 23 14 34 36 34z" />
    <glyph glyph-name="ldot" unicode="&#x140;" horiz-adv-x="384" 
d="M65 102v608c0 26 13 40 38 40h36c25 0 38 -14 38 -40v-592c0 -18 8 -26 24 -30c15 -4 23 -13 23 -30v-30c0 -23 -17 -35 -45 -35c-64 0 -114 35 -114 109zM240 306c0 40 33 73 73 73s73 -33 73 -73s-33 -73 -73 -73s-73 33 -73 73z" />
    <glyph glyph-name="lslash" unicode="&#x142;" horiz-adv-x="304" 
d="M271 406l-76 -45v-243c0 -18 8 -26 24 -30c15 -4 23 -13 23 -30v-30c0 -23 -17 -35 -45 -35c-64 0 -114 35 -114 109v192l-41 -24c-16 -9 -31 0 -31 19v29c0 23 6 28 24 39l48 28v325c0 26 13 40 38 40h36c25 0 38 -14 38 -40v-258l69 41c16 9 31 1 31 -18v-30
c0 -23 -6 -28 -24 -39z" />
    <glyph glyph-name="nacute" unicode="&#x144;" horiz-adv-x="524" 
d="M55 40v427c0 21 11 33 32 33h11c21 0 27 -8 36 -29l5 -11c51 35 108 52 162 52c127 0 172 -63 172 -159v-313c0 -26 -13 -40 -38 -40h-36c-25 0 -38 14 -38 40v303c0 51 -26 74 -79 74c-52 0 -88 -14 -115 -29v-348c0 -26 -13 -40 -38 -40h-36c-25 0 -38 14 -38 40z
M313 750h63c26 0 37 -22 23 -46l-71 -124c-13 -22 -26 -30 -45 -30h-34c-20 0 -29 13 -23 33l41 133c7 22 22 34 46 34z" />
    <glyph glyph-name="ncommaaccent" unicode="&#x146;" horiz-adv-x="524" 
d="M55 40v427c0 21 11 33 32 33h11c21 0 27 -8 36 -29l5 -11c51 35 108 52 162 52c127 0 172 -63 172 -159v-313c0 -26 -13 -40 -38 -40h-36c-25 0 -38 14 -38 40v303c0 51 -26 74 -79 74c-52 0 -88 -14 -115 -29v-348c0 -26 -13 -40 -38 -40h-36c-25 0 -38 14 -38 40z
M243 -50h50c29 0 41 -24 31 -50l-44 -118c-9 -24 -22 -32 -44 -32h-31c-17 0 -29 12 -26 33l18 126c4 29 20 41 46 41z" />
    <glyph glyph-name="ncaron" unicode="&#x148;" horiz-adv-x="524" 
d="M55 40v427c0 21 11 33 32 33h11c21 0 27 -8 36 -29l5 -11c51 35 108 52 162 52c127 0 172 -63 172 -159v-313c0 -26 -13 -40 -38 -40h-36c-25 0 -38 14 -38 40v303c0 51 -26 74 -79 74c-52 0 -88 -14 -115 -29v-348c0 -26 -13 -40 -38 -40h-36c-25 0 -38 14 -38 40z
M181 727l85 -95l85 95c14 16 24 23 47 23h39c17 0 27 -19 13 -37l-109 -136c-18 -23 -28 -27 -50 -27h-50c-22 0 -32 4 -50 27l-109 136c-14 18 -4 37 13 37h39c23 0 33 -7 47 -23z" />
    <glyph glyph-name="eng" unicode="&#x14b;" horiz-adv-x="524" 
d="M361 343c0 51 -26 74 -79 74c-52 0 -88 -14 -115 -29v-348c0 -26 -13 -40 -38 -40h-36c-25 0 -38 14 -38 40v427c0 21 11 33 32 33h11c21 0 27 -8 36 -29l5 -11c51 35 108 52 162 52c127 0 172 -63 172 -159v-443c0 -117 -84 -170 -183 -170c-29 0 -46 12 -46 36v36
c0 20 10 36 38 36c49 0 79 27 79 81v414z" />
    <glyph glyph-name="omacron" unicode="&#x14d;" horiz-adv-x="526" 
d="M263 82c95 0 109 61 109 168s-14 168 -109 168s-109 -61 -109 -168s14 -168 109 -168zM263 -12c-178 0 -222 108 -222 262s44 262 222 262s222 -108 222 -262s-44 -262 -222 -262zM373 605h-220c-25 0 -38 13 -38 37v15c0 24 13 37 38 37h220c25 0 38 -13 38 -37v-15
c0 -24 -13 -37 -38 -37z" />
    <glyph glyph-name="obreve" unicode="&#x14f;" horiz-adv-x="526" 
d="M263 82c95 0 109 61 109 168s-14 168 -109 168s-109 -61 -109 -168s14 -168 109 -168zM263 -12c-178 0 -222 108 -222 262s44 262 222 262s222 -108 222 -262s-44 -262 -222 -262zM263 639c76 0 98 32 103 84c2 18 9 27 29 27h27c18 0 28 -12 27 -29
c-6 -103 -50 -171 -186 -171s-180 68 -186 171c-1 17 9 29 27 29h27c20 0 27 -9 29 -27c5 -52 27 -84 103 -84z" />
    <glyph glyph-name="ohungarumlaut" unicode="&#x151;" horiz-adv-x="526" 
d="M263 82c95 0 109 61 109 168s-14 168 -109 168s-109 -61 -109 -168s14 -168 109 -168zM263 -12c-178 0 -222 108 -222 262s44 262 222 262s222 -108 222 -262s-44 -262 -222 -262zM395 750h63c26 0 37 -22 23 -46l-71 -124c-13 -22 -26 -30 -45 -30h-34
c-20 0 -29 13 -23 33l41 133c7 22 22 34 46 34zM225 750h63c26 0 37 -22 23 -46l-71 -124c-13 -22 -26 -30 -45 -30h-34c-20 0 -29 13 -23 33l41 133c7 22 22 34 46 34z" />
    <glyph glyph-name="oe" unicode="&#x153;" horiz-adv-x="842" 
d="M263 82c95 0 109 61 109 168s-14 168 -109 168s-109 -61 -109 -168s14 -168 109 -168zM595 415c-82 0 -105 -53 -109 -128h200c0 68 -4 128 -91 128zM600 -12c-78 0 -133 24 -169 73c-34 -49 -87 -73 -168 -73c-178 0 -222 108 -222 262s44 262 222 262
c81 0 134 -25 168 -73c35 49 88 73 164 73c176 0 204 -116 204 -254v-9c0 -26 -13 -40 -38 -40h-275c2 -75 29 -124 131 -124c60 0 109 15 128 21c22 7 36 -6 36 -23v-37c0 -19 -7 -30 -28 -37c-28 -9 -89 -21 -153 -21z" />
    <glyph glyph-name="racute" unicode="&#x155;" horiz-adv-x="366" 
d="M295 416c-59 0 -103 -14 -128 -30v-346c0 -26 -13 -40 -38 -40h-36c-25 0 -38 14 -38 40v427c0 21 11 33 32 33h11c21 0 27 -8 36 -29l5 -11c37 30 93 52 158 52c5 0 17 -1 23 -2c23 -4 30 -17 30 -32v-41c0 -15 -9 -26 -30 -23c-9 1 -18 2 -25 2zM255 750h63
c26 0 37 -22 23 -46l-71 -124c-13 -22 -26 -30 -45 -30h-34c-20 0 -29 13 -23 33l41 133c7 22 22 34 46 34z" />
    <glyph glyph-name="rcommaaccent" unicode="&#x157;" horiz-adv-x="366" 
d="M295 416c-59 0 -103 -14 -128 -30v-346c0 -26 -13 -40 -38 -40h-36c-25 0 -38 14 -38 40v427c0 21 11 33 32 33h11c21 0 27 -8 36 -29l5 -11c37 30 93 52 158 52c5 0 17 -1 23 -2c23 -4 30 -17 30 -32v-41c0 -15 -9 -26 -30 -23c-9 1 -18 2 -25 2zM86 -50h50
c29 0 41 -24 31 -50l-44 -118c-9 -24 -22 -32 -44 -32h-31c-17 0 -29 12 -26 33l18 126c4 29 20 41 46 41z" />
    <glyph glyph-name="rcaron" unicode="&#x159;" horiz-adv-x="366" 
d="M295 416c-59 0 -103 -14 -128 -30v-346c0 -26 -13 -40 -38 -40h-36c-25 0 -38 14 -38 40v427c0 21 11 33 32 33h11c21 0 27 -8 36 -29l5 -11c37 30 93 52 158 52c5 0 17 -1 23 -2c23 -4 30 -17 30 -32v-41c0 -15 -9 -26 -30 -23c-9 1 -18 2 -25 2zM123 727l85 -95l85 95
c14 16 24 23 47 23h39c17 0 27 -19 13 -37l-109 -136c-18 -23 -28 -27 -50 -27h-50c-22 0 -32 4 -50 27l-109 136c-14 18 -4 37 13 37h39c23 0 33 -7 47 -23z" />
    <glyph glyph-name="sacute" unicode="&#x15b;" horiz-adv-x="465" 
d="M247 418c-59 0 -96 -17 -96 -62c0 -35 18 -50 83 -56c150 -13 189 -58 189 -151c0 -86 -53 -161 -213 -161c-54 0 -110 9 -139 18c-24 7 -31 24 -31 40v24c0 21 14 39 43 31c21 -6 65 -18 111 -18c80 0 119 18 119 62c0 37 -16 56 -83 62c-151 13 -188 60 -188 146
s56 159 203 159c58 0 100 -7 128 -15c24 -7 32 -23 32 -42v-23c0 -22 -18 -38 -47 -30c-17 4 -54 16 -111 16zM274 750h63c26 0 37 -22 23 -46l-71 -124c-13 -22 -26 -30 -45 -30h-34c-20 0 -29 13 -23 33l41 133c7 22 22 34 46 34z" />
    <glyph glyph-name="scircumflex" unicode="&#x15d;" horiz-adv-x="465" 
d="M247 418c-59 0 -96 -17 -96 -62c0 -35 18 -50 83 -56c150 -13 189 -58 189 -151c0 -86 -53 -161 -213 -161c-54 0 -110 9 -139 18c-24 7 -31 24 -31 40v24c0 21 14 39 43 31c21 -6 65 -18 111 -18c80 0 119 18 119 62c0 37 -16 56 -83 62c-151 13 -188 60 -188 146
s56 159 203 159c58 0 100 -7 128 -15c24 -7 32 -23 32 -42v-23c0 -22 -18 -38 -47 -30c-17 4 -54 16 -111 16zM312 573l-85 95l-85 -95c-14 -16 -24 -23 -47 -23h-39c-17 0 -27 19 -13 37l109 136c18 23 28 27 50 27h50c22 0 32 -4 50 -27l109 -136c14 -18 4 -37 -13 -37
h-39c-23 0 -33 7 -47 23z" />
    <glyph glyph-name="scedilla" unicode="&#x15f;" horiz-adv-x="465" 
d="M247 418c-59 0 -96 -17 -96 -62c0 -35 18 -50 83 -56c150 -13 189 -58 189 -151c0 -79 -44 -148 -174 -159l3 -43c61 -16 94 -54 94 -100c0 -64 -49 -97 -119 -97c-30 0 -52 4 -72 10c-19 6 -25 16 -25 31v24c0 16 10 26 28 21c14 -4 32 -9 54 -9c33 0 54 8 54 30
c0 24 -19 36 -58 45c-16 3 -23 12 -21 26l6 60c-48 2 -96 10 -122 18c-24 7 -31 24 -31 40v24c0 21 14 39 43 31c21 -6 65 -18 111 -18c80 0 119 18 119 62c0 37 -16 56 -83 62c-151 13 -188 60 -188 146s56 159 203 159c58 0 100 -7 128 -15c24 -7 32 -23 32 -42v-23
c0 -22 -18 -38 -47 -30c-17 4 -54 16 -111 16z" />
    <glyph glyph-name="scommaaccent" unicode="&#x219;" horiz-adv-x="465" 
d="M247 418c-59 0 -96 -17 -96 -62c0 -35 18 -50 83 -56c150 -13 189 -58 189 -151c0 -86 -53 -161 -213 -161c-54 0 -110 9 -139 18c-24 7 -31 24 -31 40v24c0 21 14 39 43 31c21 -6 65 -18 111 -18c80 0 119 18 119 62c0 37 -16 56 -83 62c-151 13 -188 60 -188 146
s56 159 203 159c58 0 100 -7 128 -15c24 -7 32 -23 32 -42v-23c0 -22 -18 -38 -47 -30c-17 4 -54 16 -111 16zM207 -50h50c29 0 41 -24 31 -50l-44 -118c-9 -24 -22 -32 -44 -32h-31c-17 0 -29 12 -26 33l18 126c4 29 20 41 46 41z" />
    <glyph glyph-name="scaron" unicode="&#x161;" horiz-adv-x="465" 
d="M247 418c-59 0 -96 -17 -96 -62c0 -35 18 -50 83 -56c150 -13 189 -58 189 -151c0 -86 -53 -161 -213 -161c-54 0 -110 9 -139 18c-24 7 -31 24 -31 40v24c0 21 14 39 43 31c21 -6 65 -18 111 -18c80 0 119 18 119 62c0 37 -16 56 -83 62c-151 13 -188 60 -188 146
s56 159 203 159c58 0 100 -7 128 -15c24 -7 32 -23 32 -42v-23c0 -22 -18 -38 -47 -30c-17 4 -54 16 -111 16zM142 727l85 -95l85 95c14 16 24 23 47 23h39c17 0 27 -19 13 -37l-109 -136c-18 -23 -28 -27 -50 -27h-50c-22 0 -32 4 -50 27l-109 136c-14 18 -4 37 13 37h39
c23 0 33 -7 47 -23z" />
    </font>
</defs>
</svg>
